%TF.GenerationSoftware,KiCad,Pcbnew,8.0.1*%
%TF.CreationDate,2024-06-08T08:25:42+08:00*%
%TF.ProjectId,uno_car,756e6f5f-6361-4722-9e6b-696361645f70,v1.0.2*%
%TF.SameCoordinates,Original*%
%TF.FileFunction,Soldermask,Bot*%
%TF.FilePolarity,Negative*%
%FSLAX46Y46*%
G04 Gerber Fmt 4.6, Leading zero omitted, Abs format (unit mm)*
G04 Created by KiCad (PCBNEW 8.0.1) date 2024-06-08 08:25:42*
%MOMM*%
%LPD*%
G01*
G04 APERTURE LIST*
G04 Aperture macros list*
%AMRoundRect*
0 Rectangle with rounded corners*
0 $1 Rounding radius*
0 $2 $3 $4 $5 $6 $7 $8 $9 X,Y pos of 4 corners*
0 Add a 4 corners polygon primitive as box body*
4,1,4,$2,$3,$4,$5,$6,$7,$8,$9,$2,$3,0*
0 Add four circle primitives for the rounded corners*
1,1,$1+$1,$2,$3*
1,1,$1+$1,$4,$5*
1,1,$1+$1,$6,$7*
1,1,$1+$1,$8,$9*
0 Add four rect primitives between the rounded corners*
20,1,$1+$1,$2,$3,$4,$5,0*
20,1,$1+$1,$4,$5,$6,$7,0*
20,1,$1+$1,$6,$7,$8,$9,0*
20,1,$1+$1,$8,$9,$2,$3,0*%
G04 Aperture macros list end*
%ADD10RoundRect,0.250000X0.725000X-0.600000X0.725000X0.600000X-0.725000X0.600000X-0.725000X-0.600000X0*%
%ADD11O,1.950000X1.700000*%
%ADD12R,2.600000X2.600000*%
%ADD13C,2.600000*%
%ADD14R,1.700000X1.700000*%
%ADD15O,1.700000X1.700000*%
%ADD16RoundRect,0.250000X0.750000X-0.600000X0.750000X0.600000X-0.750000X0.600000X-0.750000X-0.600000X0*%
%ADD17O,2.000000X1.700000*%
%ADD18C,3.000000*%
%ADD19C,2.500000*%
%ADD20C,2.000000*%
%ADD21C,1.524000*%
%ADD22RoundRect,0.250000X-0.600000X-0.725000X0.600000X-0.725000X0.600000X0.725000X-0.600000X0.725000X0*%
%ADD23O,1.700000X1.950000*%
%ADD24R,1.600000X1.600000*%
%ADD25O,1.600000X1.600000*%
G04 APERTURE END LIST*
D10*
%TO.C,J9*%
X189050000Y-76350000D03*
D11*
X189050000Y-73850000D03*
X189050000Y-71350000D03*
X189050000Y-68850000D03*
%TD*%
D10*
%TO.C,J8*%
X180900000Y-90050000D03*
D11*
X180900000Y-87550000D03*
X180900000Y-85050000D03*
X180900000Y-82550000D03*
%TD*%
D12*
%TO.C,J5*%
X148183000Y-77022000D03*
D13*
X148183000Y-82102000D03*
%TD*%
D10*
%TO.C,J10*%
X189050000Y-90050000D03*
D11*
X189050000Y-87550000D03*
X189050000Y-85050000D03*
X189050000Y-82550000D03*
%TD*%
D14*
%TO.C,JP1*%
X169037000Y-90424000D03*
D15*
X171577000Y-90424000D03*
X174117000Y-90424000D03*
%TD*%
D12*
%TO.C,J3*%
X151135000Y-54305000D03*
D13*
X146055000Y-54305000D03*
%TD*%
D16*
%TO.C,J6*%
X190050000Y-62350000D03*
D17*
X190050000Y-59850000D03*
%TD*%
D18*
%TO.C,K1*%
X156675000Y-80400000D03*
D19*
X158625000Y-86450000D03*
D18*
X170825000Y-86450000D03*
X170875000Y-74400000D03*
D19*
X158625000Y-74450000D03*
%TD*%
D10*
%TO.C,J7*%
X180950000Y-76350000D03*
D11*
X180950000Y-73850000D03*
X180950000Y-71350000D03*
X180950000Y-68850000D03*
%TD*%
D20*
%TO.C,SW1*%
X151130000Y-68580000D03*
X144630000Y-68580000D03*
X151130000Y-64080000D03*
X144630000Y-64080000D03*
%TD*%
D12*
%TO.C,J2*%
X158745000Y-95250000D03*
D13*
X163825000Y-95250000D03*
%TD*%
D12*
%TO.C,J4*%
X146045000Y-95250000D03*
D13*
X151125000Y-95250000D03*
%TD*%
D21*
%TO.C,U1*%
X156210000Y-70104000D03*
X158750000Y-70104000D03*
X161290000Y-70104000D03*
X163830000Y-70104000D03*
X166370000Y-70104000D03*
X168910000Y-70104000D03*
X171450000Y-70104000D03*
X173990000Y-70104000D03*
X156210000Y-54864000D03*
X158750000Y-54864000D03*
X161290000Y-54864000D03*
X163830000Y-54864000D03*
X166370000Y-54864000D03*
X168910000Y-54864000D03*
X171450000Y-54864000D03*
X173990000Y-54864000D03*
%TD*%
D22*
%TO.C,J1*%
X170220000Y-94869000D03*
D23*
X172720000Y-94869000D03*
X175220000Y-94869000D03*
%TD*%
D24*
%TO.C,A1*%
X170180000Y-99060000D03*
D25*
X172720000Y-99060000D03*
X175260000Y-99060000D03*
X177800000Y-99060000D03*
X180340000Y-99060000D03*
X182880000Y-99060000D03*
X185420000Y-99060000D03*
X187960000Y-99060000D03*
X193040000Y-99060000D03*
X195580000Y-99060000D03*
X198120000Y-99060000D03*
X200660000Y-99060000D03*
X203200000Y-99060000D03*
X205740000Y-99060000D03*
X205740000Y-50800000D03*
X203200000Y-50800000D03*
X200660000Y-50800000D03*
X198120000Y-50800000D03*
X195580000Y-50800000D03*
X193040000Y-50800000D03*
X190500000Y-50800000D03*
X187960000Y-50800000D03*
X183900000Y-50800000D03*
X181360000Y-50800000D03*
X178820000Y-50800000D03*
X176280000Y-50800000D03*
X173740000Y-50800000D03*
X171200000Y-50800000D03*
X168660000Y-50800000D03*
X166120000Y-50800000D03*
%TD*%
M02*
