%TF.GenerationSoftware,KiCad,Pcbnew,8.0.1*%
%TF.CreationDate,2024-06-08T08:25:42+08:00*%
%TF.ProjectId,uno_car,756e6f5f-6361-4722-9e6b-696361645f70,v1.0.2*%
%TF.SameCoordinates,Original*%
%TF.FileFunction,Copper,L1,Top*%
%TF.FilePolarity,Positive*%
%FSLAX46Y46*%
G04 Gerber Fmt 4.6, Leading zero omitted, Abs format (unit mm)*
G04 Created by KiCad (PCBNEW 8.0.1) date 2024-06-08 08:25:42*
%MOMM*%
%LPD*%
G01*
G04 APERTURE LIST*
G04 Aperture macros list*
%AMRoundRect*
0 Rectangle with rounded corners*
0 $1 Rounding radius*
0 $2 $3 $4 $5 $6 $7 $8 $9 X,Y pos of 4 corners*
0 Add a 4 corners polygon primitive as box body*
4,1,4,$2,$3,$4,$5,$6,$7,$8,$9,$2,$3,0*
0 Add four circle primitives for the rounded corners*
1,1,$1+$1,$2,$3*
1,1,$1+$1,$4,$5*
1,1,$1+$1,$6,$7*
1,1,$1+$1,$8,$9*
0 Add four rect primitives between the rounded corners*
20,1,$1+$1,$2,$3,$4,$5,0*
20,1,$1+$1,$4,$5,$6,$7,0*
20,1,$1+$1,$6,$7,$8,$9,0*
20,1,$1+$1,$8,$9,$2,$3,0*%
G04 Aperture macros list end*
%TA.AperFunction,SMDPad,CuDef*%
%ADD10RoundRect,0.218750X-0.218750X-0.256250X0.218750X-0.256250X0.218750X0.256250X-0.218750X0.256250X0*%
%TD*%
%TA.AperFunction,ComponentPad*%
%ADD11RoundRect,0.250000X0.725000X-0.600000X0.725000X0.600000X-0.725000X0.600000X-0.725000X-0.600000X0*%
%TD*%
%TA.AperFunction,ComponentPad*%
%ADD12O,1.950000X1.700000*%
%TD*%
%TA.AperFunction,SMDPad,CuDef*%
%ADD13RoundRect,0.200000X0.275000X-0.200000X0.275000X0.200000X-0.275000X0.200000X-0.275000X-0.200000X0*%
%TD*%
%TA.AperFunction,ComponentPad*%
%ADD14R,2.600000X2.600000*%
%TD*%
%TA.AperFunction,ComponentPad*%
%ADD15C,2.600000*%
%TD*%
%TA.AperFunction,ComponentPad*%
%ADD16R,1.700000X1.700000*%
%TD*%
%TA.AperFunction,ComponentPad*%
%ADD17O,1.700000X1.700000*%
%TD*%
%TA.AperFunction,SMDPad,CuDef*%
%ADD18RoundRect,0.200000X0.200000X0.275000X-0.200000X0.275000X-0.200000X-0.275000X0.200000X-0.275000X0*%
%TD*%
%TA.AperFunction,ComponentPad*%
%ADD19RoundRect,0.250000X0.750000X-0.600000X0.750000X0.600000X-0.750000X0.600000X-0.750000X-0.600000X0*%
%TD*%
%TA.AperFunction,ComponentPad*%
%ADD20O,2.000000X1.700000*%
%TD*%
%TA.AperFunction,SMDPad,CuDef*%
%ADD21RoundRect,0.218750X0.218750X0.256250X-0.218750X0.256250X-0.218750X-0.256250X0.218750X-0.256250X0*%
%TD*%
%TA.AperFunction,ComponentPad*%
%ADD22C,3.000000*%
%TD*%
%TA.AperFunction,ComponentPad*%
%ADD23C,2.500000*%
%TD*%
%TA.AperFunction,SMDPad,CuDef*%
%ADD24RoundRect,0.150000X0.825000X0.150000X-0.825000X0.150000X-0.825000X-0.150000X0.825000X-0.150000X0*%
%TD*%
%TA.AperFunction,SMDPad,CuDef*%
%ADD25R,1.750000X0.450000*%
%TD*%
%TA.AperFunction,SMDPad,CuDef*%
%ADD26RoundRect,0.225000X-0.250000X0.225000X-0.250000X-0.225000X0.250000X-0.225000X0.250000X0.225000X0*%
%TD*%
%TA.AperFunction,ComponentPad*%
%ADD27C,2.000000*%
%TD*%
%TA.AperFunction,SMDPad,CuDef*%
%ADD28RoundRect,0.200000X-0.200000X-0.275000X0.200000X-0.275000X0.200000X0.275000X-0.200000X0.275000X0*%
%TD*%
%TA.AperFunction,ComponentPad*%
%ADD29C,1.524000*%
%TD*%
%TA.AperFunction,ComponentPad*%
%ADD30RoundRect,0.250000X-0.600000X-0.725000X0.600000X-0.725000X0.600000X0.725000X-0.600000X0.725000X0*%
%TD*%
%TA.AperFunction,ComponentPad*%
%ADD31O,1.700000X1.950000*%
%TD*%
%TA.AperFunction,ComponentPad*%
%ADD32R,1.600000X1.600000*%
%TD*%
%TA.AperFunction,ComponentPad*%
%ADD33O,1.600000X1.600000*%
%TD*%
%TA.AperFunction,ViaPad*%
%ADD34C,0.600000*%
%TD*%
%TA.AperFunction,Conductor*%
%ADD35C,0.200000*%
%TD*%
%TA.AperFunction,Conductor*%
%ADD36C,0.400000*%
%TD*%
G04 APERTURE END LIST*
D10*
%TO.P,D4,1,K*%
%TO.N,Net-(D4-K)*%
X207212500Y-80600000D03*
%TO.P,D4,2,A*%
%TO.N,Net-(D4-A)*%
X208787500Y-80600000D03*
%TD*%
D11*
%TO.P,J9,1,Pin_1*%
%TO.N,Net-(J9-Pin_1)*%
X189050000Y-76350000D03*
D12*
%TO.P,J9,2,Pin_2*%
%TO.N,Net-(J9-Pin_2)*%
X189050000Y-73850000D03*
%TO.P,J9,3,Pin_3*%
%TO.N,Net-(J9-Pin_3)*%
X189050000Y-71350000D03*
%TO.P,J9,4,Pin_4*%
%TO.N,Net-(J9-Pin_4)*%
X189050000Y-68850000D03*
%TD*%
D13*
%TO.P,R1,1*%
%TO.N,+5V*%
X182950000Y-96125000D03*
%TO.P,R1,2*%
%TO.N,Net-(D1-A)*%
X182950000Y-94475000D03*
%TD*%
D10*
%TO.P,D2,1*%
%TO.N,Net-(D2-Pad1)*%
X198237500Y-65150000D03*
%TO.P,D2,2*%
%TO.N,GND*%
X199812500Y-65150000D03*
%TD*%
%TO.P,D12,1,K*%
%TO.N,Net-(D12-K)*%
X198275000Y-59750000D03*
%TO.P,D12,2,A*%
%TO.N,Net-(A1-D1{slash}TX)*%
X199850000Y-59750000D03*
%TD*%
D11*
%TO.P,J8,1,Pin_1*%
%TO.N,Net-(J8-Pin_1)*%
X180900000Y-90050000D03*
D12*
%TO.P,J8,2,Pin_2*%
%TO.N,Net-(J8-Pin_2)*%
X180900000Y-87550000D03*
%TO.P,J8,3,Pin_3*%
%TO.N,Net-(J8-Pin_3)*%
X180900000Y-85050000D03*
%TO.P,J8,4,Pin_4*%
%TO.N,Net-(J8-Pin_4)*%
X180900000Y-82550000D03*
%TD*%
D10*
%TO.P,D3,1,K*%
%TO.N,Net-(D3-K)*%
X207212500Y-84221400D03*
%TO.P,D3,2,A*%
%TO.N,Net-(D3-A)*%
X208787500Y-84221400D03*
%TD*%
D14*
%TO.P,J5,1,Pin_1*%
%TO.N,Net-(J5-Pin_1)*%
X148183000Y-77022000D03*
D15*
%TO.P,J5,2,Pin_2*%
%TO.N,GND*%
X148183000Y-82102000D03*
%TD*%
D10*
%TO.P,D8,1,K*%
%TO.N,Net-(D8-K)*%
X207309900Y-66114300D03*
%TO.P,D8,2,A*%
%TO.N,Net-(D8-A)*%
X208884900Y-66114300D03*
%TD*%
%TO.P,D10,1,K*%
%TO.N,Net-(D10-K)*%
X207309900Y-87842900D03*
%TO.P,D10,2,A*%
%TO.N,Net-(D10-A)*%
X208884900Y-87842900D03*
%TD*%
D11*
%TO.P,J10,1,Pin_1*%
%TO.N,Net-(J10-Pin_1)*%
X189050000Y-90050000D03*
D12*
%TO.P,J10,2,Pin_2*%
%TO.N,Net-(J10-Pin_2)*%
X189050000Y-87550000D03*
%TO.P,J10,3,Pin_3*%
%TO.N,Net-(J10-Pin_3)*%
X189050000Y-85050000D03*
%TO.P,J10,4,Pin_4*%
%TO.N,Net-(J10-Pin_4)*%
X189050000Y-82550000D03*
%TD*%
D16*
%TO.P,JP1,1,A*%
%TO.N,Net-(JP1-A)*%
X169037000Y-90424000D03*
D17*
%TO.P,JP1,2,C*%
%TO.N,Net-(J2-Pin_1)*%
X171577000Y-90424000D03*
%TO.P,JP1,3,B*%
%TO.N,Net-(JP1-B)*%
X174117000Y-90424000D03*
%TD*%
D18*
%TO.P,R14,1*%
%TO.N,Net-(D10-K)*%
X204541400Y-87842900D03*
%TO.P,R14,2*%
%TO.N,+5V*%
X202891400Y-87842900D03*
%TD*%
D14*
%TO.P,J3,1,Pin_1*%
%TO.N,Net-(J3-Pin_1)*%
X151135000Y-54305000D03*
D15*
%TO.P,J3,2,Pin_2*%
%TO.N,Net-(J3-Pin_2)*%
X146055000Y-54305000D03*
%TD*%
D19*
%TO.P,J6,1,Pin_1*%
%TO.N,+3V3*%
X190050000Y-62350000D03*
D20*
%TO.P,J6,2,Pin_2*%
%TO.N,GND*%
X190050000Y-59850000D03*
%TD*%
D18*
%TO.P,R2,1*%
%TO.N,Net-(D1-K)*%
X181400000Y-96100000D03*
%TO.P,R2,2*%
%TO.N,+5V*%
X179750000Y-96100000D03*
%TD*%
D21*
%TO.P,D1,1,K*%
%TO.N,Net-(D1-K)*%
X181387500Y-94500000D03*
%TO.P,D1,2,A*%
%TO.N,Net-(D1-A)*%
X179812500Y-94500000D03*
%TD*%
D10*
%TO.P,D6,1,K*%
%TO.N,Net-(D6-K)*%
X207309900Y-73357100D03*
%TO.P,D6,2,A*%
%TO.N,Net-(D6-A)*%
X208884900Y-73357100D03*
%TD*%
%TO.P,D7,1,K*%
%TO.N,Net-(D7-K)*%
X207309900Y-69735700D03*
%TO.P,D7,2,A*%
%TO.N,Net-(D7-A)*%
X208884900Y-69735700D03*
%TD*%
D18*
%TO.P,R8,1*%
%TO.N,Net-(D4-K)*%
X204444000Y-80600000D03*
%TO.P,R8,2*%
%TO.N,+5V*%
X202794000Y-80600000D03*
%TD*%
%TO.P,R7,1*%
%TO.N,Net-(D3-K)*%
X204444000Y-84221400D03*
%TO.P,R7,2*%
%TO.N,+5V*%
X202794000Y-84221400D03*
%TD*%
D22*
%TO.P,K1,1*%
%TO.N,Net-(J2-Pin_2)*%
X156675000Y-80400000D03*
D23*
%TO.P,K1,2*%
%TO.N,Net-(D1-A)*%
X158625000Y-86450000D03*
D22*
%TO.P,K1,3*%
%TO.N,Net-(JP1-A)*%
X170825000Y-86450000D03*
%TO.P,K1,4*%
%TO.N,Net-(JP1-B)*%
X170875000Y-74400000D03*
D23*
%TO.P,K1,5*%
%TO.N,+5V*%
X158625000Y-74450000D03*
%TD*%
D24*
%TO.P,U2,1,QB*%
%TO.N,Net-(D4-A)*%
X199866400Y-79527900D03*
%TO.P,U2,2,QC*%
%TO.N,Net-(D5-A)*%
X199866400Y-78257900D03*
%TO.P,U2,3,QD*%
%TO.N,Net-(D6-A)*%
X199866400Y-76987900D03*
%TO.P,U2,4,QE*%
%TO.N,Net-(D7-A)*%
X199866400Y-75717900D03*
%TO.P,U2,5,QF*%
%TO.N,Net-(D8-A)*%
X199866400Y-74447900D03*
%TO.P,U2,6,QG*%
%TO.N,Net-(D9-A)*%
X199866400Y-73177900D03*
%TO.P,U2,7,QH*%
%TO.N,Net-(D10-A)*%
X199866400Y-71907900D03*
%TO.P,U2,8,GND*%
%TO.N,GND*%
X199866400Y-70637900D03*
%TO.P,U2,9,QH'*%
%TO.N,unconnected-(U2-QH'-Pad9)*%
X194916400Y-70637900D03*
%TO.P,U2,10,~{SRCLR}*%
%TO.N,unconnected-(U2-~{SRCLR}-Pad10)*%
X194916400Y-71907900D03*
%TO.P,U2,11,SRCLK*%
%TO.N,/LEDS_CK*%
X194916400Y-73177900D03*
%TO.P,U2,12,RCLK*%
%TO.N,/LEDS_LATCH*%
X194916400Y-74447900D03*
%TO.P,U2,13,~{OE}*%
%TO.N,GND*%
X194916400Y-75717900D03*
%TO.P,U2,14,SER*%
%TO.N,/LEDS_DATA*%
X194916400Y-76987900D03*
%TO.P,U2,15,QA*%
%TO.N,Net-(D3-A)*%
X194916400Y-78257900D03*
%TO.P,U2,16,VCC*%
%TO.N,+5V*%
X194916400Y-79527900D03*
%TD*%
D10*
%TO.P,D9,1,K*%
%TO.N,Net-(D9-K)*%
X207309900Y-62492900D03*
%TO.P,D9,2,A*%
%TO.N,Net-(D9-A)*%
X208884900Y-62492900D03*
%TD*%
D18*
%TO.P,R9,1*%
%TO.N,Net-(D5-K)*%
X204444000Y-76978600D03*
%TO.P,R9,2*%
%TO.N,+5V*%
X202794000Y-76978600D03*
%TD*%
D11*
%TO.P,J7,1,Pin_1*%
%TO.N,Net-(J7-Pin_1)*%
X180950000Y-76350000D03*
D12*
%TO.P,J7,2,Pin_2*%
%TO.N,Net-(J7-Pin_2)*%
X180950000Y-73850000D03*
%TO.P,J7,3,Pin_3*%
%TO.N,Net-(J7-Pin_3)*%
X180950000Y-71350000D03*
%TO.P,J7,4,Pin_4*%
%TO.N,Net-(J7-Pin_4)*%
X180950000Y-68850000D03*
%TD*%
D25*
%TO.P,U4,1,COM*%
%TO.N,/SIG*%
X186450000Y-64725000D03*
%TO.P,U4,2,I7*%
%TO.N,Net-(J8-Pin_4)*%
X186450000Y-64075000D03*
%TO.P,U4,3,I6*%
%TO.N,Net-(J8-Pin_3)*%
X186450000Y-63425000D03*
%TO.P,U4,4,I5*%
%TO.N,Net-(J8-Pin_2)*%
X186450000Y-62775000D03*
%TO.P,U4,5,I4*%
%TO.N,Net-(J8-Pin_1)*%
X186450000Y-62125000D03*
%TO.P,U4,6,I3*%
%TO.N,Net-(J7-Pin_4)*%
X186450000Y-61475000D03*
%TO.P,U4,7,I2*%
%TO.N,Net-(J7-Pin_3)*%
X186450000Y-60825000D03*
%TO.P,U4,8,I1*%
%TO.N,Net-(J7-Pin_2)*%
X186450000Y-60175000D03*
%TO.P,U4,9,I0*%
%TO.N,Net-(J7-Pin_1)*%
X186450000Y-59525000D03*
%TO.P,U4,10,S0*%
%TO.N,/S0*%
X186450000Y-58875000D03*
%TO.P,U4,11,S1*%
%TO.N,/S1*%
X186450000Y-58225000D03*
%TO.P,U4,12,GND*%
%TO.N,GND*%
X186450000Y-57575000D03*
%TO.P,U4,13,S3*%
%TO.N,/S3*%
X179250000Y-57575000D03*
%TO.P,U4,14,S2*%
%TO.N,/S2*%
X179250000Y-58225000D03*
%TO.P,U4,15,~{E}*%
%TO.N,Net-(U4-~{E})*%
X179250000Y-58875000D03*
%TO.P,U4,16,I15*%
%TO.N,Net-(J10-Pin_4)*%
X179250000Y-59525000D03*
%TO.P,U4,17,I14*%
%TO.N,Net-(J10-Pin_3)*%
X179250000Y-60175000D03*
%TO.P,U4,18,I13*%
%TO.N,Net-(J10-Pin_2)*%
X179250000Y-60825000D03*
%TO.P,U4,19,I12*%
%TO.N,Net-(J10-Pin_1)*%
X179250000Y-61475000D03*
%TO.P,U4,20,I11*%
%TO.N,Net-(J9-Pin_4)*%
X179250000Y-62125000D03*
%TO.P,U4,21,I10*%
%TO.N,Net-(J9-Pin_3)*%
X179250000Y-62775000D03*
%TO.P,U4,22,I9*%
%TO.N,Net-(J9-Pin_2)*%
X179250000Y-63425000D03*
%TO.P,U4,23,I8*%
%TO.N,Net-(J9-Pin_1)*%
X179250000Y-64075000D03*
%TO.P,U4,24,VCC*%
%TO.N,+5V*%
X179250000Y-64725000D03*
%TD*%
D10*
%TO.P,D5,1,K*%
%TO.N,Net-(D5-K)*%
X207212500Y-76978600D03*
%TO.P,D5,2,A*%
%TO.N,Net-(D5-A)*%
X208787500Y-76978600D03*
%TD*%
D26*
%TO.P,C1,1*%
%TO.N,GND*%
X177300000Y-63175000D03*
%TO.P,C1,2*%
%TO.N,+5V*%
X177300000Y-64725000D03*
%TD*%
D27*
%TO.P,SW1,1,1*%
%TO.N,Net-(A1-~{RESET})*%
X151130000Y-68580000D03*
X144630000Y-68580000D03*
%TO.P,SW1,2,2*%
%TO.N,GND*%
X151130000Y-64080000D03*
X144630000Y-64080000D03*
%TD*%
D18*
%TO.P,R13,1*%
%TO.N,Net-(D9-K)*%
X204541400Y-62492900D03*
%TO.P,R13,2*%
%TO.N,+5V*%
X202891400Y-62492900D03*
%TD*%
D14*
%TO.P,J2,1,Pin_1*%
%TO.N,Net-(J2-Pin_1)*%
X158745000Y-95250000D03*
D15*
%TO.P,J2,2,Pin_2*%
%TO.N,Net-(J2-Pin_2)*%
X163825000Y-95250000D03*
%TD*%
D14*
%TO.P,J4,1,Pin_1*%
%TO.N,Net-(J4-Pin_1)*%
X146045000Y-95250000D03*
D15*
%TO.P,J4,2,Pin_2*%
%TO.N,Net-(J4-Pin_2)*%
X151125000Y-95250000D03*
%TD*%
D28*
%TO.P,R5,1*%
%TO.N,+5V*%
X195100000Y-62450000D03*
%TO.P,R5,2*%
%TO.N,Net-(D11-K)*%
X196750000Y-62450000D03*
%TD*%
%TO.P,R23,1*%
%TO.N,Net-(U4-~{E})*%
X178825000Y-55850000D03*
%TO.P,R23,2*%
%TO.N,GND*%
X180475000Y-55850000D03*
%TD*%
%TO.P,R6,1*%
%TO.N,+5V*%
X195100000Y-59800000D03*
%TO.P,R6,2*%
%TO.N,Net-(D12-K)*%
X196750000Y-59800000D03*
%TD*%
D18*
%TO.P,R11,1*%
%TO.N,Net-(D7-K)*%
X204541400Y-69735700D03*
%TO.P,R11,2*%
%TO.N,+5V*%
X202891400Y-69735700D03*
%TD*%
%TO.P,R12,1*%
%TO.N,Net-(D8-K)*%
X204541400Y-66114300D03*
%TO.P,R12,2*%
%TO.N,+5V*%
X202891400Y-66114300D03*
%TD*%
D29*
%TO.P,U1,1,VM*%
%TO.N,Net-(J5-Pin_1)*%
X156210000Y-70104000D03*
%TO.P,U1,2,VCC*%
%TO.N,+5V*%
X158750000Y-70104000D03*
%TO.P,U1,3,GND*%
%TO.N,GND*%
X161290000Y-70104000D03*
%TO.P,U1,4,AO1*%
%TO.N,Net-(J3-Pin_2)*%
X163830000Y-70104000D03*
%TO.P,U1,5,AO2*%
%TO.N,Net-(J3-Pin_1)*%
X166370000Y-70104000D03*
%TO.P,U1,6,BO2*%
%TO.N,Net-(J4-Pin_1)*%
X168910000Y-70104000D03*
%TO.P,U1,7,BO1*%
%TO.N,Net-(J4-Pin_2)*%
X171450000Y-70104000D03*
%TO.P,U1,8,GND*%
%TO.N,GND*%
X173990000Y-70104000D03*
%TO.P,U1,9,PWMA*%
%TO.N,/PWMA*%
X156210000Y-54864000D03*
%TO.P,U1,10,AIN2*%
%TO.N,/AIN2*%
X158750000Y-54864000D03*
%TO.P,U1,11,AIN1*%
%TO.N,/AIN1*%
X161290000Y-54864000D03*
%TO.P,U1,12,STBY*%
%TO.N,/STBY*%
X163830000Y-54864000D03*
%TO.P,U1,13,BIN1*%
%TO.N,/BIN1*%
X166370000Y-54864000D03*
%TO.P,U1,14,BIN2*%
%TO.N,/BIN2*%
X168910000Y-54864000D03*
%TO.P,U1,15,PWMB*%
%TO.N,/PWMB*%
X171450000Y-54864000D03*
%TO.P,U1,16,GND*%
%TO.N,GND*%
X173990000Y-54864000D03*
%TD*%
D10*
%TO.P,D11,1,K*%
%TO.N,Net-(D11-K)*%
X198265500Y-62450000D03*
%TO.P,D11,2,A*%
%TO.N,Net-(A1-D0{slash}RX)*%
X199840500Y-62450000D03*
%TD*%
D28*
%TO.P,R3,1*%
%TO.N,+5V*%
X195100000Y-65150000D03*
%TO.P,R3,2*%
%TO.N,Net-(D2-Pad1)*%
X196750000Y-65150000D03*
%TD*%
D18*
%TO.P,R10,1*%
%TO.N,Net-(D6-K)*%
X204541400Y-73357100D03*
%TO.P,R10,2*%
%TO.N,+5V*%
X202891400Y-73357100D03*
%TD*%
D30*
%TO.P,J1,1,Pin_1*%
%TO.N,GND*%
X170220000Y-94869000D03*
D31*
%TO.P,J1,2,Pin_2*%
%TO.N,Net-(D1-A)*%
X172720000Y-94869000D03*
%TO.P,J1,3,Pin_3*%
%TO.N,+5V*%
X175220000Y-94869000D03*
%TD*%
D32*
%TO.P,A1,1,NC*%
%TO.N,unconnected-(A1-NC-Pad1)*%
X170180000Y-99060000D03*
D33*
%TO.P,A1,2,IOREF*%
%TO.N,unconnected-(A1-IOREF-Pad2)*%
X172720000Y-99060000D03*
%TO.P,A1,3,~{RESET}*%
%TO.N,Net-(A1-~{RESET})*%
X175260000Y-99060000D03*
%TO.P,A1,4,3V3*%
%TO.N,+3V3*%
X177800000Y-99060000D03*
%TO.P,A1,5,+5V*%
%TO.N,+5V*%
X180340000Y-99060000D03*
%TO.P,A1,6,GND*%
%TO.N,GND*%
X182880000Y-99060000D03*
%TO.P,A1,7,GND*%
X185420000Y-99060000D03*
%TO.P,A1,8,VIN*%
%TO.N,VCC*%
X187960000Y-99060000D03*
%TO.P,A1,9,A0*%
%TO.N,/SIG*%
X193040000Y-99060000D03*
%TO.P,A1,10,A1*%
%TO.N,/LEDS_CK*%
X195580000Y-99060000D03*
%TO.P,A1,11,A2*%
%TO.N,/LEDS_LATCH*%
X198120000Y-99060000D03*
%TO.P,A1,12,A3*%
%TO.N,/LEDS_DATA*%
X200660000Y-99060000D03*
%TO.P,A1,13,SDA/A4*%
%TO.N,unconnected-(A1-SDA{slash}A4-Pad13)*%
X203200000Y-99060000D03*
%TO.P,A1,14,SCL/A5*%
%TO.N,unconnected-(A1-SCL{slash}A5-Pad14)*%
X205740000Y-99060000D03*
%TO.P,A1,15,D0/RX*%
%TO.N,Net-(A1-D0{slash}RX)*%
X205740000Y-50800000D03*
%TO.P,A1,16,D1/TX*%
%TO.N,Net-(A1-D1{slash}TX)*%
X203200000Y-50800000D03*
%TO.P,A1,17,D2*%
%TO.N,/S0*%
X200660000Y-50800000D03*
%TO.P,A1,18,D3*%
%TO.N,/S1*%
X198120000Y-50800000D03*
%TO.P,A1,19,D4*%
%TO.N,/S2*%
X195580000Y-50800000D03*
%TO.P,A1,20,D5*%
%TO.N,/PWMB*%
X193040000Y-50800000D03*
%TO.P,A1,21,D6*%
%TO.N,/BIN2*%
X190500000Y-50800000D03*
%TO.P,A1,22,D7*%
%TO.N,/BIN1*%
X187960000Y-50800000D03*
%TO.P,A1,23,D8*%
%TO.N,/STBY*%
X183900000Y-50800000D03*
%TO.P,A1,24,D9*%
%TO.N,/AIN1*%
X181360000Y-50800000D03*
%TO.P,A1,25,D10*%
%TO.N,/AIN2*%
X178820000Y-50800000D03*
%TO.P,A1,26,D11*%
%TO.N,/PWMA*%
X176280000Y-50800000D03*
%TO.P,A1,27,D12*%
%TO.N,/S3*%
X173740000Y-50800000D03*
%TO.P,A1,28,D13*%
%TO.N,unconnected-(A1-D13-Pad28)*%
X171200000Y-50800000D03*
%TO.P,A1,29,GND*%
%TO.N,GND*%
X168660000Y-50800000D03*
%TO.P,A1,30,AREF*%
%TO.N,unconnected-(A1-AREF-Pad30)*%
X166120000Y-50800000D03*
%TD*%
D34*
%TO.N,GND*%
X195850000Y-95520000D03*
X194450000Y-96660000D03*
X167640000Y-76200000D03*
X187855000Y-57580900D03*
X197130000Y-94250000D03*
%TO.N,/S3*%
X178846000Y-56835300D03*
%TO.N,Net-(J9-Pin_1)*%
X180814000Y-64467600D03*
%TO.N,Net-(J9-Pin_2)*%
X181041283Y-63700563D03*
%TO.N,Net-(J9-Pin_4)*%
X181795700Y-62125000D03*
%TO.N,Net-(J9-Pin_3)*%
X180964249Y-62775000D03*
%TO.N,Net-(J10-Pin_1)*%
X177867000Y-62085700D03*
%TO.N,Net-(J10-Pin_2)*%
X180636000Y-60825000D03*
%TO.N,Net-(J10-Pin_4)*%
X182100000Y-59961300D03*
%TO.N,Net-(J10-Pin_3)*%
X181233192Y-60175000D03*
%TD*%
D35*
%TO.N,/BIN1*%
X167459000Y-53775000D02*
X166370000Y-54864000D01*
X185793100Y-52966900D02*
X170064472Y-52966900D01*
X169256370Y-53775000D02*
X167459000Y-53775000D01*
X187960000Y-50800000D02*
X185793100Y-52966900D01*
X170064472Y-52966900D02*
X169256370Y-53775000D01*
%TO.N,GND*%
X194916400Y-75717900D02*
X196532100Y-75717900D01*
X180475000Y-55850000D02*
X180475000Y-54875000D01*
X161290000Y-70104000D02*
X162352000Y-71166000D01*
X176209000Y-54625000D02*
X174980000Y-55854000D01*
X174980000Y-55854000D02*
X173990000Y-54864000D01*
X193290000Y-61150000D02*
X193290000Y-65020000D01*
X197240000Y-71390000D02*
X197992100Y-70637900D01*
X151130000Y-64080000D02*
X149975000Y-62925000D01*
X174000000Y-70094000D02*
X173990000Y-70104000D01*
X197992100Y-70637900D02*
X199866400Y-70637900D01*
X197240000Y-75010000D02*
X197240000Y-71390000D01*
X193290000Y-65020000D02*
X194520000Y-66250000D01*
X149975000Y-62925000D02*
X145785000Y-62925000D01*
X187633000Y-57580900D02*
X187855000Y-57580900D01*
X176300000Y-63175000D02*
X177300000Y-63175000D01*
X196532100Y-75717900D02*
X197240000Y-75010000D01*
X194520000Y-66250000D02*
X199812500Y-66250000D01*
X180475000Y-54875000D02*
X180225000Y-54625000D01*
X173990000Y-70104000D02*
X174980000Y-69114000D01*
X162352000Y-71166000D02*
X172928000Y-71166000D01*
X199812500Y-70584000D02*
X199866400Y-70637900D01*
X191990000Y-59850000D02*
X193290000Y-61150000D01*
X194916000Y-75717900D02*
X194916400Y-75717900D01*
X187627000Y-57575000D02*
X187633000Y-57580900D01*
X145785000Y-62925000D02*
X144630000Y-64080000D01*
X185420000Y-99060000D02*
X182880000Y-99060000D01*
X180225000Y-54625000D02*
X176209000Y-54625000D01*
X172928000Y-71166000D02*
X173990000Y-70104000D01*
X190050000Y-59850000D02*
X191990000Y-59850000D01*
X174980000Y-61855000D02*
X176300000Y-63175000D01*
X174980000Y-69114000D02*
X174980000Y-64545000D01*
X186450000Y-57575000D02*
X187627000Y-57575000D01*
X174980000Y-55854000D02*
X174980000Y-61855000D01*
X174980000Y-64545000D02*
X176350000Y-63175000D01*
X199812500Y-65150000D02*
X199812500Y-70584000D01*
%TO.N,/AIN2*%
X169898786Y-52566900D02*
X169090685Y-53375000D01*
X178820000Y-50800000D02*
X177053100Y-52566900D01*
X169090685Y-53375000D02*
X160239000Y-53375000D01*
X160239000Y-53375000D02*
X158750000Y-54864000D01*
X177053100Y-52566900D02*
X169898786Y-52566900D01*
%TO.N,/S1*%
X198120000Y-50800000D02*
X198120000Y-50830000D01*
X190725000Y-58225000D02*
X186450000Y-58225000D01*
X198120000Y-50830000D02*
X190725000Y-58225000D01*
%TO.N,/BIN2*%
X170230157Y-53366900D02*
X187933100Y-53366900D01*
X168910000Y-54864000D02*
X168910000Y-54687055D01*
X187933100Y-53366900D02*
X190500000Y-50800000D01*
X168910000Y-54687055D02*
X170230157Y-53366900D01*
%TO.N,/S3*%
X179250000Y-57239300D02*
X179250000Y-57575000D01*
X178846000Y-56835300D02*
X179250000Y-57239300D01*
%TO.N,/SIG*%
X186450000Y-64725000D02*
X186450000Y-92470000D01*
X186450000Y-92470000D02*
X193040000Y-99060000D01*
%TO.N,/S2*%
X183516000Y-56626000D02*
X181917000Y-58225000D01*
X181917000Y-58225000D02*
X179250000Y-58225000D01*
X195580000Y-50800000D02*
X195580000Y-50820000D01*
X195580000Y-50820000D02*
X189774000Y-56626000D01*
X189774000Y-56626000D02*
X183516000Y-56626000D01*
%TO.N,+5V*%
X194916000Y-79527900D02*
X194916200Y-79528100D01*
X198560000Y-72858692D02*
X198878692Y-72540000D01*
X202891000Y-68836600D02*
X202891400Y-68837000D01*
X180340000Y-96917600D02*
X182157400Y-96917600D01*
X202800000Y-87751500D02*
X202891000Y-87842900D01*
X179750000Y-96327600D02*
X179750000Y-96100000D01*
X202794000Y-76978600D02*
X202151000Y-77621400D01*
X158625000Y-74450000D02*
X158750000Y-74325000D01*
X201148500Y-75100000D02*
X202891400Y-73357100D01*
X158559000Y-74450000D02*
X158625000Y-74450000D01*
X182157400Y-96917600D02*
X182950000Y-96125000D01*
X202891000Y-66427300D02*
X202891000Y-68836600D01*
X202151000Y-77621400D02*
X198771400Y-77621400D01*
X194916200Y-79528100D02*
X195988000Y-80600000D01*
X202673000Y-63800000D02*
X196450000Y-63800000D01*
X187175000Y-96125000D02*
X191710000Y-100660000D01*
X191710000Y-100660000D02*
X203690000Y-100660000D01*
X198878692Y-72540000D02*
X200896600Y-72540000D01*
X177300000Y-64725000D02*
X177300000Y-74167000D01*
X167821000Y-83646000D02*
X158625000Y-74450000D01*
X204498900Y-89450000D02*
X205048900Y-88900000D01*
X182950000Y-96125000D02*
X187175000Y-96125000D01*
X202794000Y-84221400D02*
X202794000Y-80600000D01*
X198560000Y-77410000D02*
X198560000Y-75100000D01*
X202673000Y-62711000D02*
X202891000Y-62492900D01*
X180340000Y-96917600D02*
X179750000Y-96327600D01*
X196450000Y-63800000D02*
X195100000Y-65150000D01*
X204500000Y-89451100D02*
X202891800Y-87842900D01*
X172864000Y-97225000D02*
X175220000Y-94869000D01*
X177300000Y-74167000D02*
X167821000Y-83646000D01*
X167821000Y-96080314D02*
X168965686Y-97225000D01*
X202891800Y-87842900D02*
X202891400Y-87842900D01*
X203690000Y-100660000D02*
X204500000Y-99850000D01*
X180340000Y-99060000D02*
X180340000Y-96917600D01*
X202891400Y-87842900D02*
X202891000Y-87842900D01*
X202673000Y-63800000D02*
X202891000Y-64018100D01*
X158759000Y-74650000D02*
X158750000Y-74650000D01*
X158750000Y-74325000D02*
X158750000Y-70104000D01*
X177300000Y-64725000D02*
X179250000Y-64725000D01*
X179750000Y-96100000D02*
X178519000Y-94869000D01*
X202891000Y-66427300D02*
X202891400Y-66426900D01*
X195100000Y-62450000D02*
X195100000Y-59800000D01*
X178519000Y-94869000D02*
X175220000Y-94869000D01*
X158550000Y-74441000D02*
X158559000Y-74450000D01*
X195988000Y-80600000D02*
X202794000Y-80600000D01*
X202891000Y-64018100D02*
X202891000Y-66427300D01*
X203589000Y-76183300D02*
X202794000Y-76978600D01*
X200896600Y-72540000D02*
X202891000Y-70545600D01*
X198560000Y-75100000D02*
X198560000Y-72858692D01*
X202891400Y-62492900D02*
X202891000Y-62492900D01*
X198560000Y-75100000D02*
X201148500Y-75100000D01*
X209984000Y-76935300D02*
X209232000Y-76183300D01*
X202673000Y-63800000D02*
X202673000Y-62711000D01*
X194916400Y-79527900D02*
X194916200Y-79528100D01*
X205048900Y-88900000D02*
X209300000Y-88900000D01*
X202794000Y-84221400D02*
X202800000Y-84227400D01*
X204500000Y-99850000D02*
X204500000Y-89451100D01*
X168965686Y-97225000D02*
X172864000Y-97225000D01*
X198771400Y-77621400D02*
X198560000Y-77410000D01*
X167821000Y-83646000D02*
X167821000Y-96080314D01*
X209984000Y-88216000D02*
X209984000Y-76935300D01*
X202891400Y-66426900D02*
X202891400Y-66114300D01*
X209232000Y-76183300D02*
X203589000Y-76183300D01*
X202891400Y-68837000D02*
X202891400Y-69735700D01*
X202800000Y-84227400D02*
X202800000Y-87751500D01*
X209300000Y-88900000D02*
X209984000Y-88216000D01*
X202891000Y-70545600D02*
X202891000Y-68836600D01*
X196450000Y-63800000D02*
X195100000Y-62450000D01*
%TO.N,/PWMA*%
X158099000Y-52975000D02*
X156210000Y-54864000D01*
X176280000Y-50800000D02*
X174913100Y-52166900D01*
X168925000Y-52975000D02*
X158099000Y-52975000D01*
X174913100Y-52166900D02*
X169733100Y-52166900D01*
X169733100Y-52166900D02*
X168925000Y-52975000D01*
%TO.N,/S0*%
X192800000Y-58650000D02*
X188800000Y-58650000D01*
X188800000Y-58650000D02*
X188575000Y-58875000D01*
X200660000Y-50800000D02*
X200650000Y-50800000D01*
X200650000Y-50800000D02*
X192800000Y-58650000D01*
X188575000Y-58875000D02*
X186450000Y-58875000D01*
%TO.N,/PWMB*%
X172547000Y-53766900D02*
X171450000Y-54864000D01*
X190073100Y-53766900D02*
X172547000Y-53766900D01*
X193040000Y-50800000D02*
X190073100Y-53766900D01*
%TO.N,Net-(D3-K)*%
X207212000Y-84221400D02*
X207212500Y-84221400D01*
X204444000Y-84221400D02*
X207212000Y-84221400D01*
%TO.N,Net-(D1-A)*%
X179812500Y-94499500D02*
X179812500Y-94500000D01*
X179812000Y-94500000D02*
X179812500Y-94499500D01*
X174010600Y-93589400D02*
X178902000Y-93589400D01*
X182175000Y-93700000D02*
X182950000Y-94475000D01*
X172720000Y-94869000D02*
X172731000Y-94869000D01*
X180612000Y-93700000D02*
X182175000Y-93700000D01*
X178902000Y-93589400D02*
X179812000Y-94500000D01*
X179812500Y-94499500D02*
X180612000Y-93700000D01*
X172731000Y-94869000D02*
X174010600Y-93589400D01*
%TO.N,Net-(D1-K)*%
X181388000Y-94500000D02*
X181400000Y-94512500D01*
X181387500Y-94500000D02*
X181388000Y-94500000D01*
X181400000Y-94512500D02*
X181400000Y-96100000D01*
D36*
%TO.N,Net-(J2-Pin_2)*%
X156675000Y-80400000D02*
X156675000Y-88100000D01*
X156675000Y-88100000D02*
X163825000Y-95250000D01*
D35*
%TO.N,Net-(D2-Pad1)*%
X198237500Y-65150000D02*
X198238000Y-65150000D01*
X196750000Y-65150000D02*
X198237500Y-65150000D01*
%TO.N,Net-(D4-K)*%
X204444000Y-80600000D02*
X207212000Y-80600000D01*
X207212000Y-80600000D02*
X207212500Y-80600000D01*
%TO.N,Net-(J7-Pin_2)*%
X182087000Y-65186500D02*
X179261000Y-68012500D01*
X182087000Y-63361000D02*
X182087000Y-65186500D01*
X186450000Y-60175000D02*
X185273000Y-60175000D01*
X179261000Y-68012500D02*
X179261000Y-72161000D01*
X185273000Y-60175000D02*
X182087000Y-63361000D01*
X179261000Y-72161000D02*
X180950000Y-73850000D01*
%TO.N,Net-(J7-Pin_1)*%
X181687000Y-64969800D02*
X178859000Y-67797800D01*
X178859000Y-67797800D02*
X178859000Y-74259400D01*
X181687000Y-63111000D02*
X181687000Y-64969800D01*
X186450000Y-59525000D02*
X185273000Y-59525000D01*
X178859000Y-74259400D02*
X180950000Y-76350000D01*
X185273000Y-59525000D02*
X181687000Y-63111000D01*
%TO.N,Net-(J7-Pin_4)*%
X182887000Y-63861600D02*
X185273000Y-61475000D01*
X182887000Y-66913000D02*
X182887000Y-63861600D01*
X185273000Y-61475000D02*
X186450000Y-61475000D01*
X180950000Y-68850000D02*
X182887000Y-66913000D01*
%TO.N,Net-(J7-Pin_3)*%
X182487000Y-63611000D02*
X182487000Y-65448300D01*
X186450000Y-60825000D02*
X185273000Y-60825000D01*
X179673000Y-70073000D02*
X180950000Y-71350000D01*
X179673000Y-68262300D02*
X179673000Y-70073000D01*
X185273000Y-60825000D02*
X182487000Y-63611000D01*
X182487000Y-65448300D02*
X179673000Y-68262300D01*
%TO.N,Net-(J8-Pin_3)*%
X179618000Y-81469772D02*
X179618000Y-83768000D01*
X184087000Y-64611000D02*
X184087000Y-77000771D01*
X184087000Y-77000771D02*
X179618000Y-81469772D01*
X185273000Y-63425000D02*
X184087000Y-64611000D01*
X186450000Y-63425000D02*
X185273000Y-63425000D01*
X179618000Y-83768000D02*
X180900000Y-85050000D01*
%TO.N,Net-(J8-Pin_1)*%
X183287000Y-76669400D02*
X183287000Y-64111000D01*
X178808000Y-87958000D02*
X178808000Y-81148400D01*
X183287000Y-64111000D02*
X185273000Y-62125000D01*
X178808000Y-81148400D02*
X183287000Y-76669400D01*
X185273000Y-62125000D02*
X186450000Y-62125000D01*
X180900000Y-90050000D02*
X178808000Y-87958000D01*
%TO.N,Net-(J8-Pin_4)*%
X184487000Y-64776686D02*
X185188686Y-64075000D01*
X180900000Y-82550000D02*
X180900000Y-80753458D01*
X180900000Y-80753458D02*
X184487000Y-77166457D01*
X184487000Y-77166457D02*
X184487000Y-64776686D01*
X185188686Y-64075000D02*
X186450000Y-64075000D01*
%TO.N,Net-(J8-Pin_2)*%
X180900000Y-87550000D02*
X179210000Y-85860000D01*
X185273000Y-62775000D02*
X186450000Y-62775000D01*
X179210000Y-85860000D02*
X179210000Y-81312086D01*
X179210000Y-81312086D02*
X183687000Y-76835085D01*
X183687000Y-64361000D02*
X185273000Y-62775000D01*
X183687000Y-76835085D02*
X183687000Y-64361000D01*
%TO.N,Net-(J9-Pin_1)*%
X179250000Y-64075000D02*
X180427000Y-64075000D01*
X180427000Y-64075000D02*
X180427000Y-64080500D01*
X180427000Y-64080500D02*
X180814000Y-64467600D01*
%TO.N,Net-(J9-Pin_2)*%
X181041283Y-63700563D02*
X180765720Y-63425000D01*
X180765720Y-63425000D02*
X179250000Y-63425000D01*
%TO.N,Net-(J9-Pin_4)*%
X181795700Y-62125000D02*
X179250000Y-62125000D01*
%TO.N,Net-(J9-Pin_3)*%
X180964249Y-62775000D02*
X179250000Y-62775000D01*
D36*
%TO.N,Net-(JP1-A)*%
X169037000Y-88238000D02*
X169037000Y-90424000D01*
X170825000Y-86450000D02*
X169037000Y-88238000D01*
D35*
%TO.N,Net-(A1-D1{slash}TX)*%
X203200000Y-50800000D02*
X203200000Y-56400000D01*
X203200000Y-56400000D02*
X199850000Y-59750000D01*
%TO.N,Net-(A1-~{RESET})*%
X168800000Y-97625000D02*
X173825000Y-97625000D01*
X151130000Y-70680000D02*
X167421000Y-86971000D01*
X167421000Y-96246000D02*
X168800000Y-97625000D01*
X173825000Y-97625000D02*
X175260000Y-99060000D01*
X151130000Y-68580000D02*
X151130000Y-70680000D01*
X151130000Y-68580000D02*
X144630000Y-68580000D01*
X167421000Y-86971000D02*
X167421000Y-96246000D01*
%TO.N,Net-(A1-D0{slash}RX)*%
X199840300Y-62449800D02*
X199840000Y-62450000D01*
X205740000Y-56550500D02*
X199840700Y-62449800D01*
X199840700Y-62449800D02*
X199840300Y-62449800D01*
X199840500Y-62450000D02*
X199840300Y-62449800D01*
X205740000Y-50800000D02*
X205740000Y-56550500D01*
%TO.N,/LEDS_LATCH*%
X193164000Y-75851500D02*
X193164000Y-94104000D01*
X194568000Y-74447900D02*
X193164000Y-75851500D01*
X193164000Y-94104000D02*
X198120000Y-99060000D01*
X194916400Y-74447900D02*
X194568000Y-74447900D01*
%TO.N,/LEDS_DATA*%
X194572000Y-76987900D02*
X193564000Y-77995900D01*
X193564000Y-77995900D02*
X193564000Y-91964000D01*
X193564000Y-91964000D02*
X200660000Y-99060000D01*
X194916400Y-76987900D02*
X194572000Y-76987900D01*
%TO.N,/LEDS_CK*%
X192764000Y-74916900D02*
X192764000Y-96244000D01*
X194503000Y-73177900D02*
X192764000Y-74916900D01*
X192764000Y-96244000D02*
X195580000Y-99060000D01*
X194916400Y-73177900D02*
X194503000Y-73177900D01*
%TO.N,Net-(J10-Pin_1)*%
X179250000Y-61475000D02*
X178325000Y-61475000D01*
X178325000Y-61475000D02*
X177867000Y-61933000D01*
X177867000Y-61933000D02*
X177867000Y-62085700D01*
%TO.N,Net-(J10-Pin_2)*%
X179250000Y-60825000D02*
X180636000Y-60825000D01*
%TO.N,Net-(J10-Pin_4)*%
X182100000Y-59961300D02*
X181663700Y-59525000D01*
X181663700Y-59525000D02*
X179250000Y-59525000D01*
%TO.N,Net-(J10-Pin_3)*%
X181233192Y-60175000D02*
X179250000Y-60175000D01*
%TO.N,unconnected-(A1-SDA{slash}A4-Pad13)*%
X203185000Y-99060000D02*
X203200000Y-99060000D01*
%TO.N,Net-(D3-A)*%
X194916400Y-78257900D02*
X195521000Y-78257900D01*
X203619000Y-81169000D02*
X204950000Y-82500000D01*
X207066200Y-82500000D02*
X208300500Y-83734300D01*
X194916000Y-78257900D02*
X194916400Y-78257900D01*
X201875800Y-79774200D02*
X203324200Y-79774200D01*
X195521000Y-78257900D02*
X197463100Y-80200000D01*
X203619000Y-80069000D02*
X203619000Y-81169000D01*
X201450000Y-80200000D02*
X201875800Y-79774200D01*
X208300500Y-83734300D02*
X208787500Y-84221300D01*
X204950000Y-82500000D02*
X207066200Y-82500000D01*
X197463100Y-80200000D02*
X201450000Y-80200000D01*
X203324200Y-79774200D02*
X203619000Y-80069000D01*
X208787500Y-84221300D02*
X208787500Y-84221400D01*
X208300500Y-83734300D02*
X208788000Y-84221400D01*
%TO.N,Net-(D4-A)*%
X208787500Y-80600000D02*
X208787700Y-80599800D01*
X199866000Y-79527900D02*
X199866200Y-79527700D01*
X208787700Y-80599800D02*
X208788000Y-80600000D01*
X207562000Y-79374200D02*
X208787700Y-80599800D01*
X199866200Y-79527700D02*
X200020000Y-79374200D01*
X200020000Y-79374200D02*
X207562000Y-79374200D01*
X199866400Y-79527900D02*
X199866200Y-79527700D01*
%TO.N,Net-(D5-A)*%
X199866000Y-78257900D02*
X199866400Y-78257900D01*
X208787700Y-76978800D02*
X208788000Y-76978600D01*
X208787500Y-76978600D02*
X208787700Y-76978800D01*
X199866400Y-78257900D02*
X207508000Y-78257900D01*
X207508000Y-78257900D02*
X208787700Y-76978800D01*
%TO.N,Net-(D5-K)*%
X204444000Y-76978600D02*
X207212000Y-76978600D01*
X207212000Y-76978600D02*
X207212500Y-76978600D01*
%TO.N,Net-(D6-K)*%
X207309900Y-73357100D02*
X207310000Y-73357100D01*
X204541400Y-73357100D02*
X207309900Y-73357100D01*
X204541000Y-73357100D02*
X204541400Y-73357100D01*
%TO.N,Net-(D6-A)*%
X203539000Y-74864500D02*
X207378000Y-74864500D01*
X199866000Y-76987900D02*
X199866400Y-76987900D01*
X207378000Y-74864500D02*
X208885000Y-73357100D01*
X199866400Y-76987900D02*
X201416000Y-76987900D01*
X208884900Y-73357100D02*
X208885000Y-73357100D01*
X201416000Y-76987900D02*
X203539000Y-74864500D01*
%TO.N,Net-(D7-A)*%
X204127000Y-72536900D02*
X206441000Y-72536900D01*
X199866000Y-75717900D02*
X199866400Y-75717900D01*
X199866400Y-75717900D02*
X201718000Y-75717900D01*
X208885000Y-69914200D02*
X208885000Y-69735700D01*
X208884900Y-69914100D02*
X208884900Y-69735700D01*
X201718000Y-75717900D02*
X203716000Y-73719300D01*
X203716000Y-72947200D02*
X204127000Y-72536900D01*
X208885000Y-70092800D02*
X208885000Y-69914200D01*
X206441000Y-72536900D02*
X208885000Y-70092800D01*
X203716000Y-73719300D02*
X203716000Y-72947200D01*
X208885000Y-69914200D02*
X208884900Y-69914100D01*
%TO.N,Net-(D7-K)*%
X204541400Y-69735700D02*
X207309900Y-69735700D01*
X207309900Y-69735700D02*
X207310000Y-69735700D01*
X204541000Y-69735700D02*
X204541400Y-69735700D01*
%TO.N,Net-(D8-A)*%
X208491100Y-66508000D02*
X208491200Y-66508000D01*
X208097000Y-70235200D02*
X208097000Y-66901800D01*
X199866000Y-74447900D02*
X199866400Y-74447900D01*
X207332000Y-71000700D02*
X208097000Y-70235200D01*
X208491200Y-66508000D02*
X208884900Y-66114300D01*
X199866400Y-74447900D02*
X200615000Y-74447900D01*
X208491100Y-66508000D02*
X208885000Y-66114300D01*
X200615000Y-74447900D02*
X204062000Y-71000700D01*
X204062000Y-71000700D02*
X207332000Y-71000700D01*
X208097000Y-66901800D02*
X208491100Y-66508000D01*
%TO.N,Net-(D8-K)*%
X207309900Y-66114300D02*
X207310000Y-66114300D01*
X204541400Y-66114300D02*
X207309900Y-66114300D01*
X204541000Y-66114300D02*
X204541400Y-66114300D01*
%TO.N,Net-(D9-K)*%
X204541000Y-62492900D02*
X204541400Y-62492900D01*
X204541400Y-62492900D02*
X207309900Y-62492900D01*
X207309900Y-62492900D02*
X207310000Y-62492900D01*
%TO.N,Net-(D9-A)*%
X200848000Y-73177900D02*
X203716000Y-70309800D01*
X208398000Y-62980000D02*
X208884900Y-62493100D01*
X205362900Y-63467100D02*
X207911000Y-63467100D01*
X199866000Y-73177900D02*
X199866400Y-73177900D01*
X207911000Y-63467100D02*
X208398000Y-62980000D01*
X199866400Y-73177900D02*
X200848000Y-73177900D01*
X203716000Y-70309800D02*
X203716000Y-65114000D01*
X208398000Y-62980000D02*
X208885000Y-62492900D01*
X203716000Y-65114000D02*
X205362900Y-63467100D01*
X208884900Y-62493100D02*
X208884900Y-62492900D01*
%TO.N,Net-(D10-K)*%
X207309900Y-87842900D02*
X207310000Y-87842900D01*
X204541000Y-87842900D02*
X204541400Y-87842900D01*
X204541400Y-87842900D02*
X207309900Y-87842900D01*
%TO.N,Net-(D10-A)*%
X208885000Y-87842900D02*
X208884900Y-87842900D01*
X198945106Y-71907900D02*
X198160000Y-72693006D01*
X209563000Y-87165000D02*
X208885000Y-87842900D01*
X199866400Y-71907900D02*
X198945106Y-71907900D01*
X198692800Y-78892800D02*
X208395000Y-78892800D01*
X198160000Y-78360000D02*
X198692800Y-78892800D01*
X208395000Y-78892800D02*
X209563000Y-80061000D01*
X209563000Y-80061000D02*
X209563000Y-87165000D01*
X198160000Y-72693006D02*
X198160000Y-78360000D01*
%TO.N,Net-(D11-K)*%
X196750000Y-62450000D02*
X198265500Y-62450000D01*
X198265500Y-62450000D02*
X198266000Y-62450000D01*
%TO.N,Net-(D12-K)*%
X196750000Y-59800000D02*
X198225000Y-59800000D01*
X198225000Y-59800000D02*
X198275000Y-59750000D01*
%TO.N,Net-(U4-~{E})*%
X179250000Y-58875000D02*
X178375000Y-58875000D01*
X178075000Y-58575000D02*
X178075000Y-56600000D01*
X178075000Y-56600000D02*
X178825000Y-55850000D01*
X178375000Y-58875000D02*
X178075000Y-58575000D01*
%TO.N,unconnected-(U2-~{SRCLR}-Pad10)*%
X194521000Y-71907900D02*
X194916400Y-71907900D01*
%TD*%
%TA.AperFunction,Conductor*%
%TO.N,GND*%
G36*
X185285809Y-65358716D02*
G01*
X185328861Y-65390945D01*
X185332668Y-65393795D01*
X185332671Y-65393797D01*
X185373184Y-65408907D01*
X185467517Y-65444091D01*
X185527127Y-65450500D01*
X185725500Y-65450499D01*
X185792539Y-65470183D01*
X185838294Y-65522987D01*
X185849500Y-65574499D01*
X185849500Y-92383330D01*
X185849499Y-92383348D01*
X185849499Y-92549054D01*
X185849498Y-92549054D01*
X185890423Y-92701785D01*
X185919358Y-92751900D01*
X185919359Y-92751904D01*
X185919360Y-92751904D01*
X185969479Y-92838714D01*
X185969481Y-92838717D01*
X186088349Y-92957585D01*
X186088355Y-92957590D01*
X191748058Y-98617293D01*
X191781543Y-98678616D01*
X191780152Y-98737067D01*
X191754366Y-98833302D01*
X191754364Y-98833313D01*
X191734532Y-99059998D01*
X191734532Y-99060001D01*
X191754364Y-99286686D01*
X191754366Y-99286697D01*
X191813258Y-99506488D01*
X191813260Y-99506492D01*
X191813261Y-99506496D01*
X191848722Y-99582542D01*
X191872134Y-99632749D01*
X191882626Y-99701827D01*
X191854106Y-99765611D01*
X191795630Y-99803850D01*
X191725762Y-99804405D01*
X191672071Y-99772835D01*
X187662590Y-95763355D01*
X187662588Y-95763352D01*
X187543717Y-95644481D01*
X187543716Y-95644480D01*
X187456904Y-95594360D01*
X187456904Y-95594359D01*
X187456900Y-95594358D01*
X187406785Y-95565423D01*
X187254057Y-95524499D01*
X187095943Y-95524499D01*
X187088347Y-95524499D01*
X187088331Y-95524500D01*
X183866520Y-95524500D01*
X183799481Y-95504815D01*
X183778839Y-95488181D01*
X183678339Y-95387681D01*
X183644854Y-95326358D01*
X183649838Y-95256666D01*
X183678339Y-95212319D01*
X183780468Y-95110189D01*
X183780469Y-95110188D01*
X183780472Y-95110185D01*
X183868478Y-94964606D01*
X183919086Y-94802196D01*
X183925500Y-94731616D01*
X183925500Y-94218384D01*
X183919086Y-94147804D01*
X183868478Y-93985394D01*
X183780472Y-93839815D01*
X183780470Y-93839813D01*
X183780469Y-93839811D01*
X183660188Y-93719530D01*
X183650868Y-93713896D01*
X183514606Y-93631522D01*
X183352196Y-93580914D01*
X183352194Y-93580913D01*
X183352192Y-93580913D01*
X183302778Y-93576423D01*
X183281616Y-93574500D01*
X183281613Y-93574500D01*
X182950097Y-93574500D01*
X182883058Y-93554815D01*
X182862416Y-93538181D01*
X182662590Y-93338355D01*
X182662588Y-93338352D01*
X182543717Y-93219481D01*
X182543716Y-93219480D01*
X182456904Y-93169360D01*
X182456904Y-93169359D01*
X182456900Y-93169358D01*
X182406785Y-93140423D01*
X182254057Y-93099499D01*
X182095943Y-93099499D01*
X182088347Y-93099499D01*
X182088331Y-93099500D01*
X180698670Y-93099500D01*
X180698654Y-93099499D01*
X180691058Y-93099499D01*
X180532943Y-93099499D01*
X180456579Y-93119961D01*
X180380214Y-93140423D01*
X180380209Y-93140426D01*
X180243290Y-93219475D01*
X180243282Y-93219481D01*
X179974583Y-93488181D01*
X179913260Y-93521666D01*
X179886902Y-93524500D01*
X179737484Y-93524500D01*
X179670445Y-93504815D01*
X179649774Y-93488152D01*
X179388449Y-93226655D01*
X179388155Y-93226319D01*
X179362139Y-93200303D01*
X179325449Y-93163613D01*
X179324395Y-93162558D01*
X179270873Y-93109000D01*
X179270715Y-93108879D01*
X179246601Y-93094957D01*
X179201357Y-93068836D01*
X179201328Y-93068806D01*
X179201323Y-93068816D01*
X179133972Y-93029901D01*
X179133787Y-93029824D01*
X179133784Y-93029823D01*
X179057085Y-93009271D01*
X179057084Y-93009270D01*
X179057085Y-93009265D01*
X179057045Y-93009260D01*
X178981231Y-92988919D01*
X178981086Y-92988900D01*
X178981057Y-92988900D01*
X178903690Y-92988900D01*
X178815292Y-92988870D01*
X178814834Y-92988900D01*
X174097270Y-92988900D01*
X174097254Y-92988899D01*
X174089658Y-92988899D01*
X173931543Y-92988899D01*
X173855556Y-93009260D01*
X173778814Y-93029823D01*
X173778809Y-93029826D01*
X173641890Y-93108875D01*
X173641882Y-93108881D01*
X173307170Y-93443593D01*
X173245847Y-93477078D01*
X173181172Y-93473843D01*
X173036244Y-93426754D01*
X173036240Y-93426753D01*
X172874957Y-93401208D01*
X172826287Y-93393500D01*
X172613713Y-93393500D01*
X172565042Y-93401208D01*
X172403760Y-93426753D01*
X172403757Y-93426754D01*
X172209969Y-93489720D01*
X172201585Y-93492444D01*
X172012179Y-93588951D01*
X171840215Y-93713889D01*
X171701035Y-93853069D01*
X171639712Y-93886553D01*
X171570020Y-93881569D01*
X171514087Y-93839697D01*
X171507815Y-93830484D01*
X171412315Y-93675654D01*
X171288345Y-93551684D01*
X171139124Y-93459643D01*
X171139119Y-93459641D01*
X170972697Y-93404494D01*
X170972690Y-93404493D01*
X170869986Y-93394000D01*
X170470000Y-93394000D01*
X170470000Y-94464854D01*
X170403343Y-94426370D01*
X170282535Y-94394000D01*
X170157465Y-94394000D01*
X170036657Y-94426370D01*
X169970000Y-94464854D01*
X169970000Y-93394000D01*
X169570028Y-93394000D01*
X169570012Y-93394001D01*
X169467302Y-93404494D01*
X169300880Y-93459641D01*
X169300875Y-93459643D01*
X169151654Y-93551684D01*
X169027684Y-93675654D01*
X168935643Y-93824875D01*
X168935641Y-93824880D01*
X168880494Y-93991302D01*
X168880493Y-93991309D01*
X168870000Y-94094013D01*
X168870000Y-94619000D01*
X169815854Y-94619000D01*
X169777370Y-94685657D01*
X169745000Y-94806465D01*
X169745000Y-94931535D01*
X169777370Y-95052343D01*
X169815854Y-95119000D01*
X168870001Y-95119000D01*
X168870001Y-95643986D01*
X168880494Y-95746697D01*
X168935641Y-95913119D01*
X168935643Y-95913124D01*
X169027684Y-96062345D01*
X169151654Y-96186315D01*
X169300875Y-96278356D01*
X169300880Y-96278358D01*
X169467302Y-96333505D01*
X169467309Y-96333506D01*
X169570019Y-96343999D01*
X169969999Y-96343999D01*
X169970000Y-96343998D01*
X169970000Y-95273145D01*
X170036657Y-95311630D01*
X170157465Y-95344000D01*
X170282535Y-95344000D01*
X170403343Y-95311630D01*
X170470000Y-95273145D01*
X170470000Y-96343999D01*
X170869972Y-96343999D01*
X170869986Y-96343998D01*
X170972697Y-96333505D01*
X171139119Y-96278358D01*
X171139124Y-96278356D01*
X171288345Y-96186315D01*
X171412317Y-96062343D01*
X171507815Y-95907516D01*
X171559763Y-95860791D01*
X171628725Y-95849568D01*
X171692808Y-95877412D01*
X171701035Y-95884931D01*
X171840213Y-96024109D01*
X172012179Y-96149048D01*
X172012181Y-96149049D01*
X172012184Y-96149051D01*
X172201588Y-96245557D01*
X172403757Y-96311246D01*
X172403760Y-96311246D01*
X172403761Y-96311247D01*
X172474161Y-96322397D01*
X172613713Y-96344500D01*
X172613718Y-96344500D01*
X172616401Y-96344925D01*
X172679536Y-96374854D01*
X172716468Y-96434165D01*
X172715470Y-96504028D01*
X172684687Y-96555077D01*
X172651583Y-96588181D01*
X172590263Y-96621666D01*
X172563903Y-96624500D01*
X169265783Y-96624500D01*
X169198744Y-96604815D01*
X169178102Y-96588181D01*
X168457819Y-95867898D01*
X168424334Y-95806575D01*
X168421500Y-95780217D01*
X168421500Y-91898499D01*
X168441185Y-91831460D01*
X168493989Y-91785705D01*
X168545500Y-91774499D01*
X169934871Y-91774499D01*
X169934872Y-91774499D01*
X169994483Y-91768091D01*
X170129331Y-91717796D01*
X170244546Y-91631546D01*
X170330796Y-91516331D01*
X170379810Y-91384916D01*
X170421681Y-91328984D01*
X170487145Y-91304566D01*
X170555418Y-91319417D01*
X170583673Y-91340569D01*
X170705599Y-91462495D01*
X170802384Y-91530265D01*
X170899165Y-91598032D01*
X170899167Y-91598033D01*
X170899170Y-91598035D01*
X171113337Y-91697903D01*
X171341592Y-91759063D01*
X171529918Y-91775539D01*
X171576999Y-91779659D01*
X171577000Y-91779659D01*
X171577001Y-91779659D01*
X171616234Y-91776226D01*
X171812408Y-91759063D01*
X172040663Y-91697903D01*
X172254830Y-91598035D01*
X172448401Y-91462495D01*
X172615495Y-91295401D01*
X172745425Y-91109842D01*
X172800002Y-91066217D01*
X172869500Y-91059023D01*
X172931855Y-91090546D01*
X172948575Y-91109842D01*
X173078500Y-91295395D01*
X173078505Y-91295401D01*
X173245599Y-91462495D01*
X173342384Y-91530265D01*
X173439165Y-91598032D01*
X173439167Y-91598033D01*
X173439170Y-91598035D01*
X173653337Y-91697903D01*
X173881592Y-91759063D01*
X174069918Y-91775539D01*
X174116999Y-91779659D01*
X174117000Y-91779659D01*
X174117001Y-91779659D01*
X174156234Y-91776226D01*
X174352408Y-91759063D01*
X174580663Y-91697903D01*
X174794830Y-91598035D01*
X174988401Y-91462495D01*
X175155495Y-91295401D01*
X175291035Y-91101830D01*
X175390903Y-90887663D01*
X175452063Y-90659408D01*
X175472659Y-90424000D01*
X175452063Y-90188592D01*
X175390903Y-89960337D01*
X175291035Y-89746171D01*
X175285425Y-89738158D01*
X175155494Y-89552597D01*
X174988402Y-89385506D01*
X174988395Y-89385501D01*
X174981281Y-89380520D01*
X174911518Y-89331671D01*
X174794834Y-89249967D01*
X174794830Y-89249965D01*
X174794828Y-89249964D01*
X174580663Y-89150097D01*
X174580659Y-89150096D01*
X174580655Y-89150094D01*
X174352413Y-89088938D01*
X174352403Y-89088936D01*
X174117001Y-89068341D01*
X174116999Y-89068341D01*
X173881596Y-89088936D01*
X173881586Y-89088938D01*
X173653344Y-89150094D01*
X173653335Y-89150098D01*
X173439171Y-89249964D01*
X173439169Y-89249965D01*
X173245597Y-89385505D01*
X173078505Y-89552597D01*
X172948575Y-89738158D01*
X172893998Y-89781783D01*
X172824500Y-89788977D01*
X172762145Y-89757454D01*
X172745425Y-89738158D01*
X172615494Y-89552597D01*
X172448402Y-89385506D01*
X172448395Y-89385501D01*
X172441281Y-89380520D01*
X172371518Y-89331671D01*
X172254834Y-89249967D01*
X172254830Y-89249965D01*
X172254828Y-89249964D01*
X172040663Y-89150097D01*
X172040659Y-89150096D01*
X172040655Y-89150094D01*
X171812413Y-89088938D01*
X171812403Y-89088936D01*
X171577001Y-89068341D01*
X171576999Y-89068341D01*
X171341596Y-89088936D01*
X171341586Y-89088938D01*
X171113344Y-89150094D01*
X171113335Y-89150098D01*
X170899171Y-89249964D01*
X170899169Y-89249965D01*
X170705600Y-89385503D01*
X170583673Y-89507430D01*
X170522350Y-89540914D01*
X170452658Y-89535930D01*
X170396725Y-89494058D01*
X170379810Y-89463081D01*
X170330797Y-89331671D01*
X170330793Y-89331664D01*
X170244547Y-89216455D01*
X170244544Y-89216452D01*
X170129335Y-89130206D01*
X170129328Y-89130202D01*
X169994482Y-89079908D01*
X169994483Y-89079908D01*
X169934883Y-89073501D01*
X169934881Y-89073500D01*
X169934873Y-89073500D01*
X169934865Y-89073500D01*
X169861500Y-89073500D01*
X169794461Y-89053815D01*
X169748706Y-89001011D01*
X169737500Y-88949500D01*
X169737500Y-88579518D01*
X169757185Y-88512479D01*
X169773810Y-88491846D01*
X169935092Y-88330563D01*
X169996412Y-88297081D01*
X170066099Y-88302064D01*
X170259954Y-88374369D01*
X170259960Y-88374370D01*
X170259962Y-88374371D01*
X170539566Y-88435195D01*
X170539568Y-88435195D01*
X170539572Y-88435196D01*
X170793220Y-88453337D01*
X170824999Y-88455610D01*
X170825000Y-88455610D01*
X170825001Y-88455610D01*
X170853595Y-88453564D01*
X171110428Y-88435196D01*
X171135298Y-88429786D01*
X171390037Y-88374371D01*
X171390037Y-88374370D01*
X171390046Y-88374369D01*
X171658161Y-88274367D01*
X171909315Y-88137226D01*
X172138395Y-87965739D01*
X172340739Y-87763395D01*
X172512226Y-87534315D01*
X172649367Y-87283161D01*
X172749369Y-87015046D01*
X172810196Y-86735428D01*
X172830610Y-86450000D01*
X172810196Y-86164572D01*
X172791822Y-86080109D01*
X172749371Y-85884962D01*
X172749370Y-85884960D01*
X172749369Y-85884954D01*
X172649367Y-85616839D01*
X172512226Y-85365685D01*
X172512224Y-85365682D01*
X172340745Y-85136612D01*
X172340729Y-85136594D01*
X172138405Y-84934270D01*
X172138387Y-84934254D01*
X171909317Y-84762775D01*
X171909309Y-84762770D01*
X171658166Y-84625635D01*
X171658167Y-84625635D01*
X171550915Y-84585632D01*
X171390046Y-84525631D01*
X171390043Y-84525630D01*
X171390037Y-84525628D01*
X171110433Y-84464804D01*
X170825001Y-84444390D01*
X170824999Y-84444390D01*
X170539566Y-84464804D01*
X170259962Y-84525628D01*
X169991833Y-84625635D01*
X169740690Y-84762770D01*
X169740682Y-84762775D01*
X169511612Y-84934254D01*
X169511594Y-84934270D01*
X169309270Y-85136594D01*
X169309254Y-85136612D01*
X169137775Y-85365682D01*
X169137770Y-85365690D01*
X169000635Y-85616833D01*
X168900628Y-85884962D01*
X168839804Y-86164566D01*
X168819390Y-86449998D01*
X168819390Y-86450001D01*
X168839804Y-86735433D01*
X168900062Y-87012431D01*
X168900631Y-87015046D01*
X168946742Y-87138674D01*
X168972933Y-87208895D01*
X168977917Y-87278586D01*
X168944432Y-87339909D01*
X168633181Y-87651161D01*
X168571858Y-87684646D01*
X168502167Y-87679662D01*
X168446233Y-87637791D01*
X168421816Y-87572326D01*
X168421500Y-87563480D01*
X168421500Y-83946096D01*
X168441185Y-83879057D01*
X168457814Y-83858420D01*
X177658506Y-74657727D01*
X177658511Y-74657724D01*
X177668714Y-74647520D01*
X177668716Y-74647520D01*
X177780520Y-74535716D01*
X177859577Y-74398784D01*
X177900500Y-74246057D01*
X177900500Y-65655424D01*
X177920185Y-65588385D01*
X177959402Y-65549886D01*
X178003044Y-65522968D01*
X178075992Y-65450019D01*
X178137311Y-65416537D01*
X178207003Y-65421521D01*
X178267517Y-65444091D01*
X178267516Y-65444091D01*
X178274444Y-65444835D01*
X178327127Y-65450500D01*
X180057702Y-65450499D01*
X180124741Y-65470184D01*
X180170496Y-65522987D01*
X180180440Y-65592146D01*
X180151415Y-65655702D01*
X180145383Y-65662180D01*
X178490286Y-67317278D01*
X178378481Y-67429082D01*
X178378475Y-67429090D01*
X178336191Y-67502330D01*
X178336191Y-67502331D01*
X178299423Y-67566015D01*
X178258499Y-67718743D01*
X178258499Y-67718745D01*
X178258499Y-67886846D01*
X178258500Y-67886859D01*
X178258500Y-74172250D01*
X178258491Y-74172388D01*
X178258500Y-74263992D01*
X178258500Y-74338487D01*
X178258506Y-74338512D01*
X178258507Y-74338515D01*
X178279868Y-74418204D01*
X178279869Y-74418216D01*
X178279871Y-74418216D01*
X178299423Y-74491186D01*
X178299444Y-74491235D01*
X178299445Y-74491238D01*
X178337290Y-74556772D01*
X178337293Y-74556785D01*
X178337296Y-74556784D01*
X178378473Y-74628107D01*
X178378516Y-74628162D01*
X178430048Y-74679684D01*
X178430047Y-74679684D01*
X178430056Y-74679692D01*
X178495980Y-74745616D01*
X178496077Y-74745701D01*
X179438173Y-75687616D01*
X179471664Y-75748936D01*
X179474500Y-75775306D01*
X179474500Y-77000001D01*
X179474501Y-77000018D01*
X179485000Y-77102796D01*
X179485001Y-77102799D01*
X179518399Y-77203586D01*
X179540186Y-77269334D01*
X179632288Y-77418656D01*
X179756344Y-77542712D01*
X179905666Y-77634814D01*
X180072203Y-77689999D01*
X180174991Y-77700500D01*
X181107302Y-77700499D01*
X181174341Y-77720183D01*
X181220096Y-77772987D01*
X181230040Y-77842146D01*
X181201015Y-77905702D01*
X181194983Y-77912180D01*
X178439286Y-80667878D01*
X178327481Y-80779682D01*
X178327479Y-80779685D01*
X178291712Y-80841637D01*
X178291711Y-80841639D01*
X178248423Y-80916614D01*
X178248423Y-80916615D01*
X178207499Y-81069343D01*
X178207499Y-81069345D01*
X178207499Y-81237446D01*
X178207500Y-81237459D01*
X178207500Y-87871330D01*
X178207499Y-87871348D01*
X178207499Y-88037054D01*
X178207498Y-88037054D01*
X178244332Y-88174516D01*
X178248423Y-88189785D01*
X178272807Y-88232018D01*
X178272808Y-88232022D01*
X178327475Y-88326709D01*
X178327481Y-88326717D01*
X178446349Y-88445585D01*
X178446355Y-88445590D01*
X179388181Y-89387416D01*
X179421666Y-89448739D01*
X179424500Y-89475097D01*
X179424500Y-90700001D01*
X179424501Y-90700018D01*
X179435000Y-90802796D01*
X179435001Y-90802799D01*
X179463120Y-90887655D01*
X179490186Y-90969334D01*
X179582288Y-91118656D01*
X179706344Y-91242712D01*
X179855666Y-91334814D01*
X180022203Y-91389999D01*
X180124991Y-91400500D01*
X181675008Y-91400499D01*
X181777797Y-91389999D01*
X181944334Y-91334814D01*
X182093656Y-91242712D01*
X182217712Y-91118656D01*
X182309814Y-90969334D01*
X182364999Y-90802797D01*
X182375500Y-90700009D01*
X182375499Y-89399992D01*
X182364999Y-89297203D01*
X182309814Y-89130666D01*
X182217712Y-88981344D01*
X182093656Y-88857288D01*
X181944334Y-88765186D01*
X181944333Y-88765185D01*
X181938878Y-88761821D01*
X181892154Y-88709873D01*
X181880931Y-88640910D01*
X181908775Y-88576828D01*
X181916272Y-88568623D01*
X182055104Y-88429792D01*
X182095370Y-88374371D01*
X182147902Y-88302065D01*
X182180051Y-88257816D01*
X182276557Y-88068412D01*
X182342246Y-87866243D01*
X182375500Y-87656287D01*
X182375500Y-87443713D01*
X182342246Y-87233757D01*
X182276557Y-87031588D01*
X182180051Y-86842184D01*
X182180049Y-86842181D01*
X182180048Y-86842179D01*
X182055109Y-86670213D01*
X181904792Y-86519896D01*
X181808593Y-86450004D01*
X181740204Y-86400316D01*
X181697540Y-86344989D01*
X181691561Y-86275376D01*
X181724166Y-86213580D01*
X181740199Y-86199686D01*
X181904792Y-86080104D01*
X182055104Y-85929792D01*
X182055106Y-85929788D01*
X182055109Y-85929786D01*
X182180048Y-85757820D01*
X182180047Y-85757820D01*
X182180051Y-85757816D01*
X182276557Y-85568412D01*
X182342246Y-85366243D01*
X182375500Y-85156287D01*
X182375500Y-84943713D01*
X182342246Y-84733757D01*
X182276557Y-84531588D01*
X182180051Y-84342184D01*
X182180049Y-84342181D01*
X182180048Y-84342179D01*
X182055109Y-84170213D01*
X181904792Y-84019896D01*
X181904784Y-84019890D01*
X181740204Y-83900316D01*
X181697540Y-83844989D01*
X181691561Y-83775376D01*
X181724166Y-83713580D01*
X181740199Y-83699686D01*
X181904792Y-83580104D01*
X182055104Y-83429792D01*
X182055106Y-83429788D01*
X182055109Y-83429786D01*
X182180048Y-83257820D01*
X182180047Y-83257820D01*
X182180051Y-83257816D01*
X182276557Y-83068412D01*
X182342246Y-82866243D01*
X182375500Y-82656287D01*
X182375500Y-82443713D01*
X182342246Y-82233757D01*
X182276557Y-82031588D01*
X182180051Y-81842184D01*
X182180049Y-81842181D01*
X182180048Y-81842179D01*
X182055109Y-81670213D01*
X181904786Y-81519890D01*
X181732820Y-81394951D01*
X181716916Y-81386847D01*
X181568204Y-81311075D01*
X181517409Y-81263102D01*
X181500500Y-81200591D01*
X181500500Y-81053555D01*
X181520185Y-80986516D01*
X181536819Y-80965874D01*
X183245519Y-79257174D01*
X184967520Y-77535173D01*
X185046577Y-77398241D01*
X185087501Y-77245514D01*
X185087501Y-77087399D01*
X185087501Y-77079804D01*
X185087500Y-77079786D01*
X185087500Y-65457984D01*
X185107185Y-65390945D01*
X185159989Y-65345190D01*
X185229147Y-65335246D01*
X185285809Y-65358716D01*
G37*
%TD.AperFunction*%
%TA.AperFunction,Conductor*%
G36*
X184954075Y-98867007D02*
G01*
X184920000Y-98994174D01*
X184920000Y-99125826D01*
X184954075Y-99252993D01*
X184986988Y-99310000D01*
X183313012Y-99310000D01*
X183345925Y-99252993D01*
X183380000Y-99125826D01*
X183380000Y-98994174D01*
X183345925Y-98867007D01*
X183313012Y-98810000D01*
X184986988Y-98810000D01*
X184954075Y-98867007D01*
G37*
%TD.AperFunction*%
%TA.AperFunction,Conductor*%
G36*
X186941942Y-96745185D02*
G01*
X186962584Y-96761819D01*
X187772158Y-97571393D01*
X187805643Y-97632716D01*
X187800659Y-97702408D01*
X187758787Y-97758341D01*
X187716571Y-97778849D01*
X187513508Y-97833259D01*
X187513502Y-97833261D01*
X187307267Y-97929431D01*
X187307265Y-97929432D01*
X187120858Y-98059954D01*
X186959954Y-98220858D01*
X186869879Y-98349501D01*
X186829432Y-98407266D01*
X186829315Y-98407518D01*
X186802106Y-98465867D01*
X186755933Y-98518306D01*
X186688739Y-98537457D01*
X186621858Y-98517241D01*
X186577342Y-98465865D01*
X186550135Y-98407520D01*
X186550134Y-98407518D01*
X186419657Y-98221179D01*
X186258820Y-98060342D01*
X186072482Y-97929865D01*
X185866328Y-97833734D01*
X185670000Y-97781127D01*
X185670000Y-98626988D01*
X185612993Y-98594075D01*
X185485826Y-98560000D01*
X185354174Y-98560000D01*
X185227007Y-98594075D01*
X185170000Y-98626988D01*
X185170000Y-97781127D01*
X184973671Y-97833734D01*
X184767517Y-97929865D01*
X184581179Y-98060342D01*
X184420342Y-98221179D01*
X184289865Y-98407517D01*
X184262382Y-98466457D01*
X184216210Y-98518896D01*
X184149016Y-98538048D01*
X184082135Y-98517832D01*
X184037618Y-98466457D01*
X184010134Y-98407517D01*
X183879657Y-98221179D01*
X183718820Y-98060342D01*
X183532482Y-97929865D01*
X183326328Y-97833734D01*
X183130000Y-97781127D01*
X183130000Y-98626988D01*
X183072993Y-98594075D01*
X182945826Y-98560000D01*
X182814174Y-98560000D01*
X182687007Y-98594075D01*
X182630000Y-98626988D01*
X182630000Y-97781127D01*
X182433671Y-97833734D01*
X182227517Y-97929865D01*
X182041179Y-98060342D01*
X181880342Y-98221179D01*
X181749867Y-98407515D01*
X181722657Y-98465867D01*
X181676484Y-98518306D01*
X181609290Y-98537457D01*
X181542409Y-98517241D01*
X181497893Y-98465865D01*
X181470685Y-98407518D01*
X181470568Y-98407266D01*
X181340047Y-98220861D01*
X181340045Y-98220858D01*
X181179140Y-98059953D01*
X180993377Y-97929881D01*
X180949752Y-97875304D01*
X180940500Y-97828306D01*
X180940500Y-97642100D01*
X180960185Y-97575061D01*
X181012989Y-97529306D01*
X181064500Y-97518100D01*
X182070731Y-97518100D01*
X182070747Y-97518101D01*
X182078343Y-97518101D01*
X182236454Y-97518101D01*
X182236457Y-97518101D01*
X182389185Y-97477177D01*
X182439304Y-97448239D01*
X182526116Y-97398120D01*
X182637920Y-97286316D01*
X182637921Y-97286313D01*
X182862417Y-97061816D01*
X182923739Y-97028334D01*
X182950097Y-97025500D01*
X183281613Y-97025500D01*
X183281616Y-97025500D01*
X183352196Y-97019086D01*
X183514606Y-96968478D01*
X183660185Y-96880472D01*
X183660189Y-96880468D01*
X183778839Y-96761819D01*
X183840162Y-96728334D01*
X183866520Y-96725500D01*
X186874903Y-96725500D01*
X186941942Y-96745185D01*
G37*
%TD.AperFunction*%
%TA.AperFunction,Conductor*%
G36*
X194882904Y-80348085D02*
G01*
X194903548Y-80364721D01*
X195318473Y-80779685D01*
X195501466Y-80962694D01*
X195501518Y-80962754D01*
X195507480Y-80968716D01*
X195576222Y-81037458D01*
X195619262Y-81080502D01*
X195619264Y-81080503D01*
X195619275Y-81080514D01*
X195619313Y-81080543D01*
X195619919Y-81080887D01*
X195627350Y-81085177D01*
X195691424Y-81122169D01*
X195691430Y-81122175D01*
X195691431Y-81122174D01*
X195754836Y-81158785D01*
X195756324Y-81159672D01*
X195756378Y-81159694D01*
X195759110Y-81160352D01*
X195825738Y-81178204D01*
X195825742Y-81178207D01*
X195825743Y-81178206D01*
X195908915Y-81200497D01*
X195908917Y-81200497D01*
X195908924Y-81200499D01*
X195908931Y-81200500D01*
X195976678Y-81200500D01*
X196067029Y-81200504D01*
X196067033Y-81200502D01*
X196075083Y-81200503D01*
X196075146Y-81200500D01*
X201902285Y-81200500D01*
X201969324Y-81220185D01*
X202008401Y-81260349D01*
X202038528Y-81310185D01*
X202157182Y-81428839D01*
X202190666Y-81490160D01*
X202193500Y-81516519D01*
X202193500Y-83304880D01*
X202173815Y-83371919D01*
X202157181Y-83392561D01*
X202038531Y-83511210D01*
X202038530Y-83511211D01*
X201950522Y-83656793D01*
X201899913Y-83819207D01*
X201893500Y-83889786D01*
X201893500Y-84553013D01*
X201899913Y-84623592D01*
X201899913Y-84623594D01*
X201899914Y-84623596D01*
X201950522Y-84786006D01*
X202032272Y-84921237D01*
X202038530Y-84931588D01*
X202163181Y-85056239D01*
X202196666Y-85117562D01*
X202199500Y-85143920D01*
X202199500Y-87017780D01*
X202179815Y-87084819D01*
X202163181Y-87105461D01*
X202135931Y-87132710D01*
X202135930Y-87132711D01*
X202047922Y-87278293D01*
X201997313Y-87440707D01*
X201990900Y-87511286D01*
X201990900Y-88174513D01*
X201997313Y-88245092D01*
X201997313Y-88245094D01*
X201997314Y-88245096D01*
X202047922Y-88407506D01*
X202131974Y-88546545D01*
X202135930Y-88553088D01*
X202256211Y-88673369D01*
X202256213Y-88673370D01*
X202256215Y-88673372D01*
X202401794Y-88761378D01*
X202564204Y-88811986D01*
X202634784Y-88818400D01*
X202966703Y-88818400D01*
X203033742Y-88838085D01*
X203054384Y-88854719D01*
X203863181Y-89663516D01*
X203896666Y-89724839D01*
X203899500Y-89751197D01*
X203899500Y-97756598D01*
X203879815Y-97823637D01*
X203827011Y-97869392D01*
X203757853Y-97879336D01*
X203723095Y-97868980D01*
X203685594Y-97851493D01*
X203646496Y-97833261D01*
X203646492Y-97833260D01*
X203646488Y-97833258D01*
X203426697Y-97774366D01*
X203426693Y-97774365D01*
X203426692Y-97774365D01*
X203426691Y-97774364D01*
X203426686Y-97774364D01*
X203200002Y-97754532D01*
X203199998Y-97754532D01*
X202973313Y-97774364D01*
X202973302Y-97774366D01*
X202753511Y-97833258D01*
X202753502Y-97833261D01*
X202547267Y-97929431D01*
X202547265Y-97929432D01*
X202360858Y-98059954D01*
X202199954Y-98220858D01*
X202069432Y-98407265D01*
X202069431Y-98407267D01*
X202042382Y-98465275D01*
X201996209Y-98517714D01*
X201929016Y-98536866D01*
X201862135Y-98516650D01*
X201817618Y-98465275D01*
X201790686Y-98407520D01*
X201790568Y-98407266D01*
X201660047Y-98220861D01*
X201660045Y-98220858D01*
X201499141Y-98059954D01*
X201312734Y-97929432D01*
X201312732Y-97929431D01*
X201106497Y-97833261D01*
X201106488Y-97833258D01*
X200886697Y-97774366D01*
X200886693Y-97774365D01*
X200886692Y-97774365D01*
X200886691Y-97774364D01*
X200886686Y-97774364D01*
X200660002Y-97754532D01*
X200659998Y-97754532D01*
X200433313Y-97774364D01*
X200433302Y-97774366D01*
X200337067Y-97800152D01*
X200267217Y-97798489D01*
X200217293Y-97768058D01*
X194200819Y-91751584D01*
X194167334Y-91690261D01*
X194164500Y-91663903D01*
X194164500Y-80452400D01*
X194184185Y-80385361D01*
X194236989Y-80339606D01*
X194288500Y-80328400D01*
X194815865Y-80328400D01*
X194882904Y-80348085D01*
G37*
%TD.AperFunction*%
%TA.AperFunction,Conductor*%
G36*
X201997865Y-51343348D02*
G01*
X202042382Y-51394725D01*
X202069429Y-51452728D01*
X202069432Y-51452734D01*
X202199954Y-51639141D01*
X202360858Y-51800045D01*
X202360861Y-51800047D01*
X202546624Y-51930118D01*
X202590248Y-51984693D01*
X202599500Y-52031692D01*
X202599500Y-56099903D01*
X202579815Y-56166942D01*
X202563181Y-56187584D01*
X200012584Y-58738181D01*
X199951261Y-58771666D01*
X199924903Y-58774500D01*
X199583318Y-58774500D01*
X199484816Y-58784563D01*
X199484815Y-58784564D01*
X199417757Y-58806785D01*
X199325215Y-58837450D01*
X199325204Y-58837455D01*
X199182112Y-58925716D01*
X199182108Y-58925719D01*
X199150181Y-58957647D01*
X199088858Y-58991132D01*
X199019166Y-58986148D01*
X198974819Y-58957647D01*
X198942891Y-58925719D01*
X198942887Y-58925716D01*
X198799795Y-58837455D01*
X198799789Y-58837452D01*
X198799787Y-58837451D01*
X198640185Y-58784564D01*
X198640183Y-58784563D01*
X198541681Y-58774500D01*
X198541674Y-58774500D01*
X198008326Y-58774500D01*
X198008318Y-58774500D01*
X197909816Y-58784563D01*
X197909815Y-58784564D01*
X197842757Y-58806785D01*
X197750215Y-58837450D01*
X197750204Y-58837455D01*
X197607112Y-58925716D01*
X197607107Y-58925720D01*
X197561921Y-58970905D01*
X197500598Y-59004389D01*
X197430906Y-58999403D01*
X197391271Y-58973930D01*
X197391094Y-58974157D01*
X197388672Y-58972260D01*
X197386561Y-58970903D01*
X197385188Y-58969530D01*
X197378394Y-58965423D01*
X197239606Y-58881522D01*
X197077196Y-58830914D01*
X197077194Y-58830913D01*
X197077192Y-58830913D01*
X197027778Y-58826423D01*
X197006616Y-58824500D01*
X196493384Y-58824500D01*
X196474145Y-58826248D01*
X196422807Y-58830913D01*
X196260393Y-58881522D01*
X196114811Y-58969530D01*
X196114810Y-58969531D01*
X196012681Y-59071661D01*
X195951358Y-59105146D01*
X195881666Y-59100162D01*
X195837319Y-59071661D01*
X195735188Y-58969530D01*
X195728394Y-58965423D01*
X195589606Y-58881522D01*
X195427196Y-58830914D01*
X195427194Y-58830913D01*
X195427192Y-58830913D01*
X195377778Y-58826423D01*
X195356616Y-58824500D01*
X194843384Y-58824500D01*
X194824145Y-58826248D01*
X194772807Y-58830913D01*
X194610393Y-58881522D01*
X194464811Y-58969530D01*
X194344530Y-59089811D01*
X194256522Y-59235393D01*
X194205913Y-59397807D01*
X194199500Y-59468386D01*
X194199500Y-60131613D01*
X194205913Y-60202192D01*
X194205913Y-60202194D01*
X194205914Y-60202196D01*
X194256522Y-60364606D01*
X194344528Y-60510185D01*
X194463182Y-60628839D01*
X194496666Y-60690160D01*
X194499500Y-60716519D01*
X194499500Y-61533480D01*
X194479815Y-61600519D01*
X194463181Y-61621161D01*
X194344531Y-61739810D01*
X194344530Y-61739811D01*
X194256522Y-61885393D01*
X194205913Y-62047807D01*
X194199500Y-62118386D01*
X194199500Y-62781613D01*
X194205913Y-62852192D01*
X194205913Y-62852194D01*
X194205914Y-62852196D01*
X194256522Y-63014606D01*
X194339657Y-63152128D01*
X194344530Y-63160188D01*
X194464811Y-63280469D01*
X194464813Y-63280470D01*
X194464815Y-63280472D01*
X194610394Y-63368478D01*
X194772804Y-63419086D01*
X194843384Y-63425500D01*
X195174903Y-63425500D01*
X195241942Y-63445185D01*
X195262584Y-63461819D01*
X195513084Y-63712319D01*
X195546569Y-63773642D01*
X195541585Y-63843334D01*
X195513084Y-63887681D01*
X195262584Y-64138181D01*
X195201261Y-64171666D01*
X195174903Y-64174500D01*
X194843384Y-64174500D01*
X194824145Y-64176248D01*
X194772807Y-64180913D01*
X194610393Y-64231522D01*
X194464811Y-64319530D01*
X194344530Y-64439811D01*
X194256522Y-64585393D01*
X194205913Y-64747807D01*
X194199500Y-64818386D01*
X194199500Y-65481613D01*
X194205913Y-65552192D01*
X194205913Y-65552194D01*
X194205914Y-65552196D01*
X194217191Y-65588385D01*
X194256522Y-65714606D01*
X194344530Y-65860188D01*
X194464811Y-65980469D01*
X194464813Y-65980470D01*
X194464815Y-65980472D01*
X194610394Y-66068478D01*
X194772804Y-66119086D01*
X194843384Y-66125500D01*
X194843387Y-66125500D01*
X195356613Y-66125500D01*
X195356616Y-66125500D01*
X195427196Y-66119086D01*
X195589606Y-66068478D01*
X195735185Y-65980472D01*
X195776295Y-65939362D01*
X195837319Y-65878339D01*
X195898642Y-65844854D01*
X195968334Y-65849838D01*
X196012681Y-65878339D01*
X196114811Y-65980469D01*
X196114813Y-65980470D01*
X196114815Y-65980472D01*
X196260394Y-66068478D01*
X196422804Y-66119086D01*
X196493384Y-66125500D01*
X196493387Y-66125500D01*
X197006613Y-66125500D01*
X197006616Y-66125500D01*
X197077196Y-66119086D01*
X197239606Y-66068478D01*
X197385185Y-65980472D01*
X197392806Y-65972850D01*
X197454125Y-65939362D01*
X197523817Y-65944341D01*
X197563775Y-65970018D01*
X197563946Y-65969803D01*
X197566144Y-65971541D01*
X197568173Y-65972845D01*
X197569608Y-65974280D01*
X197569612Y-65974283D01*
X197712704Y-66062544D01*
X197712707Y-66062545D01*
X197712713Y-66062549D01*
X197872315Y-66115436D01*
X197970826Y-66125500D01*
X197970831Y-66125500D01*
X198504169Y-66125500D01*
X198504174Y-66125500D01*
X198602685Y-66115436D01*
X198762287Y-66062549D01*
X198905391Y-65974281D01*
X198937672Y-65942000D01*
X198998995Y-65908515D01*
X199068687Y-65913499D01*
X199113034Y-65942000D01*
X199144919Y-65973885D01*
X199287922Y-66062091D01*
X199287927Y-66062093D01*
X199447416Y-66114942D01*
X199545856Y-66124999D01*
X199562500Y-66124998D01*
X199562500Y-65400000D01*
X200062500Y-65400000D01*
X200062500Y-66124999D01*
X200079136Y-66124999D01*
X200079152Y-66124998D01*
X200177583Y-66114943D01*
X200337072Y-66062093D01*
X200337077Y-66062091D01*
X200480080Y-65973885D01*
X200598885Y-65855080D01*
X200687091Y-65712077D01*
X200687093Y-65712072D01*
X200739942Y-65552583D01*
X200749999Y-65454150D01*
X200750000Y-65454137D01*
X200750000Y-65400000D01*
X200062500Y-65400000D01*
X199562500Y-65400000D01*
X199562500Y-65024000D01*
X199582185Y-64956961D01*
X199634989Y-64911206D01*
X199686500Y-64900000D01*
X200749999Y-64900000D01*
X200749999Y-64845864D01*
X200749998Y-64845847D01*
X200739943Y-64747416D01*
X200687093Y-64587927D01*
X200684039Y-64581377D01*
X200685666Y-64580618D01*
X200669684Y-64522200D01*
X200690609Y-64455537D01*
X200744252Y-64410770D01*
X200793663Y-64400500D01*
X202166500Y-64400500D01*
X202233539Y-64420185D01*
X202279294Y-64472989D01*
X202290500Y-64524500D01*
X202290500Y-65198180D01*
X202270815Y-65265219D01*
X202254181Y-65285861D01*
X202135931Y-65404110D01*
X202135930Y-65404111D01*
X202047922Y-65549693D01*
X201997313Y-65712107D01*
X201990900Y-65782686D01*
X201990900Y-66445913D01*
X201997313Y-66516492D01*
X201997313Y-66516494D01*
X201997314Y-66516496D01*
X202047922Y-66678906D01*
X202133027Y-66819687D01*
X202135930Y-66824488D01*
X202254181Y-66942739D01*
X202287666Y-67004062D01*
X202290500Y-67030420D01*
X202290500Y-68749930D01*
X202290499Y-68749948D01*
X202290499Y-68819581D01*
X202270814Y-68886620D01*
X202254180Y-68907262D01*
X202135931Y-69025510D01*
X202135930Y-69025511D01*
X202047922Y-69171093D01*
X201997313Y-69333507D01*
X201992182Y-69389975D01*
X201990900Y-69404084D01*
X201990900Y-70067316D01*
X201992098Y-70080500D01*
X201997313Y-70137892D01*
X201997313Y-70137894D01*
X201997314Y-70137896D01*
X202047922Y-70300306D01*
X202062237Y-70323986D01*
X202087760Y-70366205D01*
X202105597Y-70433760D01*
X202084080Y-70500234D01*
X202069325Y-70518037D01*
X201533201Y-71054161D01*
X201471878Y-71087646D01*
X201402186Y-71082662D01*
X201346253Y-71040790D01*
X201321836Y-70975326D01*
X201326444Y-70931883D01*
X201338500Y-70890387D01*
X201338695Y-70887901D01*
X201338695Y-70887900D01*
X198394105Y-70887900D01*
X198394104Y-70887901D01*
X198394299Y-70890386D01*
X198440118Y-71048098D01*
X198523714Y-71189452D01*
X198528500Y-71195622D01*
X198526040Y-71197529D01*
X198552610Y-71246188D01*
X198547626Y-71315880D01*
X198526562Y-71348681D01*
X198528099Y-71349874D01*
X198523315Y-71356040D01*
X198439655Y-71497503D01*
X198439653Y-71497506D01*
X198421260Y-71560818D01*
X198389865Y-71613904D01*
X197791286Y-72212484D01*
X197679481Y-72324288D01*
X197679477Y-72324293D01*
X197639935Y-72392784D01*
X197639935Y-72392785D01*
X197600423Y-72461220D01*
X197590117Y-72499682D01*
X197559499Y-72613949D01*
X197559499Y-72613951D01*
X197559499Y-72782052D01*
X197559500Y-72782065D01*
X197559500Y-78273330D01*
X197559499Y-78273348D01*
X197559499Y-78439054D01*
X197559498Y-78439054D01*
X197559499Y-78439057D01*
X197600423Y-78591785D01*
X197620468Y-78626503D01*
X197651091Y-78679544D01*
X197679479Y-78728715D01*
X197798349Y-78847585D01*
X197798355Y-78847590D01*
X198207939Y-79257174D01*
X198207949Y-79257185D01*
X198212279Y-79261515D01*
X198212280Y-79261516D01*
X198324084Y-79373320D01*
X198324086Y-79373321D01*
X198329042Y-79377124D01*
X198370245Y-79433551D01*
X198374400Y-79503297D01*
X198340188Y-79564218D01*
X198278471Y-79596971D01*
X198253556Y-79599500D01*
X197763197Y-79599500D01*
X197696158Y-79579815D01*
X197675516Y-79563181D01*
X196428219Y-78315884D01*
X196394734Y-78254561D01*
X196391900Y-78228203D01*
X196391900Y-78042213D01*
X196391899Y-78042198D01*
X196388998Y-78005332D01*
X196388997Y-78005326D01*
X196343145Y-77847506D01*
X196343144Y-77847503D01*
X196343144Y-77847502D01*
X196259481Y-77706035D01*
X196259478Y-77706032D01*
X196254698Y-77699869D01*
X196257150Y-77697966D01*
X196230555Y-77649321D01*
X196235504Y-77579626D01*
X196256340Y-77547204D01*
X196254698Y-77545931D01*
X196259475Y-77539770D01*
X196259481Y-77539765D01*
X196343144Y-77398298D01*
X196388998Y-77240469D01*
X196391900Y-77203594D01*
X196391900Y-76772206D01*
X196388998Y-76735331D01*
X196379754Y-76703514D01*
X196343145Y-76577506D01*
X196343144Y-76577503D01*
X196343144Y-76577502D01*
X196259481Y-76436035D01*
X196259478Y-76436032D01*
X196254698Y-76429869D01*
X196257035Y-76428055D01*
X196230198Y-76378950D01*
X196235156Y-76309256D01*
X196255954Y-76276898D01*
X196254303Y-76275617D01*
X196259086Y-76269450D01*
X196342681Y-76128098D01*
X196388500Y-75970386D01*
X196388695Y-75967901D01*
X196388695Y-75967900D01*
X194790400Y-75967900D01*
X194723361Y-75948215D01*
X194677606Y-75895411D01*
X194666400Y-75843900D01*
X194666400Y-75591900D01*
X194686085Y-75524861D01*
X194738889Y-75479106D01*
X194790400Y-75467900D01*
X196388695Y-75467900D01*
X196388695Y-75467898D01*
X196388500Y-75465413D01*
X196342681Y-75307701D01*
X196259085Y-75166347D01*
X196254300Y-75160178D01*
X196256766Y-75158264D01*
X196230202Y-75109676D01*
X196235149Y-75039982D01*
X196256256Y-75007132D01*
X196254701Y-75005926D01*
X196259477Y-74999768D01*
X196259481Y-74999765D01*
X196343144Y-74858298D01*
X196380481Y-74729784D01*
X196388997Y-74700473D01*
X196388998Y-74700467D01*
X196390181Y-74685433D01*
X196391900Y-74663594D01*
X196391900Y-74232206D01*
X196388998Y-74195331D01*
X196387888Y-74191511D01*
X196350403Y-74062487D01*
X196343144Y-74037502D01*
X196259481Y-73896035D01*
X196259478Y-73896032D01*
X196254698Y-73889869D01*
X196257150Y-73887966D01*
X196230555Y-73839321D01*
X196235504Y-73769626D01*
X196256340Y-73737204D01*
X196254698Y-73735931D01*
X196259475Y-73729770D01*
X196259481Y-73729765D01*
X196343144Y-73588298D01*
X196388998Y-73430469D01*
X196391900Y-73393594D01*
X196391900Y-72962206D01*
X196388998Y-72925331D01*
X196378814Y-72890279D01*
X196343145Y-72767506D01*
X196343144Y-72767503D01*
X196343144Y-72767502D01*
X196259481Y-72626035D01*
X196259478Y-72626032D01*
X196254698Y-72619869D01*
X196257150Y-72617966D01*
X196230555Y-72569321D01*
X196235504Y-72499626D01*
X196256340Y-72467204D01*
X196254698Y-72465931D01*
X196259475Y-72459770D01*
X196259481Y-72459765D01*
X196343144Y-72318298D01*
X196388998Y-72160469D01*
X196391900Y-72123594D01*
X196391900Y-71692206D01*
X196388998Y-71655331D01*
X196378990Y-71620885D01*
X196343145Y-71497506D01*
X196343144Y-71497503D01*
X196343144Y-71497502D01*
X196259481Y-71356035D01*
X196259478Y-71356032D01*
X196254698Y-71349869D01*
X196257150Y-71347966D01*
X196230555Y-71299321D01*
X196235504Y-71229626D01*
X196256340Y-71197204D01*
X196254698Y-71195931D01*
X196259475Y-71189770D01*
X196259481Y-71189765D01*
X196343144Y-71048298D01*
X196380821Y-70918615D01*
X196388997Y-70890473D01*
X196388998Y-70890467D01*
X196389004Y-70890387D01*
X196391900Y-70853594D01*
X196391900Y-70422206D01*
X196389200Y-70387898D01*
X198394104Y-70387898D01*
X198394105Y-70387900D01*
X199616400Y-70387900D01*
X199616400Y-69837900D01*
X200116400Y-69837900D01*
X200116400Y-70387900D01*
X201338695Y-70387900D01*
X201338695Y-70387898D01*
X201338500Y-70385413D01*
X201292681Y-70227701D01*
X201209085Y-70086347D01*
X201209078Y-70086338D01*
X201092961Y-69970221D01*
X201092952Y-69970214D01*
X200951596Y-69886617D01*
X200951593Y-69886616D01*
X200793895Y-69840800D01*
X200793889Y-69840799D01*
X200757049Y-69837900D01*
X200116400Y-69837900D01*
X199616400Y-69837900D01*
X198975750Y-69837900D01*
X198938910Y-69840799D01*
X198938904Y-69840800D01*
X198781206Y-69886616D01*
X198781203Y-69886617D01*
X198639847Y-69970214D01*
X198639838Y-69970221D01*
X198523721Y-70086338D01*
X198523714Y-70086347D01*
X198440118Y-70227701D01*
X198394299Y-70385413D01*
X198394104Y-70387898D01*
X196389200Y-70387898D01*
X196388998Y-70385331D01*
X196383441Y-70366205D01*
X196343145Y-70227506D01*
X196343144Y-70227503D01*
X196343144Y-70227502D01*
X196259481Y-70086035D01*
X196259479Y-70086033D01*
X196259476Y-70086029D01*
X196143270Y-69969823D01*
X196143262Y-69969817D01*
X196065081Y-69923581D01*
X196001798Y-69886156D01*
X196001797Y-69886155D01*
X196001796Y-69886155D01*
X196001793Y-69886154D01*
X195843973Y-69840302D01*
X195843967Y-69840301D01*
X195807101Y-69837400D01*
X195807094Y-69837400D01*
X194025706Y-69837400D01*
X194025698Y-69837400D01*
X193988832Y-69840301D01*
X193988826Y-69840302D01*
X193831006Y-69886154D01*
X193831003Y-69886155D01*
X193689537Y-69969817D01*
X193689529Y-69969823D01*
X193573323Y-70086029D01*
X193573317Y-70086037D01*
X193489655Y-70227503D01*
X193489654Y-70227506D01*
X193443802Y-70385326D01*
X193443801Y-70385332D01*
X193440900Y-70422198D01*
X193440900Y-70853601D01*
X193443801Y-70890467D01*
X193443802Y-70890473D01*
X193489654Y-71048293D01*
X193489655Y-71048296D01*
X193489656Y-71048298D01*
X193505343Y-71074824D01*
X193573317Y-71189762D01*
X193578102Y-71195931D01*
X193575656Y-71197827D01*
X193602257Y-71246542D01*
X193597273Y-71316234D01*
X193576469Y-71348603D01*
X193578102Y-71349869D01*
X193573317Y-71356037D01*
X193489655Y-71497503D01*
X193489654Y-71497506D01*
X193443802Y-71655326D01*
X193443801Y-71655332D01*
X193440900Y-71692198D01*
X193440900Y-72123601D01*
X193443801Y-72160467D01*
X193443802Y-72160473D01*
X193489654Y-72318293D01*
X193489655Y-72318296D01*
X193489656Y-72318298D01*
X193511645Y-72355480D01*
X193573317Y-72459762D01*
X193578102Y-72465931D01*
X193575656Y-72467827D01*
X193602257Y-72516542D01*
X193597273Y-72586234D01*
X193576469Y-72618603D01*
X193578102Y-72619869D01*
X193573317Y-72626037D01*
X193489655Y-72767503D01*
X193489654Y-72767506D01*
X193443802Y-72925326D01*
X193443801Y-72925332D01*
X193440900Y-72962198D01*
X193440900Y-73339402D01*
X193421215Y-73406441D01*
X193404581Y-73427083D01*
X192283481Y-74548182D01*
X192283477Y-74548187D01*
X192234676Y-74632715D01*
X192234676Y-74632716D01*
X192204423Y-74685114D01*
X192197318Y-74711630D01*
X192163499Y-74837843D01*
X192163499Y-74837845D01*
X192163499Y-75005946D01*
X192163500Y-75005959D01*
X192163500Y-96157330D01*
X192163499Y-96157348D01*
X192163499Y-96323054D01*
X192163498Y-96323054D01*
X192204423Y-96475784D01*
X192204424Y-96475787D01*
X192205569Y-96477769D01*
X192205573Y-96477787D01*
X192205578Y-96477785D01*
X192283477Y-96612712D01*
X192283481Y-96612717D01*
X192402349Y-96731585D01*
X192402355Y-96731590D01*
X193221336Y-97550571D01*
X193254821Y-97611894D01*
X193249837Y-97681586D01*
X193207965Y-97737519D01*
X193142501Y-97761936D01*
X193122848Y-97761780D01*
X193040002Y-97754532D01*
X193039998Y-97754532D01*
X192813313Y-97774364D01*
X192813302Y-97774366D01*
X192717067Y-97800152D01*
X192647217Y-97798489D01*
X192597293Y-97768058D01*
X187086819Y-92257584D01*
X187053334Y-92196261D01*
X187050500Y-92169903D01*
X187050500Y-90700001D01*
X187574500Y-90700001D01*
X187574501Y-90700018D01*
X187585000Y-90802796D01*
X187585001Y-90802799D01*
X187613120Y-90887655D01*
X187640186Y-90969334D01*
X187732288Y-91118656D01*
X187856344Y-91242712D01*
X188005666Y-91334814D01*
X188172203Y-91389999D01*
X188274991Y-91400500D01*
X189825008Y-91400499D01*
X189927797Y-91389999D01*
X190094334Y-91334814D01*
X190243656Y-91242712D01*
X190367712Y-91118656D01*
X190459814Y-90969334D01*
X190514999Y-90802797D01*
X190525500Y-90700009D01*
X190525499Y-89399992D01*
X190514999Y-89297203D01*
X190459814Y-89130666D01*
X190367712Y-88981344D01*
X190243656Y-88857288D01*
X190094334Y-88765186D01*
X190094333Y-88765185D01*
X190088878Y-88761821D01*
X190042154Y-88709873D01*
X190030931Y-88640910D01*
X190058775Y-88576828D01*
X190066272Y-88568623D01*
X190205104Y-88429792D01*
X190245370Y-88374371D01*
X190297902Y-88302065D01*
X190330051Y-88257816D01*
X190426557Y-88068412D01*
X190492246Y-87866243D01*
X190525500Y-87656287D01*
X190525500Y-87443713D01*
X190492246Y-87233757D01*
X190426557Y-87031588D01*
X190330051Y-86842184D01*
X190330049Y-86842181D01*
X190330048Y-86842179D01*
X190205109Y-86670213D01*
X190054792Y-86519896D01*
X189958593Y-86450004D01*
X189890204Y-86400316D01*
X189847540Y-86344989D01*
X189841561Y-86275376D01*
X189874166Y-86213580D01*
X189890199Y-86199686D01*
X190054792Y-86080104D01*
X190205104Y-85929792D01*
X190205106Y-85929788D01*
X190205109Y-85929786D01*
X190330048Y-85757820D01*
X190330047Y-85757820D01*
X190330051Y-85757816D01*
X190426557Y-85568412D01*
X190492246Y-85366243D01*
X190525500Y-85156287D01*
X190525500Y-84943713D01*
X190492246Y-84733757D01*
X190426557Y-84531588D01*
X190330051Y-84342184D01*
X190330049Y-84342181D01*
X190330048Y-84342179D01*
X190205109Y-84170213D01*
X190054792Y-84019896D01*
X190054784Y-84019890D01*
X189890204Y-83900316D01*
X189847540Y-83844989D01*
X189841561Y-83775376D01*
X189874166Y-83713580D01*
X189890199Y-83699686D01*
X190054792Y-83580104D01*
X190205104Y-83429792D01*
X190205106Y-83429788D01*
X190205109Y-83429786D01*
X190330048Y-83257820D01*
X190330047Y-83257820D01*
X190330051Y-83257816D01*
X190426557Y-83068412D01*
X190492246Y-82866243D01*
X190525500Y-82656287D01*
X190525500Y-82443713D01*
X190492246Y-82233757D01*
X190426557Y-82031588D01*
X190330051Y-81842184D01*
X190330049Y-81842181D01*
X190330048Y-81842179D01*
X190205109Y-81670213D01*
X190054786Y-81519890D01*
X189882820Y-81394951D01*
X189693414Y-81298444D01*
X189693413Y-81298443D01*
X189693412Y-81298443D01*
X189491243Y-81232754D01*
X189491241Y-81232753D01*
X189491240Y-81232753D01*
X189329957Y-81207208D01*
X189281287Y-81199500D01*
X188818713Y-81199500D01*
X188770042Y-81207208D01*
X188608760Y-81232753D01*
X188406585Y-81298444D01*
X188217179Y-81394951D01*
X188045213Y-81519890D01*
X187894890Y-81670213D01*
X187769951Y-81842179D01*
X187673444Y-82031585D01*
X187607753Y-82233760D01*
X187574500Y-82443713D01*
X187574500Y-82656286D01*
X187607459Y-82864385D01*
X187607754Y-82866243D01*
X187670572Y-83059577D01*
X187673444Y-83068414D01*
X187769951Y-83257820D01*
X187894890Y-83429786D01*
X188045209Y-83580105D01*
X188045214Y-83580109D01*
X188209793Y-83699682D01*
X188252459Y-83755011D01*
X188258438Y-83824625D01*
X188225833Y-83886420D01*
X188209793Y-83900318D01*
X188045214Y-84019890D01*
X188045209Y-84019894D01*
X187894890Y-84170213D01*
X187769951Y-84342179D01*
X187673444Y-84531585D01*
X187607753Y-84733760D01*
X187574500Y-84943713D01*
X187574500Y-85156286D01*
X187607753Y-85366239D01*
X187673444Y-85568414D01*
X187769951Y-85757820D01*
X187894890Y-85929786D01*
X188045209Y-86080105D01*
X188045214Y-86080109D01*
X188209793Y-86199682D01*
X188252459Y-86255011D01*
X188258438Y-86324625D01*
X188225833Y-86386420D01*
X188209793Y-86400318D01*
X188045214Y-86519890D01*
X188045209Y-86519894D01*
X187894890Y-86670213D01*
X187769951Y-86842179D01*
X187673444Y-87031585D01*
X187607753Y-87233760D01*
X187590941Y-87339909D01*
X187574500Y-87443713D01*
X187574500Y-87656287D01*
X187607754Y-87866243D01*
X187641542Y-87970232D01*
X187673444Y-88068414D01*
X187769951Y-88257820D01*
X187894890Y-88429786D01*
X188033705Y-88568601D01*
X188067190Y-88629924D01*
X188062206Y-88699616D01*
X188020334Y-88755549D01*
X188011121Y-88761821D01*
X187856342Y-88857289D01*
X187732289Y-88981342D01*
X187640187Y-89130663D01*
X187640186Y-89130666D01*
X187585001Y-89297203D01*
X187585001Y-89297204D01*
X187585000Y-89297204D01*
X187574500Y-89399983D01*
X187574500Y-90700001D01*
X187050500Y-90700001D01*
X187050500Y-77000001D01*
X187574500Y-77000001D01*
X187574501Y-77000018D01*
X187585000Y-77102796D01*
X187585001Y-77102799D01*
X187618399Y-77203586D01*
X187640186Y-77269334D01*
X187732288Y-77418656D01*
X187856344Y-77542712D01*
X188005666Y-77634814D01*
X188172203Y-77689999D01*
X188274991Y-77700500D01*
X189825008Y-77700499D01*
X189927797Y-77689999D01*
X190094334Y-77634814D01*
X190243656Y-77542712D01*
X190367712Y-77418656D01*
X190459814Y-77269334D01*
X190514999Y-77102797D01*
X190525500Y-77000009D01*
X190525499Y-75699992D01*
X190522856Y-75674123D01*
X190514999Y-75597203D01*
X190514998Y-75597200D01*
X190491027Y-75524861D01*
X190459814Y-75430666D01*
X190367712Y-75281344D01*
X190243656Y-75157288D01*
X190094334Y-75065186D01*
X190094333Y-75065185D01*
X190088878Y-75061821D01*
X190042154Y-75009873D01*
X190030931Y-74940910D01*
X190058775Y-74876828D01*
X190066272Y-74868623D01*
X190205104Y-74729792D01*
X190218300Y-74711630D01*
X190330048Y-74557820D01*
X190330047Y-74557820D01*
X190330051Y-74557816D01*
X190426557Y-74368412D01*
X190492246Y-74166243D01*
X190525500Y-73956287D01*
X190525500Y-73743713D01*
X190492246Y-73533757D01*
X190426557Y-73331588D01*
X190330051Y-73142184D01*
X190330049Y-73142181D01*
X190330048Y-73142179D01*
X190205109Y-72970213D01*
X190054792Y-72819896D01*
X190049343Y-72815937D01*
X189890204Y-72700316D01*
X189847540Y-72644989D01*
X189841561Y-72575376D01*
X189874166Y-72513580D01*
X189890199Y-72499686D01*
X190054792Y-72380104D01*
X190205104Y-72229792D01*
X190205106Y-72229788D01*
X190205109Y-72229786D01*
X190330048Y-72057820D01*
X190330047Y-72057820D01*
X190330051Y-72057816D01*
X190426557Y-71868412D01*
X190492246Y-71666243D01*
X190525500Y-71456287D01*
X190525500Y-71243713D01*
X190492246Y-71033757D01*
X190426557Y-70831588D01*
X190330051Y-70642184D01*
X190330049Y-70642181D01*
X190330048Y-70642179D01*
X190205109Y-70470213D01*
X190054792Y-70319896D01*
X190027828Y-70300306D01*
X189890204Y-70200316D01*
X189847540Y-70144989D01*
X189841561Y-70075376D01*
X189874166Y-70013580D01*
X189890199Y-69999686D01*
X190054792Y-69880104D01*
X190205104Y-69729792D01*
X190205106Y-69729788D01*
X190205109Y-69729786D01*
X190330048Y-69557820D01*
X190330047Y-69557820D01*
X190330051Y-69557816D01*
X190426557Y-69368412D01*
X190492246Y-69166243D01*
X190525500Y-68956287D01*
X190525500Y-68743713D01*
X190492246Y-68533757D01*
X190426557Y-68331588D01*
X190330051Y-68142184D01*
X190330049Y-68142181D01*
X190330048Y-68142179D01*
X190205109Y-67970213D01*
X190054786Y-67819890D01*
X189882820Y-67694951D01*
X189693414Y-67598444D01*
X189693413Y-67598443D01*
X189693412Y-67598443D01*
X189491243Y-67532754D01*
X189491241Y-67532753D01*
X189491240Y-67532753D01*
X189299167Y-67502332D01*
X189281287Y-67499500D01*
X188818713Y-67499500D01*
X188800833Y-67502332D01*
X188608760Y-67532753D01*
X188406585Y-67598444D01*
X188217179Y-67694951D01*
X188045213Y-67819890D01*
X187894890Y-67970213D01*
X187769951Y-68142179D01*
X187673444Y-68331585D01*
X187607753Y-68533760D01*
X187583370Y-68687711D01*
X187574500Y-68743713D01*
X187574500Y-68956287D01*
X187582448Y-69006466D01*
X187602516Y-69133175D01*
X187607754Y-69166243D01*
X187650112Y-69296608D01*
X187673444Y-69368414D01*
X187769951Y-69557820D01*
X187894890Y-69729786D01*
X188045209Y-69880105D01*
X188045214Y-69880109D01*
X188209793Y-69999682D01*
X188252459Y-70055011D01*
X188258438Y-70124625D01*
X188225833Y-70186420D01*
X188209793Y-70200318D01*
X188045214Y-70319890D01*
X188045209Y-70319894D01*
X187894890Y-70470213D01*
X187769951Y-70642179D01*
X187673444Y-70831585D01*
X187607753Y-71033760D01*
X187578731Y-71216997D01*
X187574500Y-71243713D01*
X187574500Y-71456287D01*
X187584534Y-71519644D01*
X187606025Y-71655331D01*
X187607754Y-71666243D01*
X187655399Y-71812880D01*
X187673444Y-71868414D01*
X187769951Y-72057820D01*
X187894890Y-72229786D01*
X188045209Y-72380105D01*
X188045214Y-72380109D01*
X188209793Y-72499682D01*
X188252459Y-72555011D01*
X188258438Y-72624625D01*
X188225833Y-72686420D01*
X188209793Y-72700318D01*
X188045214Y-72819890D01*
X188045209Y-72819894D01*
X187894890Y-72970213D01*
X187769951Y-73142179D01*
X187673444Y-73331585D01*
X187607753Y-73533760D01*
X187576710Y-73729762D01*
X187574500Y-73743713D01*
X187574500Y-73956287D01*
X187577826Y-73977285D01*
X187591320Y-74062487D01*
X187607754Y-74166243D01*
X187663718Y-74338483D01*
X187673444Y-74368414D01*
X187769951Y-74557820D01*
X187894890Y-74729786D01*
X188033705Y-74868601D01*
X188067190Y-74929924D01*
X188062206Y-74999616D01*
X188020334Y-75055549D01*
X188011121Y-75061821D01*
X187856342Y-75157289D01*
X187732289Y-75281342D01*
X187640187Y-75430663D01*
X187640185Y-75430668D01*
X187623948Y-75479669D01*
X187585001Y-75597203D01*
X187585001Y-75597204D01*
X187585000Y-75597204D01*
X187574500Y-75699983D01*
X187574500Y-77000001D01*
X187050500Y-77000001D01*
X187050500Y-65574499D01*
X187070185Y-65507460D01*
X187122989Y-65461705D01*
X187174500Y-65450499D01*
X187372871Y-65450499D01*
X187372872Y-65450499D01*
X187432483Y-65444091D01*
X187567331Y-65393796D01*
X187682546Y-65307546D01*
X187768796Y-65192331D01*
X187819091Y-65057483D01*
X187825500Y-64997873D01*
X187825499Y-64452128D01*
X187825498Y-64452111D01*
X187821320Y-64413253D01*
X187821320Y-64386747D01*
X187825500Y-64347873D01*
X187825499Y-63802128D01*
X187825499Y-63802127D01*
X187825498Y-63802111D01*
X187821320Y-63763253D01*
X187821320Y-63736747D01*
X187825500Y-63697873D01*
X187825499Y-63152128D01*
X187825499Y-63152127D01*
X187825498Y-63152111D01*
X187821320Y-63113253D01*
X187821320Y-63086747D01*
X187825500Y-63047873D01*
X187825499Y-62502128D01*
X187825498Y-62502111D01*
X187821320Y-62463253D01*
X187821320Y-62436747D01*
X187825500Y-62397873D01*
X187825499Y-61852128D01*
X187825498Y-61852111D01*
X187821320Y-61813253D01*
X187821320Y-61786747D01*
X187825500Y-61747873D01*
X187825499Y-61202128D01*
X187825498Y-61202111D01*
X187821320Y-61163253D01*
X187821320Y-61136747D01*
X187825500Y-61097873D01*
X187825499Y-60552128D01*
X187825499Y-60552127D01*
X187825498Y-60552111D01*
X187821320Y-60513253D01*
X187821320Y-60486745D01*
X187825500Y-60447873D01*
X187825499Y-59902128D01*
X187825499Y-59902127D01*
X187825498Y-59902111D01*
X187821320Y-59863253D01*
X187821320Y-59836745D01*
X187825500Y-59797873D01*
X187825499Y-59599499D01*
X187845183Y-59532461D01*
X187897987Y-59486706D01*
X187949499Y-59475500D01*
X188447303Y-59475500D01*
X188514342Y-59495185D01*
X188560097Y-59547989D01*
X188566524Y-59592689D01*
X188572768Y-59600000D01*
X189616988Y-59600000D01*
X189584075Y-59657007D01*
X189550000Y-59784174D01*
X189550000Y-59915826D01*
X189584075Y-60042993D01*
X189616988Y-60100000D01*
X188572769Y-60100000D01*
X188583242Y-60166126D01*
X188583242Y-60166129D01*
X188648904Y-60368217D01*
X188745379Y-60557557D01*
X188870272Y-60729459D01*
X188870276Y-60729464D01*
X189009143Y-60868331D01*
X189042628Y-60929654D01*
X189037644Y-60999346D01*
X188995772Y-61055279D01*
X188986559Y-61061551D01*
X188831342Y-61157289D01*
X188707289Y-61281342D01*
X188615187Y-61430663D01*
X188615185Y-61430668D01*
X188592579Y-61498889D01*
X188560001Y-61597203D01*
X188560001Y-61597204D01*
X188560000Y-61597204D01*
X188549500Y-61699983D01*
X188549500Y-63000001D01*
X188549501Y-63000018D01*
X188560000Y-63102796D01*
X188560001Y-63102799D01*
X188592045Y-63199500D01*
X188615186Y-63269334D01*
X188707288Y-63418656D01*
X188831344Y-63542712D01*
X188980666Y-63634814D01*
X189147203Y-63689999D01*
X189249991Y-63700500D01*
X190850008Y-63700499D01*
X190952797Y-63689999D01*
X191119334Y-63634814D01*
X191268656Y-63542712D01*
X191392712Y-63418656D01*
X191484814Y-63269334D01*
X191539999Y-63102797D01*
X191550500Y-63000009D01*
X191550499Y-61699992D01*
X191539999Y-61597203D01*
X191484814Y-61430666D01*
X191392712Y-61281344D01*
X191268656Y-61157288D01*
X191119334Y-61065186D01*
X191119332Y-61065185D01*
X191113440Y-61061551D01*
X191066716Y-61009603D01*
X191055493Y-60940641D01*
X191083337Y-60876558D01*
X191090856Y-60868330D01*
X191229728Y-60729458D01*
X191354620Y-60557557D01*
X191451095Y-60368217D01*
X191516757Y-60166129D01*
X191516757Y-60166126D01*
X191527231Y-60100000D01*
X190483012Y-60100000D01*
X190515925Y-60042993D01*
X190550000Y-59915826D01*
X190550000Y-59784174D01*
X190515925Y-59657007D01*
X190483012Y-59600000D01*
X191527231Y-59600000D01*
X191516757Y-59533873D01*
X191516757Y-59533870D01*
X191477425Y-59412818D01*
X191475430Y-59342977D01*
X191511510Y-59283144D01*
X191574211Y-59252316D01*
X191595356Y-59250500D01*
X192713331Y-59250500D01*
X192713347Y-59250501D01*
X192720943Y-59250501D01*
X192879054Y-59250501D01*
X192879057Y-59250501D01*
X193031785Y-59209577D01*
X193090059Y-59175932D01*
X193168716Y-59130520D01*
X193280520Y-59018716D01*
X193280520Y-59018714D01*
X193290724Y-59008511D01*
X193290728Y-59008506D01*
X200209407Y-52089826D01*
X200270728Y-52056343D01*
X200329179Y-52057734D01*
X200360727Y-52066187D01*
X200433308Y-52085635D01*
X200588105Y-52099178D01*
X200659998Y-52105468D01*
X200660000Y-52105468D01*
X200660002Y-52105468D01*
X200716673Y-52100509D01*
X200886692Y-52085635D01*
X201106496Y-52026739D01*
X201312734Y-51930568D01*
X201499139Y-51800047D01*
X201660047Y-51639139D01*
X201790568Y-51452734D01*
X201817618Y-51394724D01*
X201863790Y-51342285D01*
X201930983Y-51323133D01*
X201997865Y-51343348D01*
G37*
%TD.AperFunction*%
%TA.AperFunction,Conductor*%
G36*
X193569703Y-95359384D02*
G01*
X193576181Y-95365416D01*
X195761336Y-97550571D01*
X195794821Y-97611894D01*
X195789837Y-97681586D01*
X195747965Y-97737519D01*
X195682501Y-97761936D01*
X195662848Y-97761780D01*
X195580002Y-97754532D01*
X195579998Y-97754532D01*
X195353313Y-97774364D01*
X195353302Y-97774366D01*
X195257067Y-97800152D01*
X195187217Y-97798489D01*
X195137293Y-97768058D01*
X193400819Y-96031584D01*
X193367334Y-95970261D01*
X193364500Y-95943903D01*
X193364500Y-95453097D01*
X193384185Y-95386058D01*
X193436989Y-95340303D01*
X193506147Y-95330359D01*
X193569703Y-95359384D01*
G37*
%TD.AperFunction*%
%TA.AperFunction,Conductor*%
G36*
X193969703Y-93219384D02*
G01*
X193976181Y-93225416D01*
X198301336Y-97550571D01*
X198334821Y-97611894D01*
X198329837Y-97681586D01*
X198287965Y-97737519D01*
X198222501Y-97761936D01*
X198202848Y-97761780D01*
X198120002Y-97754532D01*
X198119998Y-97754532D01*
X197893313Y-97774364D01*
X197893302Y-97774366D01*
X197797067Y-97800152D01*
X197727217Y-97798489D01*
X197677293Y-97768058D01*
X193800819Y-93891584D01*
X193767334Y-93830261D01*
X193764500Y-93803903D01*
X193764500Y-93313097D01*
X193784185Y-93246058D01*
X193836989Y-93200303D01*
X193906147Y-93190359D01*
X193969703Y-93219384D01*
G37*
%TD.AperFunction*%
%TA.AperFunction,Conductor*%
G36*
X195272836Y-52064072D02*
G01*
X195353308Y-52085635D01*
X195508105Y-52099178D01*
X195579998Y-52105468D01*
X195580000Y-52105468D01*
X195580001Y-52105468D01*
X195594176Y-52104227D01*
X195695724Y-52095343D01*
X195764222Y-52109109D01*
X195814405Y-52157724D01*
X195830339Y-52225753D01*
X195806964Y-52291597D01*
X195794211Y-52306552D01*
X190512584Y-57588181D01*
X190451261Y-57621666D01*
X190424903Y-57624500D01*
X187699835Y-57624500D01*
X187632796Y-57604815D01*
X187625525Y-57599767D01*
X187590125Y-57573267D01*
X187548253Y-57517334D01*
X187543269Y-57447642D01*
X187576754Y-57386319D01*
X187638077Y-57352834D01*
X187664435Y-57350000D01*
X187825000Y-57350000D01*
X187825207Y-57349792D01*
X187844685Y-57283461D01*
X187897489Y-57237706D01*
X187949000Y-57226500D01*
X189687331Y-57226500D01*
X189687347Y-57226501D01*
X189694943Y-57226501D01*
X189853054Y-57226501D01*
X189853057Y-57226501D01*
X190005785Y-57185577D01*
X190055904Y-57156639D01*
X190142716Y-57106520D01*
X190254520Y-56994716D01*
X190254520Y-56994714D01*
X190264728Y-56984507D01*
X190264730Y-56984504D01*
X195153068Y-52096165D01*
X195214389Y-52062682D01*
X195272836Y-52064072D01*
G37*
%TD.AperFunction*%
%TA.AperFunction,Conductor*%
G36*
X209567621Y-48240117D02*
G01*
X209752896Y-48254695D01*
X209772104Y-48257737D01*
X209948058Y-48299978D01*
X209966555Y-48305988D01*
X210133733Y-48375234D01*
X210151067Y-48384065D01*
X210305351Y-48478609D01*
X210321091Y-48490045D01*
X210458682Y-48607559D01*
X210472440Y-48621317D01*
X210589954Y-48758908D01*
X210601392Y-48774651D01*
X210695932Y-48928929D01*
X210704765Y-48946266D01*
X210774011Y-49113444D01*
X210780024Y-49131950D01*
X210822261Y-49307889D01*
X210825305Y-49327109D01*
X210839881Y-49512369D01*
X210840263Y-49522097D01*
X210840262Y-49591741D01*
X210840264Y-49591770D01*
X210840264Y-100269264D01*
X210840262Y-100269298D01*
X210840263Y-100337902D01*
X210839881Y-100347630D01*
X210825305Y-100532890D01*
X210822261Y-100552110D01*
X210780024Y-100728049D01*
X210774011Y-100746555D01*
X210704765Y-100913733D01*
X210695932Y-100931070D01*
X210601392Y-101085348D01*
X210589954Y-101101091D01*
X210472440Y-101238682D01*
X210458682Y-101252440D01*
X210321091Y-101369954D01*
X210305348Y-101381392D01*
X210151070Y-101475932D01*
X210133733Y-101484765D01*
X209966555Y-101554011D01*
X209948049Y-101560024D01*
X209772110Y-101602261D01*
X209752890Y-101605305D01*
X209567632Y-101619880D01*
X209557906Y-101620262D01*
X209489155Y-101620262D01*
X209488911Y-101620277D01*
X143502101Y-101633026D01*
X143492350Y-101632644D01*
X143307107Y-101618068D01*
X143287889Y-101615024D01*
X143111930Y-101572784D01*
X143093425Y-101566772D01*
X142926256Y-101497533D01*
X142908918Y-101488699D01*
X142754627Y-101394153D01*
X142738885Y-101382717D01*
X142601287Y-101265201D01*
X142587528Y-101251442D01*
X142470009Y-101113850D01*
X142458572Y-101098109D01*
X142364023Y-100943825D01*
X142355189Y-100926488D01*
X142285939Y-100759312D01*
X142279926Y-100740806D01*
X142237683Y-100564864D01*
X142234639Y-100545652D01*
X142220118Y-100361185D01*
X142219736Y-100351454D01*
X142219736Y-96597870D01*
X144244500Y-96597870D01*
X144244501Y-96597876D01*
X144250908Y-96657483D01*
X144301202Y-96792328D01*
X144301206Y-96792335D01*
X144387452Y-96907544D01*
X144387455Y-96907547D01*
X144502664Y-96993793D01*
X144502671Y-96993797D01*
X144637517Y-97044091D01*
X144637516Y-97044091D01*
X144644444Y-97044835D01*
X144697127Y-97050500D01*
X147392872Y-97050499D01*
X147452483Y-97044091D01*
X147587331Y-96993796D01*
X147702546Y-96907546D01*
X147788796Y-96792331D01*
X147839091Y-96657483D01*
X147845500Y-96597873D01*
X147845500Y-95250004D01*
X149319451Y-95250004D01*
X149339616Y-95519101D01*
X149399664Y-95782188D01*
X149399666Y-95782195D01*
X149435615Y-95873792D01*
X149498257Y-96033398D01*
X149633185Y-96267102D01*
X149695247Y-96344925D01*
X149801442Y-96478089D01*
X149959237Y-96624500D01*
X149999259Y-96661635D01*
X150222226Y-96813651D01*
X150465359Y-96930738D01*
X150723228Y-97010280D01*
X150723229Y-97010280D01*
X150723232Y-97010281D01*
X150990063Y-97050499D01*
X150990068Y-97050499D01*
X150990071Y-97050500D01*
X150990072Y-97050500D01*
X151259928Y-97050500D01*
X151259929Y-97050500D01*
X151259936Y-97050499D01*
X151526767Y-97010281D01*
X151526768Y-97010280D01*
X151526772Y-97010280D01*
X151784641Y-96930738D01*
X152027775Y-96813651D01*
X152250741Y-96661635D01*
X152319463Y-96597870D01*
X156944500Y-96597870D01*
X156944501Y-96597876D01*
X156950908Y-96657483D01*
X157001202Y-96792328D01*
X157001206Y-96792335D01*
X157087452Y-96907544D01*
X157087455Y-96907547D01*
X157202664Y-96993793D01*
X157202671Y-96993797D01*
X157337517Y-97044091D01*
X157337516Y-97044091D01*
X157344444Y-97044835D01*
X157397127Y-97050500D01*
X160092872Y-97050499D01*
X160152483Y-97044091D01*
X160287331Y-96993796D01*
X160402546Y-96907546D01*
X160488796Y-96792331D01*
X160539091Y-96657483D01*
X160545500Y-96597873D01*
X160545499Y-93902128D01*
X160539091Y-93842517D01*
X160538083Y-93839815D01*
X160488797Y-93707671D01*
X160488793Y-93707664D01*
X160402547Y-93592455D01*
X160402544Y-93592452D01*
X160287335Y-93506206D01*
X160287328Y-93506202D01*
X160152482Y-93455908D01*
X160152483Y-93455908D01*
X160092883Y-93449501D01*
X160092881Y-93449500D01*
X160092873Y-93449500D01*
X160092864Y-93449500D01*
X157397129Y-93449500D01*
X157397123Y-93449501D01*
X157337516Y-93455908D01*
X157202671Y-93506202D01*
X157202664Y-93506206D01*
X157087455Y-93592452D01*
X157087452Y-93592455D01*
X157001206Y-93707664D01*
X157001202Y-93707671D01*
X156950908Y-93842517D01*
X156944501Y-93902116D01*
X156944501Y-93902123D01*
X156944500Y-93902135D01*
X156944500Y-96597870D01*
X152319463Y-96597870D01*
X152448561Y-96478085D01*
X152616815Y-96267102D01*
X152751743Y-96033398D01*
X152850334Y-95782195D01*
X152910383Y-95519103D01*
X152920072Y-95389815D01*
X152930549Y-95250004D01*
X152930549Y-95249995D01*
X152910383Y-94980898D01*
X152910383Y-94980897D01*
X152850334Y-94717805D01*
X152751743Y-94466602D01*
X152616815Y-94232898D01*
X152448561Y-94021915D01*
X152448560Y-94021914D01*
X152448557Y-94021910D01*
X152250741Y-93838365D01*
X152230955Y-93824875D01*
X152027775Y-93686349D01*
X152027769Y-93686346D01*
X152027768Y-93686345D01*
X152027767Y-93686344D01*
X151784643Y-93569263D01*
X151784645Y-93569263D01*
X151526773Y-93489720D01*
X151526767Y-93489718D01*
X151259936Y-93449500D01*
X151259929Y-93449500D01*
X150990071Y-93449500D01*
X150990063Y-93449500D01*
X150723232Y-93489718D01*
X150723226Y-93489720D01*
X150465358Y-93569262D01*
X150222230Y-93686346D01*
X149999258Y-93838365D01*
X149801442Y-94021910D01*
X149633185Y-94232898D01*
X149498258Y-94466599D01*
X149498256Y-94466603D01*
X149399666Y-94717804D01*
X149399664Y-94717811D01*
X149339616Y-94980898D01*
X149319451Y-95249995D01*
X149319451Y-95250004D01*
X147845500Y-95250004D01*
X147845499Y-93902128D01*
X147839091Y-93842517D01*
X147838083Y-93839815D01*
X147788797Y-93707671D01*
X147788793Y-93707664D01*
X147702547Y-93592455D01*
X147702544Y-93592452D01*
X147587335Y-93506206D01*
X147587328Y-93506202D01*
X147452482Y-93455908D01*
X147452483Y-93455908D01*
X147392883Y-93449501D01*
X147392881Y-93449500D01*
X147392873Y-93449500D01*
X147392864Y-93449500D01*
X144697129Y-93449500D01*
X144697123Y-93449501D01*
X144637516Y-93455908D01*
X144502671Y-93506202D01*
X144502664Y-93506206D01*
X144387455Y-93592452D01*
X144387452Y-93592455D01*
X144301206Y-93707664D01*
X144301202Y-93707671D01*
X144250908Y-93842517D01*
X144244501Y-93902116D01*
X144244501Y-93902123D01*
X144244500Y-93902135D01*
X144244500Y-96597870D01*
X142219736Y-96597870D01*
X142219736Y-82102004D01*
X146377953Y-82102004D01*
X146398113Y-82371026D01*
X146398113Y-82371028D01*
X146458142Y-82634033D01*
X146458148Y-82634052D01*
X146556709Y-82885181D01*
X146556708Y-82885181D01*
X146691602Y-83118822D01*
X146745294Y-83186151D01*
X146745295Y-83186151D01*
X147581958Y-82349488D01*
X147606978Y-82409890D01*
X147678112Y-82516351D01*
X147768649Y-82606888D01*
X147875110Y-82678022D01*
X147935510Y-82703041D01*
X147097848Y-83540702D01*
X147280483Y-83665220D01*
X147280485Y-83665221D01*
X147523539Y-83782269D01*
X147523537Y-83782269D01*
X147781337Y-83861790D01*
X147781343Y-83861792D01*
X148048101Y-83901999D01*
X148048110Y-83902000D01*
X148317890Y-83902000D01*
X148317898Y-83901999D01*
X148584656Y-83861792D01*
X148584662Y-83861790D01*
X148842461Y-83782269D01*
X149085521Y-83665218D01*
X149268150Y-83540702D01*
X148430488Y-82703041D01*
X148490890Y-82678022D01*
X148597351Y-82606888D01*
X148687888Y-82516351D01*
X148759022Y-82409890D01*
X148784041Y-82349488D01*
X149620703Y-83186151D01*
X149620704Y-83186150D01*
X149674393Y-83118828D01*
X149674400Y-83118817D01*
X149809290Y-82885181D01*
X149907851Y-82634052D01*
X149907857Y-82634033D01*
X149967886Y-82371028D01*
X149967886Y-82371026D01*
X149988047Y-82102004D01*
X149988047Y-82101995D01*
X149967886Y-81832973D01*
X149967886Y-81832971D01*
X149907857Y-81569966D01*
X149907851Y-81569947D01*
X149809290Y-81318818D01*
X149809291Y-81318818D01*
X149674397Y-81085177D01*
X149620704Y-81017847D01*
X148784041Y-81854510D01*
X148759022Y-81794110D01*
X148687888Y-81687649D01*
X148597351Y-81597112D01*
X148490890Y-81525978D01*
X148430488Y-81500958D01*
X149268150Y-80663296D01*
X149085517Y-80538779D01*
X149085516Y-80538778D01*
X148842460Y-80421730D01*
X148842462Y-80421730D01*
X148772019Y-80400001D01*
X154669390Y-80400001D01*
X154689804Y-80685433D01*
X154750628Y-80965037D01*
X154750630Y-80965043D01*
X154750631Y-80965046D01*
X154823185Y-81159569D01*
X154850635Y-81233166D01*
X154987770Y-81484309D01*
X154987775Y-81484317D01*
X155159254Y-81713387D01*
X155159270Y-81713405D01*
X155361594Y-81915729D01*
X155361612Y-81915745D01*
X155590682Y-82087224D01*
X155590690Y-82087229D01*
X155841833Y-82224364D01*
X155841841Y-82224368D01*
X155862399Y-82232035D01*
X155893833Y-82243759D01*
X155949766Y-82285630D01*
X155974184Y-82351094D01*
X155974500Y-82359941D01*
X155974500Y-88031006D01*
X155974500Y-88168994D01*
X155974500Y-88168996D01*
X155974499Y-88168996D01*
X156001418Y-88304322D01*
X156001421Y-88304332D01*
X156054222Y-88431807D01*
X156130887Y-88546545D01*
X156130888Y-88546546D01*
X162099328Y-94514985D01*
X162132813Y-94576308D01*
X162127829Y-94646000D01*
X162127074Y-94647968D01*
X162099667Y-94717804D01*
X162099663Y-94717816D01*
X162039616Y-94980898D01*
X162019451Y-95249995D01*
X162019451Y-95250004D01*
X162039616Y-95519101D01*
X162099664Y-95782188D01*
X162099666Y-95782195D01*
X162135615Y-95873792D01*
X162198257Y-96033398D01*
X162333185Y-96267102D01*
X162395247Y-96344925D01*
X162501442Y-96478089D01*
X162659237Y-96624500D01*
X162699259Y-96661635D01*
X162922226Y-96813651D01*
X163165359Y-96930738D01*
X163423228Y-97010280D01*
X163423229Y-97010280D01*
X163423232Y-97010281D01*
X163690063Y-97050499D01*
X163690068Y-97050499D01*
X163690071Y-97050500D01*
X163690072Y-97050500D01*
X163959928Y-97050500D01*
X163959929Y-97050500D01*
X163959936Y-97050499D01*
X164226767Y-97010281D01*
X164226768Y-97010280D01*
X164226772Y-97010280D01*
X164484641Y-96930738D01*
X164727775Y-96813651D01*
X164950741Y-96661635D01*
X165148561Y-96478085D01*
X165316815Y-96267102D01*
X165451743Y-96033398D01*
X165550334Y-95782195D01*
X165610383Y-95519103D01*
X165620072Y-95389815D01*
X165630549Y-95250004D01*
X165630549Y-95249995D01*
X165610383Y-94980898D01*
X165610383Y-94980897D01*
X165550334Y-94717805D01*
X165451743Y-94466602D01*
X165316815Y-94232898D01*
X165148561Y-94021915D01*
X165148560Y-94021914D01*
X165148557Y-94021910D01*
X164950741Y-93838365D01*
X164930955Y-93824875D01*
X164727775Y-93686349D01*
X164727769Y-93686346D01*
X164727768Y-93686345D01*
X164727767Y-93686344D01*
X164484643Y-93569263D01*
X164484645Y-93569263D01*
X164226773Y-93489720D01*
X164226767Y-93489718D01*
X163959936Y-93449500D01*
X163959929Y-93449500D01*
X163690071Y-93449500D01*
X163690063Y-93449500D01*
X163423232Y-93489718D01*
X163423222Y-93489721D01*
X163213491Y-93554414D01*
X163143628Y-93555364D01*
X163089261Y-93523604D01*
X157854208Y-88288551D01*
X157820723Y-88227228D01*
X157825707Y-88157536D01*
X157867579Y-88101603D01*
X157933043Y-88077186D01*
X157978791Y-88084162D01*
X157979244Y-88082695D01*
X157983673Y-88084061D01*
X157983677Y-88084063D01*
X158234385Y-88161396D01*
X158493818Y-88200500D01*
X158756182Y-88200500D01*
X159015615Y-88161396D01*
X159266323Y-88084063D01*
X159502704Y-87970228D01*
X159719479Y-87822433D01*
X159898542Y-87656287D01*
X159911801Y-87643985D01*
X159911801Y-87643983D01*
X159911805Y-87643981D01*
X160075386Y-87438857D01*
X160206568Y-87211643D01*
X160302420Y-86967416D01*
X160360802Y-86711630D01*
X160375170Y-86519896D01*
X160380408Y-86450004D01*
X160380408Y-86449995D01*
X160360803Y-86188379D01*
X160360802Y-86188374D01*
X160360802Y-86188370D01*
X160302420Y-85932584D01*
X160206568Y-85688357D01*
X160075386Y-85461143D01*
X159911805Y-85256019D01*
X159911804Y-85256018D01*
X159911801Y-85256014D01*
X159719479Y-85077567D01*
X159700871Y-85064880D01*
X159502704Y-84929772D01*
X159502700Y-84929770D01*
X159502697Y-84929768D01*
X159502696Y-84929767D01*
X159266325Y-84815938D01*
X159266327Y-84815938D01*
X159015623Y-84738606D01*
X159015619Y-84738605D01*
X159015615Y-84738604D01*
X158890823Y-84719794D01*
X158756187Y-84699500D01*
X158756182Y-84699500D01*
X158493818Y-84699500D01*
X158493812Y-84699500D01*
X158332247Y-84723853D01*
X158234385Y-84738604D01*
X158234382Y-84738605D01*
X158234376Y-84738606D01*
X157983673Y-84815938D01*
X157747303Y-84929767D01*
X157747302Y-84929768D01*
X157747296Y-84929771D01*
X157747296Y-84929772D01*
X157569350Y-85051093D01*
X157502872Y-85072593D01*
X157435322Y-85054739D01*
X157388148Y-85003199D01*
X157375500Y-84948639D01*
X157375500Y-82359941D01*
X157395185Y-82292902D01*
X157447989Y-82247147D01*
X157456158Y-82243762D01*
X157508161Y-82224367D01*
X157759315Y-82087226D01*
X157988395Y-81915739D01*
X158190739Y-81713395D01*
X158362226Y-81484315D01*
X158499367Y-81233161D01*
X158599369Y-80965046D01*
X158599881Y-80962694D01*
X158660195Y-80685433D01*
X158660195Y-80685432D01*
X158660196Y-80685428D01*
X158680610Y-80400000D01*
X158660196Y-80114572D01*
X158599369Y-79834954D01*
X158499367Y-79566839D01*
X158464670Y-79503297D01*
X158362229Y-79315690D01*
X158362224Y-79315682D01*
X158190745Y-79086612D01*
X158190729Y-79086594D01*
X157988405Y-78884270D01*
X157988387Y-78884254D01*
X157759317Y-78712775D01*
X157759309Y-78712770D01*
X157508166Y-78575635D01*
X157508167Y-78575635D01*
X157369953Y-78524084D01*
X157240046Y-78475631D01*
X157240043Y-78475630D01*
X157240037Y-78475628D01*
X156960433Y-78414804D01*
X156675001Y-78394390D01*
X156674999Y-78394390D01*
X156389566Y-78414804D01*
X156109962Y-78475628D01*
X155841833Y-78575635D01*
X155590690Y-78712770D01*
X155590682Y-78712775D01*
X155361612Y-78884254D01*
X155361594Y-78884270D01*
X155159270Y-79086594D01*
X155159254Y-79086612D01*
X154987775Y-79315682D01*
X154987770Y-79315690D01*
X154850635Y-79566833D01*
X154750628Y-79834962D01*
X154689804Y-80114566D01*
X154669390Y-80399998D01*
X154669390Y-80400001D01*
X148772019Y-80400001D01*
X148584662Y-80342209D01*
X148584656Y-80342207D01*
X148317898Y-80302000D01*
X148048101Y-80302000D01*
X147781343Y-80342207D01*
X147781337Y-80342209D01*
X147523538Y-80421730D01*
X147280485Y-80538778D01*
X147280476Y-80538783D01*
X147097848Y-80663296D01*
X147935511Y-81500958D01*
X147875110Y-81525978D01*
X147768649Y-81597112D01*
X147678112Y-81687649D01*
X147606978Y-81794110D01*
X147581958Y-81854511D01*
X146745295Y-81017848D01*
X146691600Y-81085180D01*
X146556709Y-81318818D01*
X146458148Y-81569947D01*
X146458142Y-81569966D01*
X146398113Y-81832971D01*
X146398113Y-81832973D01*
X146377953Y-82101995D01*
X146377953Y-82102004D01*
X142219736Y-82102004D01*
X142219736Y-78369870D01*
X146382500Y-78369870D01*
X146382501Y-78369876D01*
X146388908Y-78429483D01*
X146439202Y-78564328D01*
X146439206Y-78564335D01*
X146525452Y-78679544D01*
X146525455Y-78679547D01*
X146640664Y-78765793D01*
X146640671Y-78765797D01*
X146775517Y-78816091D01*
X146775516Y-78816091D01*
X146782444Y-78816835D01*
X146835127Y-78822500D01*
X149530872Y-78822499D01*
X149590483Y-78816091D01*
X149725331Y-78765796D01*
X149840546Y-78679546D01*
X149926796Y-78564331D01*
X149977091Y-78429483D01*
X149983500Y-78369873D01*
X149983499Y-75674128D01*
X149977091Y-75614517D01*
X149970633Y-75597203D01*
X149926797Y-75479671D01*
X149926793Y-75479664D01*
X149840547Y-75364455D01*
X149840544Y-75364452D01*
X149725335Y-75278206D01*
X149725328Y-75278202D01*
X149590482Y-75227908D01*
X149590483Y-75227908D01*
X149530883Y-75221501D01*
X149530881Y-75221500D01*
X149530873Y-75221500D01*
X149530864Y-75221500D01*
X146835129Y-75221500D01*
X146835123Y-75221501D01*
X146775516Y-75227908D01*
X146640671Y-75278202D01*
X146640664Y-75278206D01*
X146525455Y-75364452D01*
X146525452Y-75364455D01*
X146439206Y-75479664D01*
X146439202Y-75479671D01*
X146388908Y-75614517D01*
X146384808Y-75652658D01*
X146382501Y-75674123D01*
X146382500Y-75674135D01*
X146382500Y-78369870D01*
X142219736Y-78369870D01*
X142219736Y-68580005D01*
X143124357Y-68580005D01*
X143144890Y-68827812D01*
X143144892Y-68827824D01*
X143205936Y-69068881D01*
X143305826Y-69296606D01*
X143441833Y-69504782D01*
X143441836Y-69504785D01*
X143610256Y-69687738D01*
X143806491Y-69840474D01*
X144025190Y-69958828D01*
X144260386Y-70039571D01*
X144505665Y-70080500D01*
X144754335Y-70080500D01*
X144999614Y-70039571D01*
X145234810Y-69958828D01*
X145453509Y-69840474D01*
X145649744Y-69687738D01*
X145818164Y-69504785D01*
X145954173Y-69296607D01*
X145972560Y-69254689D01*
X146017517Y-69201204D01*
X146084253Y-69180514D01*
X146086116Y-69180500D01*
X149673884Y-69180500D01*
X149740923Y-69200185D01*
X149786678Y-69252989D01*
X149787440Y-69254689D01*
X149805827Y-69296608D01*
X149941833Y-69504782D01*
X149941836Y-69504785D01*
X150110256Y-69687738D01*
X150253365Y-69799124D01*
X150306494Y-69840476D01*
X150306496Y-69840477D01*
X150307093Y-69840800D01*
X150464517Y-69925993D01*
X150514108Y-69975212D01*
X150529500Y-70035048D01*
X150529500Y-70593330D01*
X150529499Y-70593348D01*
X150529499Y-70759054D01*
X150529498Y-70759054D01*
X150529499Y-70759057D01*
X150564712Y-70890473D01*
X150570423Y-70911784D01*
X150570424Y-70911787D01*
X150576116Y-70921645D01*
X150576117Y-70921647D01*
X150649477Y-71048712D01*
X150649481Y-71048717D01*
X150768349Y-71167585D01*
X150768355Y-71167590D01*
X166784181Y-87183416D01*
X166817666Y-87244739D01*
X166820500Y-87271097D01*
X166820500Y-96159330D01*
X166820499Y-96159348D01*
X166820499Y-96325054D01*
X166820498Y-96325054D01*
X166861423Y-96477785D01*
X166870619Y-96493712D01*
X166870620Y-96493716D01*
X166870621Y-96493716D01*
X166940477Y-96614712D01*
X166940481Y-96614717D01*
X167059349Y-96733585D01*
X167059354Y-96733589D01*
X168431284Y-98105520D01*
X168431286Y-98105521D01*
X168431290Y-98105524D01*
X168568209Y-98184573D01*
X168568216Y-98184577D01*
X168720943Y-98225501D01*
X168720945Y-98225501D01*
X168755500Y-98225501D01*
X168822539Y-98245186D01*
X168868294Y-98297990D01*
X168879500Y-98349501D01*
X168879500Y-99907870D01*
X168879501Y-99907876D01*
X168885908Y-99967483D01*
X168936202Y-100102328D01*
X168936206Y-100102335D01*
X169022452Y-100217544D01*
X169022455Y-100217547D01*
X169137664Y-100303793D01*
X169137671Y-100303797D01*
X169272517Y-100354091D01*
X169272516Y-100354091D01*
X169279444Y-100354835D01*
X169332127Y-100360500D01*
X171027872Y-100360499D01*
X171087483Y-100354091D01*
X171222331Y-100303796D01*
X171337546Y-100217546D01*
X171423796Y-100102331D01*
X171474091Y-99967483D01*
X171477862Y-99932401D01*
X171504599Y-99867855D01*
X171561990Y-99828006D01*
X171631816Y-99825511D01*
X171691905Y-99861163D01*
X171702726Y-99874536D01*
X171719956Y-99899143D01*
X171880858Y-100060045D01*
X171880861Y-100060047D01*
X172067266Y-100190568D01*
X172273504Y-100286739D01*
X172273509Y-100286740D01*
X172273511Y-100286741D01*
X172326415Y-100300916D01*
X172493308Y-100345635D01*
X172655230Y-100359801D01*
X172719998Y-100365468D01*
X172720000Y-100365468D01*
X172720002Y-100365468D01*
X172776807Y-100360498D01*
X172946692Y-100345635D01*
X173166496Y-100286739D01*
X173372734Y-100190568D01*
X173559139Y-100060047D01*
X173720047Y-99899139D01*
X173850568Y-99712734D01*
X173877618Y-99654724D01*
X173923790Y-99602285D01*
X173990983Y-99583133D01*
X174057865Y-99603348D01*
X174102382Y-99654725D01*
X174129429Y-99712728D01*
X174129432Y-99712734D01*
X174259954Y-99899141D01*
X174420858Y-100060045D01*
X174420861Y-100060047D01*
X174607266Y-100190568D01*
X174813504Y-100286739D01*
X174813509Y-100286740D01*
X174813511Y-100286741D01*
X174866415Y-100300916D01*
X175033308Y-100345635D01*
X175195230Y-100359801D01*
X175259998Y-100365468D01*
X175260000Y-100365468D01*
X175260002Y-100365468D01*
X175316807Y-100360498D01*
X175486692Y-100345635D01*
X175706496Y-100286739D01*
X175912734Y-100190568D01*
X176099139Y-100060047D01*
X176260047Y-99899139D01*
X176390568Y-99712734D01*
X176417618Y-99654724D01*
X176463790Y-99602285D01*
X176530983Y-99583133D01*
X176597865Y-99603348D01*
X176642382Y-99654725D01*
X176669429Y-99712728D01*
X176669432Y-99712734D01*
X176799954Y-99899141D01*
X176960858Y-100060045D01*
X176960861Y-100060047D01*
X177147266Y-100190568D01*
X177353504Y-100286739D01*
X177353509Y-100286740D01*
X177353511Y-100286741D01*
X177406415Y-100300916D01*
X177573308Y-100345635D01*
X177735230Y-100359801D01*
X177799998Y-100365468D01*
X177800000Y-100365468D01*
X177800002Y-100365468D01*
X177856807Y-100360498D01*
X178026692Y-100345635D01*
X178246496Y-100286739D01*
X178452734Y-100190568D01*
X178639139Y-100060047D01*
X178800047Y-99899139D01*
X178930568Y-99712734D01*
X178957618Y-99654724D01*
X179003790Y-99602285D01*
X179070983Y-99583133D01*
X179137865Y-99603348D01*
X179182382Y-99654725D01*
X179209429Y-99712728D01*
X179209432Y-99712734D01*
X179339954Y-99899141D01*
X179500858Y-100060045D01*
X179500861Y-100060047D01*
X179687266Y-100190568D01*
X179893504Y-100286739D01*
X179893509Y-100286740D01*
X179893511Y-100286741D01*
X179946415Y-100300916D01*
X180113308Y-100345635D01*
X180275230Y-100359801D01*
X180339998Y-100365468D01*
X180340000Y-100365468D01*
X180340002Y-100365468D01*
X180396807Y-100360498D01*
X180566692Y-100345635D01*
X180786496Y-100286739D01*
X180992734Y-100190568D01*
X181179139Y-100060047D01*
X181340047Y-99899139D01*
X181470568Y-99712734D01*
X181497895Y-99654129D01*
X181544064Y-99601695D01*
X181611257Y-99582542D01*
X181678139Y-99602757D01*
X181722657Y-99654133D01*
X181749865Y-99712482D01*
X181880342Y-99898820D01*
X182041179Y-100059657D01*
X182227517Y-100190134D01*
X182433673Y-100286265D01*
X182433682Y-100286269D01*
X182629999Y-100338872D01*
X182630000Y-100338871D01*
X182630000Y-99493012D01*
X182687007Y-99525925D01*
X182814174Y-99560000D01*
X182945826Y-99560000D01*
X183072993Y-99525925D01*
X183130000Y-99493012D01*
X183130000Y-100338872D01*
X183326317Y-100286269D01*
X183326326Y-100286265D01*
X183532482Y-100190134D01*
X183718820Y-100059657D01*
X183879657Y-99898820D01*
X184010134Y-99712481D01*
X184010135Y-99712479D01*
X184037618Y-99653543D01*
X184083790Y-99601103D01*
X184150983Y-99581951D01*
X184217864Y-99602166D01*
X184262382Y-99653543D01*
X184289864Y-99712479D01*
X184289865Y-99712481D01*
X184420342Y-99898820D01*
X184581179Y-100059657D01*
X184767517Y-100190134D01*
X184973673Y-100286265D01*
X184973682Y-100286269D01*
X185169999Y-100338872D01*
X185170000Y-100338871D01*
X185170000Y-99493012D01*
X185227007Y-99525925D01*
X185354174Y-99560000D01*
X185485826Y-99560000D01*
X185612993Y-99525925D01*
X185670000Y-99493012D01*
X185670000Y-100338872D01*
X185866317Y-100286269D01*
X185866326Y-100286265D01*
X186072482Y-100190134D01*
X186258820Y-100059657D01*
X186419657Y-99898820D01*
X186550132Y-99712484D01*
X186577341Y-99654134D01*
X186623513Y-99601695D01*
X186690707Y-99582542D01*
X186757588Y-99602757D01*
X186802106Y-99654133D01*
X186829431Y-99712732D01*
X186829432Y-99712734D01*
X186959954Y-99899141D01*
X187120858Y-100060045D01*
X187120861Y-100060047D01*
X187307266Y-100190568D01*
X187513504Y-100286739D01*
X187513509Y-100286740D01*
X187513511Y-100286741D01*
X187566415Y-100300916D01*
X187733308Y-100345635D01*
X187895230Y-100359801D01*
X187959998Y-100365468D01*
X187960000Y-100365468D01*
X187960002Y-100365468D01*
X188016807Y-100360498D01*
X188186692Y-100345635D01*
X188406496Y-100286739D01*
X188612734Y-100190568D01*
X188799139Y-100060047D01*
X188960047Y-99899139D01*
X189090568Y-99712734D01*
X189186739Y-99506496D01*
X189241150Y-99303429D01*
X189277515Y-99243769D01*
X189340362Y-99213240D01*
X189409737Y-99221535D01*
X189448606Y-99247842D01*
X191341284Y-101140520D01*
X191341286Y-101140521D01*
X191341290Y-101140524D01*
X191478209Y-101219573D01*
X191478216Y-101219577D01*
X191630943Y-101260501D01*
X191630945Y-101260501D01*
X191796654Y-101260501D01*
X191796670Y-101260500D01*
X203603331Y-101260500D01*
X203603347Y-101260501D01*
X203610943Y-101260501D01*
X203769054Y-101260501D01*
X203769057Y-101260501D01*
X203921785Y-101219577D01*
X203971904Y-101190639D01*
X204058716Y-101140520D01*
X204170520Y-101028716D01*
X204170520Y-101028714D01*
X204180728Y-101018507D01*
X204180730Y-101018504D01*
X204858506Y-100340728D01*
X204858511Y-100340724D01*
X204868714Y-100330520D01*
X204868716Y-100330520D01*
X204972268Y-100226968D01*
X205033591Y-100193483D01*
X205103283Y-100198467D01*
X205112354Y-100202267D01*
X205293504Y-100286739D01*
X205293510Y-100286740D01*
X205293511Y-100286741D01*
X205346415Y-100300916D01*
X205513308Y-100345635D01*
X205675230Y-100359801D01*
X205739998Y-100365468D01*
X205740000Y-100365468D01*
X205740002Y-100365468D01*
X205796807Y-100360498D01*
X205966692Y-100345635D01*
X206186496Y-100286739D01*
X206392734Y-100190568D01*
X206579139Y-100060047D01*
X206740047Y-99899139D01*
X206870568Y-99712734D01*
X206966739Y-99506496D01*
X207025635Y-99286692D01*
X207045468Y-99060000D01*
X207025635Y-98833308D01*
X206966739Y-98613504D01*
X206870568Y-98407266D01*
X206740047Y-98220861D01*
X206740045Y-98220858D01*
X206579141Y-98059954D01*
X206392734Y-97929432D01*
X206392732Y-97929431D01*
X206186497Y-97833261D01*
X206186488Y-97833258D01*
X205966697Y-97774366D01*
X205966693Y-97774365D01*
X205966692Y-97774365D01*
X205966691Y-97774364D01*
X205966686Y-97774364D01*
X205740002Y-97754532D01*
X205739998Y-97754532D01*
X205513313Y-97774364D01*
X205513302Y-97774366D01*
X205293511Y-97833258D01*
X205293501Y-97833262D01*
X205276903Y-97841002D01*
X205207825Y-97851493D01*
X205144042Y-97822972D01*
X205105803Y-97764495D01*
X205100500Y-97728619D01*
X205100500Y-89748997D01*
X205120185Y-89681958D01*
X205136819Y-89661316D01*
X205261316Y-89536819D01*
X205322639Y-89503334D01*
X205348997Y-89500500D01*
X209213331Y-89500500D01*
X209213347Y-89500501D01*
X209220943Y-89500501D01*
X209379054Y-89500501D01*
X209379057Y-89500501D01*
X209531785Y-89459577D01*
X209594272Y-89423500D01*
X209668716Y-89380520D01*
X209780520Y-89268716D01*
X209780520Y-89268714D01*
X209790724Y-89258511D01*
X209790728Y-89258506D01*
X210342506Y-88706728D01*
X210342511Y-88706724D01*
X210352714Y-88696520D01*
X210352716Y-88696520D01*
X210464520Y-88584716D01*
X210539058Y-88455612D01*
X210539059Y-88455611D01*
X210543576Y-88447787D01*
X210543576Y-88447786D01*
X210543577Y-88447785D01*
X210584500Y-88295057D01*
X210584500Y-88136943D01*
X210584500Y-77024360D01*
X210584501Y-77024347D01*
X210584501Y-76856244D01*
X210584501Y-76856243D01*
X210543577Y-76703516D01*
X210470826Y-76577506D01*
X210464524Y-76566590D01*
X210464518Y-76566582D01*
X209719590Y-75821655D01*
X209719588Y-75821652D01*
X209600717Y-75702781D01*
X209600716Y-75702780D01*
X209513904Y-75652660D01*
X209513904Y-75652659D01*
X209513900Y-75652658D01*
X209463785Y-75623723D01*
X209311057Y-75582799D01*
X209152943Y-75582799D01*
X209145347Y-75582799D01*
X209145331Y-75582800D01*
X207797644Y-75582800D01*
X207730605Y-75563115D01*
X207684850Y-75510311D01*
X207674906Y-75441153D01*
X207703931Y-75377597D01*
X207735637Y-75351417D01*
X207742608Y-75347391D01*
X207746716Y-75345020D01*
X207746716Y-75345019D01*
X207746743Y-75345004D01*
X207746752Y-75344998D01*
X207746765Y-75344988D01*
X207747007Y-75344743D01*
X207799814Y-75291923D01*
X207799815Y-75291924D01*
X207799821Y-75291915D01*
X207858520Y-75233216D01*
X207858521Y-75233213D01*
X207864601Y-75227134D01*
X207864715Y-75227002D01*
X208641517Y-74449995D01*
X208722561Y-74368930D01*
X208783880Y-74335437D01*
X208810254Y-74332600D01*
X209151569Y-74332600D01*
X209151574Y-74332600D01*
X209250085Y-74322536D01*
X209409687Y-74269649D01*
X209552791Y-74181381D01*
X209671681Y-74062491D01*
X209759949Y-73919387D01*
X209812836Y-73759785D01*
X209822900Y-73661274D01*
X209822900Y-73052926D01*
X209812836Y-72954415D01*
X209759949Y-72794813D01*
X209759945Y-72794807D01*
X209759944Y-72794804D01*
X209671683Y-72651712D01*
X209671680Y-72651708D01*
X209552791Y-72532819D01*
X209552787Y-72532816D01*
X209409695Y-72444555D01*
X209409689Y-72444552D01*
X209409687Y-72444551D01*
X209250085Y-72391664D01*
X209250083Y-72391663D01*
X209151581Y-72381600D01*
X209151574Y-72381600D01*
X208618226Y-72381600D01*
X208618218Y-72381600D01*
X208519716Y-72391663D01*
X208519715Y-72391664D01*
X208449883Y-72414804D01*
X208360115Y-72444550D01*
X208360104Y-72444555D01*
X208217012Y-72532816D01*
X208217008Y-72532819D01*
X208185081Y-72564747D01*
X208123758Y-72598232D01*
X208054066Y-72593248D01*
X208009719Y-72564747D01*
X207977791Y-72532819D01*
X207977787Y-72532816D01*
X207834695Y-72444555D01*
X207834689Y-72444552D01*
X207834687Y-72444551D01*
X207685912Y-72395251D01*
X207628469Y-72355480D01*
X207601646Y-72290965D01*
X207613961Y-72222189D01*
X207637232Y-72189871D01*
X209080584Y-70746460D01*
X209141905Y-70712974D01*
X209155661Y-70710782D01*
X209250085Y-70701136D01*
X209409687Y-70648249D01*
X209552791Y-70559981D01*
X209671681Y-70441091D01*
X209759949Y-70297987D01*
X209812836Y-70138385D01*
X209822900Y-70039874D01*
X209822900Y-69431526D01*
X209812836Y-69333015D01*
X209759949Y-69173413D01*
X209759945Y-69173407D01*
X209759944Y-69173404D01*
X209671683Y-69030312D01*
X209671680Y-69030308D01*
X209552791Y-68911419D01*
X209552787Y-68911416D01*
X209409695Y-68823155D01*
X209409689Y-68823152D01*
X209409687Y-68823151D01*
X209250085Y-68770264D01*
X209250083Y-68770263D01*
X209151581Y-68760200D01*
X209151574Y-68760200D01*
X208821500Y-68760200D01*
X208754461Y-68740515D01*
X208708706Y-68687711D01*
X208697500Y-68636200D01*
X208697500Y-67213800D01*
X208717185Y-67146761D01*
X208769989Y-67101006D01*
X208821500Y-67089800D01*
X209151569Y-67089800D01*
X209151574Y-67089800D01*
X209250085Y-67079736D01*
X209409687Y-67026849D01*
X209552791Y-66938581D01*
X209671681Y-66819691D01*
X209759949Y-66676587D01*
X209812836Y-66516985D01*
X209822900Y-66418474D01*
X209822900Y-65810126D01*
X209812836Y-65711615D01*
X209759949Y-65552013D01*
X209759945Y-65552007D01*
X209759944Y-65552004D01*
X209671683Y-65408912D01*
X209671680Y-65408908D01*
X209552791Y-65290019D01*
X209552787Y-65290016D01*
X209409695Y-65201755D01*
X209409689Y-65201752D01*
X209409687Y-65201751D01*
X209250085Y-65148864D01*
X209250083Y-65148863D01*
X209151581Y-65138800D01*
X209151574Y-65138800D01*
X208618226Y-65138800D01*
X208618218Y-65138800D01*
X208519716Y-65148863D01*
X208519715Y-65148864D01*
X208440619Y-65175073D01*
X208360115Y-65201750D01*
X208360104Y-65201755D01*
X208217012Y-65290016D01*
X208217008Y-65290019D01*
X208185081Y-65321947D01*
X208123758Y-65355432D01*
X208054066Y-65350448D01*
X208009719Y-65321947D01*
X207977791Y-65290019D01*
X207977787Y-65290016D01*
X207834695Y-65201755D01*
X207834689Y-65201752D01*
X207834687Y-65201751D01*
X207675085Y-65148864D01*
X207675083Y-65148863D01*
X207576581Y-65138800D01*
X207576574Y-65138800D01*
X207043226Y-65138800D01*
X207043218Y-65138800D01*
X206944716Y-65148863D01*
X206944715Y-65148864D01*
X206865619Y-65175073D01*
X206785115Y-65201750D01*
X206785104Y-65201755D01*
X206642012Y-65290016D01*
X206642008Y-65290019D01*
X206523120Y-65408907D01*
X206523119Y-65408909D01*
X206494751Y-65454898D01*
X206442806Y-65501621D01*
X206389215Y-65513800D01*
X205433115Y-65513800D01*
X205366076Y-65494115D01*
X205326998Y-65453950D01*
X205296872Y-65404115D01*
X205296870Y-65404113D01*
X205296869Y-65404111D01*
X205176588Y-65283830D01*
X205142298Y-65263101D01*
X205031006Y-65195822D01*
X204868596Y-65145214D01*
X204835093Y-65142169D01*
X204825560Y-65141303D01*
X204760578Y-65115631D01*
X204719790Y-65058903D01*
X204716147Y-64989128D01*
X204749101Y-64930133D01*
X205575316Y-64103919D01*
X205636639Y-64070434D01*
X205662997Y-64067600D01*
X207823904Y-64067600D01*
X207824058Y-64067609D01*
X207832001Y-64067608D01*
X207832004Y-64067609D01*
X207915712Y-64067600D01*
X207990057Y-64067600D01*
X207990062Y-64067600D01*
X207990113Y-64067593D01*
X207990117Y-64067592D01*
X207990119Y-64067592D01*
X208067157Y-64046941D01*
X208067167Y-64046941D01*
X208067167Y-64046938D01*
X208067168Y-64046938D01*
X208142784Y-64026677D01*
X208142789Y-64026673D01*
X208142807Y-64026669D01*
X208142824Y-64026662D01*
X208142837Y-64026654D01*
X208142842Y-64026653D01*
X208210504Y-63987579D01*
X208279434Y-63947782D01*
X208279765Y-63947595D01*
X208279770Y-63947591D01*
X208280449Y-63946898D01*
X208335006Y-63892331D01*
X208335008Y-63892327D01*
X208391520Y-63835816D01*
X208391522Y-63835811D01*
X208397641Y-63829693D01*
X208397724Y-63829597D01*
X208722527Y-63504727D01*
X208783847Y-63471236D01*
X208810217Y-63468400D01*
X209151569Y-63468400D01*
X209151574Y-63468400D01*
X209250085Y-63458336D01*
X209409687Y-63405449D01*
X209552791Y-63317181D01*
X209671681Y-63198291D01*
X209759949Y-63055187D01*
X209812836Y-62895585D01*
X209822900Y-62797074D01*
X209822900Y-62188726D01*
X209812836Y-62090215D01*
X209759949Y-61930613D01*
X209759945Y-61930607D01*
X209759944Y-61930604D01*
X209671683Y-61787512D01*
X209671680Y-61787508D01*
X209552791Y-61668619D01*
X209552787Y-61668616D01*
X209409695Y-61580355D01*
X209409689Y-61580352D01*
X209409687Y-61580351D01*
X209250085Y-61527464D01*
X209250083Y-61527463D01*
X209151581Y-61517400D01*
X209151574Y-61517400D01*
X208618226Y-61517400D01*
X208618218Y-61517400D01*
X208519716Y-61527463D01*
X208519715Y-61527464D01*
X208440619Y-61553673D01*
X208360115Y-61580350D01*
X208360104Y-61580355D01*
X208217012Y-61668616D01*
X208217008Y-61668619D01*
X208185081Y-61700547D01*
X208123758Y-61734032D01*
X208054066Y-61729048D01*
X208009719Y-61700547D01*
X207977791Y-61668619D01*
X207977787Y-61668616D01*
X207834695Y-61580355D01*
X207834689Y-61580352D01*
X207834687Y-61580351D01*
X207675085Y-61527464D01*
X207675083Y-61527463D01*
X207576581Y-61517400D01*
X207576574Y-61517400D01*
X207043226Y-61517400D01*
X207043218Y-61517400D01*
X206944716Y-61527463D01*
X206944715Y-61527464D01*
X206865619Y-61553673D01*
X206785115Y-61580350D01*
X206785104Y-61580355D01*
X206642012Y-61668616D01*
X206642008Y-61668619D01*
X206523120Y-61787507D01*
X206523119Y-61787509D01*
X206494751Y-61833498D01*
X206442806Y-61880221D01*
X206389215Y-61892400D01*
X205433115Y-61892400D01*
X205366076Y-61872715D01*
X205326998Y-61832550D01*
X205296872Y-61782715D01*
X205296870Y-61782713D01*
X205296869Y-61782711D01*
X205176588Y-61662430D01*
X205074175Y-61600519D01*
X205031006Y-61574422D01*
X204868596Y-61523814D01*
X204868594Y-61523813D01*
X204868592Y-61523813D01*
X204819178Y-61519323D01*
X204798016Y-61517400D01*
X204284784Y-61517400D01*
X204265545Y-61519148D01*
X204214207Y-61523813D01*
X204051793Y-61574422D01*
X203906211Y-61662430D01*
X203906210Y-61662431D01*
X203804081Y-61764561D01*
X203742758Y-61798046D01*
X203673066Y-61793062D01*
X203628719Y-61764561D01*
X203526588Y-61662430D01*
X203424175Y-61600519D01*
X203381006Y-61574422D01*
X203218596Y-61523814D01*
X203218594Y-61523813D01*
X203218592Y-61523813D01*
X203169178Y-61519323D01*
X203148016Y-61517400D01*
X202634784Y-61517400D01*
X202615545Y-61519148D01*
X202564207Y-61523813D01*
X202401793Y-61574422D01*
X202256211Y-61662430D01*
X202135930Y-61782711D01*
X202047922Y-61928293D01*
X201997313Y-62090707D01*
X201990900Y-62161286D01*
X201990900Y-62824513D01*
X201997313Y-62895092D01*
X201997313Y-62895094D01*
X201997314Y-62895096D01*
X202042035Y-63038613D01*
X202043185Y-63108470D01*
X202006384Y-63167863D01*
X201943315Y-63197931D01*
X201923649Y-63199500D01*
X200822250Y-63199500D01*
X200755211Y-63179815D01*
X200709456Y-63127011D01*
X200699512Y-63057853D01*
X200713485Y-63019296D01*
X200712495Y-63018835D01*
X200715543Y-63012296D01*
X200715549Y-63012287D01*
X200768436Y-62852685D01*
X200778500Y-62754174D01*
X200778500Y-62412596D01*
X200798185Y-62345557D01*
X200814814Y-62324920D01*
X206098506Y-57041227D01*
X206098511Y-57041224D01*
X206108714Y-57031020D01*
X206108716Y-57031020D01*
X206220520Y-56919216D01*
X206237634Y-56889573D01*
X206270998Y-56831786D01*
X206270998Y-56831785D01*
X206299577Y-56782285D01*
X206340500Y-56629557D01*
X206340500Y-56471443D01*
X206340500Y-52031692D01*
X206360185Y-51964653D01*
X206393374Y-51930119D01*
X206579139Y-51800047D01*
X206740047Y-51639139D01*
X206870568Y-51452734D01*
X206966739Y-51246496D01*
X207025635Y-51026692D01*
X207045468Y-50800000D01*
X207025635Y-50573308D01*
X206966739Y-50353504D01*
X206870568Y-50147266D01*
X206740047Y-49960861D01*
X206740045Y-49960858D01*
X206579141Y-49799954D01*
X206392734Y-49669432D01*
X206392732Y-49669431D01*
X206186497Y-49573261D01*
X206186488Y-49573258D01*
X205966697Y-49514366D01*
X205966693Y-49514365D01*
X205966692Y-49514365D01*
X205966691Y-49514364D01*
X205966686Y-49514364D01*
X205740002Y-49494532D01*
X205739998Y-49494532D01*
X205513313Y-49514364D01*
X205513302Y-49514366D01*
X205293511Y-49573258D01*
X205293502Y-49573261D01*
X205087267Y-49669431D01*
X205087265Y-49669432D01*
X204900858Y-49799954D01*
X204739954Y-49960858D01*
X204609432Y-50147265D01*
X204609431Y-50147267D01*
X204582382Y-50205275D01*
X204536209Y-50257714D01*
X204469016Y-50276866D01*
X204402135Y-50256650D01*
X204357618Y-50205275D01*
X204330686Y-50147520D01*
X204330568Y-50147266D01*
X204200047Y-49960861D01*
X204200045Y-49960858D01*
X204039141Y-49799954D01*
X203852734Y-49669432D01*
X203852732Y-49669431D01*
X203646497Y-49573261D01*
X203646488Y-49573258D01*
X203426697Y-49514366D01*
X203426693Y-49514365D01*
X203426692Y-49514365D01*
X203426691Y-49514364D01*
X203426686Y-49514364D01*
X203200002Y-49494532D01*
X203199998Y-49494532D01*
X202973313Y-49514364D01*
X202973302Y-49514366D01*
X202753511Y-49573258D01*
X202753502Y-49573261D01*
X202547267Y-49669431D01*
X202547265Y-49669432D01*
X202360858Y-49799954D01*
X202199954Y-49960858D01*
X202069432Y-50147265D01*
X202069431Y-50147267D01*
X202042382Y-50205275D01*
X201996209Y-50257714D01*
X201929016Y-50276866D01*
X201862135Y-50256650D01*
X201817618Y-50205275D01*
X201790686Y-50147520D01*
X201790568Y-50147266D01*
X201660047Y-49960861D01*
X201660045Y-49960858D01*
X201499141Y-49799954D01*
X201312734Y-49669432D01*
X201312732Y-49669431D01*
X201106497Y-49573261D01*
X201106488Y-49573258D01*
X200886697Y-49514366D01*
X200886693Y-49514365D01*
X200886692Y-49514365D01*
X200886691Y-49514364D01*
X200886686Y-49514364D01*
X200660002Y-49494532D01*
X200659998Y-49494532D01*
X200433313Y-49514364D01*
X200433302Y-49514366D01*
X200213511Y-49573258D01*
X200213502Y-49573261D01*
X200007267Y-49669431D01*
X200007265Y-49669432D01*
X199820858Y-49799954D01*
X199659954Y-49960858D01*
X199529432Y-50147265D01*
X199529431Y-50147267D01*
X199502382Y-50205275D01*
X199456209Y-50257714D01*
X199389016Y-50276866D01*
X199322135Y-50256650D01*
X199277618Y-50205275D01*
X199250686Y-50147520D01*
X199250568Y-50147266D01*
X199120047Y-49960861D01*
X199120045Y-49960858D01*
X198959141Y-49799954D01*
X198772734Y-49669432D01*
X198772732Y-49669431D01*
X198566497Y-49573261D01*
X198566488Y-49573258D01*
X198346697Y-49514366D01*
X198346693Y-49514365D01*
X198346692Y-49514365D01*
X198346691Y-49514364D01*
X198346686Y-49514364D01*
X198120002Y-49494532D01*
X198119998Y-49494532D01*
X197893313Y-49514364D01*
X197893302Y-49514366D01*
X197673511Y-49573258D01*
X197673502Y-49573261D01*
X197467267Y-49669431D01*
X197467265Y-49669432D01*
X197280858Y-49799954D01*
X197119954Y-49960858D01*
X196989432Y-50147265D01*
X196989431Y-50147267D01*
X196962382Y-50205275D01*
X196916209Y-50257714D01*
X196849016Y-50276866D01*
X196782135Y-50256650D01*
X196737618Y-50205275D01*
X196710686Y-50147520D01*
X196710568Y-50147266D01*
X196580047Y-49960861D01*
X196580045Y-49960858D01*
X196419141Y-49799954D01*
X196232734Y-49669432D01*
X196232732Y-49669431D01*
X196026497Y-49573261D01*
X196026488Y-49573258D01*
X195806697Y-49514366D01*
X195806693Y-49514365D01*
X195806692Y-49514365D01*
X195806691Y-49514364D01*
X195806686Y-49514364D01*
X195580002Y-49494532D01*
X195579998Y-49494532D01*
X195353313Y-49514364D01*
X195353302Y-49514366D01*
X195133511Y-49573258D01*
X195133502Y-49573261D01*
X194927267Y-49669431D01*
X194927265Y-49669432D01*
X194740858Y-49799954D01*
X194579954Y-49960858D01*
X194449432Y-50147265D01*
X194449431Y-50147267D01*
X194422382Y-50205275D01*
X194376209Y-50257714D01*
X194309016Y-50276866D01*
X194242135Y-50256650D01*
X194197618Y-50205275D01*
X194170686Y-50147520D01*
X194170568Y-50147266D01*
X194040047Y-49960861D01*
X194040045Y-49960858D01*
X193879141Y-49799954D01*
X193692734Y-49669432D01*
X193692732Y-49669431D01*
X193486497Y-49573261D01*
X193486488Y-49573258D01*
X193266697Y-49514366D01*
X193266693Y-49514365D01*
X193266692Y-49514365D01*
X193266691Y-49514364D01*
X193266686Y-49514364D01*
X193040002Y-49494532D01*
X193039998Y-49494532D01*
X192813313Y-49514364D01*
X192813302Y-49514366D01*
X192593511Y-49573258D01*
X192593502Y-49573261D01*
X192387267Y-49669431D01*
X192387265Y-49669432D01*
X192200858Y-49799954D01*
X192039954Y-49960858D01*
X191909432Y-50147265D01*
X191909431Y-50147267D01*
X191882382Y-50205275D01*
X191836209Y-50257714D01*
X191769016Y-50276866D01*
X191702135Y-50256650D01*
X191657618Y-50205275D01*
X191630686Y-50147520D01*
X191630568Y-50147266D01*
X191500047Y-49960861D01*
X191500045Y-49960858D01*
X191339141Y-49799954D01*
X191152734Y-49669432D01*
X191152732Y-49669431D01*
X190946497Y-49573261D01*
X190946488Y-49573258D01*
X190726697Y-49514366D01*
X190726693Y-49514365D01*
X190726692Y-49514365D01*
X190726691Y-49514364D01*
X190726686Y-49514364D01*
X190500002Y-49494532D01*
X190499998Y-49494532D01*
X190273313Y-49514364D01*
X190273302Y-49514366D01*
X190053511Y-49573258D01*
X190053502Y-49573261D01*
X189847267Y-49669431D01*
X189847265Y-49669432D01*
X189660858Y-49799954D01*
X189499954Y-49960858D01*
X189369432Y-50147265D01*
X189369431Y-50147267D01*
X189342382Y-50205275D01*
X189296209Y-50257714D01*
X189229016Y-50276866D01*
X189162135Y-50256650D01*
X189117618Y-50205275D01*
X189090686Y-50147520D01*
X189090568Y-50147266D01*
X188960047Y-49960861D01*
X188960045Y-49960858D01*
X188799141Y-49799954D01*
X188612734Y-49669432D01*
X188612732Y-49669431D01*
X188406497Y-49573261D01*
X188406488Y-49573258D01*
X188186697Y-49514366D01*
X188186693Y-49514365D01*
X188186692Y-49514365D01*
X188186691Y-49514364D01*
X188186686Y-49514364D01*
X187960002Y-49494532D01*
X187959998Y-49494532D01*
X187733313Y-49514364D01*
X187733302Y-49514366D01*
X187513511Y-49573258D01*
X187513502Y-49573261D01*
X187307267Y-49669431D01*
X187307265Y-49669432D01*
X187120858Y-49799954D01*
X186959954Y-49960858D01*
X186829432Y-50147265D01*
X186829431Y-50147267D01*
X186733261Y-50353502D01*
X186733258Y-50353511D01*
X186674366Y-50573302D01*
X186674364Y-50573313D01*
X186654532Y-50799998D01*
X186654532Y-50800001D01*
X186674364Y-51026686D01*
X186674366Y-51026697D01*
X186700152Y-51122931D01*
X186698489Y-51192781D01*
X186668058Y-51242705D01*
X185580684Y-52330081D01*
X185519361Y-52363566D01*
X185493003Y-52366400D01*
X178402196Y-52366400D01*
X178335157Y-52346715D01*
X178289402Y-52293911D01*
X178279458Y-52224753D01*
X178308483Y-52161197D01*
X178314495Y-52154738D01*
X178377295Y-52091938D01*
X178438614Y-52058456D01*
X178497066Y-52059847D01*
X178507647Y-52062682D01*
X178593308Y-52085635D01*
X178748105Y-52099178D01*
X178819998Y-52105468D01*
X178820000Y-52105468D01*
X178820002Y-52105468D01*
X178876673Y-52100509D01*
X179046692Y-52085635D01*
X179266496Y-52026739D01*
X179472734Y-51930568D01*
X179659139Y-51800047D01*
X179820047Y-51639139D01*
X179950568Y-51452734D01*
X179977618Y-51394724D01*
X180023790Y-51342285D01*
X180090983Y-51323133D01*
X180157865Y-51343348D01*
X180202382Y-51394725D01*
X180229429Y-51452728D01*
X180229432Y-51452734D01*
X180359954Y-51639141D01*
X180520858Y-51800045D01*
X180520861Y-51800047D01*
X180707266Y-51930568D01*
X180913504Y-52026739D01*
X181133308Y-52085635D01*
X181288105Y-52099178D01*
X181359998Y-52105468D01*
X181360000Y-52105468D01*
X181360002Y-52105468D01*
X181416673Y-52100509D01*
X181586692Y-52085635D01*
X181806496Y-52026739D01*
X182012734Y-51930568D01*
X182199139Y-51800047D01*
X182360047Y-51639139D01*
X182490568Y-51452734D01*
X182517618Y-51394724D01*
X182563790Y-51342285D01*
X182630983Y-51323133D01*
X182697865Y-51343348D01*
X182742382Y-51394725D01*
X182769429Y-51452728D01*
X182769432Y-51452734D01*
X182899954Y-51639141D01*
X183060858Y-51800045D01*
X183060861Y-51800047D01*
X183247266Y-51930568D01*
X183453504Y-52026739D01*
X183673308Y-52085635D01*
X183828105Y-52099178D01*
X183899998Y-52105468D01*
X183900000Y-52105468D01*
X183900002Y-52105468D01*
X183956673Y-52100509D01*
X184126692Y-52085635D01*
X184346496Y-52026739D01*
X184552734Y-51930568D01*
X184739139Y-51800047D01*
X184900047Y-51639139D01*
X185030568Y-51452734D01*
X185126739Y-51246496D01*
X185185635Y-51026692D01*
X185205468Y-50800000D01*
X185185635Y-50573308D01*
X185126739Y-50353504D01*
X185030568Y-50147266D01*
X184900047Y-49960861D01*
X184900045Y-49960858D01*
X184739141Y-49799954D01*
X184552734Y-49669432D01*
X184552732Y-49669431D01*
X184346497Y-49573261D01*
X184346488Y-49573258D01*
X184126697Y-49514366D01*
X184126693Y-49514365D01*
X184126692Y-49514365D01*
X184126691Y-49514364D01*
X184126686Y-49514364D01*
X183900002Y-49494532D01*
X183899998Y-49494532D01*
X183673313Y-49514364D01*
X183673302Y-49514366D01*
X183453511Y-49573258D01*
X183453502Y-49573261D01*
X183247267Y-49669431D01*
X183247265Y-49669432D01*
X183060858Y-49799954D01*
X182899954Y-49960858D01*
X182769432Y-50147265D01*
X182769431Y-50147267D01*
X182742382Y-50205275D01*
X182696209Y-50257714D01*
X182629016Y-50276866D01*
X182562135Y-50256650D01*
X182517618Y-50205275D01*
X182490686Y-50147520D01*
X182490568Y-50147266D01*
X182360047Y-49960861D01*
X182360045Y-49960858D01*
X182199141Y-49799954D01*
X182012734Y-49669432D01*
X182012732Y-49669431D01*
X181806497Y-49573261D01*
X181806488Y-49573258D01*
X181586697Y-49514366D01*
X181586693Y-49514365D01*
X181586692Y-49514365D01*
X181586691Y-49514364D01*
X181586686Y-49514364D01*
X181360002Y-49494532D01*
X181359998Y-49494532D01*
X181133313Y-49514364D01*
X181133302Y-49514366D01*
X180913511Y-49573258D01*
X180913502Y-49573261D01*
X180707267Y-49669431D01*
X180707265Y-49669432D01*
X180520858Y-49799954D01*
X180359954Y-49960858D01*
X180229432Y-50147265D01*
X180229431Y-50147267D01*
X180202382Y-50205275D01*
X180156209Y-50257714D01*
X180089016Y-50276866D01*
X180022135Y-50256650D01*
X179977618Y-50205275D01*
X179950686Y-50147520D01*
X179950568Y-50147266D01*
X179820047Y-49960861D01*
X179820045Y-49960858D01*
X179659141Y-49799954D01*
X179472734Y-49669432D01*
X179472732Y-49669431D01*
X179266497Y-49573261D01*
X179266488Y-49573258D01*
X179046697Y-49514366D01*
X179046693Y-49514365D01*
X179046692Y-49514365D01*
X179046691Y-49514364D01*
X179046686Y-49514364D01*
X178820002Y-49494532D01*
X178819998Y-49494532D01*
X178593313Y-49514364D01*
X178593302Y-49514366D01*
X178373511Y-49573258D01*
X178373502Y-49573261D01*
X178167267Y-49669431D01*
X178167265Y-49669432D01*
X177980858Y-49799954D01*
X177819954Y-49960858D01*
X177689432Y-50147265D01*
X177689431Y-50147267D01*
X177662382Y-50205275D01*
X177616209Y-50257714D01*
X177549016Y-50276866D01*
X177482135Y-50256650D01*
X177437618Y-50205275D01*
X177410686Y-50147520D01*
X177410568Y-50147266D01*
X177280047Y-49960861D01*
X177280045Y-49960858D01*
X177119141Y-49799954D01*
X176932734Y-49669432D01*
X176932732Y-49669431D01*
X176726497Y-49573261D01*
X176726488Y-49573258D01*
X176506697Y-49514366D01*
X176506693Y-49514365D01*
X176506692Y-49514365D01*
X176506691Y-49514364D01*
X176506686Y-49514364D01*
X176280002Y-49494532D01*
X176279998Y-49494532D01*
X176053313Y-49514364D01*
X176053302Y-49514366D01*
X175833511Y-49573258D01*
X175833502Y-49573261D01*
X175627267Y-49669431D01*
X175627265Y-49669432D01*
X175440858Y-49799954D01*
X175279954Y-49960858D01*
X175149432Y-50147265D01*
X175149431Y-50147267D01*
X175122382Y-50205275D01*
X175076209Y-50257714D01*
X175009016Y-50276866D01*
X174942135Y-50256650D01*
X174897618Y-50205275D01*
X174870686Y-50147520D01*
X174870568Y-50147266D01*
X174740047Y-49960861D01*
X174740045Y-49960858D01*
X174579141Y-49799954D01*
X174392734Y-49669432D01*
X174392732Y-49669431D01*
X174186497Y-49573261D01*
X174186488Y-49573258D01*
X173966697Y-49514366D01*
X173966693Y-49514365D01*
X173966692Y-49514365D01*
X173966691Y-49514364D01*
X173966686Y-49514364D01*
X173740002Y-49494532D01*
X173739998Y-49494532D01*
X173513313Y-49514364D01*
X173513302Y-49514366D01*
X173293511Y-49573258D01*
X173293502Y-49573261D01*
X173087267Y-49669431D01*
X173087265Y-49669432D01*
X172900858Y-49799954D01*
X172739954Y-49960858D01*
X172609432Y-50147265D01*
X172609431Y-50147267D01*
X172582382Y-50205275D01*
X172536209Y-50257714D01*
X172469016Y-50276866D01*
X172402135Y-50256650D01*
X172357618Y-50205275D01*
X172330686Y-50147520D01*
X172330568Y-50147266D01*
X172200047Y-49960861D01*
X172200045Y-49960858D01*
X172039141Y-49799954D01*
X171852734Y-49669432D01*
X171852732Y-49669431D01*
X171646497Y-49573261D01*
X171646488Y-49573258D01*
X171426697Y-49514366D01*
X171426693Y-49514365D01*
X171426692Y-49514365D01*
X171426691Y-49514364D01*
X171426686Y-49514364D01*
X171200002Y-49494532D01*
X171199998Y-49494532D01*
X170973313Y-49514364D01*
X170973302Y-49514366D01*
X170753511Y-49573258D01*
X170753502Y-49573261D01*
X170547267Y-49669431D01*
X170547265Y-49669432D01*
X170360858Y-49799954D01*
X170199954Y-49960858D01*
X170069433Y-50147264D01*
X170069432Y-50147266D01*
X170069315Y-50147518D01*
X170042106Y-50205867D01*
X169995933Y-50258306D01*
X169928739Y-50277457D01*
X169861858Y-50257241D01*
X169817342Y-50205865D01*
X169790135Y-50147520D01*
X169790134Y-50147518D01*
X169659657Y-49961179D01*
X169498820Y-49800342D01*
X169312482Y-49669865D01*
X169106328Y-49573734D01*
X168910000Y-49521127D01*
X168910000Y-50366988D01*
X168852993Y-50334075D01*
X168725826Y-50300000D01*
X168594174Y-50300000D01*
X168467007Y-50334075D01*
X168410000Y-50366988D01*
X168410000Y-49521127D01*
X168213671Y-49573734D01*
X168007517Y-49669865D01*
X167821179Y-49800342D01*
X167660342Y-49961179D01*
X167529867Y-50147515D01*
X167502657Y-50205867D01*
X167456484Y-50258306D01*
X167389290Y-50277457D01*
X167322409Y-50257241D01*
X167277893Y-50205865D01*
X167250685Y-50147518D01*
X167250568Y-50147266D01*
X167120047Y-49960861D01*
X167120045Y-49960858D01*
X166959141Y-49799954D01*
X166772734Y-49669432D01*
X166772732Y-49669431D01*
X166566497Y-49573261D01*
X166566488Y-49573258D01*
X166346697Y-49514366D01*
X166346693Y-49514365D01*
X166346692Y-49514365D01*
X166346691Y-49514364D01*
X166346686Y-49514364D01*
X166120002Y-49494532D01*
X166119998Y-49494532D01*
X165893313Y-49514364D01*
X165893302Y-49514366D01*
X165673511Y-49573258D01*
X165673502Y-49573261D01*
X165467267Y-49669431D01*
X165467265Y-49669432D01*
X165280858Y-49799954D01*
X165119954Y-49960858D01*
X164989432Y-50147265D01*
X164989431Y-50147267D01*
X164893261Y-50353502D01*
X164893258Y-50353511D01*
X164834366Y-50573302D01*
X164834364Y-50573313D01*
X164814532Y-50799998D01*
X164814532Y-50800001D01*
X164834364Y-51026686D01*
X164834366Y-51026697D01*
X164893258Y-51246488D01*
X164893261Y-51246497D01*
X164989431Y-51452732D01*
X164989432Y-51452734D01*
X165119954Y-51639141D01*
X165280858Y-51800045D01*
X165280861Y-51800047D01*
X165467266Y-51930568D01*
X165673504Y-52026739D01*
X165893308Y-52085635D01*
X166048105Y-52099178D01*
X166119998Y-52105468D01*
X166120000Y-52105468D01*
X166120002Y-52105468D01*
X166176673Y-52100509D01*
X166346692Y-52085635D01*
X166566496Y-52026739D01*
X166772734Y-51930568D01*
X166959139Y-51800047D01*
X167120047Y-51639139D01*
X167250568Y-51452734D01*
X167277895Y-51394129D01*
X167324064Y-51341695D01*
X167391257Y-51322542D01*
X167458139Y-51342757D01*
X167502657Y-51394133D01*
X167529865Y-51452482D01*
X167660342Y-51638820D01*
X167821179Y-51799657D01*
X168007517Y-51930134D01*
X168213673Y-52026265D01*
X168213682Y-52026269D01*
X168409999Y-52078872D01*
X168410000Y-52078871D01*
X168410000Y-51233012D01*
X168467007Y-51265925D01*
X168594174Y-51300000D01*
X168725826Y-51300000D01*
X168852993Y-51265925D01*
X168910000Y-51233012D01*
X168910000Y-52089402D01*
X168890315Y-52156441D01*
X168873683Y-52177081D01*
X168712582Y-52338182D01*
X168651261Y-52371666D01*
X168624903Y-52374500D01*
X158019940Y-52374500D01*
X157979019Y-52385464D01*
X157979019Y-52385465D01*
X157941751Y-52395451D01*
X157867214Y-52415423D01*
X157867209Y-52415426D01*
X157730290Y-52494475D01*
X157730282Y-52494481D01*
X157618478Y-52606286D01*
X156621679Y-53603084D01*
X156560356Y-53636569D01*
X156501906Y-53635178D01*
X156430076Y-53615932D01*
X156430073Y-53615931D01*
X156430068Y-53615930D01*
X156430065Y-53615929D01*
X156430062Y-53615929D01*
X156210002Y-53596677D01*
X156209998Y-53596677D01*
X155989937Y-53615929D01*
X155989929Y-53615930D01*
X155776554Y-53673104D01*
X155776548Y-53673107D01*
X155576340Y-53766465D01*
X155576338Y-53766466D01*
X155395377Y-53893175D01*
X155239175Y-54049377D01*
X155112466Y-54230338D01*
X155112465Y-54230340D01*
X155019107Y-54430548D01*
X155019104Y-54430554D01*
X154961930Y-54643929D01*
X154961929Y-54643937D01*
X154942677Y-54863997D01*
X154942677Y-54864002D01*
X154961929Y-55084062D01*
X154961930Y-55084070D01*
X155019104Y-55297445D01*
X155019105Y-55297447D01*
X155019106Y-55297450D01*
X155052106Y-55368219D01*
X155112466Y-55497662D01*
X155112468Y-55497666D01*
X155239170Y-55678615D01*
X155239175Y-55678621D01*
X155395378Y-55834824D01*
X155395384Y-55834829D01*
X155576333Y-55961531D01*
X155576335Y-55961532D01*
X155576338Y-55961534D01*
X155776550Y-56054894D01*
X155989932Y-56112070D01*
X156147123Y-56125822D01*
X156209998Y-56131323D01*
X156210000Y-56131323D01*
X156210002Y-56131323D01*
X156265017Y-56126509D01*
X156430068Y-56112070D01*
X156643450Y-56054894D01*
X156843662Y-55961534D01*
X157024620Y-55834826D01*
X157180826Y-55678620D01*
X157307534Y-55497662D01*
X157367618Y-55368811D01*
X157413790Y-55316371D01*
X157480983Y-55297219D01*
X157547865Y-55317435D01*
X157592382Y-55368811D01*
X157652464Y-55497658D01*
X157652468Y-55497666D01*
X157779170Y-55678615D01*
X157779175Y-55678621D01*
X157935378Y-55834824D01*
X157935384Y-55834829D01*
X158116333Y-55961531D01*
X158116335Y-55961532D01*
X158116338Y-55961534D01*
X158316550Y-56054894D01*
X158529932Y-56112070D01*
X158687123Y-56125822D01*
X158749998Y-56131323D01*
X158750000Y-56131323D01*
X158750002Y-56131323D01*
X158805017Y-56126509D01*
X158970068Y-56112070D01*
X159183450Y-56054894D01*
X159383662Y-55961534D01*
X159564620Y-55834826D01*
X159720826Y-55678620D01*
X159847534Y-55497662D01*
X159907618Y-55368811D01*
X159953790Y-55316371D01*
X160020983Y-55297219D01*
X160087865Y-55317435D01*
X160132382Y-55368811D01*
X160192464Y-55497658D01*
X160192468Y-55497666D01*
X160319170Y-55678615D01*
X160319175Y-55678621D01*
X160475378Y-55834824D01*
X160475384Y-55834829D01*
X160656333Y-55961531D01*
X160656335Y-55961532D01*
X160656338Y-55961534D01*
X160856550Y-56054894D01*
X161069932Y-56112070D01*
X161227123Y-56125822D01*
X161289998Y-56131323D01*
X161290000Y-56131323D01*
X161290002Y-56131323D01*
X161345017Y-56126509D01*
X161510068Y-56112070D01*
X161723450Y-56054894D01*
X161923662Y-55961534D01*
X162104620Y-55834826D01*
X162260826Y-55678620D01*
X162387534Y-55497662D01*
X162447618Y-55368811D01*
X162493790Y-55316371D01*
X162560983Y-55297219D01*
X162627865Y-55317435D01*
X162672382Y-55368811D01*
X162732464Y-55497658D01*
X162732468Y-55497666D01*
X162859170Y-55678615D01*
X162859175Y-55678621D01*
X163015378Y-55834824D01*
X163015384Y-55834829D01*
X163196333Y-55961531D01*
X163196335Y-55961532D01*
X163196338Y-55961534D01*
X163396550Y-56054894D01*
X163609932Y-56112070D01*
X163767123Y-56125822D01*
X163829998Y-56131323D01*
X163830000Y-56131323D01*
X163830002Y-56131323D01*
X163885017Y-56126509D01*
X164050068Y-56112070D01*
X164263450Y-56054894D01*
X164463662Y-55961534D01*
X164644620Y-55834826D01*
X164800826Y-55678620D01*
X164927534Y-55497662D01*
X164987618Y-55368811D01*
X165033790Y-55316371D01*
X165100983Y-55297219D01*
X165167865Y-55317435D01*
X165212382Y-55368811D01*
X165272464Y-55497658D01*
X165272468Y-55497666D01*
X165399170Y-55678615D01*
X165399175Y-55678621D01*
X165555378Y-55834824D01*
X165555384Y-55834829D01*
X165736333Y-55961531D01*
X165736335Y-55961532D01*
X165736338Y-55961534D01*
X165936550Y-56054894D01*
X166149932Y-56112070D01*
X166307123Y-56125822D01*
X166369998Y-56131323D01*
X166370000Y-56131323D01*
X166370002Y-56131323D01*
X166425017Y-56126509D01*
X166590068Y-56112070D01*
X166803450Y-56054894D01*
X167003662Y-55961534D01*
X167184620Y-55834826D01*
X167340826Y-55678620D01*
X167467534Y-55497662D01*
X167527618Y-55368811D01*
X167573790Y-55316371D01*
X167640983Y-55297219D01*
X167707865Y-55317435D01*
X167752382Y-55368811D01*
X167812464Y-55497658D01*
X167812468Y-55497666D01*
X167939170Y-55678615D01*
X167939175Y-55678621D01*
X168095378Y-55834824D01*
X168095384Y-55834829D01*
X168276333Y-55961531D01*
X168276335Y-55961532D01*
X168276338Y-55961534D01*
X168476550Y-56054894D01*
X168689932Y-56112070D01*
X168847123Y-56125822D01*
X168909998Y-56131323D01*
X168910000Y-56131323D01*
X168910002Y-56131323D01*
X168965017Y-56126509D01*
X169130068Y-56112070D01*
X169343450Y-56054894D01*
X169543662Y-55961534D01*
X169724620Y-55834826D01*
X169880826Y-55678620D01*
X170007534Y-55497662D01*
X170067618Y-55368811D01*
X170113790Y-55316371D01*
X170180983Y-55297219D01*
X170247865Y-55317435D01*
X170292382Y-55368811D01*
X170352464Y-55497658D01*
X170352468Y-55497666D01*
X170479170Y-55678615D01*
X170479175Y-55678621D01*
X170635378Y-55834824D01*
X170635384Y-55834829D01*
X170816333Y-55961531D01*
X170816335Y-55961532D01*
X170816338Y-55961534D01*
X171016550Y-56054894D01*
X171229932Y-56112070D01*
X171387123Y-56125822D01*
X171449998Y-56131323D01*
X171450000Y-56131323D01*
X171450002Y-56131323D01*
X171505017Y-56126509D01*
X171670068Y-56112070D01*
X171883450Y-56054894D01*
X172083662Y-55961534D01*
X172264620Y-55834826D01*
X172420826Y-55678620D01*
X172547534Y-55497662D01*
X172607894Y-55368218D01*
X172654066Y-55315779D01*
X172721259Y-55296627D01*
X172788141Y-55316843D01*
X172832658Y-55368219D01*
X172892898Y-55497405D01*
X172892901Y-55497411D01*
X172938258Y-55562187D01*
X172938258Y-55562188D01*
X173609000Y-54891446D01*
X173609000Y-54914160D01*
X173634964Y-55011061D01*
X173685124Y-55097940D01*
X173756060Y-55168876D01*
X173842939Y-55219036D01*
X173939840Y-55245000D01*
X173962553Y-55245000D01*
X173291810Y-55915740D01*
X173356590Y-55961099D01*
X173356592Y-55961100D01*
X173556715Y-56054419D01*
X173556729Y-56054424D01*
X173770013Y-56111573D01*
X173770023Y-56111575D01*
X173989999Y-56130821D01*
X173990001Y-56130821D01*
X174209976Y-56111575D01*
X174209986Y-56111573D01*
X174423270Y-56054424D01*
X174423284Y-56054419D01*
X174623407Y-55961100D01*
X174623417Y-55961094D01*
X174688188Y-55915741D01*
X174017448Y-55245000D01*
X174040160Y-55245000D01*
X174137061Y-55219036D01*
X174223940Y-55168876D01*
X174294876Y-55097940D01*
X174345036Y-55011061D01*
X174371000Y-54914160D01*
X174371000Y-54891447D01*
X175041741Y-55562188D01*
X175087094Y-55497417D01*
X175087100Y-55497407D01*
X175180419Y-55297284D01*
X175180424Y-55297270D01*
X175237573Y-55083986D01*
X175237575Y-55083976D01*
X175256821Y-54864000D01*
X175256821Y-54863999D01*
X175237575Y-54644023D01*
X175237574Y-54644017D01*
X175205280Y-54523494D01*
X175206943Y-54453644D01*
X175246105Y-54395781D01*
X175310334Y-54368277D01*
X175325055Y-54367400D01*
X189986431Y-54367400D01*
X189986447Y-54367401D01*
X189994043Y-54367401D01*
X190152154Y-54367401D01*
X190152157Y-54367401D01*
X190304885Y-54326477D01*
X190355004Y-54297539D01*
X190441816Y-54247420D01*
X190553620Y-54135616D01*
X190553620Y-54135614D01*
X190563828Y-54125407D01*
X190563830Y-54125404D01*
X192597294Y-52091939D01*
X192658615Y-52058456D01*
X192717066Y-52059847D01*
X192727647Y-52062682D01*
X192813308Y-52085635D01*
X192968105Y-52099178D01*
X193039998Y-52105468D01*
X193040000Y-52105468D01*
X193040001Y-52105468D01*
X193058206Y-52103875D01*
X193144764Y-52096302D01*
X193213263Y-52110068D01*
X193263446Y-52158683D01*
X193279380Y-52226712D01*
X193256005Y-52292556D01*
X193243252Y-52307511D01*
X189561584Y-55989181D01*
X189500261Y-56022666D01*
X189473903Y-56025500D01*
X183436940Y-56025500D01*
X183396019Y-56036464D01*
X183396019Y-56036465D01*
X183358751Y-56046451D01*
X183284214Y-56066423D01*
X183284209Y-56066426D01*
X183147290Y-56145475D01*
X183147282Y-56145481D01*
X183035478Y-56257286D01*
X181704584Y-57588181D01*
X181643261Y-57621666D01*
X181616903Y-57624500D01*
X180749500Y-57624500D01*
X180682461Y-57604815D01*
X180636706Y-57552011D01*
X180625500Y-57500501D01*
X180625499Y-57302130D01*
X180625498Y-57302123D01*
X180625161Y-57298989D01*
X180619091Y-57242517D01*
X180613117Y-57226501D01*
X180568797Y-57107671D01*
X180568795Y-57107668D01*
X180511417Y-57031021D01*
X180505644Y-57023309D01*
X180481227Y-56957846D01*
X180496078Y-56889573D01*
X180545483Y-56840167D01*
X180604911Y-56824999D01*
X180731581Y-56824999D01*
X180802102Y-56818591D01*
X180802107Y-56818590D01*
X180964396Y-56768018D01*
X181109877Y-56680072D01*
X181230072Y-56559877D01*
X181318019Y-56414395D01*
X181368590Y-56252106D01*
X181375000Y-56181572D01*
X181375000Y-56100000D01*
X180349000Y-56100000D01*
X180281961Y-56080315D01*
X180236206Y-56027511D01*
X180225000Y-55976000D01*
X180225000Y-54875000D01*
X180725000Y-54875000D01*
X180725000Y-55600000D01*
X181374999Y-55600000D01*
X181374999Y-55518417D01*
X181368591Y-55447897D01*
X181368590Y-55447892D01*
X181318018Y-55285603D01*
X181230072Y-55140122D01*
X181109877Y-55019927D01*
X180964395Y-54931980D01*
X180964396Y-54931980D01*
X180802105Y-54881409D01*
X180802106Y-54881409D01*
X180731572Y-54875000D01*
X180725000Y-54875000D01*
X180225000Y-54875000D01*
X180224999Y-54874999D01*
X180218436Y-54875000D01*
X180218417Y-54875001D01*
X180147897Y-54881408D01*
X180147892Y-54881409D01*
X179985603Y-54931981D01*
X179840122Y-55019927D01*
X179840121Y-55019928D01*
X179738035Y-55122015D01*
X179676712Y-55155500D01*
X179607020Y-55150516D01*
X179562673Y-55122015D01*
X179460188Y-55019530D01*
X179314606Y-54931522D01*
X179258888Y-54914160D01*
X179152196Y-54880914D01*
X179152194Y-54880913D01*
X179152192Y-54880913D01*
X179102778Y-54876423D01*
X179081616Y-54874500D01*
X178568384Y-54874500D01*
X178549145Y-54876248D01*
X178497807Y-54880913D01*
X178335393Y-54931522D01*
X178189811Y-55019530D01*
X178069530Y-55139811D01*
X177981522Y-55285393D01*
X177930913Y-55447807D01*
X177924500Y-55518386D01*
X177924500Y-55849902D01*
X177904815Y-55916941D01*
X177888181Y-55937583D01*
X177594481Y-56231282D01*
X177594477Y-56231287D01*
X177557107Y-56296016D01*
X177557107Y-56296017D01*
X177515423Y-56368214D01*
X177515423Y-56368215D01*
X177474499Y-56520943D01*
X177474499Y-56520945D01*
X177474499Y-56689046D01*
X177474500Y-56689059D01*
X177474500Y-58488330D01*
X177474499Y-58488348D01*
X177474499Y-58654054D01*
X177474498Y-58654054D01*
X177515423Y-58806786D01*
X177526227Y-58825497D01*
X177526228Y-58825502D01*
X177526229Y-58825502D01*
X177594475Y-58943709D01*
X177594481Y-58943717D01*
X177713349Y-59062585D01*
X177713355Y-59062590D01*
X177838181Y-59187416D01*
X177871666Y-59248739D01*
X177874500Y-59275097D01*
X177874500Y-59797869D01*
X177874501Y-59797878D01*
X177878679Y-59836745D01*
X177878679Y-59863250D01*
X177874500Y-59902122D01*
X177874500Y-60447869D01*
X177874501Y-60447878D01*
X177878679Y-60486745D01*
X177878679Y-60513251D01*
X177874500Y-60552123D01*
X177874500Y-61024902D01*
X177854815Y-61091941D01*
X177838181Y-61112583D01*
X177650361Y-61300402D01*
X177603636Y-61329762D01*
X177517476Y-61359911D01*
X177517475Y-61359912D01*
X177364737Y-61455884D01*
X177237184Y-61583437D01*
X177141211Y-61736176D01*
X177081631Y-61906445D01*
X177081630Y-61906450D01*
X177061435Y-62085696D01*
X177061435Y-62085704D01*
X177062243Y-62092879D01*
X177050185Y-62161700D01*
X177002833Y-62213077D01*
X176951626Y-62230114D01*
X176902392Y-62235144D01*
X176741518Y-62288452D01*
X176741507Y-62288457D01*
X176597271Y-62377424D01*
X176597267Y-62377427D01*
X176477427Y-62497267D01*
X176477424Y-62497271D01*
X176388457Y-62641507D01*
X176388452Y-62641518D01*
X176335144Y-62802393D01*
X176325000Y-62901677D01*
X176325000Y-62925000D01*
X177426000Y-62925000D01*
X177493039Y-62944685D01*
X177538794Y-62997489D01*
X177550000Y-63049000D01*
X177550000Y-63301000D01*
X177530315Y-63368039D01*
X177477511Y-63413794D01*
X177426000Y-63425000D01*
X176325001Y-63425000D01*
X176325001Y-63448322D01*
X176335144Y-63547607D01*
X176388452Y-63708481D01*
X176388457Y-63708492D01*
X176477424Y-63852728D01*
X176477427Y-63852732D01*
X176486660Y-63861965D01*
X176520145Y-63923288D01*
X176515161Y-63992980D01*
X176486663Y-64037324D01*
X176477033Y-64046953D01*
X176477029Y-64046959D01*
X176388001Y-64191294D01*
X176387996Y-64191305D01*
X176334651Y-64352290D01*
X176324500Y-64451647D01*
X176324500Y-64998337D01*
X176324501Y-64998355D01*
X176334650Y-65097707D01*
X176334651Y-65097710D01*
X176387996Y-65258694D01*
X176388001Y-65258705D01*
X176477029Y-65403040D01*
X176477032Y-65403044D01*
X176596956Y-65522968D01*
X176640597Y-65549886D01*
X176687321Y-65601832D01*
X176699500Y-65655424D01*
X176699500Y-73866903D01*
X176679815Y-73933942D01*
X176663181Y-73954584D01*
X167908681Y-82709084D01*
X167847358Y-82742569D01*
X167777666Y-82737585D01*
X167733319Y-82709084D01*
X160272237Y-75248002D01*
X160238752Y-75186679D01*
X160243736Y-75116987D01*
X160244490Y-75115019D01*
X160264048Y-75065186D01*
X160302420Y-74967416D01*
X160360802Y-74711630D01*
X160361638Y-74700473D01*
X160380408Y-74450004D01*
X160380408Y-74449995D01*
X160376662Y-74400001D01*
X168869390Y-74400001D01*
X168889804Y-74685433D01*
X168950628Y-74965037D01*
X168950630Y-74965043D01*
X168950631Y-74965046D01*
X169006568Y-75115019D01*
X169050635Y-75233166D01*
X169187770Y-75484309D01*
X169187775Y-75484317D01*
X169359254Y-75713387D01*
X169359270Y-75713405D01*
X169561594Y-75915729D01*
X169561612Y-75915745D01*
X169790682Y-76087224D01*
X169790690Y-76087229D01*
X170041833Y-76224364D01*
X170041832Y-76224364D01*
X170041836Y-76224365D01*
X170041839Y-76224367D01*
X170309954Y-76324369D01*
X170309960Y-76324370D01*
X170309962Y-76324371D01*
X170589566Y-76385195D01*
X170589568Y-76385195D01*
X170589572Y-76385196D01*
X170843220Y-76403337D01*
X170874999Y-76405610D01*
X170875000Y-76405610D01*
X170875001Y-76405610D01*
X170903595Y-76403564D01*
X171160428Y-76385196D01*
X171189141Y-76378950D01*
X171440037Y-76324371D01*
X171440037Y-76324370D01*
X171440046Y-76324369D01*
X171708161Y-76224367D01*
X171959315Y-76087226D01*
X172188395Y-75915739D01*
X172390739Y-75713395D01*
X172562226Y-75484315D01*
X172699367Y-75233161D01*
X172799369Y-74965046D01*
X172820349Y-74868601D01*
X172860195Y-74685433D01*
X172860195Y-74685432D01*
X172860196Y-74685428D01*
X172880610Y-74400000D01*
X172880523Y-74398790D01*
X172875992Y-74335437D01*
X172860196Y-74114572D01*
X172851564Y-74074893D01*
X172799371Y-73834962D01*
X172799370Y-73834960D01*
X172799369Y-73834954D01*
X172699367Y-73566839D01*
X172681304Y-73533760D01*
X172562229Y-73315690D01*
X172562224Y-73315682D01*
X172390745Y-73086612D01*
X172390729Y-73086594D01*
X172188405Y-72884270D01*
X172188387Y-72884254D01*
X171959317Y-72712775D01*
X171959309Y-72712770D01*
X171708166Y-72575635D01*
X171708167Y-72575635D01*
X171600915Y-72535632D01*
X171440046Y-72475631D01*
X171440043Y-72475630D01*
X171440037Y-72475628D01*
X171160433Y-72414804D01*
X170875001Y-72394390D01*
X170874999Y-72394390D01*
X170589566Y-72414804D01*
X170309962Y-72475628D01*
X170041833Y-72575635D01*
X169790690Y-72712770D01*
X169790682Y-72712775D01*
X169561612Y-72884254D01*
X169561594Y-72884270D01*
X169359270Y-73086594D01*
X169359254Y-73086612D01*
X169187775Y-73315682D01*
X169187770Y-73315690D01*
X169050635Y-73566833D01*
X168950628Y-73834962D01*
X168889804Y-74114566D01*
X168869390Y-74399998D01*
X168869390Y-74400001D01*
X160376662Y-74400001D01*
X160360803Y-74188379D01*
X160360802Y-74188374D01*
X160360802Y-74188370D01*
X160302420Y-73932584D01*
X160206568Y-73688357D01*
X160075386Y-73461143D01*
X159911805Y-73256019D01*
X159911804Y-73256018D01*
X159911801Y-73256014D01*
X159719479Y-73077567D01*
X159502704Y-72929772D01*
X159452772Y-72905726D01*
X159420697Y-72890279D01*
X159368838Y-72843456D01*
X159350500Y-72778559D01*
X159350500Y-71289304D01*
X159370185Y-71222265D01*
X159403375Y-71187730D01*
X159564620Y-71074826D01*
X159720826Y-70918620D01*
X159847534Y-70737662D01*
X159907894Y-70608218D01*
X159954066Y-70555779D01*
X160021259Y-70536627D01*
X160088141Y-70556843D01*
X160132658Y-70608219D01*
X160192898Y-70737405D01*
X160192901Y-70737411D01*
X160238258Y-70802187D01*
X160238259Y-70802188D01*
X160909000Y-70131447D01*
X160909000Y-70154160D01*
X160934964Y-70251061D01*
X160985124Y-70337940D01*
X161056060Y-70408876D01*
X161142939Y-70459036D01*
X161239840Y-70485000D01*
X161262553Y-70485000D01*
X160591810Y-71155740D01*
X160656590Y-71201099D01*
X160656592Y-71201100D01*
X160856715Y-71294419D01*
X160856729Y-71294424D01*
X161070013Y-71351573D01*
X161070023Y-71351575D01*
X161289999Y-71370821D01*
X161290001Y-71370821D01*
X161509976Y-71351575D01*
X161509986Y-71351573D01*
X161723270Y-71294424D01*
X161723284Y-71294419D01*
X161923407Y-71201100D01*
X161923417Y-71201094D01*
X161988188Y-71155741D01*
X161317448Y-70485000D01*
X161340160Y-70485000D01*
X161437061Y-70459036D01*
X161523940Y-70408876D01*
X161594876Y-70337940D01*
X161645036Y-70251061D01*
X161671000Y-70154160D01*
X161671000Y-70131447D01*
X162341741Y-70802188D01*
X162387094Y-70737417D01*
X162387095Y-70737416D01*
X162447340Y-70608219D01*
X162493512Y-70555780D01*
X162560706Y-70536627D01*
X162627587Y-70556842D01*
X162672105Y-70608218D01*
X162732466Y-70737662D01*
X162732468Y-70737666D01*
X162859170Y-70918615D01*
X162859175Y-70918621D01*
X163015378Y-71074824D01*
X163015384Y-71074829D01*
X163196333Y-71201531D01*
X163196335Y-71201532D01*
X163196338Y-71201534D01*
X163396550Y-71294894D01*
X163609932Y-71352070D01*
X163767123Y-71365822D01*
X163829998Y-71371323D01*
X163830000Y-71371323D01*
X163830002Y-71371323D01*
X163885017Y-71366509D01*
X164050068Y-71352070D01*
X164263450Y-71294894D01*
X164463662Y-71201534D01*
X164644620Y-71074826D01*
X164800826Y-70918620D01*
X164927534Y-70737662D01*
X164987618Y-70608811D01*
X165033790Y-70556371D01*
X165100983Y-70537219D01*
X165167865Y-70557435D01*
X165212382Y-70608811D01*
X165272464Y-70737658D01*
X165272468Y-70737666D01*
X165399170Y-70918615D01*
X165399175Y-70918621D01*
X165555378Y-71074824D01*
X165555384Y-71074829D01*
X165736333Y-71201531D01*
X165736335Y-71201532D01*
X165736338Y-71201534D01*
X165936550Y-71294894D01*
X166149932Y-71352070D01*
X166307123Y-71365822D01*
X166369998Y-71371323D01*
X166370000Y-71371323D01*
X166370002Y-71371323D01*
X166425017Y-71366509D01*
X166590068Y-71352070D01*
X166803450Y-71294894D01*
X167003662Y-71201534D01*
X167184620Y-71074826D01*
X167340826Y-70918620D01*
X167467534Y-70737662D01*
X167527618Y-70608811D01*
X167573790Y-70556371D01*
X167640983Y-70537219D01*
X167707865Y-70557435D01*
X167752382Y-70608811D01*
X167812464Y-70737658D01*
X167812468Y-70737666D01*
X167939170Y-70918615D01*
X167939175Y-70918621D01*
X168095378Y-71074824D01*
X168095384Y-71074829D01*
X168276333Y-71201531D01*
X168276335Y-71201532D01*
X168276338Y-71201534D01*
X168476550Y-71294894D01*
X168689932Y-71352070D01*
X168847123Y-71365822D01*
X168909998Y-71371323D01*
X168910000Y-71371323D01*
X168910002Y-71371323D01*
X168965017Y-71366509D01*
X169130068Y-71352070D01*
X169343450Y-71294894D01*
X169543662Y-71201534D01*
X169724620Y-71074826D01*
X169880826Y-70918620D01*
X170007534Y-70737662D01*
X170067618Y-70608811D01*
X170113790Y-70556371D01*
X170180983Y-70537219D01*
X170247865Y-70557435D01*
X170292382Y-70608811D01*
X170352464Y-70737658D01*
X170352468Y-70737666D01*
X170479170Y-70918615D01*
X170479175Y-70918621D01*
X170635378Y-71074824D01*
X170635384Y-71074829D01*
X170816333Y-71201531D01*
X170816335Y-71201532D01*
X170816338Y-71201534D01*
X171016550Y-71294894D01*
X171229932Y-71352070D01*
X171387123Y-71365822D01*
X171449998Y-71371323D01*
X171450000Y-71371323D01*
X171450002Y-71371323D01*
X171505017Y-71366509D01*
X171670068Y-71352070D01*
X171883450Y-71294894D01*
X172083662Y-71201534D01*
X172264620Y-71074826D01*
X172420826Y-70918620D01*
X172547534Y-70737662D01*
X172607894Y-70608218D01*
X172654066Y-70555779D01*
X172721259Y-70536627D01*
X172788141Y-70556843D01*
X172832658Y-70608219D01*
X172892898Y-70737405D01*
X172892901Y-70737411D01*
X172938258Y-70802187D01*
X172938259Y-70802188D01*
X173609000Y-70131447D01*
X173609000Y-70154160D01*
X173634964Y-70251061D01*
X173685124Y-70337940D01*
X173756060Y-70408876D01*
X173842939Y-70459036D01*
X173939840Y-70485000D01*
X173962553Y-70485000D01*
X173291810Y-71155740D01*
X173356590Y-71201099D01*
X173356592Y-71201100D01*
X173556715Y-71294419D01*
X173556729Y-71294424D01*
X173770013Y-71351573D01*
X173770023Y-71351575D01*
X173989999Y-71370821D01*
X173990001Y-71370821D01*
X174209976Y-71351575D01*
X174209986Y-71351573D01*
X174423270Y-71294424D01*
X174423284Y-71294419D01*
X174623407Y-71201100D01*
X174623417Y-71201094D01*
X174688188Y-71155741D01*
X174017448Y-70485000D01*
X174040160Y-70485000D01*
X174137061Y-70459036D01*
X174223940Y-70408876D01*
X174294876Y-70337940D01*
X174345036Y-70251061D01*
X174371000Y-70154160D01*
X174371000Y-70131447D01*
X175041741Y-70802188D01*
X175087094Y-70737417D01*
X175087100Y-70737407D01*
X175180419Y-70537284D01*
X175180424Y-70537270D01*
X175237573Y-70323986D01*
X175237575Y-70323976D01*
X175256821Y-70104000D01*
X175256821Y-70103999D01*
X175237575Y-69884023D01*
X175237573Y-69884013D01*
X175180424Y-69670729D01*
X175180420Y-69670720D01*
X175087096Y-69470586D01*
X175041741Y-69405811D01*
X175041740Y-69405810D01*
X174371000Y-70076551D01*
X174371000Y-70053840D01*
X174345036Y-69956939D01*
X174294876Y-69870060D01*
X174223940Y-69799124D01*
X174137061Y-69748964D01*
X174040160Y-69723000D01*
X174017448Y-69723000D01*
X174688188Y-69052259D01*
X174688187Y-69052258D01*
X174623411Y-69006901D01*
X174623405Y-69006898D01*
X174423284Y-68913580D01*
X174423270Y-68913575D01*
X174209986Y-68856426D01*
X174209976Y-68856424D01*
X173990001Y-68837179D01*
X173989999Y-68837179D01*
X173770023Y-68856424D01*
X173770013Y-68856426D01*
X173556729Y-68913575D01*
X173556720Y-68913579D01*
X173356590Y-69006901D01*
X173291811Y-69052258D01*
X173962553Y-69723000D01*
X173939840Y-69723000D01*
X173842939Y-69748964D01*
X173756060Y-69799124D01*
X173685124Y-69870060D01*
X173634964Y-69956939D01*
X173609000Y-70053840D01*
X173609000Y-70076553D01*
X172938258Y-69405811D01*
X172892901Y-69470590D01*
X172832658Y-69599781D01*
X172786485Y-69652220D01*
X172719292Y-69671372D01*
X172652411Y-69651156D01*
X172607894Y-69599781D01*
X172547651Y-69470590D01*
X172547534Y-69470339D01*
X172451380Y-69333016D01*
X172420827Y-69289381D01*
X172384435Y-69252989D01*
X172264620Y-69133174D01*
X172264616Y-69133171D01*
X172264615Y-69133170D01*
X172083666Y-69006468D01*
X172083662Y-69006466D01*
X171976050Y-68956286D01*
X171883450Y-68913106D01*
X171883447Y-68913105D01*
X171883445Y-68913104D01*
X171670070Y-68855930D01*
X171670062Y-68855929D01*
X171450002Y-68836677D01*
X171449998Y-68836677D01*
X171229937Y-68855929D01*
X171229929Y-68855930D01*
X171016554Y-68913104D01*
X171016548Y-68913107D01*
X170816340Y-69006465D01*
X170816338Y-69006466D01*
X170635377Y-69133175D01*
X170479175Y-69289377D01*
X170352466Y-69470338D01*
X170352465Y-69470340D01*
X170292382Y-69599189D01*
X170246209Y-69651628D01*
X170179016Y-69670780D01*
X170112135Y-69650564D01*
X170067618Y-69599189D01*
X170007651Y-69470590D01*
X170007534Y-69470339D01*
X169911380Y-69333016D01*
X169880827Y-69289381D01*
X169844435Y-69252989D01*
X169724620Y-69133174D01*
X169724616Y-69133171D01*
X169724615Y-69133170D01*
X169543666Y-69006468D01*
X169543662Y-69006466D01*
X169436050Y-68956286D01*
X169343450Y-68913106D01*
X169343447Y-68913105D01*
X169343445Y-68913104D01*
X169130070Y-68855930D01*
X169130062Y-68855929D01*
X168910002Y-68836677D01*
X168909998Y-68836677D01*
X168689937Y-68855929D01*
X168689929Y-68855930D01*
X168476554Y-68913104D01*
X168476548Y-68913107D01*
X168276340Y-69006465D01*
X168276338Y-69006466D01*
X168095377Y-69133175D01*
X167939175Y-69289377D01*
X167812466Y-69470338D01*
X167812465Y-69470340D01*
X167752382Y-69599189D01*
X167706209Y-69651628D01*
X167639016Y-69670780D01*
X167572135Y-69650564D01*
X167527618Y-69599189D01*
X167467651Y-69470590D01*
X167467534Y-69470339D01*
X167371380Y-69333016D01*
X167340827Y-69289381D01*
X167304435Y-69252989D01*
X167184620Y-69133174D01*
X167184616Y-69133171D01*
X167184615Y-69133170D01*
X167003666Y-69006468D01*
X167003662Y-69006466D01*
X166896050Y-68956286D01*
X166803450Y-68913106D01*
X166803447Y-68913105D01*
X166803445Y-68913104D01*
X166590070Y-68855930D01*
X166590062Y-68855929D01*
X166370002Y-68836677D01*
X166369998Y-68836677D01*
X166149937Y-68855929D01*
X166149929Y-68855930D01*
X165936554Y-68913104D01*
X165936548Y-68913107D01*
X165736340Y-69006465D01*
X165736338Y-69006466D01*
X165555377Y-69133175D01*
X165399175Y-69289377D01*
X165272466Y-69470338D01*
X165272465Y-69470340D01*
X165212382Y-69599189D01*
X165166209Y-69651628D01*
X165099016Y-69670780D01*
X165032135Y-69650564D01*
X164987618Y-69599189D01*
X164927651Y-69470590D01*
X164927534Y-69470339D01*
X164831380Y-69333016D01*
X164800827Y-69289381D01*
X164764435Y-69252989D01*
X164644620Y-69133174D01*
X164644616Y-69133171D01*
X164644615Y-69133170D01*
X164463666Y-69006468D01*
X164463662Y-69006466D01*
X164356050Y-68956286D01*
X164263450Y-68913106D01*
X164263447Y-68913105D01*
X164263445Y-68913104D01*
X164050070Y-68855930D01*
X164050062Y-68855929D01*
X163830002Y-68836677D01*
X163829998Y-68836677D01*
X163609937Y-68855929D01*
X163609929Y-68855930D01*
X163396554Y-68913104D01*
X163396548Y-68913107D01*
X163196340Y-69006465D01*
X163196338Y-69006466D01*
X163015377Y-69133175D01*
X162859175Y-69289377D01*
X162732467Y-69470337D01*
X162672105Y-69599782D01*
X162625932Y-69652221D01*
X162558738Y-69671372D01*
X162491857Y-69651156D01*
X162447341Y-69599780D01*
X162387098Y-69470589D01*
X162387097Y-69470587D01*
X162341741Y-69405811D01*
X162341740Y-69405810D01*
X161671000Y-70076551D01*
X161671000Y-70053840D01*
X161645036Y-69956939D01*
X161594876Y-69870060D01*
X161523940Y-69799124D01*
X161437061Y-69748964D01*
X161340160Y-69723000D01*
X161317448Y-69723000D01*
X161988188Y-69052259D01*
X161988187Y-69052258D01*
X161923411Y-69006901D01*
X161923405Y-69006898D01*
X161723284Y-68913580D01*
X161723270Y-68913575D01*
X161509986Y-68856426D01*
X161509976Y-68856424D01*
X161290001Y-68837179D01*
X161289999Y-68837179D01*
X161070023Y-68856424D01*
X161070013Y-68856426D01*
X160856729Y-68913575D01*
X160856720Y-68913579D01*
X160656590Y-69006901D01*
X160591811Y-69052258D01*
X161262553Y-69723000D01*
X161239840Y-69723000D01*
X161142939Y-69748964D01*
X161056060Y-69799124D01*
X160985124Y-69870060D01*
X160934964Y-69956939D01*
X160909000Y-70053840D01*
X160909000Y-70076552D01*
X160238258Y-69405811D01*
X160192901Y-69470590D01*
X160132658Y-69599781D01*
X160086485Y-69652220D01*
X160019292Y-69671372D01*
X159952411Y-69651156D01*
X159907894Y-69599781D01*
X159847651Y-69470590D01*
X159847534Y-69470339D01*
X159751380Y-69333016D01*
X159720827Y-69289381D01*
X159684435Y-69252989D01*
X159564620Y-69133174D01*
X159564616Y-69133171D01*
X159564615Y-69133170D01*
X159383666Y-69006468D01*
X159383662Y-69006466D01*
X159276050Y-68956286D01*
X159183450Y-68913106D01*
X159183447Y-68913105D01*
X159183445Y-68913104D01*
X158970070Y-68855930D01*
X158970062Y-68855929D01*
X158750002Y-68836677D01*
X158749998Y-68836677D01*
X158529937Y-68855929D01*
X158529929Y-68855930D01*
X158316554Y-68913104D01*
X158316548Y-68913107D01*
X158116340Y-69006465D01*
X158116338Y-69006466D01*
X157935377Y-69133175D01*
X157779175Y-69289377D01*
X157652466Y-69470338D01*
X157652465Y-69470340D01*
X157592382Y-69599189D01*
X157546209Y-69651628D01*
X157479016Y-69670780D01*
X157412135Y-69650564D01*
X157367618Y-69599189D01*
X157307651Y-69470590D01*
X157307534Y-69470339D01*
X157211380Y-69333016D01*
X157180827Y-69289381D01*
X157144435Y-69252989D01*
X157024620Y-69133174D01*
X157024616Y-69133171D01*
X157024615Y-69133170D01*
X156843666Y-69006468D01*
X156843662Y-69006466D01*
X156736050Y-68956286D01*
X156643450Y-68913106D01*
X156643447Y-68913105D01*
X156643445Y-68913104D01*
X156430070Y-68855930D01*
X156430062Y-68855929D01*
X156210002Y-68836677D01*
X156209998Y-68836677D01*
X155989937Y-68855929D01*
X155989929Y-68855930D01*
X155776554Y-68913104D01*
X155776548Y-68913107D01*
X155576340Y-69006465D01*
X155576338Y-69006466D01*
X155395377Y-69133175D01*
X155239175Y-69289377D01*
X155112466Y-69470338D01*
X155112465Y-69470340D01*
X155019107Y-69670548D01*
X155019104Y-69670554D01*
X154961930Y-69883929D01*
X154961929Y-69883937D01*
X154942677Y-70103997D01*
X154942677Y-70104002D01*
X154961929Y-70324062D01*
X154961930Y-70324070D01*
X155019104Y-70537445D01*
X155019105Y-70537447D01*
X155019106Y-70537450D01*
X155052106Y-70608218D01*
X155112466Y-70737662D01*
X155112468Y-70737666D01*
X155239170Y-70918615D01*
X155239175Y-70918621D01*
X155395378Y-71074824D01*
X155395384Y-71074829D01*
X155576333Y-71201531D01*
X155576335Y-71201532D01*
X155576338Y-71201534D01*
X155776550Y-71294894D01*
X155989932Y-71352070D01*
X156147123Y-71365822D01*
X156209998Y-71371323D01*
X156210000Y-71371323D01*
X156210002Y-71371323D01*
X156265017Y-71366509D01*
X156430068Y-71352070D01*
X156643450Y-71294894D01*
X156843662Y-71201534D01*
X157024620Y-71074826D01*
X157180826Y-70918620D01*
X157307534Y-70737662D01*
X157367618Y-70608811D01*
X157413790Y-70556371D01*
X157480983Y-70537219D01*
X157547865Y-70557435D01*
X157592382Y-70608811D01*
X157652464Y-70737658D01*
X157652468Y-70737666D01*
X157757664Y-70887901D01*
X157779174Y-70918620D01*
X157935380Y-71074826D01*
X158096623Y-71187729D01*
X158140248Y-71242306D01*
X158149500Y-71289304D01*
X158149500Y-72673271D01*
X158129815Y-72740310D01*
X158077011Y-72786065D01*
X158062055Y-72791760D01*
X157983677Y-72815937D01*
X157983671Y-72815939D01*
X157747303Y-72929767D01*
X157747302Y-72929768D01*
X157530520Y-73077567D01*
X157338198Y-73256014D01*
X157174614Y-73461143D01*
X157043432Y-73688356D01*
X156947582Y-73932578D01*
X156947576Y-73932597D01*
X156889197Y-74188374D01*
X156889196Y-74188379D01*
X156869592Y-74449995D01*
X156869592Y-74450004D01*
X156889196Y-74711620D01*
X156889197Y-74711625D01*
X156889197Y-74711629D01*
X156889198Y-74711630D01*
X156896955Y-74745616D01*
X156947576Y-74967402D01*
X156947578Y-74967411D01*
X156947580Y-74967416D01*
X157043432Y-75211643D01*
X157174614Y-75438857D01*
X157289404Y-75582799D01*
X157338198Y-75643985D01*
X157479730Y-75775306D01*
X157530521Y-75822433D01*
X157747296Y-75970228D01*
X157747301Y-75970230D01*
X157747302Y-75970231D01*
X157747303Y-75970232D01*
X157872843Y-76030688D01*
X157983673Y-76084061D01*
X157983674Y-76084061D01*
X157983677Y-76084063D01*
X158234385Y-76161396D01*
X158493818Y-76200500D01*
X158756182Y-76200500D01*
X159015615Y-76161396D01*
X159266323Y-76084063D01*
X159283909Y-76075593D01*
X159352846Y-76064238D01*
X159416983Y-76091956D01*
X159425395Y-76099630D01*
X167184181Y-83858416D01*
X167217666Y-83919739D01*
X167220500Y-83946097D01*
X167220500Y-85621903D01*
X167200815Y-85688942D01*
X167148011Y-85734697D01*
X167078853Y-85744641D01*
X167015297Y-85715616D01*
X167008819Y-85709584D01*
X151766819Y-70467584D01*
X151733334Y-70406261D01*
X151730500Y-70379903D01*
X151730500Y-70035048D01*
X151750185Y-69968009D01*
X151795481Y-69925993D01*
X151953509Y-69840474D01*
X152149744Y-69687738D01*
X152318164Y-69504785D01*
X152454173Y-69296607D01*
X152554063Y-69068881D01*
X152615108Y-68827821D01*
X152615791Y-68819581D01*
X152635643Y-68580005D01*
X152635643Y-68579994D01*
X152615109Y-68332187D01*
X152615107Y-68332175D01*
X152554063Y-68091118D01*
X152454173Y-67863393D01*
X152318166Y-67655217D01*
X152296557Y-67631744D01*
X152149744Y-67472262D01*
X151953509Y-67319526D01*
X151953507Y-67319525D01*
X151953506Y-67319524D01*
X151734811Y-67201172D01*
X151734802Y-67201169D01*
X151499616Y-67120429D01*
X151254335Y-67079500D01*
X151005665Y-67079500D01*
X150760383Y-67120429D01*
X150525197Y-67201169D01*
X150525188Y-67201172D01*
X150306493Y-67319524D01*
X150110257Y-67472261D01*
X149941833Y-67655217D01*
X149805827Y-67863391D01*
X149787440Y-67905311D01*
X149742483Y-67958796D01*
X149675747Y-67979486D01*
X149673884Y-67979500D01*
X146086116Y-67979500D01*
X146019077Y-67959815D01*
X145973322Y-67907011D01*
X145972560Y-67905311D01*
X145954172Y-67863391D01*
X145818166Y-67655217D01*
X145796557Y-67631744D01*
X145649744Y-67472262D01*
X145453509Y-67319526D01*
X145453507Y-67319525D01*
X145453506Y-67319524D01*
X145234811Y-67201172D01*
X145234802Y-67201169D01*
X144999616Y-67120429D01*
X144754335Y-67079500D01*
X144505665Y-67079500D01*
X144260383Y-67120429D01*
X144025197Y-67201169D01*
X144025188Y-67201172D01*
X143806493Y-67319524D01*
X143610257Y-67472261D01*
X143441833Y-67655217D01*
X143305826Y-67863393D01*
X143205936Y-68091118D01*
X143144892Y-68332175D01*
X143144890Y-68332187D01*
X143124357Y-68579994D01*
X143124357Y-68580005D01*
X142219736Y-68580005D01*
X142219736Y-64080005D01*
X143124859Y-64080005D01*
X143145385Y-64327729D01*
X143145387Y-64327738D01*
X143206412Y-64568717D01*
X143306266Y-64796364D01*
X143406564Y-64949882D01*
X144106212Y-64250234D01*
X144117482Y-64292292D01*
X144189890Y-64417708D01*
X144292292Y-64520110D01*
X144417708Y-64592518D01*
X144459765Y-64603787D01*
X143759942Y-65303609D01*
X143806768Y-65340055D01*
X143806770Y-65340056D01*
X144025385Y-65458364D01*
X144025396Y-65458369D01*
X144260506Y-65539083D01*
X144505707Y-65580000D01*
X144754293Y-65580000D01*
X144999493Y-65539083D01*
X145234603Y-65458369D01*
X145234614Y-65458364D01*
X145453228Y-65340057D01*
X145453231Y-65340055D01*
X145500056Y-65303609D01*
X144800234Y-64603787D01*
X144842292Y-64592518D01*
X144967708Y-64520110D01*
X145070110Y-64417708D01*
X145142518Y-64292292D01*
X145153787Y-64250235D01*
X145853434Y-64949882D01*
X145953731Y-64796369D01*
X146053587Y-64568717D01*
X146114612Y-64327738D01*
X146114614Y-64327729D01*
X146135141Y-64080005D01*
X149624859Y-64080005D01*
X149645385Y-64327729D01*
X149645387Y-64327738D01*
X149706412Y-64568717D01*
X149806266Y-64796364D01*
X149906564Y-64949882D01*
X150606212Y-64250234D01*
X150617482Y-64292292D01*
X150689890Y-64417708D01*
X150792292Y-64520110D01*
X150917708Y-64592518D01*
X150959765Y-64603787D01*
X150259942Y-65303609D01*
X150306768Y-65340055D01*
X150306770Y-65340056D01*
X150525385Y-65458364D01*
X150525396Y-65458369D01*
X150760506Y-65539083D01*
X151005707Y-65580000D01*
X151254293Y-65580000D01*
X151499493Y-65539083D01*
X151734603Y-65458369D01*
X151734614Y-65458364D01*
X151953228Y-65340057D01*
X151953231Y-65340055D01*
X152000056Y-65303609D01*
X151300234Y-64603787D01*
X151342292Y-64592518D01*
X151467708Y-64520110D01*
X151570110Y-64417708D01*
X151642518Y-64292292D01*
X151653787Y-64250235D01*
X152353434Y-64949882D01*
X152453731Y-64796369D01*
X152553587Y-64568717D01*
X152614612Y-64327738D01*
X152614614Y-64327729D01*
X152635141Y-64080005D01*
X152635141Y-64079994D01*
X152614614Y-63832270D01*
X152614612Y-63832261D01*
X152553587Y-63591282D01*
X152453731Y-63363630D01*
X152353434Y-63210116D01*
X151653787Y-63909764D01*
X151642518Y-63867708D01*
X151570110Y-63742292D01*
X151467708Y-63639890D01*
X151342292Y-63567482D01*
X151300235Y-63556212D01*
X152000057Y-62856390D01*
X152000056Y-62856389D01*
X151953229Y-62819943D01*
X151734614Y-62701635D01*
X151734603Y-62701630D01*
X151499493Y-62620916D01*
X151254293Y-62580000D01*
X151005707Y-62580000D01*
X150760506Y-62620916D01*
X150525396Y-62701630D01*
X150525390Y-62701632D01*
X150306761Y-62819949D01*
X150259942Y-62856388D01*
X150259942Y-62856390D01*
X150959765Y-63556212D01*
X150917708Y-63567482D01*
X150792292Y-63639890D01*
X150689890Y-63742292D01*
X150617482Y-63867708D01*
X150606212Y-63909764D01*
X149906564Y-63210116D01*
X149806267Y-63363632D01*
X149706412Y-63591282D01*
X149645387Y-63832261D01*
X149645385Y-63832270D01*
X149624859Y-64079994D01*
X149624859Y-64080005D01*
X146135141Y-64080005D01*
X146135141Y-64079994D01*
X146114614Y-63832270D01*
X146114612Y-63832261D01*
X146053587Y-63591282D01*
X145953731Y-63363630D01*
X145853434Y-63210116D01*
X145153787Y-63909764D01*
X145142518Y-63867708D01*
X145070110Y-63742292D01*
X144967708Y-63639890D01*
X144842292Y-63567482D01*
X144800235Y-63556212D01*
X145500057Y-62856390D01*
X145500056Y-62856389D01*
X145453229Y-62819943D01*
X145234614Y-62701635D01*
X145234603Y-62701630D01*
X144999493Y-62620916D01*
X144754293Y-62580000D01*
X144505707Y-62580000D01*
X144260506Y-62620916D01*
X144025396Y-62701630D01*
X144025390Y-62701632D01*
X143806761Y-62819949D01*
X143759942Y-62856388D01*
X143759942Y-62856390D01*
X144459765Y-63556212D01*
X144417708Y-63567482D01*
X144292292Y-63639890D01*
X144189890Y-63742292D01*
X144117482Y-63867708D01*
X144106212Y-63909764D01*
X143406564Y-63210116D01*
X143306267Y-63363632D01*
X143206412Y-63591282D01*
X143145387Y-63832261D01*
X143145385Y-63832270D01*
X143124859Y-64079994D01*
X143124859Y-64080005D01*
X142219736Y-64080005D01*
X142219736Y-54305004D01*
X144249451Y-54305004D01*
X144269616Y-54574101D01*
X144329664Y-54837188D01*
X144329666Y-54837195D01*
X144426557Y-55084068D01*
X144428257Y-55088398D01*
X144563185Y-55322102D01*
X144663432Y-55447807D01*
X144731442Y-55533089D01*
X144918183Y-55706358D01*
X144929259Y-55716635D01*
X145152226Y-55868651D01*
X145395359Y-55985738D01*
X145653228Y-56065280D01*
X145653229Y-56065280D01*
X145653232Y-56065281D01*
X145920063Y-56105499D01*
X145920068Y-56105499D01*
X145920071Y-56105500D01*
X145920072Y-56105500D01*
X146189928Y-56105500D01*
X146189929Y-56105500D01*
X146189936Y-56105499D01*
X146456767Y-56065281D01*
X146456768Y-56065280D01*
X146456772Y-56065280D01*
X146714641Y-55985738D01*
X146957775Y-55868651D01*
X147180741Y-55716635D01*
X147249463Y-55652870D01*
X149334500Y-55652870D01*
X149334501Y-55652876D01*
X149340908Y-55712483D01*
X149391202Y-55847328D01*
X149391206Y-55847335D01*
X149477452Y-55962544D01*
X149477455Y-55962547D01*
X149592664Y-56048793D01*
X149592671Y-56048797D01*
X149727517Y-56099091D01*
X149727516Y-56099091D01*
X149734444Y-56099835D01*
X149787127Y-56105500D01*
X152482872Y-56105499D01*
X152542483Y-56099091D01*
X152677331Y-56048796D01*
X152792546Y-55962546D01*
X152878796Y-55847331D01*
X152929091Y-55712483D01*
X152935500Y-55652873D01*
X152935499Y-52957128D01*
X152929091Y-52897517D01*
X152927542Y-52893365D01*
X152878797Y-52762671D01*
X152878793Y-52762664D01*
X152792547Y-52647455D01*
X152792544Y-52647452D01*
X152677335Y-52561206D01*
X152677328Y-52561202D01*
X152542482Y-52510908D01*
X152542483Y-52510908D01*
X152482883Y-52504501D01*
X152482881Y-52504500D01*
X152482873Y-52504500D01*
X152482864Y-52504500D01*
X149787129Y-52504500D01*
X149787123Y-52504501D01*
X149727516Y-52510908D01*
X149592671Y-52561202D01*
X149592664Y-52561206D01*
X149477455Y-52647452D01*
X149477452Y-52647455D01*
X149391206Y-52762664D01*
X149391202Y-52762671D01*
X149340908Y-52897517D01*
X149334759Y-52954719D01*
X149334501Y-52957123D01*
X149334500Y-52957135D01*
X149334500Y-55652870D01*
X147249463Y-55652870D01*
X147347195Y-55562188D01*
X147378557Y-55533089D01*
X147378557Y-55533087D01*
X147378561Y-55533085D01*
X147546815Y-55322102D01*
X147681743Y-55088398D01*
X147780334Y-54837195D01*
X147840383Y-54574103D01*
X147855266Y-54375500D01*
X147860549Y-54305004D01*
X147860549Y-54304995D01*
X147840383Y-54035898D01*
X147824749Y-53967400D01*
X147780334Y-53772805D01*
X147681743Y-53521602D01*
X147546815Y-53287898D01*
X147378561Y-53076915D01*
X147378560Y-53076914D01*
X147378557Y-53076910D01*
X147180741Y-52893365D01*
X146957775Y-52741349D01*
X146957769Y-52741346D01*
X146957768Y-52741345D01*
X146957767Y-52741344D01*
X146714643Y-52624263D01*
X146714645Y-52624263D01*
X146456773Y-52544720D01*
X146456767Y-52544718D01*
X146189936Y-52504500D01*
X146189929Y-52504500D01*
X145920071Y-52504500D01*
X145920063Y-52504500D01*
X145653232Y-52544718D01*
X145653226Y-52544720D01*
X145395358Y-52624262D01*
X145152230Y-52741346D01*
X144929258Y-52893365D01*
X144731442Y-53076910D01*
X144563185Y-53287898D01*
X144428258Y-53521599D01*
X144428256Y-53521603D01*
X144329666Y-53772804D01*
X144329664Y-53772811D01*
X144269616Y-54035898D01*
X144249451Y-54304995D01*
X144249451Y-54305004D01*
X142219736Y-54305004D01*
X142219736Y-49534875D01*
X142220118Y-49525146D01*
X142220966Y-49514366D01*
X142234698Y-49339883D01*
X142237742Y-49320669D01*
X142279983Y-49144723D01*
X142285992Y-49126228D01*
X142355244Y-48959043D01*
X142364072Y-48941718D01*
X142458622Y-48787428D01*
X142470044Y-48771707D01*
X142587577Y-48634096D01*
X142601319Y-48620355D01*
X142738922Y-48502834D01*
X142754645Y-48491410D01*
X142908953Y-48396853D01*
X142926264Y-48388033D01*
X143053973Y-48335136D01*
X143093450Y-48318786D01*
X143111949Y-48312775D01*
X143287903Y-48270535D01*
X143307100Y-48267495D01*
X143492831Y-48252881D01*
X143502552Y-48252500D01*
X143563118Y-48252502D01*
X143563121Y-48252500D01*
X143571534Y-48252501D01*
X143571769Y-48252485D01*
X209557903Y-48239736D01*
X209567621Y-48240117D01*
G37*
%TD.AperFunction*%
%TD*%
M02*
