%TF.GenerationSoftware,KiCad,Pcbnew,8.0.1*%
%TF.CreationDate,2024-06-08T08:25:45+08:00*%
%TF.ProjectId,uno_car,756e6f5f-6361-4722-9e6b-696361645f70,v1.0.2*%
%TF.SameCoordinates,Original*%
%TF.FileFunction,Drillmap*%
%TF.FilePolarity,Positive*%
%FSLAX45Y45*%
G04 Gerber Fmt 4.5, Leading zero omitted, Abs format (unit mm)*
G04 Created by KiCad (PCBNEW 8.0.1) date 2024-06-08 08:25:45*
%MOMM*%
%LPD*%
G01*
G04 APERTURE LIST*
%ADD10C,0.050000*%
%ADD11C,0.200000*%
G04 APERTURE END LIST*
D10*
X14349724Y-10213353D02*
X20956276Y-10212076D01*
X21134076Y-10034276D02*
X21134076Y-4951724D01*
X20956276Y-4773924D02*
G75*
G02*
X21134076Y-4951724I4J-177796D01*
G01*
X14349724Y-10213353D02*
G75*
G02*
X14171917Y-10035553I-4J177803D01*
G01*
X14349724Y-4775200D02*
X20956276Y-4773924D01*
X14171924Y-4953000D02*
X14171924Y-10035553D01*
X14171924Y-4953000D02*
G75*
G02*
X14349724Y-4775204I177796J0D01*
G01*
X21134076Y-10034276D02*
G75*
G02*
X20956276Y-10212076I-177796J-4D01*
G01*
D11*
X14430200Y-10527337D02*
X14430200Y-10327337D01*
X14430200Y-10327337D02*
X14477819Y-10327337D01*
X14477819Y-10327337D02*
X14506391Y-10336860D01*
X14506391Y-10336860D02*
X14525438Y-10355908D01*
X14525438Y-10355908D02*
X14534962Y-10374956D01*
X14534962Y-10374956D02*
X14544486Y-10413051D01*
X14544486Y-10413051D02*
X14544486Y-10441622D01*
X14544486Y-10441622D02*
X14534962Y-10479718D01*
X14534962Y-10479718D02*
X14525438Y-10498765D01*
X14525438Y-10498765D02*
X14506391Y-10517813D01*
X14506391Y-10517813D02*
X14477819Y-10527337D01*
X14477819Y-10527337D02*
X14430200Y-10527337D01*
X14630200Y-10527337D02*
X14630200Y-10394003D01*
X14630200Y-10432099D02*
X14639724Y-10413051D01*
X14639724Y-10413051D02*
X14649248Y-10403527D01*
X14649248Y-10403527D02*
X14668296Y-10394003D01*
X14668296Y-10394003D02*
X14687343Y-10394003D01*
X14754010Y-10527337D02*
X14754010Y-10394003D01*
X14754010Y-10327337D02*
X14744486Y-10336860D01*
X14744486Y-10336860D02*
X14754010Y-10346384D01*
X14754010Y-10346384D02*
X14763534Y-10336860D01*
X14763534Y-10336860D02*
X14754010Y-10327337D01*
X14754010Y-10327337D02*
X14754010Y-10346384D01*
X14877819Y-10527337D02*
X14858772Y-10517813D01*
X14858772Y-10517813D02*
X14849248Y-10498765D01*
X14849248Y-10498765D02*
X14849248Y-10327337D01*
X14982581Y-10527337D02*
X14963534Y-10517813D01*
X14963534Y-10517813D02*
X14954010Y-10498765D01*
X14954010Y-10498765D02*
X14954010Y-10327337D01*
X15211153Y-10527337D02*
X15211153Y-10327337D01*
X15211153Y-10327337D02*
X15277819Y-10470194D01*
X15277819Y-10470194D02*
X15344486Y-10327337D01*
X15344486Y-10327337D02*
X15344486Y-10527337D01*
X15525438Y-10527337D02*
X15525438Y-10422575D01*
X15525438Y-10422575D02*
X15515915Y-10403527D01*
X15515915Y-10403527D02*
X15496867Y-10394003D01*
X15496867Y-10394003D02*
X15458772Y-10394003D01*
X15458772Y-10394003D02*
X15439724Y-10403527D01*
X15525438Y-10517813D02*
X15506391Y-10527337D01*
X15506391Y-10527337D02*
X15458772Y-10527337D01*
X15458772Y-10527337D02*
X15439724Y-10517813D01*
X15439724Y-10517813D02*
X15430200Y-10498765D01*
X15430200Y-10498765D02*
X15430200Y-10479718D01*
X15430200Y-10479718D02*
X15439724Y-10460670D01*
X15439724Y-10460670D02*
X15458772Y-10451146D01*
X15458772Y-10451146D02*
X15506391Y-10451146D01*
X15506391Y-10451146D02*
X15525438Y-10441622D01*
X15620677Y-10394003D02*
X15620677Y-10594003D01*
X15620677Y-10403527D02*
X15639724Y-10394003D01*
X15639724Y-10394003D02*
X15677819Y-10394003D01*
X15677819Y-10394003D02*
X15696867Y-10403527D01*
X15696867Y-10403527D02*
X15706391Y-10413051D01*
X15706391Y-10413051D02*
X15715915Y-10432099D01*
X15715915Y-10432099D02*
X15715915Y-10489241D01*
X15715915Y-10489241D02*
X15706391Y-10508289D01*
X15706391Y-10508289D02*
X15696867Y-10517813D01*
X15696867Y-10517813D02*
X15677819Y-10527337D01*
X15677819Y-10527337D02*
X15639724Y-10527337D01*
X15639724Y-10527337D02*
X15620677Y-10517813D01*
X15801629Y-10508289D02*
X15811153Y-10517813D01*
X15811153Y-10517813D02*
X15801629Y-10527337D01*
X15801629Y-10527337D02*
X15792105Y-10517813D01*
X15792105Y-10517813D02*
X15801629Y-10508289D01*
X15801629Y-10508289D02*
X15801629Y-10527337D01*
X15801629Y-10403527D02*
X15811153Y-10413051D01*
X15811153Y-10413051D02*
X15801629Y-10422575D01*
X15801629Y-10422575D02*
X15792105Y-10413051D01*
X15792105Y-10413051D02*
X15801629Y-10403527D01*
X15801629Y-10403527D02*
X15801629Y-10422575D01*
M02*
