%TF.GenerationSoftware,KiCad,Pcbnew,8.0.1*%
%TF.CreationDate,2024-06-08T08:25:42+08:00*%
%TF.ProjectId,uno_car,756e6f5f-6361-4722-9e6b-696361645f70,v1.0.2*%
%TF.SameCoordinates,Original*%
%TF.FileFunction,Soldermask,Top*%
%TF.FilePolarity,Negative*%
%FSLAX46Y46*%
G04 Gerber Fmt 4.6, Leading zero omitted, Abs format (unit mm)*
G04 Created by KiCad (PCBNEW 8.0.1) date 2024-06-08 08:25:42*
%MOMM*%
%LPD*%
G01*
G04 APERTURE LIST*
G04 Aperture macros list*
%AMRoundRect*
0 Rectangle with rounded corners*
0 $1 Rounding radius*
0 $2 $3 $4 $5 $6 $7 $8 $9 X,Y pos of 4 corners*
0 Add a 4 corners polygon primitive as box body*
4,1,4,$2,$3,$4,$5,$6,$7,$8,$9,$2,$3,0*
0 Add four circle primitives for the rounded corners*
1,1,$1+$1,$2,$3*
1,1,$1+$1,$4,$5*
1,1,$1+$1,$6,$7*
1,1,$1+$1,$8,$9*
0 Add four rect primitives between the rounded corners*
20,1,$1+$1,$2,$3,$4,$5,0*
20,1,$1+$1,$4,$5,$6,$7,0*
20,1,$1+$1,$6,$7,$8,$9,0*
20,1,$1+$1,$8,$9,$2,$3,0*%
G04 Aperture macros list end*
%ADD10RoundRect,0.218750X-0.218750X-0.256250X0.218750X-0.256250X0.218750X0.256250X-0.218750X0.256250X0*%
%ADD11RoundRect,0.250000X0.725000X-0.600000X0.725000X0.600000X-0.725000X0.600000X-0.725000X-0.600000X0*%
%ADD12O,1.950000X1.700000*%
%ADD13RoundRect,0.200000X0.275000X-0.200000X0.275000X0.200000X-0.275000X0.200000X-0.275000X-0.200000X0*%
%ADD14R,2.600000X2.600000*%
%ADD15C,2.600000*%
%ADD16R,1.700000X1.700000*%
%ADD17O,1.700000X1.700000*%
%ADD18RoundRect,0.200000X0.200000X0.275000X-0.200000X0.275000X-0.200000X-0.275000X0.200000X-0.275000X0*%
%ADD19RoundRect,0.250000X0.750000X-0.600000X0.750000X0.600000X-0.750000X0.600000X-0.750000X-0.600000X0*%
%ADD20O,2.000000X1.700000*%
%ADD21RoundRect,0.218750X0.218750X0.256250X-0.218750X0.256250X-0.218750X-0.256250X0.218750X-0.256250X0*%
%ADD22C,3.000000*%
%ADD23C,2.500000*%
%ADD24RoundRect,0.150000X0.825000X0.150000X-0.825000X0.150000X-0.825000X-0.150000X0.825000X-0.150000X0*%
%ADD25R,1.750000X0.450000*%
%ADD26RoundRect,0.225000X-0.250000X0.225000X-0.250000X-0.225000X0.250000X-0.225000X0.250000X0.225000X0*%
%ADD27C,2.000000*%
%ADD28RoundRect,0.200000X-0.200000X-0.275000X0.200000X-0.275000X0.200000X0.275000X-0.200000X0.275000X0*%
%ADD29C,1.524000*%
%ADD30RoundRect,0.250000X-0.600000X-0.725000X0.600000X-0.725000X0.600000X0.725000X-0.600000X0.725000X0*%
%ADD31O,1.700000X1.950000*%
%ADD32R,1.600000X1.600000*%
%ADD33O,1.600000X1.600000*%
G04 APERTURE END LIST*
D10*
%TO.C,D4*%
X207212500Y-80600000D03*
X208787500Y-80600000D03*
%TD*%
D11*
%TO.C,J9*%
X189050000Y-76350000D03*
D12*
X189050000Y-73850000D03*
X189050000Y-71350000D03*
X189050000Y-68850000D03*
%TD*%
D13*
%TO.C,R1*%
X182950000Y-96125000D03*
X182950000Y-94475000D03*
%TD*%
D10*
%TO.C,D2*%
X198237500Y-65150000D03*
X199812500Y-65150000D03*
%TD*%
%TO.C,D12*%
X198275000Y-59750000D03*
X199850000Y-59750000D03*
%TD*%
D11*
%TO.C,J8*%
X180900000Y-90050000D03*
D12*
X180900000Y-87550000D03*
X180900000Y-85050000D03*
X180900000Y-82550000D03*
%TD*%
D10*
%TO.C,D3*%
X207212500Y-84221400D03*
X208787500Y-84221400D03*
%TD*%
D14*
%TO.C,J5*%
X148183000Y-77022000D03*
D15*
X148183000Y-82102000D03*
%TD*%
D10*
%TO.C,D8*%
X207309900Y-66114300D03*
X208884900Y-66114300D03*
%TD*%
%TO.C,D10*%
X207309900Y-87842900D03*
X208884900Y-87842900D03*
%TD*%
D11*
%TO.C,J10*%
X189050000Y-90050000D03*
D12*
X189050000Y-87550000D03*
X189050000Y-85050000D03*
X189050000Y-82550000D03*
%TD*%
D16*
%TO.C,JP1*%
X169037000Y-90424000D03*
D17*
X171577000Y-90424000D03*
X174117000Y-90424000D03*
%TD*%
D18*
%TO.C,R14*%
X204541400Y-87842900D03*
X202891400Y-87842900D03*
%TD*%
D14*
%TO.C,J3*%
X151135000Y-54305000D03*
D15*
X146055000Y-54305000D03*
%TD*%
D19*
%TO.C,J6*%
X190050000Y-62350000D03*
D20*
X190050000Y-59850000D03*
%TD*%
D18*
%TO.C,R2*%
X181400000Y-96100000D03*
X179750000Y-96100000D03*
%TD*%
D21*
%TO.C,D1*%
X181387500Y-94500000D03*
X179812500Y-94500000D03*
%TD*%
D10*
%TO.C,D6*%
X207309900Y-73357100D03*
X208884900Y-73357100D03*
%TD*%
%TO.C,D7*%
X207309900Y-69735700D03*
X208884900Y-69735700D03*
%TD*%
D18*
%TO.C,R8*%
X204444000Y-80600000D03*
X202794000Y-80600000D03*
%TD*%
%TO.C,R7*%
X204444000Y-84221400D03*
X202794000Y-84221400D03*
%TD*%
D22*
%TO.C,K1*%
X156675000Y-80400000D03*
D23*
X158625000Y-86450000D03*
D22*
X170825000Y-86450000D03*
X170875000Y-74400000D03*
D23*
X158625000Y-74450000D03*
%TD*%
D24*
%TO.C,U2*%
X199866400Y-79527900D03*
X199866400Y-78257900D03*
X199866400Y-76987900D03*
X199866400Y-75717900D03*
X199866400Y-74447900D03*
X199866400Y-73177900D03*
X199866400Y-71907900D03*
X199866400Y-70637900D03*
X194916400Y-70637900D03*
X194916400Y-71907900D03*
X194916400Y-73177900D03*
X194916400Y-74447900D03*
X194916400Y-75717900D03*
X194916400Y-76987900D03*
X194916400Y-78257900D03*
X194916400Y-79527900D03*
%TD*%
D10*
%TO.C,D9*%
X207309900Y-62492900D03*
X208884900Y-62492900D03*
%TD*%
D18*
%TO.C,R9*%
X204444000Y-76978600D03*
X202794000Y-76978600D03*
%TD*%
D11*
%TO.C,J7*%
X180950000Y-76350000D03*
D12*
X180950000Y-73850000D03*
X180950000Y-71350000D03*
X180950000Y-68850000D03*
%TD*%
D25*
%TO.C,U4*%
X186450000Y-64725000D03*
X186450000Y-64075000D03*
X186450000Y-63425000D03*
X186450000Y-62775000D03*
X186450000Y-62125000D03*
X186450000Y-61475000D03*
X186450000Y-60825000D03*
X186450000Y-60175000D03*
X186450000Y-59525000D03*
X186450000Y-58875000D03*
X186450000Y-58225000D03*
X186450000Y-57575000D03*
X179250000Y-57575000D03*
X179250000Y-58225000D03*
X179250000Y-58875000D03*
X179250000Y-59525000D03*
X179250000Y-60175000D03*
X179250000Y-60825000D03*
X179250000Y-61475000D03*
X179250000Y-62125000D03*
X179250000Y-62775000D03*
X179250000Y-63425000D03*
X179250000Y-64075000D03*
X179250000Y-64725000D03*
%TD*%
D10*
%TO.C,D5*%
X207212500Y-76978600D03*
X208787500Y-76978600D03*
%TD*%
D26*
%TO.C,C1*%
X177300000Y-63175000D03*
X177300000Y-64725000D03*
%TD*%
D27*
%TO.C,SW1*%
X151130000Y-68580000D03*
X144630000Y-68580000D03*
X151130000Y-64080000D03*
X144630000Y-64080000D03*
%TD*%
D18*
%TO.C,R13*%
X204541400Y-62492900D03*
X202891400Y-62492900D03*
%TD*%
D14*
%TO.C,J2*%
X158745000Y-95250000D03*
D15*
X163825000Y-95250000D03*
%TD*%
D14*
%TO.C,J4*%
X146045000Y-95250000D03*
D15*
X151125000Y-95250000D03*
%TD*%
D28*
%TO.C,R5*%
X195100000Y-62450000D03*
X196750000Y-62450000D03*
%TD*%
%TO.C,R23*%
X178825000Y-55850000D03*
X180475000Y-55850000D03*
%TD*%
%TO.C,R6*%
X195100000Y-59800000D03*
X196750000Y-59800000D03*
%TD*%
D18*
%TO.C,R11*%
X204541400Y-69735700D03*
X202891400Y-69735700D03*
%TD*%
%TO.C,R12*%
X204541400Y-66114300D03*
X202891400Y-66114300D03*
%TD*%
D29*
%TO.C,U1*%
X156210000Y-70104000D03*
X158750000Y-70104000D03*
X161290000Y-70104000D03*
X163830000Y-70104000D03*
X166370000Y-70104000D03*
X168910000Y-70104000D03*
X171450000Y-70104000D03*
X173990000Y-70104000D03*
X156210000Y-54864000D03*
X158750000Y-54864000D03*
X161290000Y-54864000D03*
X163830000Y-54864000D03*
X166370000Y-54864000D03*
X168910000Y-54864000D03*
X171450000Y-54864000D03*
X173990000Y-54864000D03*
%TD*%
D10*
%TO.C,D11*%
X198265500Y-62450000D03*
X199840500Y-62450000D03*
%TD*%
D28*
%TO.C,R3*%
X195100000Y-65150000D03*
X196750000Y-65150000D03*
%TD*%
D18*
%TO.C,R10*%
X204541400Y-73357100D03*
X202891400Y-73357100D03*
%TD*%
D30*
%TO.C,J1*%
X170220000Y-94869000D03*
D31*
X172720000Y-94869000D03*
X175220000Y-94869000D03*
%TD*%
D32*
%TO.C,A1*%
X170180000Y-99060000D03*
D33*
X172720000Y-99060000D03*
X175260000Y-99060000D03*
X177800000Y-99060000D03*
X180340000Y-99060000D03*
X182880000Y-99060000D03*
X185420000Y-99060000D03*
X187960000Y-99060000D03*
X193040000Y-99060000D03*
X195580000Y-99060000D03*
X198120000Y-99060000D03*
X200660000Y-99060000D03*
X203200000Y-99060000D03*
X205740000Y-99060000D03*
X205740000Y-50800000D03*
X203200000Y-50800000D03*
X200660000Y-50800000D03*
X198120000Y-50800000D03*
X195580000Y-50800000D03*
X193040000Y-50800000D03*
X190500000Y-50800000D03*
X187960000Y-50800000D03*
X183900000Y-50800000D03*
X181360000Y-50800000D03*
X178820000Y-50800000D03*
X176280000Y-50800000D03*
X173740000Y-50800000D03*
X171200000Y-50800000D03*
X168660000Y-50800000D03*
X166120000Y-50800000D03*
%TD*%
M02*
