M48
; DRILL file {KiCad 8.0.3} date 2024-06-17T22:45:59+0800
; FORMAT={-:-/ absolute / inch / decimal}
; #@! TF.CreationDate,2024-06-17T22:45:59+08:00
; #@! TF.GenerationSoftware,Kicad,Pcbnew,8.0.3
; #@! TF.FileFunction,Plated,1,2,PTH
FMAT,2
INCH
; #@! TA.AperFunction,Plated,PTH,ViaDrill
T1C0.0118
; #@! TA.AperFunction,Plated,PTH,ComponentDrill
T2C0.0300
; #@! TA.AperFunction,Plated,PTH,ComponentDrill
T3C0.0374
; #@! TA.AperFunction,Plated,PTH,ComponentDrill
T4C0.0394
; #@! TA.AperFunction,Plated,PTH,ComponentDrill
T5C0.0433
; #@! TA.AperFunction,Plated,PTH,ComponentDrill
T6C0.0512
%
G90
G05
T1
X6.6Y-3.0
X6.8514Y-2.9508
X7.0026Y-2.4443
X7.0412Y-2.2376
X7.1117Y-2.3947
X7.1187Y-2.5381
X7.1246Y-2.4715
X7.1276Y-2.5079
X7.1352Y-2.3691
X7.1573Y-2.4459
X7.1693Y-2.3607
X7.3959Y-2.267
X7.6555Y-3.8055
X7.7106Y-3.7606
X7.761Y-3.7106
T2
X6.15Y-2.16
X6.15Y-2.76
X6.25Y-2.16
X6.25Y-2.76
X6.35Y-2.16
X6.35Y-2.76
X6.45Y-2.16
X6.45Y-2.76
X6.55Y-2.16
X6.55Y-2.76
X6.65Y-2.16
X6.65Y-2.76
X6.75Y-2.16
X6.75Y-2.76
X6.85Y-2.16
X6.85Y-2.76
T3
X6.7016Y-3.735
X6.8Y-3.735
X6.8984Y-3.735
X7.122Y-3.25
X7.122Y-3.3484
X7.122Y-3.4469
X7.122Y-3.5453
X7.124Y-2.7106
X7.124Y-2.8091
X7.124Y-2.9075
X7.124Y-3.0059
X7.4429Y-2.7106
X7.4429Y-2.8091
X7.4429Y-2.9075
X7.4429Y-3.0059
X7.4429Y-3.25
X7.4429Y-3.3484
X7.4429Y-3.4469
X7.4429Y-3.5453
T4
X6.2451Y-2.9311
X6.2451Y-3.4035
X6.5402Y-2.0
X6.6402Y-2.0
X6.655Y-3.56
X6.7Y-3.9
X6.7402Y-2.0
X6.755Y-3.56
X6.8Y-3.9
X6.8402Y-2.0
X6.855Y-3.56
X6.9Y-3.9
X6.9402Y-2.0
X7.0Y-3.9
X7.0402Y-2.0
X7.1Y-3.9
X7.1402Y-2.0
X7.2Y-3.9
X7.2402Y-2.0
X7.3Y-3.9
X7.4Y-2.0
X7.4Y-3.9
X7.4823Y-2.3563
X7.4823Y-2.4547
X7.5Y-2.0
X7.6Y-2.0
X7.6Y-3.9
X7.7Y-2.0
X7.7Y-3.9
X7.8Y-2.0
X7.8Y-3.9
X7.9Y-2.0
X7.9Y-3.9
X8.0Y-2.0
X8.0Y-3.9
X8.1Y-2.0
X8.1Y-3.9
T5
X5.6941Y-2.5228
X5.6941Y-2.7
X5.95Y-2.5228
X5.95Y-2.7
T6
X5.7498Y-3.75
X5.7502Y-2.138
X5.834Y-3.0324
X5.834Y-3.2324
X5.9498Y-3.75
X5.9502Y-2.138
X6.1683Y-3.1654
X6.2498Y-3.75
X6.4498Y-3.75
X6.7254Y-3.4035
X6.7274Y-2.9291
M30
