%TF.GenerationSoftware,KiCad,Pcbnew,8.0.3*%
%TF.CreationDate,2024-06-17T22:46:01+08:00*%
%TF.ProjectId,uno_car,756e6f5f-6361-4722-9e6b-696361645f70,v1.0.2*%
%TF.SameCoordinates,Original*%
%TF.FileFunction,Legend,Top*%
%TF.FilePolarity,Positive*%
%FSLAX46Y46*%
G04 Gerber Fmt 4.6, Leading zero omitted, Abs format (unit mm)*
G04 Created by KiCad (PCBNEW 8.0.3) date 2024-06-17 22:46:01*
%MOMM*%
%LPD*%
G01*
G04 APERTURE LIST*
%ADD10C,0.100000*%
%ADD11C,0.150000*%
%ADD12C,0.120000*%
G04 APERTURE END LIST*
D10*
X184772419Y-73240475D02*
X183772419Y-73240475D01*
X183772419Y-73240475D02*
X183772419Y-72859523D01*
X183772419Y-72859523D02*
X183820038Y-72764285D01*
X183820038Y-72764285D02*
X183867657Y-72716666D01*
X183867657Y-72716666D02*
X183962895Y-72669047D01*
X183962895Y-72669047D02*
X184105752Y-72669047D01*
X184105752Y-72669047D02*
X184200990Y-72716666D01*
X184200990Y-72716666D02*
X184248609Y-72764285D01*
X184248609Y-72764285D02*
X184296228Y-72859523D01*
X184296228Y-72859523D02*
X184296228Y-73240475D01*
X184486704Y-72288094D02*
X184486704Y-71811904D01*
X184772419Y-72383332D02*
X183772419Y-72049999D01*
X183772419Y-72049999D02*
X184772419Y-71716666D01*
X192872419Y-73411904D02*
X191872419Y-73411904D01*
X191872419Y-73411904D02*
X191872419Y-73030952D01*
X191872419Y-73030952D02*
X191920038Y-72935714D01*
X191920038Y-72935714D02*
X191967657Y-72888095D01*
X191967657Y-72888095D02*
X192062895Y-72840476D01*
X192062895Y-72840476D02*
X192205752Y-72840476D01*
X192205752Y-72840476D02*
X192300990Y-72888095D01*
X192300990Y-72888095D02*
X192348609Y-72935714D01*
X192348609Y-72935714D02*
X192396228Y-73030952D01*
X192396228Y-73030952D02*
X192396228Y-73411904D01*
X192777180Y-71840476D02*
X192824800Y-71888095D01*
X192824800Y-71888095D02*
X192872419Y-72030952D01*
X192872419Y-72030952D02*
X192872419Y-72126190D01*
X192872419Y-72126190D02*
X192824800Y-72269047D01*
X192824800Y-72269047D02*
X192729561Y-72364285D01*
X192729561Y-72364285D02*
X192634323Y-72411904D01*
X192634323Y-72411904D02*
X192443847Y-72459523D01*
X192443847Y-72459523D02*
X192300990Y-72459523D01*
X192300990Y-72459523D02*
X192110514Y-72411904D01*
X192110514Y-72411904D02*
X192015276Y-72364285D01*
X192015276Y-72364285D02*
X191920038Y-72269047D01*
X191920038Y-72269047D02*
X191872419Y-72126190D01*
X191872419Y-72126190D02*
X191872419Y-72030952D01*
X191872419Y-72030952D02*
X191920038Y-71888095D01*
X191920038Y-71888095D02*
X191967657Y-71840476D01*
X146497618Y-71322419D02*
X146164285Y-70846228D01*
X145926190Y-71322419D02*
X145926190Y-70322419D01*
X145926190Y-70322419D02*
X146307142Y-70322419D01*
X146307142Y-70322419D02*
X146402380Y-70370038D01*
X146402380Y-70370038D02*
X146449999Y-70417657D01*
X146449999Y-70417657D02*
X146497618Y-70512895D01*
X146497618Y-70512895D02*
X146497618Y-70655752D01*
X146497618Y-70655752D02*
X146449999Y-70750990D01*
X146449999Y-70750990D02*
X146402380Y-70798609D01*
X146402380Y-70798609D02*
X146307142Y-70846228D01*
X146307142Y-70846228D02*
X145926190Y-70846228D01*
X146926190Y-70798609D02*
X147259523Y-70798609D01*
X147402380Y-71322419D02*
X146926190Y-71322419D01*
X146926190Y-71322419D02*
X146926190Y-70322419D01*
X146926190Y-70322419D02*
X147402380Y-70322419D01*
X147783333Y-71274800D02*
X147926190Y-71322419D01*
X147926190Y-71322419D02*
X148164285Y-71322419D01*
X148164285Y-71322419D02*
X148259523Y-71274800D01*
X148259523Y-71274800D02*
X148307142Y-71227180D01*
X148307142Y-71227180D02*
X148354761Y-71131942D01*
X148354761Y-71131942D02*
X148354761Y-71036704D01*
X148354761Y-71036704D02*
X148307142Y-70941466D01*
X148307142Y-70941466D02*
X148259523Y-70893847D01*
X148259523Y-70893847D02*
X148164285Y-70846228D01*
X148164285Y-70846228D02*
X147973809Y-70798609D01*
X147973809Y-70798609D02*
X147878571Y-70750990D01*
X147878571Y-70750990D02*
X147830952Y-70703371D01*
X147830952Y-70703371D02*
X147783333Y-70608133D01*
X147783333Y-70608133D02*
X147783333Y-70512895D01*
X147783333Y-70512895D02*
X147830952Y-70417657D01*
X147830952Y-70417657D02*
X147878571Y-70370038D01*
X147878571Y-70370038D02*
X147973809Y-70322419D01*
X147973809Y-70322419D02*
X148211904Y-70322419D01*
X148211904Y-70322419D02*
X148354761Y-70370038D01*
X148783333Y-70798609D02*
X149116666Y-70798609D01*
X149259523Y-71322419D02*
X148783333Y-71322419D01*
X148783333Y-71322419D02*
X148783333Y-70322419D01*
X148783333Y-70322419D02*
X149259523Y-70322419D01*
X149545238Y-70322419D02*
X150116666Y-70322419D01*
X149830952Y-71322419D02*
X149830952Y-70322419D01*
X193572419Y-87211904D02*
X192572419Y-87211904D01*
X192572419Y-87211904D02*
X192572419Y-86830952D01*
X192572419Y-86830952D02*
X192620038Y-86735714D01*
X192620038Y-86735714D02*
X192667657Y-86688095D01*
X192667657Y-86688095D02*
X192762895Y-86640476D01*
X192762895Y-86640476D02*
X192905752Y-86640476D01*
X192905752Y-86640476D02*
X193000990Y-86688095D01*
X193000990Y-86688095D02*
X193048609Y-86735714D01*
X193048609Y-86735714D02*
X193096228Y-86830952D01*
X193096228Y-86830952D02*
X193096228Y-87211904D01*
X193572419Y-86211904D02*
X192572419Y-86211904D01*
X192572419Y-86211904D02*
X192572419Y-85973809D01*
X192572419Y-85973809D02*
X192620038Y-85830952D01*
X192620038Y-85830952D02*
X192715276Y-85735714D01*
X192715276Y-85735714D02*
X192810514Y-85688095D01*
X192810514Y-85688095D02*
X193000990Y-85640476D01*
X193000990Y-85640476D02*
X193143847Y-85640476D01*
X193143847Y-85640476D02*
X193334323Y-85688095D01*
X193334323Y-85688095D02*
X193429561Y-85735714D01*
X193429561Y-85735714D02*
X193524800Y-85830952D01*
X193524800Y-85830952D02*
X193572419Y-85973809D01*
X193572419Y-85973809D02*
X193572419Y-86211904D01*
X159035714Y-101374800D02*
X159178571Y-101422419D01*
X159178571Y-101422419D02*
X159416666Y-101422419D01*
X159416666Y-101422419D02*
X159511904Y-101374800D01*
X159511904Y-101374800D02*
X159559523Y-101327180D01*
X159559523Y-101327180D02*
X159607142Y-101231942D01*
X159607142Y-101231942D02*
X159607142Y-101136704D01*
X159607142Y-101136704D02*
X159559523Y-101041466D01*
X159559523Y-101041466D02*
X159511904Y-100993847D01*
X159511904Y-100993847D02*
X159416666Y-100946228D01*
X159416666Y-100946228D02*
X159226190Y-100898609D01*
X159226190Y-100898609D02*
X159130952Y-100850990D01*
X159130952Y-100850990D02*
X159083333Y-100803371D01*
X159083333Y-100803371D02*
X159035714Y-100708133D01*
X159035714Y-100708133D02*
X159035714Y-100612895D01*
X159035714Y-100612895D02*
X159083333Y-100517657D01*
X159083333Y-100517657D02*
X159130952Y-100470038D01*
X159130952Y-100470038D02*
X159226190Y-100422419D01*
X159226190Y-100422419D02*
X159464285Y-100422419D01*
X159464285Y-100422419D02*
X159607142Y-100470038D01*
X159940476Y-100755752D02*
X160130952Y-101422419D01*
X160130952Y-101422419D02*
X160321428Y-100946228D01*
X160321428Y-100946228D02*
X160511904Y-101422419D01*
X160511904Y-101422419D02*
X160702380Y-100755752D01*
X161083333Y-101422419D02*
X161083333Y-100755752D01*
X161083333Y-100422419D02*
X161035714Y-100470038D01*
X161035714Y-100470038D02*
X161083333Y-100517657D01*
X161083333Y-100517657D02*
X161130952Y-100470038D01*
X161130952Y-100470038D02*
X161083333Y-100422419D01*
X161083333Y-100422419D02*
X161083333Y-100517657D01*
X161416666Y-100755752D02*
X161797618Y-100755752D01*
X161559523Y-100422419D02*
X161559523Y-101279561D01*
X161559523Y-101279561D02*
X161607142Y-101374800D01*
X161607142Y-101374800D02*
X161702380Y-101422419D01*
X161702380Y-101422419D02*
X161797618Y-101422419D01*
X162559523Y-101374800D02*
X162464285Y-101422419D01*
X162464285Y-101422419D02*
X162273809Y-101422419D01*
X162273809Y-101422419D02*
X162178571Y-101374800D01*
X162178571Y-101374800D02*
X162130952Y-101327180D01*
X162130952Y-101327180D02*
X162083333Y-101231942D01*
X162083333Y-101231942D02*
X162083333Y-100946228D01*
X162083333Y-100946228D02*
X162130952Y-100850990D01*
X162130952Y-100850990D02*
X162178571Y-100803371D01*
X162178571Y-100803371D02*
X162273809Y-100755752D01*
X162273809Y-100755752D02*
X162464285Y-100755752D01*
X162464285Y-100755752D02*
X162559523Y-100803371D01*
X162988095Y-101422419D02*
X162988095Y-100422419D01*
X163416666Y-101422419D02*
X163416666Y-100898609D01*
X163416666Y-100898609D02*
X163369047Y-100803371D01*
X163369047Y-100803371D02*
X163273809Y-100755752D01*
X163273809Y-100755752D02*
X163130952Y-100755752D01*
X163130952Y-100755752D02*
X163035714Y-100803371D01*
X163035714Y-100803371D02*
X162988095Y-100850990D01*
X146420951Y-100823533D02*
X145659047Y-100823533D01*
X142583533Y-81759048D02*
X142583533Y-82520953D01*
X167414286Y-98724800D02*
X167557143Y-98772419D01*
X167557143Y-98772419D02*
X167795238Y-98772419D01*
X167795238Y-98772419D02*
X167890476Y-98724800D01*
X167890476Y-98724800D02*
X167938095Y-98677180D01*
X167938095Y-98677180D02*
X167985714Y-98581942D01*
X167985714Y-98581942D02*
X167985714Y-98486704D01*
X167985714Y-98486704D02*
X167938095Y-98391466D01*
X167938095Y-98391466D02*
X167890476Y-98343847D01*
X167890476Y-98343847D02*
X167795238Y-98296228D01*
X167795238Y-98296228D02*
X167604762Y-98248609D01*
X167604762Y-98248609D02*
X167509524Y-98200990D01*
X167509524Y-98200990D02*
X167461905Y-98153371D01*
X167461905Y-98153371D02*
X167414286Y-98058133D01*
X167414286Y-98058133D02*
X167414286Y-97962895D01*
X167414286Y-97962895D02*
X167461905Y-97867657D01*
X167461905Y-97867657D02*
X167509524Y-97820038D01*
X167509524Y-97820038D02*
X167604762Y-97772419D01*
X167604762Y-97772419D02*
X167842857Y-97772419D01*
X167842857Y-97772419D02*
X167985714Y-97820038D01*
X168985714Y-98677180D02*
X168938095Y-98724800D01*
X168938095Y-98724800D02*
X168795238Y-98772419D01*
X168795238Y-98772419D02*
X168700000Y-98772419D01*
X168700000Y-98772419D02*
X168557143Y-98724800D01*
X168557143Y-98724800D02*
X168461905Y-98629561D01*
X168461905Y-98629561D02*
X168414286Y-98534323D01*
X168414286Y-98534323D02*
X168366667Y-98343847D01*
X168366667Y-98343847D02*
X168366667Y-98200990D01*
X168366667Y-98200990D02*
X168414286Y-98010514D01*
X168414286Y-98010514D02*
X168461905Y-97915276D01*
X168461905Y-97915276D02*
X168557143Y-97820038D01*
X168557143Y-97820038D02*
X168700000Y-97772419D01*
X168700000Y-97772419D02*
X168795238Y-97772419D01*
X168795238Y-97772419D02*
X168938095Y-97820038D01*
X168938095Y-97820038D02*
X168985714Y-97867657D01*
X184722419Y-87061904D02*
X183722419Y-87061904D01*
X183722419Y-87061904D02*
X183722419Y-86680952D01*
X183722419Y-86680952D02*
X183770038Y-86585714D01*
X183770038Y-86585714D02*
X183817657Y-86538095D01*
X183817657Y-86538095D02*
X183912895Y-86490476D01*
X183912895Y-86490476D02*
X184055752Y-86490476D01*
X184055752Y-86490476D02*
X184150990Y-86538095D01*
X184150990Y-86538095D02*
X184198609Y-86585714D01*
X184198609Y-86585714D02*
X184246228Y-86680952D01*
X184246228Y-86680952D02*
X184246228Y-87061904D01*
X184198609Y-85728571D02*
X184246228Y-85585714D01*
X184246228Y-85585714D02*
X184293847Y-85538095D01*
X184293847Y-85538095D02*
X184389085Y-85490476D01*
X184389085Y-85490476D02*
X184531942Y-85490476D01*
X184531942Y-85490476D02*
X184627180Y-85538095D01*
X184627180Y-85538095D02*
X184674800Y-85585714D01*
X184674800Y-85585714D02*
X184722419Y-85680952D01*
X184722419Y-85680952D02*
X184722419Y-86061904D01*
X184722419Y-86061904D02*
X183722419Y-86061904D01*
X183722419Y-86061904D02*
X183722419Y-85728571D01*
X183722419Y-85728571D02*
X183770038Y-85633333D01*
X183770038Y-85633333D02*
X183817657Y-85585714D01*
X183817657Y-85585714D02*
X183912895Y-85538095D01*
X183912895Y-85538095D02*
X184008133Y-85538095D01*
X184008133Y-85538095D02*
X184103371Y-85585714D01*
X184103371Y-85585714D02*
X184150990Y-85633333D01*
X184150990Y-85633333D02*
X184198609Y-85728571D01*
X184198609Y-85728571D02*
X184198609Y-86061904D01*
X142663533Y-76619048D02*
X142663533Y-77380953D01*
X142282580Y-77000000D02*
X143044485Y-77000000D01*
X193822419Y-62296115D02*
X192822419Y-62296115D01*
X192822419Y-62296115D02*
X192822419Y-61915163D01*
X192822419Y-61915163D02*
X192870038Y-61819925D01*
X192870038Y-61819925D02*
X192917657Y-61772306D01*
X192917657Y-61772306D02*
X193012895Y-61724687D01*
X193012895Y-61724687D02*
X193155752Y-61724687D01*
X193155752Y-61724687D02*
X193250990Y-61772306D01*
X193250990Y-61772306D02*
X193298609Y-61819925D01*
X193298609Y-61819925D02*
X193346228Y-61915163D01*
X193346228Y-61915163D02*
X193346228Y-62296115D01*
X192822419Y-61105639D02*
X192822419Y-60915163D01*
X192822419Y-60915163D02*
X192870038Y-60819925D01*
X192870038Y-60819925D02*
X192965276Y-60724687D01*
X192965276Y-60724687D02*
X193155752Y-60677068D01*
X193155752Y-60677068D02*
X193489085Y-60677068D01*
X193489085Y-60677068D02*
X193679561Y-60724687D01*
X193679561Y-60724687D02*
X193774800Y-60819925D01*
X193774800Y-60819925D02*
X193822419Y-60915163D01*
X193822419Y-60915163D02*
X193822419Y-61105639D01*
X193822419Y-61105639D02*
X193774800Y-61200877D01*
X193774800Y-61200877D02*
X193679561Y-61296115D01*
X193679561Y-61296115D02*
X193489085Y-61343734D01*
X193489085Y-61343734D02*
X193155752Y-61343734D01*
X193155752Y-61343734D02*
X192965276Y-61296115D01*
X192965276Y-61296115D02*
X192870038Y-61200877D01*
X192870038Y-61200877D02*
X192822419Y-61105639D01*
X192822419Y-60343734D02*
X193822419Y-60105639D01*
X193822419Y-60105639D02*
X193108133Y-59915163D01*
X193108133Y-59915163D02*
X193822419Y-59724687D01*
X193822419Y-59724687D02*
X192822419Y-59486592D01*
X142077580Y-77595238D02*
X143077580Y-77595238D01*
X143077580Y-77595238D02*
X142363295Y-77928571D01*
X142363295Y-77928571D02*
X143077580Y-78261904D01*
X143077580Y-78261904D02*
X142077580Y-78261904D01*
X141982342Y-78500000D02*
X141982342Y-79261904D01*
X143077580Y-79357143D02*
X142077580Y-79690476D01*
X142077580Y-79690476D02*
X143077580Y-80023809D01*
X142077580Y-80357143D02*
X143077580Y-80357143D01*
X142077580Y-80833333D02*
X143077580Y-80833333D01*
X143077580Y-80833333D02*
X142077580Y-81404761D01*
X142077580Y-81404761D02*
X143077580Y-81404761D01*
X145629048Y-48956466D02*
X146390953Y-48956466D01*
X146010000Y-49337419D02*
X146010000Y-48575514D01*
X150769048Y-49036466D02*
X151530953Y-49036466D01*
X147790476Y-101322419D02*
X147790476Y-100322419D01*
X147790476Y-100322419D02*
X148123809Y-101036704D01*
X148123809Y-101036704D02*
X148457142Y-100322419D01*
X148457142Y-100322419D02*
X148457142Y-101322419D01*
X148885714Y-100417657D02*
X148933333Y-100370038D01*
X148933333Y-100370038D02*
X149028571Y-100322419D01*
X149028571Y-100322419D02*
X149266666Y-100322419D01*
X149266666Y-100322419D02*
X149361904Y-100370038D01*
X149361904Y-100370038D02*
X149409523Y-100417657D01*
X149409523Y-100417657D02*
X149457142Y-100512895D01*
X149457142Y-100512895D02*
X149457142Y-100608133D01*
X149457142Y-100608133D02*
X149409523Y-100750990D01*
X149409523Y-100750990D02*
X148838095Y-101322419D01*
X148838095Y-101322419D02*
X149457142Y-101322419D01*
X151560951Y-100903533D02*
X150799047Y-100903533D01*
X151179999Y-100522580D02*
X151179999Y-101284485D01*
G36*
X171238538Y-93015000D02*
G01*
X171070011Y-93015000D01*
X170585189Y-92106172D01*
X170585189Y-93015000D01*
X170458182Y-93015000D01*
X170458182Y-91998949D01*
X170668964Y-91998949D01*
X171111288Y-92828642D01*
X171111288Y-91998949D01*
X171238538Y-91998949D01*
X171238538Y-93015000D01*
G37*
G36*
X171975236Y-91985531D02*
G01*
X172025977Y-91992172D01*
X172073910Y-92003239D01*
X172119034Y-92018733D01*
X172166249Y-92041030D01*
X172209254Y-92068080D01*
X172248046Y-92099883D01*
X172267777Y-92119605D01*
X172300630Y-92160057D01*
X172328846Y-92205300D01*
X172350034Y-92249539D01*
X172363521Y-92285202D01*
X172378160Y-92335806D01*
X172388617Y-92389677D01*
X172394335Y-92439493D01*
X172396851Y-92491811D01*
X172396982Y-92507219D01*
X172395357Y-92560370D01*
X172390484Y-92611043D01*
X172382361Y-92659238D01*
X172369099Y-92711285D01*
X172363032Y-92729968D01*
X172344348Y-92777015D01*
X172319240Y-92825053D01*
X172289805Y-92867914D01*
X172267777Y-92893611D01*
X172230378Y-92929276D01*
X172189347Y-92959608D01*
X172144683Y-92984608D01*
X172118301Y-92996193D01*
X172067891Y-93012840D01*
X172019870Y-93023064D01*
X171968827Y-93028983D01*
X171921685Y-93030631D01*
X171868929Y-93028433D01*
X171818615Y-93021838D01*
X171770743Y-93010847D01*
X171725314Y-92995460D01*
X171677804Y-92973184D01*
X171634467Y-92945924D01*
X171595303Y-92913679D01*
X171575349Y-92893611D01*
X171542831Y-92853571D01*
X171514796Y-92808740D01*
X171491243Y-92759118D01*
X171480094Y-92729480D01*
X171465562Y-92679135D01*
X171455182Y-92625310D01*
X171449505Y-92575358D01*
X171447007Y-92522741D01*
X171446877Y-92507219D01*
X171588538Y-92507219D01*
X171590750Y-92565380D01*
X171597387Y-92619117D01*
X171608448Y-92668430D01*
X171627562Y-92721764D01*
X171653048Y-92768728D01*
X171679152Y-92802997D01*
X171715388Y-92837859D01*
X171755951Y-92865508D01*
X171800842Y-92885944D01*
X171850061Y-92899167D01*
X171903608Y-92905178D01*
X171922418Y-92905579D01*
X171977390Y-92901972D01*
X172028000Y-92891153D01*
X172074247Y-92873121D01*
X172116133Y-92847876D01*
X172153657Y-92815419D01*
X172165195Y-92802997D01*
X172195907Y-92761343D01*
X172220265Y-92713318D01*
X172238268Y-92658921D01*
X172248417Y-92608724D01*
X172254153Y-92554102D01*
X172255565Y-92507219D01*
X172253383Y-92449590D01*
X172246836Y-92396231D01*
X172235923Y-92347142D01*
X172217067Y-92293870D01*
X172191925Y-92246747D01*
X172166172Y-92212173D01*
X172130440Y-92176896D01*
X172090106Y-92148918D01*
X172045169Y-92128239D01*
X171995630Y-92114858D01*
X171941488Y-92108776D01*
X171922418Y-92108370D01*
X171866253Y-92112019D01*
X171814810Y-92122967D01*
X171768090Y-92141214D01*
X171726093Y-92166759D01*
X171688818Y-92199603D01*
X171677443Y-92212173D01*
X171647229Y-92254173D01*
X171623266Y-92302322D01*
X171605555Y-92356618D01*
X171595571Y-92406561D01*
X171589927Y-92460774D01*
X171588538Y-92507219D01*
X171446877Y-92507219D01*
X171448455Y-92454685D01*
X171453188Y-92404583D01*
X171462462Y-92350300D01*
X171475857Y-92299192D01*
X171479850Y-92286912D01*
X171498229Y-92239818D01*
X171520394Y-92196236D01*
X171549855Y-92151403D01*
X171576082Y-92119605D01*
X171612335Y-92084945D01*
X171653224Y-92055154D01*
X171698751Y-92030231D01*
X171726047Y-92018489D01*
X171777762Y-92001487D01*
X171825905Y-91991046D01*
X171876093Y-91985001D01*
X171921685Y-91983318D01*
X171975236Y-91985531D01*
G37*
G36*
X173060834Y-91952055D02*
G01*
X172568440Y-93218210D01*
X172449494Y-93218210D01*
X172939934Y-91952055D01*
X173060834Y-91952055D01*
G37*
G36*
X174022907Y-93015000D02*
G01*
X173854379Y-93015000D01*
X173369557Y-92106172D01*
X173369557Y-93015000D01*
X173242551Y-93015000D01*
X173242551Y-91998949D01*
X173453332Y-91998949D01*
X173895656Y-92828642D01*
X173895656Y-91998949D01*
X174022907Y-91998949D01*
X174022907Y-93015000D01*
G37*
G36*
X175079745Y-92938551D02*
G01*
X175033213Y-92959188D01*
X175011357Y-92969326D01*
X174965753Y-92987702D01*
X174931246Y-92999368D01*
X174881941Y-93012694D01*
X174840387Y-93021350D01*
X174788791Y-93028311D01*
X174739537Y-93030595D01*
X174732188Y-93030631D01*
X174677767Y-93028708D01*
X174625881Y-93022937D01*
X174576529Y-93013320D01*
X174529710Y-92999856D01*
X174480457Y-92979665D01*
X174434914Y-92953986D01*
X174393080Y-92922821D01*
X174371441Y-92903136D01*
X174336626Y-92864103D01*
X174306371Y-92819545D01*
X174283306Y-92775299D01*
X174268371Y-92739249D01*
X174252128Y-92687424D01*
X174241723Y-92638796D01*
X174234871Y-92587106D01*
X174231572Y-92532354D01*
X174231246Y-92507951D01*
X174232952Y-92454610D01*
X174238071Y-92403793D01*
X174246603Y-92355501D01*
X174260532Y-92303401D01*
X174266905Y-92284713D01*
X174286811Y-92237407D01*
X174310625Y-92193916D01*
X174342086Y-92149551D01*
X174369976Y-92118384D01*
X174408802Y-92083782D01*
X174451918Y-92054164D01*
X174499323Y-92029531D01*
X174527512Y-92018000D01*
X174575048Y-92002827D01*
X174625087Y-91991988D01*
X174677630Y-91985485D01*
X174732676Y-91983318D01*
X174784225Y-91985250D01*
X174835678Y-91991046D01*
X174887036Y-92000706D01*
X174897296Y-92003101D01*
X174944907Y-92016625D01*
X174995416Y-92034941D01*
X175042745Y-92055243D01*
X175079745Y-92072955D01*
X175079745Y-92233422D01*
X175069487Y-92233422D01*
X175027309Y-92202923D01*
X174985284Y-92176880D01*
X174938189Y-92152911D01*
X174901692Y-92138168D01*
X174854054Y-92123764D01*
X174804560Y-92114074D01*
X174753212Y-92109098D01*
X174723884Y-92108370D01*
X174672304Y-92111227D01*
X174620183Y-92120861D01*
X174583932Y-92132550D01*
X174539293Y-92154463D01*
X174498432Y-92183933D01*
X174473290Y-92207777D01*
X174440673Y-92248672D01*
X174415902Y-92292677D01*
X174399285Y-92333318D01*
X174385374Y-92383082D01*
X174377260Y-92431786D01*
X174373319Y-92484199D01*
X174372907Y-92508684D01*
X174374723Y-92558891D01*
X174381109Y-92611032D01*
X174393598Y-92663572D01*
X174401971Y-92687714D01*
X174424084Y-92735835D01*
X174450122Y-92777434D01*
X174477198Y-92809591D01*
X174515552Y-92842690D01*
X174558440Y-92868713D01*
X174589550Y-92882131D01*
X174638757Y-92896420D01*
X174690025Y-92904113D01*
X174725349Y-92905579D01*
X174779593Y-92903106D01*
X174831867Y-92895687D01*
X174882169Y-92883322D01*
X174909264Y-92874316D01*
X174956755Y-92854257D01*
X175002506Y-92829253D01*
X175046520Y-92799303D01*
X175070220Y-92780526D01*
X175079745Y-92780526D01*
X175079745Y-92938551D01*
G37*
X149369523Y-48442580D02*
X149369523Y-49442580D01*
X149369523Y-49442580D02*
X149036190Y-48728295D01*
X149036190Y-48728295D02*
X148702857Y-49442580D01*
X148702857Y-49442580D02*
X148702857Y-48442580D01*
X147702857Y-48442580D02*
X148274285Y-48442580D01*
X147988571Y-48442580D02*
X147988571Y-49442580D01*
X147988571Y-49442580D02*
X148083809Y-49299723D01*
X148083809Y-49299723D02*
X148179047Y-49204485D01*
X148179047Y-49204485D02*
X148274285Y-49156866D01*
D11*
X207261905Y-79624819D02*
X207261905Y-78624819D01*
X207261905Y-78624819D02*
X207500000Y-78624819D01*
X207500000Y-78624819D02*
X207642857Y-78672438D01*
X207642857Y-78672438D02*
X207738095Y-78767676D01*
X207738095Y-78767676D02*
X207785714Y-78862914D01*
X207785714Y-78862914D02*
X207833333Y-79053390D01*
X207833333Y-79053390D02*
X207833333Y-79196247D01*
X207833333Y-79196247D02*
X207785714Y-79386723D01*
X207785714Y-79386723D02*
X207738095Y-79481961D01*
X207738095Y-79481961D02*
X207642857Y-79577200D01*
X207642857Y-79577200D02*
X207500000Y-79624819D01*
X207500000Y-79624819D02*
X207261905Y-79624819D01*
X208690476Y-78958152D02*
X208690476Y-79624819D01*
X208452381Y-78577200D02*
X208214286Y-79291485D01*
X208214286Y-79291485D02*
X208833333Y-79291485D01*
X190154819Y-72933333D02*
X190869104Y-72933333D01*
X190869104Y-72933333D02*
X191011961Y-72980952D01*
X191011961Y-72980952D02*
X191107200Y-73076190D01*
X191107200Y-73076190D02*
X191154819Y-73219047D01*
X191154819Y-73219047D02*
X191154819Y-73314285D01*
X191154819Y-72409523D02*
X191154819Y-72219047D01*
X191154819Y-72219047D02*
X191107200Y-72123809D01*
X191107200Y-72123809D02*
X191059580Y-72076190D01*
X191059580Y-72076190D02*
X190916723Y-71980952D01*
X190916723Y-71980952D02*
X190726247Y-71933333D01*
X190726247Y-71933333D02*
X190345295Y-71933333D01*
X190345295Y-71933333D02*
X190250057Y-71980952D01*
X190250057Y-71980952D02*
X190202438Y-72028571D01*
X190202438Y-72028571D02*
X190154819Y-72123809D01*
X190154819Y-72123809D02*
X190154819Y-72314285D01*
X190154819Y-72314285D02*
X190202438Y-72409523D01*
X190202438Y-72409523D02*
X190250057Y-72457142D01*
X190250057Y-72457142D02*
X190345295Y-72504761D01*
X190345295Y-72504761D02*
X190583390Y-72504761D01*
X190583390Y-72504761D02*
X190678628Y-72457142D01*
X190678628Y-72457142D02*
X190726247Y-72409523D01*
X190726247Y-72409523D02*
X190773866Y-72314285D01*
X190773866Y-72314285D02*
X190773866Y-72123809D01*
X190773866Y-72123809D02*
X190726247Y-72028571D01*
X190726247Y-72028571D02*
X190678628Y-71980952D01*
X190678628Y-71980952D02*
X190583390Y-71933333D01*
X184333333Y-94854819D02*
X184000000Y-94378628D01*
X183761905Y-94854819D02*
X183761905Y-93854819D01*
X183761905Y-93854819D02*
X184142857Y-93854819D01*
X184142857Y-93854819D02*
X184238095Y-93902438D01*
X184238095Y-93902438D02*
X184285714Y-93950057D01*
X184285714Y-93950057D02*
X184333333Y-94045295D01*
X184333333Y-94045295D02*
X184333333Y-94188152D01*
X184333333Y-94188152D02*
X184285714Y-94283390D01*
X184285714Y-94283390D02*
X184238095Y-94331009D01*
X184238095Y-94331009D02*
X184142857Y-94378628D01*
X184142857Y-94378628D02*
X183761905Y-94378628D01*
X185285714Y-94854819D02*
X184714286Y-94854819D01*
X185000000Y-94854819D02*
X185000000Y-93854819D01*
X185000000Y-93854819D02*
X184904762Y-93997676D01*
X184904762Y-93997676D02*
X184809524Y-94092914D01*
X184809524Y-94092914D02*
X184714286Y-94140533D01*
X198286905Y-64304819D02*
X198286905Y-63304819D01*
X198286905Y-63304819D02*
X198525000Y-63304819D01*
X198525000Y-63304819D02*
X198667857Y-63352438D01*
X198667857Y-63352438D02*
X198763095Y-63447676D01*
X198763095Y-63447676D02*
X198810714Y-63542914D01*
X198810714Y-63542914D02*
X198858333Y-63733390D01*
X198858333Y-63733390D02*
X198858333Y-63876247D01*
X198858333Y-63876247D02*
X198810714Y-64066723D01*
X198810714Y-64066723D02*
X198763095Y-64161961D01*
X198763095Y-64161961D02*
X198667857Y-64257200D01*
X198667857Y-64257200D02*
X198525000Y-64304819D01*
X198525000Y-64304819D02*
X198286905Y-64304819D01*
X199239286Y-63400057D02*
X199286905Y-63352438D01*
X199286905Y-63352438D02*
X199382143Y-63304819D01*
X199382143Y-63304819D02*
X199620238Y-63304819D01*
X199620238Y-63304819D02*
X199715476Y-63352438D01*
X199715476Y-63352438D02*
X199763095Y-63400057D01*
X199763095Y-63400057D02*
X199810714Y-63495295D01*
X199810714Y-63495295D02*
X199810714Y-63590533D01*
X199810714Y-63590533D02*
X199763095Y-63733390D01*
X199763095Y-63733390D02*
X199191667Y-64304819D01*
X199191667Y-64304819D02*
X199810714Y-64304819D01*
X197848214Y-58774819D02*
X197848214Y-57774819D01*
X197848214Y-57774819D02*
X198086309Y-57774819D01*
X198086309Y-57774819D02*
X198229166Y-57822438D01*
X198229166Y-57822438D02*
X198324404Y-57917676D01*
X198324404Y-57917676D02*
X198372023Y-58012914D01*
X198372023Y-58012914D02*
X198419642Y-58203390D01*
X198419642Y-58203390D02*
X198419642Y-58346247D01*
X198419642Y-58346247D02*
X198372023Y-58536723D01*
X198372023Y-58536723D02*
X198324404Y-58631961D01*
X198324404Y-58631961D02*
X198229166Y-58727200D01*
X198229166Y-58727200D02*
X198086309Y-58774819D01*
X198086309Y-58774819D02*
X197848214Y-58774819D01*
X199372023Y-58774819D02*
X198800595Y-58774819D01*
X199086309Y-58774819D02*
X199086309Y-57774819D01*
X199086309Y-57774819D02*
X198991071Y-57917676D01*
X198991071Y-57917676D02*
X198895833Y-58012914D01*
X198895833Y-58012914D02*
X198800595Y-58060533D01*
X199752976Y-57870057D02*
X199800595Y-57822438D01*
X199800595Y-57822438D02*
X199895833Y-57774819D01*
X199895833Y-57774819D02*
X200133928Y-57774819D01*
X200133928Y-57774819D02*
X200229166Y-57822438D01*
X200229166Y-57822438D02*
X200276785Y-57870057D01*
X200276785Y-57870057D02*
X200324404Y-57965295D01*
X200324404Y-57965295D02*
X200324404Y-58060533D01*
X200324404Y-58060533D02*
X200276785Y-58203390D01*
X200276785Y-58203390D02*
X199705357Y-58774819D01*
X199705357Y-58774819D02*
X200324404Y-58774819D01*
X181904819Y-86633333D02*
X182619104Y-86633333D01*
X182619104Y-86633333D02*
X182761961Y-86680952D01*
X182761961Y-86680952D02*
X182857200Y-86776190D01*
X182857200Y-86776190D02*
X182904819Y-86919047D01*
X182904819Y-86919047D02*
X182904819Y-87014285D01*
X182333390Y-86014285D02*
X182285771Y-86109523D01*
X182285771Y-86109523D02*
X182238152Y-86157142D01*
X182238152Y-86157142D02*
X182142914Y-86204761D01*
X182142914Y-86204761D02*
X182095295Y-86204761D01*
X182095295Y-86204761D02*
X182000057Y-86157142D01*
X182000057Y-86157142D02*
X181952438Y-86109523D01*
X181952438Y-86109523D02*
X181904819Y-86014285D01*
X181904819Y-86014285D02*
X181904819Y-85823809D01*
X181904819Y-85823809D02*
X181952438Y-85728571D01*
X181952438Y-85728571D02*
X182000057Y-85680952D01*
X182000057Y-85680952D02*
X182095295Y-85633333D01*
X182095295Y-85633333D02*
X182142914Y-85633333D01*
X182142914Y-85633333D02*
X182238152Y-85680952D01*
X182238152Y-85680952D02*
X182285771Y-85728571D01*
X182285771Y-85728571D02*
X182333390Y-85823809D01*
X182333390Y-85823809D02*
X182333390Y-86014285D01*
X182333390Y-86014285D02*
X182381009Y-86109523D01*
X182381009Y-86109523D02*
X182428628Y-86157142D01*
X182428628Y-86157142D02*
X182523866Y-86204761D01*
X182523866Y-86204761D02*
X182714342Y-86204761D01*
X182714342Y-86204761D02*
X182809580Y-86157142D01*
X182809580Y-86157142D02*
X182857200Y-86109523D01*
X182857200Y-86109523D02*
X182904819Y-86014285D01*
X182904819Y-86014285D02*
X182904819Y-85823809D01*
X182904819Y-85823809D02*
X182857200Y-85728571D01*
X182857200Y-85728571D02*
X182809580Y-85680952D01*
X182809580Y-85680952D02*
X182714342Y-85633333D01*
X182714342Y-85633333D02*
X182523866Y-85633333D01*
X182523866Y-85633333D02*
X182428628Y-85680952D01*
X182428628Y-85680952D02*
X182381009Y-85728571D01*
X182381009Y-85728571D02*
X182333390Y-85823809D01*
X207261905Y-83246219D02*
X207261905Y-82246219D01*
X207261905Y-82246219D02*
X207500000Y-82246219D01*
X207500000Y-82246219D02*
X207642857Y-82293838D01*
X207642857Y-82293838D02*
X207738095Y-82389076D01*
X207738095Y-82389076D02*
X207785714Y-82484314D01*
X207785714Y-82484314D02*
X207833333Y-82674790D01*
X207833333Y-82674790D02*
X207833333Y-82817647D01*
X207833333Y-82817647D02*
X207785714Y-83008123D01*
X207785714Y-83008123D02*
X207738095Y-83103361D01*
X207738095Y-83103361D02*
X207642857Y-83198600D01*
X207642857Y-83198600D02*
X207500000Y-83246219D01*
X207500000Y-83246219D02*
X207261905Y-83246219D01*
X208166667Y-82246219D02*
X208785714Y-82246219D01*
X208785714Y-82246219D02*
X208452381Y-82627171D01*
X208452381Y-82627171D02*
X208595238Y-82627171D01*
X208595238Y-82627171D02*
X208690476Y-82674790D01*
X208690476Y-82674790D02*
X208738095Y-82722409D01*
X208738095Y-82722409D02*
X208785714Y-82817647D01*
X208785714Y-82817647D02*
X208785714Y-83055742D01*
X208785714Y-83055742D02*
X208738095Y-83150980D01*
X208738095Y-83150980D02*
X208690476Y-83198600D01*
X208690476Y-83198600D02*
X208595238Y-83246219D01*
X208595238Y-83246219D02*
X208309524Y-83246219D01*
X208309524Y-83246219D02*
X208214286Y-83198600D01*
X208214286Y-83198600D02*
X208166667Y-83150980D01*
X145375180Y-79166666D02*
X144660895Y-79166666D01*
X144660895Y-79166666D02*
X144518038Y-79119047D01*
X144518038Y-79119047D02*
X144422800Y-79023809D01*
X144422800Y-79023809D02*
X144375180Y-78880952D01*
X144375180Y-78880952D02*
X144375180Y-78785714D01*
X145375180Y-80119047D02*
X145375180Y-79642857D01*
X145375180Y-79642857D02*
X144898990Y-79595238D01*
X144898990Y-79595238D02*
X144946609Y-79642857D01*
X144946609Y-79642857D02*
X144994228Y-79738095D01*
X144994228Y-79738095D02*
X144994228Y-79976190D01*
X144994228Y-79976190D02*
X144946609Y-80071428D01*
X144946609Y-80071428D02*
X144898990Y-80119047D01*
X144898990Y-80119047D02*
X144803752Y-80166666D01*
X144803752Y-80166666D02*
X144565657Y-80166666D01*
X144565657Y-80166666D02*
X144470419Y-80119047D01*
X144470419Y-80119047D02*
X144422800Y-80071428D01*
X144422800Y-80071428D02*
X144375180Y-79976190D01*
X144375180Y-79976190D02*
X144375180Y-79738095D01*
X144375180Y-79738095D02*
X144422800Y-79642857D01*
X144422800Y-79642857D02*
X144470419Y-79595238D01*
X207359305Y-65139119D02*
X207359305Y-64139119D01*
X207359305Y-64139119D02*
X207597400Y-64139119D01*
X207597400Y-64139119D02*
X207740257Y-64186738D01*
X207740257Y-64186738D02*
X207835495Y-64281976D01*
X207835495Y-64281976D02*
X207883114Y-64377214D01*
X207883114Y-64377214D02*
X207930733Y-64567690D01*
X207930733Y-64567690D02*
X207930733Y-64710547D01*
X207930733Y-64710547D02*
X207883114Y-64901023D01*
X207883114Y-64901023D02*
X207835495Y-64996261D01*
X207835495Y-64996261D02*
X207740257Y-65091500D01*
X207740257Y-65091500D02*
X207597400Y-65139119D01*
X207597400Y-65139119D02*
X207359305Y-65139119D01*
X208502162Y-64567690D02*
X208406924Y-64520071D01*
X208406924Y-64520071D02*
X208359305Y-64472452D01*
X208359305Y-64472452D02*
X208311686Y-64377214D01*
X208311686Y-64377214D02*
X208311686Y-64329595D01*
X208311686Y-64329595D02*
X208359305Y-64234357D01*
X208359305Y-64234357D02*
X208406924Y-64186738D01*
X208406924Y-64186738D02*
X208502162Y-64139119D01*
X208502162Y-64139119D02*
X208692638Y-64139119D01*
X208692638Y-64139119D02*
X208787876Y-64186738D01*
X208787876Y-64186738D02*
X208835495Y-64234357D01*
X208835495Y-64234357D02*
X208883114Y-64329595D01*
X208883114Y-64329595D02*
X208883114Y-64377214D01*
X208883114Y-64377214D02*
X208835495Y-64472452D01*
X208835495Y-64472452D02*
X208787876Y-64520071D01*
X208787876Y-64520071D02*
X208692638Y-64567690D01*
X208692638Y-64567690D02*
X208502162Y-64567690D01*
X208502162Y-64567690D02*
X208406924Y-64615309D01*
X208406924Y-64615309D02*
X208359305Y-64662928D01*
X208359305Y-64662928D02*
X208311686Y-64758166D01*
X208311686Y-64758166D02*
X208311686Y-64948642D01*
X208311686Y-64948642D02*
X208359305Y-65043880D01*
X208359305Y-65043880D02*
X208406924Y-65091500D01*
X208406924Y-65091500D02*
X208502162Y-65139119D01*
X208502162Y-65139119D02*
X208692638Y-65139119D01*
X208692638Y-65139119D02*
X208787876Y-65091500D01*
X208787876Y-65091500D02*
X208835495Y-65043880D01*
X208835495Y-65043880D02*
X208883114Y-64948642D01*
X208883114Y-64948642D02*
X208883114Y-64758166D01*
X208883114Y-64758166D02*
X208835495Y-64662928D01*
X208835495Y-64662928D02*
X208787876Y-64615309D01*
X208787876Y-64615309D02*
X208692638Y-64567690D01*
X206883114Y-86867719D02*
X206883114Y-85867719D01*
X206883114Y-85867719D02*
X207121209Y-85867719D01*
X207121209Y-85867719D02*
X207264066Y-85915338D01*
X207264066Y-85915338D02*
X207359304Y-86010576D01*
X207359304Y-86010576D02*
X207406923Y-86105814D01*
X207406923Y-86105814D02*
X207454542Y-86296290D01*
X207454542Y-86296290D02*
X207454542Y-86439147D01*
X207454542Y-86439147D02*
X207406923Y-86629623D01*
X207406923Y-86629623D02*
X207359304Y-86724861D01*
X207359304Y-86724861D02*
X207264066Y-86820100D01*
X207264066Y-86820100D02*
X207121209Y-86867719D01*
X207121209Y-86867719D02*
X206883114Y-86867719D01*
X208406923Y-86867719D02*
X207835495Y-86867719D01*
X208121209Y-86867719D02*
X208121209Y-85867719D01*
X208121209Y-85867719D02*
X208025971Y-86010576D01*
X208025971Y-86010576D02*
X207930733Y-86105814D01*
X207930733Y-86105814D02*
X207835495Y-86153433D01*
X209025971Y-85867719D02*
X209121209Y-85867719D01*
X209121209Y-85867719D02*
X209216447Y-85915338D01*
X209216447Y-85915338D02*
X209264066Y-85962957D01*
X209264066Y-85962957D02*
X209311685Y-86058195D01*
X209311685Y-86058195D02*
X209359304Y-86248671D01*
X209359304Y-86248671D02*
X209359304Y-86486766D01*
X209359304Y-86486766D02*
X209311685Y-86677242D01*
X209311685Y-86677242D02*
X209264066Y-86772480D01*
X209264066Y-86772480D02*
X209216447Y-86820100D01*
X209216447Y-86820100D02*
X209121209Y-86867719D01*
X209121209Y-86867719D02*
X209025971Y-86867719D01*
X209025971Y-86867719D02*
X208930733Y-86820100D01*
X208930733Y-86820100D02*
X208883114Y-86772480D01*
X208883114Y-86772480D02*
X208835495Y-86677242D01*
X208835495Y-86677242D02*
X208787876Y-86486766D01*
X208787876Y-86486766D02*
X208787876Y-86248671D01*
X208787876Y-86248671D02*
X208835495Y-86058195D01*
X208835495Y-86058195D02*
X208883114Y-85962957D01*
X208883114Y-85962957D02*
X208930733Y-85915338D01*
X208930733Y-85915338D02*
X209025971Y-85867719D01*
X190104819Y-87109523D02*
X190819104Y-87109523D01*
X190819104Y-87109523D02*
X190961961Y-87157142D01*
X190961961Y-87157142D02*
X191057200Y-87252380D01*
X191057200Y-87252380D02*
X191104819Y-87395237D01*
X191104819Y-87395237D02*
X191104819Y-87490475D01*
X191104819Y-86109523D02*
X191104819Y-86680951D01*
X191104819Y-86395237D02*
X190104819Y-86395237D01*
X190104819Y-86395237D02*
X190247676Y-86490475D01*
X190247676Y-86490475D02*
X190342914Y-86585713D01*
X190342914Y-86585713D02*
X190390533Y-86680951D01*
X190104819Y-85490475D02*
X190104819Y-85395237D01*
X190104819Y-85395237D02*
X190152438Y-85299999D01*
X190152438Y-85299999D02*
X190200057Y-85252380D01*
X190200057Y-85252380D02*
X190295295Y-85204761D01*
X190295295Y-85204761D02*
X190485771Y-85157142D01*
X190485771Y-85157142D02*
X190723866Y-85157142D01*
X190723866Y-85157142D02*
X190914342Y-85204761D01*
X190914342Y-85204761D02*
X191009580Y-85252380D01*
X191009580Y-85252380D02*
X191057200Y-85299999D01*
X191057200Y-85299999D02*
X191104819Y-85395237D01*
X191104819Y-85395237D02*
X191104819Y-85490475D01*
X191104819Y-85490475D02*
X191057200Y-85585713D01*
X191057200Y-85585713D02*
X191009580Y-85633332D01*
X191009580Y-85633332D02*
X190914342Y-85680951D01*
X190914342Y-85680951D02*
X190723866Y-85728570D01*
X190723866Y-85728570D02*
X190485771Y-85728570D01*
X190485771Y-85728570D02*
X190295295Y-85680951D01*
X190295295Y-85680951D02*
X190200057Y-85633332D01*
X190200057Y-85633332D02*
X190152438Y-85585713D01*
X190152438Y-85585713D02*
X190104819Y-85490475D01*
X175466666Y-87904819D02*
X175466666Y-88619104D01*
X175466666Y-88619104D02*
X175419047Y-88761961D01*
X175419047Y-88761961D02*
X175323809Y-88857200D01*
X175323809Y-88857200D02*
X175180952Y-88904819D01*
X175180952Y-88904819D02*
X175085714Y-88904819D01*
X175942857Y-88904819D02*
X175942857Y-87904819D01*
X175942857Y-87904819D02*
X176323809Y-87904819D01*
X176323809Y-87904819D02*
X176419047Y-87952438D01*
X176419047Y-87952438D02*
X176466666Y-88000057D01*
X176466666Y-88000057D02*
X176514285Y-88095295D01*
X176514285Y-88095295D02*
X176514285Y-88238152D01*
X176514285Y-88238152D02*
X176466666Y-88333390D01*
X176466666Y-88333390D02*
X176419047Y-88381009D01*
X176419047Y-88381009D02*
X176323809Y-88428628D01*
X176323809Y-88428628D02*
X175942857Y-88428628D01*
X177466666Y-88904819D02*
X176895238Y-88904819D01*
X177180952Y-88904819D02*
X177180952Y-87904819D01*
X177180952Y-87904819D02*
X177085714Y-88047676D01*
X177085714Y-88047676D02*
X176990476Y-88142914D01*
X176990476Y-88142914D02*
X176895238Y-88190533D01*
X203048542Y-86919457D02*
X202715209Y-86443266D01*
X202477114Y-86919457D02*
X202477114Y-85919457D01*
X202477114Y-85919457D02*
X202858066Y-85919457D01*
X202858066Y-85919457D02*
X202953304Y-85967076D01*
X202953304Y-85967076D02*
X203000923Y-86014695D01*
X203000923Y-86014695D02*
X203048542Y-86109933D01*
X203048542Y-86109933D02*
X203048542Y-86252790D01*
X203048542Y-86252790D02*
X203000923Y-86348028D01*
X203000923Y-86348028D02*
X202953304Y-86395647D01*
X202953304Y-86395647D02*
X202858066Y-86443266D01*
X202858066Y-86443266D02*
X202477114Y-86443266D01*
X204000923Y-86919457D02*
X203429495Y-86919457D01*
X203715209Y-86919457D02*
X203715209Y-85919457D01*
X203715209Y-85919457D02*
X203619971Y-86062314D01*
X203619971Y-86062314D02*
X203524733Y-86157552D01*
X203524733Y-86157552D02*
X203429495Y-86205171D01*
X204858066Y-86252790D02*
X204858066Y-86919457D01*
X204619971Y-85871838D02*
X204381876Y-86586123D01*
X204381876Y-86586123D02*
X205000923Y-86586123D01*
X148938333Y-51445180D02*
X148938333Y-50730895D01*
X148938333Y-50730895D02*
X148985952Y-50588038D01*
X148985952Y-50588038D02*
X149081190Y-50492800D01*
X149081190Y-50492800D02*
X149224047Y-50445180D01*
X149224047Y-50445180D02*
X149319285Y-50445180D01*
X148557380Y-51445180D02*
X147938333Y-51445180D01*
X147938333Y-51445180D02*
X148271666Y-51064228D01*
X148271666Y-51064228D02*
X148128809Y-51064228D01*
X148128809Y-51064228D02*
X148033571Y-51016609D01*
X148033571Y-51016609D02*
X147985952Y-50968990D01*
X147985952Y-50968990D02*
X147938333Y-50873752D01*
X147938333Y-50873752D02*
X147938333Y-50635657D01*
X147938333Y-50635657D02*
X147985952Y-50540419D01*
X147985952Y-50540419D02*
X148033571Y-50492800D01*
X148033571Y-50492800D02*
X148128809Y-50445180D01*
X148128809Y-50445180D02*
X148414523Y-50445180D01*
X148414523Y-50445180D02*
X148509761Y-50492800D01*
X148509761Y-50492800D02*
X148557380Y-50540419D01*
X191004819Y-61433333D02*
X191719104Y-61433333D01*
X191719104Y-61433333D02*
X191861961Y-61480952D01*
X191861961Y-61480952D02*
X191957200Y-61576190D01*
X191957200Y-61576190D02*
X192004819Y-61719047D01*
X192004819Y-61719047D02*
X192004819Y-61814285D01*
X191004819Y-60528571D02*
X191004819Y-60719047D01*
X191004819Y-60719047D02*
X191052438Y-60814285D01*
X191052438Y-60814285D02*
X191100057Y-60861904D01*
X191100057Y-60861904D02*
X191242914Y-60957142D01*
X191242914Y-60957142D02*
X191433390Y-61004761D01*
X191433390Y-61004761D02*
X191814342Y-61004761D01*
X191814342Y-61004761D02*
X191909580Y-60957142D01*
X191909580Y-60957142D02*
X191957200Y-60909523D01*
X191957200Y-60909523D02*
X192004819Y-60814285D01*
X192004819Y-60814285D02*
X192004819Y-60623809D01*
X192004819Y-60623809D02*
X191957200Y-60528571D01*
X191957200Y-60528571D02*
X191909580Y-60480952D01*
X191909580Y-60480952D02*
X191814342Y-60433333D01*
X191814342Y-60433333D02*
X191576247Y-60433333D01*
X191576247Y-60433333D02*
X191481009Y-60480952D01*
X191481009Y-60480952D02*
X191433390Y-60528571D01*
X191433390Y-60528571D02*
X191385771Y-60623809D01*
X191385771Y-60623809D02*
X191385771Y-60814285D01*
X191385771Y-60814285D02*
X191433390Y-60909523D01*
X191433390Y-60909523D02*
X191481009Y-60957142D01*
X191481009Y-60957142D02*
X191576247Y-61004761D01*
X180408333Y-97984819D02*
X180075000Y-97508628D01*
X179836905Y-97984819D02*
X179836905Y-96984819D01*
X179836905Y-96984819D02*
X180217857Y-96984819D01*
X180217857Y-96984819D02*
X180313095Y-97032438D01*
X180313095Y-97032438D02*
X180360714Y-97080057D01*
X180360714Y-97080057D02*
X180408333Y-97175295D01*
X180408333Y-97175295D02*
X180408333Y-97318152D01*
X180408333Y-97318152D02*
X180360714Y-97413390D01*
X180360714Y-97413390D02*
X180313095Y-97461009D01*
X180313095Y-97461009D02*
X180217857Y-97508628D01*
X180217857Y-97508628D02*
X179836905Y-97508628D01*
X180789286Y-97080057D02*
X180836905Y-97032438D01*
X180836905Y-97032438D02*
X180932143Y-96984819D01*
X180932143Y-96984819D02*
X181170238Y-96984819D01*
X181170238Y-96984819D02*
X181265476Y-97032438D01*
X181265476Y-97032438D02*
X181313095Y-97080057D01*
X181313095Y-97080057D02*
X181360714Y-97175295D01*
X181360714Y-97175295D02*
X181360714Y-97270533D01*
X181360714Y-97270533D02*
X181313095Y-97413390D01*
X181313095Y-97413390D02*
X180741667Y-97984819D01*
X180741667Y-97984819D02*
X181360714Y-97984819D01*
X178011905Y-95104819D02*
X178011905Y-94104819D01*
X178011905Y-94104819D02*
X178250000Y-94104819D01*
X178250000Y-94104819D02*
X178392857Y-94152438D01*
X178392857Y-94152438D02*
X178488095Y-94247676D01*
X178488095Y-94247676D02*
X178535714Y-94342914D01*
X178535714Y-94342914D02*
X178583333Y-94533390D01*
X178583333Y-94533390D02*
X178583333Y-94676247D01*
X178583333Y-94676247D02*
X178535714Y-94866723D01*
X178535714Y-94866723D02*
X178488095Y-94961961D01*
X178488095Y-94961961D02*
X178392857Y-95057200D01*
X178392857Y-95057200D02*
X178250000Y-95104819D01*
X178250000Y-95104819D02*
X178011905Y-95104819D01*
X179535714Y-95104819D02*
X178964286Y-95104819D01*
X179250000Y-95104819D02*
X179250000Y-94104819D01*
X179250000Y-94104819D02*
X179154762Y-94247676D01*
X179154762Y-94247676D02*
X179059524Y-94342914D01*
X179059524Y-94342914D02*
X178964286Y-94390533D01*
X207359305Y-72381919D02*
X207359305Y-71381919D01*
X207359305Y-71381919D02*
X207597400Y-71381919D01*
X207597400Y-71381919D02*
X207740257Y-71429538D01*
X207740257Y-71429538D02*
X207835495Y-71524776D01*
X207835495Y-71524776D02*
X207883114Y-71620014D01*
X207883114Y-71620014D02*
X207930733Y-71810490D01*
X207930733Y-71810490D02*
X207930733Y-71953347D01*
X207930733Y-71953347D02*
X207883114Y-72143823D01*
X207883114Y-72143823D02*
X207835495Y-72239061D01*
X207835495Y-72239061D02*
X207740257Y-72334300D01*
X207740257Y-72334300D02*
X207597400Y-72381919D01*
X207597400Y-72381919D02*
X207359305Y-72381919D01*
X208787876Y-71381919D02*
X208597400Y-71381919D01*
X208597400Y-71381919D02*
X208502162Y-71429538D01*
X208502162Y-71429538D02*
X208454543Y-71477157D01*
X208454543Y-71477157D02*
X208359305Y-71620014D01*
X208359305Y-71620014D02*
X208311686Y-71810490D01*
X208311686Y-71810490D02*
X208311686Y-72191442D01*
X208311686Y-72191442D02*
X208359305Y-72286680D01*
X208359305Y-72286680D02*
X208406924Y-72334300D01*
X208406924Y-72334300D02*
X208502162Y-72381919D01*
X208502162Y-72381919D02*
X208692638Y-72381919D01*
X208692638Y-72381919D02*
X208787876Y-72334300D01*
X208787876Y-72334300D02*
X208835495Y-72286680D01*
X208835495Y-72286680D02*
X208883114Y-72191442D01*
X208883114Y-72191442D02*
X208883114Y-71953347D01*
X208883114Y-71953347D02*
X208835495Y-71858109D01*
X208835495Y-71858109D02*
X208787876Y-71810490D01*
X208787876Y-71810490D02*
X208692638Y-71762871D01*
X208692638Y-71762871D02*
X208502162Y-71762871D01*
X208502162Y-71762871D02*
X208406924Y-71810490D01*
X208406924Y-71810490D02*
X208359305Y-71858109D01*
X208359305Y-71858109D02*
X208311686Y-71953347D01*
X207359305Y-68760519D02*
X207359305Y-67760519D01*
X207359305Y-67760519D02*
X207597400Y-67760519D01*
X207597400Y-67760519D02*
X207740257Y-67808138D01*
X207740257Y-67808138D02*
X207835495Y-67903376D01*
X207835495Y-67903376D02*
X207883114Y-67998614D01*
X207883114Y-67998614D02*
X207930733Y-68189090D01*
X207930733Y-68189090D02*
X207930733Y-68331947D01*
X207930733Y-68331947D02*
X207883114Y-68522423D01*
X207883114Y-68522423D02*
X207835495Y-68617661D01*
X207835495Y-68617661D02*
X207740257Y-68712900D01*
X207740257Y-68712900D02*
X207597400Y-68760519D01*
X207597400Y-68760519D02*
X207359305Y-68760519D01*
X208264067Y-67760519D02*
X208930733Y-67760519D01*
X208930733Y-67760519D02*
X208502162Y-68760519D01*
X203427333Y-79676557D02*
X203094000Y-79200366D01*
X202855905Y-79676557D02*
X202855905Y-78676557D01*
X202855905Y-78676557D02*
X203236857Y-78676557D01*
X203236857Y-78676557D02*
X203332095Y-78724176D01*
X203332095Y-78724176D02*
X203379714Y-78771795D01*
X203379714Y-78771795D02*
X203427333Y-78867033D01*
X203427333Y-78867033D02*
X203427333Y-79009890D01*
X203427333Y-79009890D02*
X203379714Y-79105128D01*
X203379714Y-79105128D02*
X203332095Y-79152747D01*
X203332095Y-79152747D02*
X203236857Y-79200366D01*
X203236857Y-79200366D02*
X202855905Y-79200366D01*
X203998762Y-79105128D02*
X203903524Y-79057509D01*
X203903524Y-79057509D02*
X203855905Y-79009890D01*
X203855905Y-79009890D02*
X203808286Y-78914652D01*
X203808286Y-78914652D02*
X203808286Y-78867033D01*
X203808286Y-78867033D02*
X203855905Y-78771795D01*
X203855905Y-78771795D02*
X203903524Y-78724176D01*
X203903524Y-78724176D02*
X203998762Y-78676557D01*
X203998762Y-78676557D02*
X204189238Y-78676557D01*
X204189238Y-78676557D02*
X204284476Y-78724176D01*
X204284476Y-78724176D02*
X204332095Y-78771795D01*
X204332095Y-78771795D02*
X204379714Y-78867033D01*
X204379714Y-78867033D02*
X204379714Y-78914652D01*
X204379714Y-78914652D02*
X204332095Y-79009890D01*
X204332095Y-79009890D02*
X204284476Y-79057509D01*
X204284476Y-79057509D02*
X204189238Y-79105128D01*
X204189238Y-79105128D02*
X203998762Y-79105128D01*
X203998762Y-79105128D02*
X203903524Y-79152747D01*
X203903524Y-79152747D02*
X203855905Y-79200366D01*
X203855905Y-79200366D02*
X203808286Y-79295604D01*
X203808286Y-79295604D02*
X203808286Y-79486080D01*
X203808286Y-79486080D02*
X203855905Y-79581318D01*
X203855905Y-79581318D02*
X203903524Y-79628938D01*
X203903524Y-79628938D02*
X203998762Y-79676557D01*
X203998762Y-79676557D02*
X204189238Y-79676557D01*
X204189238Y-79676557D02*
X204284476Y-79628938D01*
X204284476Y-79628938D02*
X204332095Y-79581318D01*
X204332095Y-79581318D02*
X204379714Y-79486080D01*
X204379714Y-79486080D02*
X204379714Y-79295604D01*
X204379714Y-79295604D02*
X204332095Y-79200366D01*
X204332095Y-79200366D02*
X204284476Y-79152747D01*
X204284476Y-79152747D02*
X204189238Y-79105128D01*
X203427333Y-83297957D02*
X203094000Y-82821766D01*
X202855905Y-83297957D02*
X202855905Y-82297957D01*
X202855905Y-82297957D02*
X203236857Y-82297957D01*
X203236857Y-82297957D02*
X203332095Y-82345576D01*
X203332095Y-82345576D02*
X203379714Y-82393195D01*
X203379714Y-82393195D02*
X203427333Y-82488433D01*
X203427333Y-82488433D02*
X203427333Y-82631290D01*
X203427333Y-82631290D02*
X203379714Y-82726528D01*
X203379714Y-82726528D02*
X203332095Y-82774147D01*
X203332095Y-82774147D02*
X203236857Y-82821766D01*
X203236857Y-82821766D02*
X202855905Y-82821766D01*
X203760667Y-82297957D02*
X204427333Y-82297957D01*
X204427333Y-82297957D02*
X203998762Y-83297957D01*
X164036905Y-89804819D02*
X164036905Y-88804819D01*
X164608333Y-89804819D02*
X164179762Y-89233390D01*
X164608333Y-88804819D02*
X164036905Y-89376247D01*
X165560714Y-89804819D02*
X164989286Y-89804819D01*
X165275000Y-89804819D02*
X165275000Y-88804819D01*
X165275000Y-88804819D02*
X165179762Y-88947676D01*
X165179762Y-88947676D02*
X165084524Y-89042914D01*
X165084524Y-89042914D02*
X164989286Y-89090533D01*
X196629495Y-80437719D02*
X196629495Y-81247242D01*
X196629495Y-81247242D02*
X196677114Y-81342480D01*
X196677114Y-81342480D02*
X196724733Y-81390100D01*
X196724733Y-81390100D02*
X196819971Y-81437719D01*
X196819971Y-81437719D02*
X197010447Y-81437719D01*
X197010447Y-81437719D02*
X197105685Y-81390100D01*
X197105685Y-81390100D02*
X197153304Y-81342480D01*
X197153304Y-81342480D02*
X197200923Y-81247242D01*
X197200923Y-81247242D02*
X197200923Y-80437719D01*
X197629495Y-80532957D02*
X197677114Y-80485338D01*
X197677114Y-80485338D02*
X197772352Y-80437719D01*
X197772352Y-80437719D02*
X198010447Y-80437719D01*
X198010447Y-80437719D02*
X198105685Y-80485338D01*
X198105685Y-80485338D02*
X198153304Y-80532957D01*
X198153304Y-80532957D02*
X198200923Y-80628195D01*
X198200923Y-80628195D02*
X198200923Y-80723433D01*
X198200923Y-80723433D02*
X198153304Y-80866290D01*
X198153304Y-80866290D02*
X197581876Y-81437719D01*
X197581876Y-81437719D02*
X198200923Y-81437719D01*
X207359305Y-61517719D02*
X207359305Y-60517719D01*
X207359305Y-60517719D02*
X207597400Y-60517719D01*
X207597400Y-60517719D02*
X207740257Y-60565338D01*
X207740257Y-60565338D02*
X207835495Y-60660576D01*
X207835495Y-60660576D02*
X207883114Y-60755814D01*
X207883114Y-60755814D02*
X207930733Y-60946290D01*
X207930733Y-60946290D02*
X207930733Y-61089147D01*
X207930733Y-61089147D02*
X207883114Y-61279623D01*
X207883114Y-61279623D02*
X207835495Y-61374861D01*
X207835495Y-61374861D02*
X207740257Y-61470100D01*
X207740257Y-61470100D02*
X207597400Y-61517719D01*
X207597400Y-61517719D02*
X207359305Y-61517719D01*
X208406924Y-61517719D02*
X208597400Y-61517719D01*
X208597400Y-61517719D02*
X208692638Y-61470100D01*
X208692638Y-61470100D02*
X208740257Y-61422480D01*
X208740257Y-61422480D02*
X208835495Y-61279623D01*
X208835495Y-61279623D02*
X208883114Y-61089147D01*
X208883114Y-61089147D02*
X208883114Y-60708195D01*
X208883114Y-60708195D02*
X208835495Y-60612957D01*
X208835495Y-60612957D02*
X208787876Y-60565338D01*
X208787876Y-60565338D02*
X208692638Y-60517719D01*
X208692638Y-60517719D02*
X208502162Y-60517719D01*
X208502162Y-60517719D02*
X208406924Y-60565338D01*
X208406924Y-60565338D02*
X208359305Y-60612957D01*
X208359305Y-60612957D02*
X208311686Y-60708195D01*
X208311686Y-60708195D02*
X208311686Y-60946290D01*
X208311686Y-60946290D02*
X208359305Y-61041528D01*
X208359305Y-61041528D02*
X208406924Y-61089147D01*
X208406924Y-61089147D02*
X208502162Y-61136766D01*
X208502162Y-61136766D02*
X208692638Y-61136766D01*
X208692638Y-61136766D02*
X208787876Y-61089147D01*
X208787876Y-61089147D02*
X208835495Y-61041528D01*
X208835495Y-61041528D02*
X208883114Y-60946290D01*
X203427333Y-76055157D02*
X203094000Y-75578966D01*
X202855905Y-76055157D02*
X202855905Y-75055157D01*
X202855905Y-75055157D02*
X203236857Y-75055157D01*
X203236857Y-75055157D02*
X203332095Y-75102776D01*
X203332095Y-75102776D02*
X203379714Y-75150395D01*
X203379714Y-75150395D02*
X203427333Y-75245633D01*
X203427333Y-75245633D02*
X203427333Y-75388490D01*
X203427333Y-75388490D02*
X203379714Y-75483728D01*
X203379714Y-75483728D02*
X203332095Y-75531347D01*
X203332095Y-75531347D02*
X203236857Y-75578966D01*
X203236857Y-75578966D02*
X202855905Y-75578966D01*
X203903524Y-76055157D02*
X204094000Y-76055157D01*
X204094000Y-76055157D02*
X204189238Y-76007538D01*
X204189238Y-76007538D02*
X204236857Y-75959918D01*
X204236857Y-75959918D02*
X204332095Y-75817061D01*
X204332095Y-75817061D02*
X204379714Y-75626585D01*
X204379714Y-75626585D02*
X204379714Y-75245633D01*
X204379714Y-75245633D02*
X204332095Y-75150395D01*
X204332095Y-75150395D02*
X204284476Y-75102776D01*
X204284476Y-75102776D02*
X204189238Y-75055157D01*
X204189238Y-75055157D02*
X203998762Y-75055157D01*
X203998762Y-75055157D02*
X203903524Y-75102776D01*
X203903524Y-75102776D02*
X203855905Y-75150395D01*
X203855905Y-75150395D02*
X203808286Y-75245633D01*
X203808286Y-75245633D02*
X203808286Y-75483728D01*
X203808286Y-75483728D02*
X203855905Y-75578966D01*
X203855905Y-75578966D02*
X203903524Y-75626585D01*
X203903524Y-75626585D02*
X203998762Y-75674204D01*
X203998762Y-75674204D02*
X204189238Y-75674204D01*
X204189238Y-75674204D02*
X204284476Y-75626585D01*
X204284476Y-75626585D02*
X204332095Y-75578966D01*
X204332095Y-75578966D02*
X204379714Y-75483728D01*
X182054819Y-73033333D02*
X182769104Y-73033333D01*
X182769104Y-73033333D02*
X182911961Y-73080952D01*
X182911961Y-73080952D02*
X183007200Y-73176190D01*
X183007200Y-73176190D02*
X183054819Y-73319047D01*
X183054819Y-73319047D02*
X183054819Y-73414285D01*
X182054819Y-72652380D02*
X182054819Y-71985714D01*
X182054819Y-71985714D02*
X183054819Y-72414285D01*
X182088095Y-55504819D02*
X182088095Y-56314342D01*
X182088095Y-56314342D02*
X182135714Y-56409580D01*
X182135714Y-56409580D02*
X182183333Y-56457200D01*
X182183333Y-56457200D02*
X182278571Y-56504819D01*
X182278571Y-56504819D02*
X182469047Y-56504819D01*
X182469047Y-56504819D02*
X182564285Y-56457200D01*
X182564285Y-56457200D02*
X182611904Y-56409580D01*
X182611904Y-56409580D02*
X182659523Y-56314342D01*
X182659523Y-56314342D02*
X182659523Y-55504819D01*
X183564285Y-55838152D02*
X183564285Y-56504819D01*
X183326190Y-55457200D02*
X183088095Y-56171485D01*
X183088095Y-56171485D02*
X183707142Y-56171485D01*
X207261905Y-76003419D02*
X207261905Y-75003419D01*
X207261905Y-75003419D02*
X207500000Y-75003419D01*
X207500000Y-75003419D02*
X207642857Y-75051038D01*
X207642857Y-75051038D02*
X207738095Y-75146276D01*
X207738095Y-75146276D02*
X207785714Y-75241514D01*
X207785714Y-75241514D02*
X207833333Y-75431990D01*
X207833333Y-75431990D02*
X207833333Y-75574847D01*
X207833333Y-75574847D02*
X207785714Y-75765323D01*
X207785714Y-75765323D02*
X207738095Y-75860561D01*
X207738095Y-75860561D02*
X207642857Y-75955800D01*
X207642857Y-75955800D02*
X207500000Y-76003419D01*
X207500000Y-76003419D02*
X207261905Y-76003419D01*
X208738095Y-75003419D02*
X208261905Y-75003419D01*
X208261905Y-75003419D02*
X208214286Y-75479609D01*
X208214286Y-75479609D02*
X208261905Y-75431990D01*
X208261905Y-75431990D02*
X208357143Y-75384371D01*
X208357143Y-75384371D02*
X208595238Y-75384371D01*
X208595238Y-75384371D02*
X208690476Y-75431990D01*
X208690476Y-75431990D02*
X208738095Y-75479609D01*
X208738095Y-75479609D02*
X208785714Y-75574847D01*
X208785714Y-75574847D02*
X208785714Y-75812942D01*
X208785714Y-75812942D02*
X208738095Y-75908180D01*
X208738095Y-75908180D02*
X208690476Y-75955800D01*
X208690476Y-75955800D02*
X208595238Y-76003419D01*
X208595238Y-76003419D02*
X208357143Y-76003419D01*
X208357143Y-76003419D02*
X208261905Y-75955800D01*
X208261905Y-75955800D02*
X208214286Y-75908180D01*
X176359580Y-64116666D02*
X176407200Y-64164285D01*
X176407200Y-64164285D02*
X176454819Y-64307142D01*
X176454819Y-64307142D02*
X176454819Y-64402380D01*
X176454819Y-64402380D02*
X176407200Y-64545237D01*
X176407200Y-64545237D02*
X176311961Y-64640475D01*
X176311961Y-64640475D02*
X176216723Y-64688094D01*
X176216723Y-64688094D02*
X176026247Y-64735713D01*
X176026247Y-64735713D02*
X175883390Y-64735713D01*
X175883390Y-64735713D02*
X175692914Y-64688094D01*
X175692914Y-64688094D02*
X175597676Y-64640475D01*
X175597676Y-64640475D02*
X175502438Y-64545237D01*
X175502438Y-64545237D02*
X175454819Y-64402380D01*
X175454819Y-64402380D02*
X175454819Y-64307142D01*
X175454819Y-64307142D02*
X175502438Y-64164285D01*
X175502438Y-64164285D02*
X175550057Y-64116666D01*
X176454819Y-63164285D02*
X176454819Y-63735713D01*
X176454819Y-63449999D02*
X175454819Y-63449999D01*
X175454819Y-63449999D02*
X175597676Y-63545237D01*
X175597676Y-63545237D02*
X175692914Y-63640475D01*
X175692914Y-63640475D02*
X175740533Y-63735713D01*
X146566667Y-66707200D02*
X146709524Y-66754819D01*
X146709524Y-66754819D02*
X146947619Y-66754819D01*
X146947619Y-66754819D02*
X147042857Y-66707200D01*
X147042857Y-66707200D02*
X147090476Y-66659580D01*
X147090476Y-66659580D02*
X147138095Y-66564342D01*
X147138095Y-66564342D02*
X147138095Y-66469104D01*
X147138095Y-66469104D02*
X147090476Y-66373866D01*
X147090476Y-66373866D02*
X147042857Y-66326247D01*
X147042857Y-66326247D02*
X146947619Y-66278628D01*
X146947619Y-66278628D02*
X146757143Y-66231009D01*
X146757143Y-66231009D02*
X146661905Y-66183390D01*
X146661905Y-66183390D02*
X146614286Y-66135771D01*
X146614286Y-66135771D02*
X146566667Y-66040533D01*
X146566667Y-66040533D02*
X146566667Y-65945295D01*
X146566667Y-65945295D02*
X146614286Y-65850057D01*
X146614286Y-65850057D02*
X146661905Y-65802438D01*
X146661905Y-65802438D02*
X146757143Y-65754819D01*
X146757143Y-65754819D02*
X146995238Y-65754819D01*
X146995238Y-65754819D02*
X147138095Y-65802438D01*
X147471429Y-65754819D02*
X147709524Y-66754819D01*
X147709524Y-66754819D02*
X147900000Y-66040533D01*
X147900000Y-66040533D02*
X148090476Y-66754819D01*
X148090476Y-66754819D02*
X148328572Y-65754819D01*
X149233333Y-66754819D02*
X148661905Y-66754819D01*
X148947619Y-66754819D02*
X148947619Y-65754819D01*
X148947619Y-65754819D02*
X148852381Y-65897676D01*
X148852381Y-65897676D02*
X148757143Y-65992914D01*
X148757143Y-65992914D02*
X148661905Y-66040533D01*
X203048542Y-61569457D02*
X202715209Y-61093266D01*
X202477114Y-61569457D02*
X202477114Y-60569457D01*
X202477114Y-60569457D02*
X202858066Y-60569457D01*
X202858066Y-60569457D02*
X202953304Y-60617076D01*
X202953304Y-60617076D02*
X203000923Y-60664695D01*
X203000923Y-60664695D02*
X203048542Y-60759933D01*
X203048542Y-60759933D02*
X203048542Y-60902790D01*
X203048542Y-60902790D02*
X203000923Y-60998028D01*
X203000923Y-60998028D02*
X202953304Y-61045647D01*
X202953304Y-61045647D02*
X202858066Y-61093266D01*
X202858066Y-61093266D02*
X202477114Y-61093266D01*
X204000923Y-61569457D02*
X203429495Y-61569457D01*
X203715209Y-61569457D02*
X203715209Y-60569457D01*
X203715209Y-60569457D02*
X203619971Y-60712314D01*
X203619971Y-60712314D02*
X203524733Y-60807552D01*
X203524733Y-60807552D02*
X203429495Y-60855171D01*
X204334257Y-60569457D02*
X204953304Y-60569457D01*
X204953304Y-60569457D02*
X204619971Y-60950409D01*
X204619971Y-60950409D02*
X204762828Y-60950409D01*
X204762828Y-60950409D02*
X204858066Y-60998028D01*
X204858066Y-60998028D02*
X204905685Y-61045647D01*
X204905685Y-61045647D02*
X204953304Y-61140885D01*
X204953304Y-61140885D02*
X204953304Y-61378980D01*
X204953304Y-61378980D02*
X204905685Y-61474218D01*
X204905685Y-61474218D02*
X204858066Y-61521838D01*
X204858066Y-61521838D02*
X204762828Y-61569457D01*
X204762828Y-61569457D02*
X204477114Y-61569457D01*
X204477114Y-61569457D02*
X204381876Y-61521838D01*
X204381876Y-61521838D02*
X204334257Y-61474218D01*
X160933666Y-98064819D02*
X160933666Y-98779104D01*
X160933666Y-98779104D02*
X160886047Y-98921961D01*
X160886047Y-98921961D02*
X160790809Y-99017200D01*
X160790809Y-99017200D02*
X160647952Y-99064819D01*
X160647952Y-99064819D02*
X160552714Y-99064819D01*
X161362238Y-98160057D02*
X161409857Y-98112438D01*
X161409857Y-98112438D02*
X161505095Y-98064819D01*
X161505095Y-98064819D02*
X161743190Y-98064819D01*
X161743190Y-98064819D02*
X161838428Y-98112438D01*
X161838428Y-98112438D02*
X161886047Y-98160057D01*
X161886047Y-98160057D02*
X161933666Y-98255295D01*
X161933666Y-98255295D02*
X161933666Y-98350533D01*
X161933666Y-98350533D02*
X161886047Y-98493390D01*
X161886047Y-98493390D02*
X161314619Y-99064819D01*
X161314619Y-99064819D02*
X161933666Y-99064819D01*
X148106666Y-98064819D02*
X148106666Y-98779104D01*
X148106666Y-98779104D02*
X148059047Y-98921961D01*
X148059047Y-98921961D02*
X147963809Y-99017200D01*
X147963809Y-99017200D02*
X147820952Y-99064819D01*
X147820952Y-99064819D02*
X147725714Y-99064819D01*
X149011428Y-98398152D02*
X149011428Y-99064819D01*
X148773333Y-98017200D02*
X148535238Y-98731485D01*
X148535238Y-98731485D02*
X149154285Y-98731485D01*
X195758333Y-61474819D02*
X195425000Y-60998628D01*
X195186905Y-61474819D02*
X195186905Y-60474819D01*
X195186905Y-60474819D02*
X195567857Y-60474819D01*
X195567857Y-60474819D02*
X195663095Y-60522438D01*
X195663095Y-60522438D02*
X195710714Y-60570057D01*
X195710714Y-60570057D02*
X195758333Y-60665295D01*
X195758333Y-60665295D02*
X195758333Y-60808152D01*
X195758333Y-60808152D02*
X195710714Y-60903390D01*
X195710714Y-60903390D02*
X195663095Y-60951009D01*
X195663095Y-60951009D02*
X195567857Y-60998628D01*
X195567857Y-60998628D02*
X195186905Y-60998628D01*
X196663095Y-60474819D02*
X196186905Y-60474819D01*
X196186905Y-60474819D02*
X196139286Y-60951009D01*
X196139286Y-60951009D02*
X196186905Y-60903390D01*
X196186905Y-60903390D02*
X196282143Y-60855771D01*
X196282143Y-60855771D02*
X196520238Y-60855771D01*
X196520238Y-60855771D02*
X196615476Y-60903390D01*
X196615476Y-60903390D02*
X196663095Y-60951009D01*
X196663095Y-60951009D02*
X196710714Y-61046247D01*
X196710714Y-61046247D02*
X196710714Y-61284342D01*
X196710714Y-61284342D02*
X196663095Y-61379580D01*
X196663095Y-61379580D02*
X196615476Y-61427200D01*
X196615476Y-61427200D02*
X196520238Y-61474819D01*
X196520238Y-61474819D02*
X196282143Y-61474819D01*
X196282143Y-61474819D02*
X196186905Y-61427200D01*
X196186905Y-61427200D02*
X196139286Y-61379580D01*
X179007142Y-54874819D02*
X178673809Y-54398628D01*
X178435714Y-54874819D02*
X178435714Y-53874819D01*
X178435714Y-53874819D02*
X178816666Y-53874819D01*
X178816666Y-53874819D02*
X178911904Y-53922438D01*
X178911904Y-53922438D02*
X178959523Y-53970057D01*
X178959523Y-53970057D02*
X179007142Y-54065295D01*
X179007142Y-54065295D02*
X179007142Y-54208152D01*
X179007142Y-54208152D02*
X178959523Y-54303390D01*
X178959523Y-54303390D02*
X178911904Y-54351009D01*
X178911904Y-54351009D02*
X178816666Y-54398628D01*
X178816666Y-54398628D02*
X178435714Y-54398628D01*
X179388095Y-53970057D02*
X179435714Y-53922438D01*
X179435714Y-53922438D02*
X179530952Y-53874819D01*
X179530952Y-53874819D02*
X179769047Y-53874819D01*
X179769047Y-53874819D02*
X179864285Y-53922438D01*
X179864285Y-53922438D02*
X179911904Y-53970057D01*
X179911904Y-53970057D02*
X179959523Y-54065295D01*
X179959523Y-54065295D02*
X179959523Y-54160533D01*
X179959523Y-54160533D02*
X179911904Y-54303390D01*
X179911904Y-54303390D02*
X179340476Y-54874819D01*
X179340476Y-54874819D02*
X179959523Y-54874819D01*
X180292857Y-53874819D02*
X180911904Y-53874819D01*
X180911904Y-53874819D02*
X180578571Y-54255771D01*
X180578571Y-54255771D02*
X180721428Y-54255771D01*
X180721428Y-54255771D02*
X180816666Y-54303390D01*
X180816666Y-54303390D02*
X180864285Y-54351009D01*
X180864285Y-54351009D02*
X180911904Y-54446247D01*
X180911904Y-54446247D02*
X180911904Y-54684342D01*
X180911904Y-54684342D02*
X180864285Y-54779580D01*
X180864285Y-54779580D02*
X180816666Y-54827200D01*
X180816666Y-54827200D02*
X180721428Y-54874819D01*
X180721428Y-54874819D02*
X180435714Y-54874819D01*
X180435714Y-54874819D02*
X180340476Y-54827200D01*
X180340476Y-54827200D02*
X180292857Y-54779580D01*
X195758333Y-58824819D02*
X195425000Y-58348628D01*
X195186905Y-58824819D02*
X195186905Y-57824819D01*
X195186905Y-57824819D02*
X195567857Y-57824819D01*
X195567857Y-57824819D02*
X195663095Y-57872438D01*
X195663095Y-57872438D02*
X195710714Y-57920057D01*
X195710714Y-57920057D02*
X195758333Y-58015295D01*
X195758333Y-58015295D02*
X195758333Y-58158152D01*
X195758333Y-58158152D02*
X195710714Y-58253390D01*
X195710714Y-58253390D02*
X195663095Y-58301009D01*
X195663095Y-58301009D02*
X195567857Y-58348628D01*
X195567857Y-58348628D02*
X195186905Y-58348628D01*
X196615476Y-57824819D02*
X196425000Y-57824819D01*
X196425000Y-57824819D02*
X196329762Y-57872438D01*
X196329762Y-57872438D02*
X196282143Y-57920057D01*
X196282143Y-57920057D02*
X196186905Y-58062914D01*
X196186905Y-58062914D02*
X196139286Y-58253390D01*
X196139286Y-58253390D02*
X196139286Y-58634342D01*
X196139286Y-58634342D02*
X196186905Y-58729580D01*
X196186905Y-58729580D02*
X196234524Y-58777200D01*
X196234524Y-58777200D02*
X196329762Y-58824819D01*
X196329762Y-58824819D02*
X196520238Y-58824819D01*
X196520238Y-58824819D02*
X196615476Y-58777200D01*
X196615476Y-58777200D02*
X196663095Y-58729580D01*
X196663095Y-58729580D02*
X196710714Y-58634342D01*
X196710714Y-58634342D02*
X196710714Y-58396247D01*
X196710714Y-58396247D02*
X196663095Y-58301009D01*
X196663095Y-58301009D02*
X196615476Y-58253390D01*
X196615476Y-58253390D02*
X196520238Y-58205771D01*
X196520238Y-58205771D02*
X196329762Y-58205771D01*
X196329762Y-58205771D02*
X196234524Y-58253390D01*
X196234524Y-58253390D02*
X196186905Y-58301009D01*
X196186905Y-58301009D02*
X196139286Y-58396247D01*
X203048542Y-68812257D02*
X202715209Y-68336066D01*
X202477114Y-68812257D02*
X202477114Y-67812257D01*
X202477114Y-67812257D02*
X202858066Y-67812257D01*
X202858066Y-67812257D02*
X202953304Y-67859876D01*
X202953304Y-67859876D02*
X203000923Y-67907495D01*
X203000923Y-67907495D02*
X203048542Y-68002733D01*
X203048542Y-68002733D02*
X203048542Y-68145590D01*
X203048542Y-68145590D02*
X203000923Y-68240828D01*
X203000923Y-68240828D02*
X202953304Y-68288447D01*
X202953304Y-68288447D02*
X202858066Y-68336066D01*
X202858066Y-68336066D02*
X202477114Y-68336066D01*
X204000923Y-68812257D02*
X203429495Y-68812257D01*
X203715209Y-68812257D02*
X203715209Y-67812257D01*
X203715209Y-67812257D02*
X203619971Y-67955114D01*
X203619971Y-67955114D02*
X203524733Y-68050352D01*
X203524733Y-68050352D02*
X203429495Y-68097971D01*
X204953304Y-68812257D02*
X204381876Y-68812257D01*
X204667590Y-68812257D02*
X204667590Y-67812257D01*
X204667590Y-67812257D02*
X204572352Y-67955114D01*
X204572352Y-67955114D02*
X204477114Y-68050352D01*
X204477114Y-68050352D02*
X204381876Y-68097971D01*
X203048542Y-65190857D02*
X202715209Y-64714666D01*
X202477114Y-65190857D02*
X202477114Y-64190857D01*
X202477114Y-64190857D02*
X202858066Y-64190857D01*
X202858066Y-64190857D02*
X202953304Y-64238476D01*
X202953304Y-64238476D02*
X203000923Y-64286095D01*
X203000923Y-64286095D02*
X203048542Y-64381333D01*
X203048542Y-64381333D02*
X203048542Y-64524190D01*
X203048542Y-64524190D02*
X203000923Y-64619428D01*
X203000923Y-64619428D02*
X202953304Y-64667047D01*
X202953304Y-64667047D02*
X202858066Y-64714666D01*
X202858066Y-64714666D02*
X202477114Y-64714666D01*
X204000923Y-65190857D02*
X203429495Y-65190857D01*
X203715209Y-65190857D02*
X203715209Y-64190857D01*
X203715209Y-64190857D02*
X203619971Y-64333714D01*
X203619971Y-64333714D02*
X203524733Y-64428952D01*
X203524733Y-64428952D02*
X203429495Y-64476571D01*
X204381876Y-64286095D02*
X204429495Y-64238476D01*
X204429495Y-64238476D02*
X204524733Y-64190857D01*
X204524733Y-64190857D02*
X204762828Y-64190857D01*
X204762828Y-64190857D02*
X204858066Y-64238476D01*
X204858066Y-64238476D02*
X204905685Y-64286095D01*
X204905685Y-64286095D02*
X204953304Y-64381333D01*
X204953304Y-64381333D02*
X204953304Y-64476571D01*
X204953304Y-64476571D02*
X204905685Y-64619428D01*
X204905685Y-64619428D02*
X204334257Y-65190857D01*
X204334257Y-65190857D02*
X204953304Y-65190857D01*
D10*
X164557419Y-63245904D02*
X165366942Y-63245904D01*
X165366942Y-63245904D02*
X165462180Y-63198285D01*
X165462180Y-63198285D02*
X165509800Y-63150666D01*
X165509800Y-63150666D02*
X165557419Y-63055428D01*
X165557419Y-63055428D02*
X165557419Y-62864952D01*
X165557419Y-62864952D02*
X165509800Y-62769714D01*
X165509800Y-62769714D02*
X165462180Y-62722095D01*
X165462180Y-62722095D02*
X165366942Y-62674476D01*
X165366942Y-62674476D02*
X164557419Y-62674476D01*
X165557419Y-61674476D02*
X165557419Y-62245904D01*
X165557419Y-61960190D02*
X164557419Y-61960190D01*
X164557419Y-61960190D02*
X164700276Y-62055428D01*
X164700276Y-62055428D02*
X164795514Y-62150666D01*
X164795514Y-62150666D02*
X164843133Y-62245904D01*
X166591704Y-68577734D02*
X166591704Y-68101544D01*
X166877419Y-68672972D02*
X165877419Y-68339639D01*
X165877419Y-68339639D02*
X166877419Y-68006306D01*
X165877419Y-67482496D02*
X165877419Y-67292020D01*
X165877419Y-67292020D02*
X165925038Y-67196782D01*
X165925038Y-67196782D02*
X166020276Y-67101544D01*
X166020276Y-67101544D02*
X166210752Y-67053925D01*
X166210752Y-67053925D02*
X166544085Y-67053925D01*
X166544085Y-67053925D02*
X166734561Y-67101544D01*
X166734561Y-67101544D02*
X166829800Y-67196782D01*
X166829800Y-67196782D02*
X166877419Y-67292020D01*
X166877419Y-67292020D02*
X166877419Y-67482496D01*
X166877419Y-67482496D02*
X166829800Y-67577734D01*
X166829800Y-67577734D02*
X166734561Y-67672972D01*
X166734561Y-67672972D02*
X166544085Y-67720591D01*
X166544085Y-67720591D02*
X166210752Y-67720591D01*
X166210752Y-67720591D02*
X166020276Y-67672972D01*
X166020276Y-67672972D02*
X165925038Y-67577734D01*
X165925038Y-67577734D02*
X165877419Y-67482496D01*
X165972657Y-66672972D02*
X165925038Y-66625353D01*
X165925038Y-66625353D02*
X165877419Y-66530115D01*
X165877419Y-66530115D02*
X165877419Y-66292020D01*
X165877419Y-66292020D02*
X165925038Y-66196782D01*
X165925038Y-66196782D02*
X165972657Y-66149163D01*
X165972657Y-66149163D02*
X166067895Y-66101544D01*
X166067895Y-66101544D02*
X166163133Y-66101544D01*
X166163133Y-66101544D02*
X166305990Y-66149163D01*
X166305990Y-66149163D02*
X166877419Y-66720591D01*
X166877419Y-66720591D02*
X166877419Y-66101544D01*
X155717419Y-68672972D02*
X156717419Y-68339639D01*
X156717419Y-68339639D02*
X155717419Y-68006306D01*
X156717419Y-67672972D02*
X155717419Y-67672972D01*
X155717419Y-67672972D02*
X156431704Y-67339639D01*
X156431704Y-67339639D02*
X155717419Y-67006306D01*
X155717419Y-67006306D02*
X156717419Y-67006306D01*
X156717419Y-60104550D02*
X155717419Y-60104550D01*
X155717419Y-60104550D02*
X155717419Y-59723598D01*
X155717419Y-59723598D02*
X155765038Y-59628360D01*
X155765038Y-59628360D02*
X155812657Y-59580741D01*
X155812657Y-59580741D02*
X155907895Y-59533122D01*
X155907895Y-59533122D02*
X156050752Y-59533122D01*
X156050752Y-59533122D02*
X156145990Y-59580741D01*
X156145990Y-59580741D02*
X156193609Y-59628360D01*
X156193609Y-59628360D02*
X156241228Y-59723598D01*
X156241228Y-59723598D02*
X156241228Y-60104550D01*
X155717419Y-59199788D02*
X156717419Y-58961693D01*
X156717419Y-58961693D02*
X156003133Y-58771217D01*
X156003133Y-58771217D02*
X156717419Y-58580741D01*
X156717419Y-58580741D02*
X155717419Y-58342646D01*
X156717419Y-57961693D02*
X155717419Y-57961693D01*
X155717419Y-57961693D02*
X156431704Y-57628360D01*
X156431704Y-57628360D02*
X155717419Y-57295027D01*
X155717419Y-57295027D02*
X156717419Y-57295027D01*
X156431704Y-56866455D02*
X156431704Y-56390265D01*
X156717419Y-56961693D02*
X155717419Y-56628360D01*
X155717419Y-56628360D02*
X156717419Y-56295027D01*
X158257419Y-68672972D02*
X159257419Y-68339639D01*
X159257419Y-68339639D02*
X158257419Y-68006306D01*
X159162180Y-67101544D02*
X159209800Y-67149163D01*
X159209800Y-67149163D02*
X159257419Y-67292020D01*
X159257419Y-67292020D02*
X159257419Y-67387258D01*
X159257419Y-67387258D02*
X159209800Y-67530115D01*
X159209800Y-67530115D02*
X159114561Y-67625353D01*
X159114561Y-67625353D02*
X159019323Y-67672972D01*
X159019323Y-67672972D02*
X158828847Y-67720591D01*
X158828847Y-67720591D02*
X158685990Y-67720591D01*
X158685990Y-67720591D02*
X158495514Y-67672972D01*
X158495514Y-67672972D02*
X158400276Y-67625353D01*
X158400276Y-67625353D02*
X158305038Y-67530115D01*
X158305038Y-67530115D02*
X158257419Y-67387258D01*
X158257419Y-67387258D02*
X158257419Y-67292020D01*
X158257419Y-67292020D02*
X158305038Y-67149163D01*
X158305038Y-67149163D02*
X158352657Y-67101544D01*
X159162180Y-66101544D02*
X159209800Y-66149163D01*
X159209800Y-66149163D02*
X159257419Y-66292020D01*
X159257419Y-66292020D02*
X159257419Y-66387258D01*
X159257419Y-66387258D02*
X159209800Y-66530115D01*
X159209800Y-66530115D02*
X159114561Y-66625353D01*
X159114561Y-66625353D02*
X159019323Y-66672972D01*
X159019323Y-66672972D02*
X158828847Y-66720591D01*
X158828847Y-66720591D02*
X158685990Y-66720591D01*
X158685990Y-66720591D02*
X158495514Y-66672972D01*
X158495514Y-66672972D02*
X158400276Y-66625353D01*
X158400276Y-66625353D02*
X158305038Y-66530115D01*
X158305038Y-66530115D02*
X158257419Y-66387258D01*
X158257419Y-66387258D02*
X158257419Y-66292020D01*
X158257419Y-66292020D02*
X158305038Y-66149163D01*
X158305038Y-66149163D02*
X158352657Y-66101544D01*
X171957419Y-60247407D02*
X170957419Y-60247407D01*
X170957419Y-60247407D02*
X170957419Y-59866455D01*
X170957419Y-59866455D02*
X171005038Y-59771217D01*
X171005038Y-59771217D02*
X171052657Y-59723598D01*
X171052657Y-59723598D02*
X171147895Y-59675979D01*
X171147895Y-59675979D02*
X171290752Y-59675979D01*
X171290752Y-59675979D02*
X171385990Y-59723598D01*
X171385990Y-59723598D02*
X171433609Y-59771217D01*
X171433609Y-59771217D02*
X171481228Y-59866455D01*
X171481228Y-59866455D02*
X171481228Y-60247407D01*
X170957419Y-59342645D02*
X171957419Y-59104550D01*
X171957419Y-59104550D02*
X171243133Y-58914074D01*
X171243133Y-58914074D02*
X171957419Y-58723598D01*
X171957419Y-58723598D02*
X170957419Y-58485503D01*
X171957419Y-58104550D02*
X170957419Y-58104550D01*
X170957419Y-58104550D02*
X171671704Y-57771217D01*
X171671704Y-57771217D02*
X170957419Y-57437884D01*
X170957419Y-57437884D02*
X171957419Y-57437884D01*
X171433609Y-56628360D02*
X171481228Y-56485503D01*
X171481228Y-56485503D02*
X171528847Y-56437884D01*
X171528847Y-56437884D02*
X171624085Y-56390265D01*
X171624085Y-56390265D02*
X171766942Y-56390265D01*
X171766942Y-56390265D02*
X171862180Y-56437884D01*
X171862180Y-56437884D02*
X171909800Y-56485503D01*
X171909800Y-56485503D02*
X171957419Y-56580741D01*
X171957419Y-56580741D02*
X171957419Y-56961693D01*
X171957419Y-56961693D02*
X170957419Y-56961693D01*
X170957419Y-56961693D02*
X170957419Y-56628360D01*
X170957419Y-56628360D02*
X171005038Y-56533122D01*
X171005038Y-56533122D02*
X171052657Y-56485503D01*
X171052657Y-56485503D02*
X171147895Y-56437884D01*
X171147895Y-56437884D02*
X171243133Y-56437884D01*
X171243133Y-56437884D02*
X171338371Y-56485503D01*
X171338371Y-56485503D02*
X171385990Y-56533122D01*
X171385990Y-56533122D02*
X171433609Y-56628360D01*
X171433609Y-56628360D02*
X171433609Y-56961693D01*
X173545038Y-58485503D02*
X173497419Y-58580741D01*
X173497419Y-58580741D02*
X173497419Y-58723598D01*
X173497419Y-58723598D02*
X173545038Y-58866455D01*
X173545038Y-58866455D02*
X173640276Y-58961693D01*
X173640276Y-58961693D02*
X173735514Y-59009312D01*
X173735514Y-59009312D02*
X173925990Y-59056931D01*
X173925990Y-59056931D02*
X174068847Y-59056931D01*
X174068847Y-59056931D02*
X174259323Y-59009312D01*
X174259323Y-59009312D02*
X174354561Y-58961693D01*
X174354561Y-58961693D02*
X174449800Y-58866455D01*
X174449800Y-58866455D02*
X174497419Y-58723598D01*
X174497419Y-58723598D02*
X174497419Y-58628360D01*
X174497419Y-58628360D02*
X174449800Y-58485503D01*
X174449800Y-58485503D02*
X174402180Y-58437884D01*
X174402180Y-58437884D02*
X174068847Y-58437884D01*
X174068847Y-58437884D02*
X174068847Y-58628360D01*
X174497419Y-58009312D02*
X173497419Y-58009312D01*
X173497419Y-58009312D02*
X174497419Y-57437884D01*
X174497419Y-57437884D02*
X173497419Y-57437884D01*
X174497419Y-56961693D02*
X173497419Y-56961693D01*
X173497419Y-56961693D02*
X173497419Y-56723598D01*
X173497419Y-56723598D02*
X173545038Y-56580741D01*
X173545038Y-56580741D02*
X173640276Y-56485503D01*
X173640276Y-56485503D02*
X173735514Y-56437884D01*
X173735514Y-56437884D02*
X173925990Y-56390265D01*
X173925990Y-56390265D02*
X174068847Y-56390265D01*
X174068847Y-56390265D02*
X174259323Y-56437884D01*
X174259323Y-56437884D02*
X174354561Y-56485503D01*
X174354561Y-56485503D02*
X174449800Y-56580741D01*
X174449800Y-56580741D02*
X174497419Y-56723598D01*
X174497419Y-56723598D02*
X174497419Y-56961693D01*
X173545038Y-68006306D02*
X173497419Y-68101544D01*
X173497419Y-68101544D02*
X173497419Y-68244401D01*
X173497419Y-68244401D02*
X173545038Y-68387258D01*
X173545038Y-68387258D02*
X173640276Y-68482496D01*
X173640276Y-68482496D02*
X173735514Y-68530115D01*
X173735514Y-68530115D02*
X173925990Y-68577734D01*
X173925990Y-68577734D02*
X174068847Y-68577734D01*
X174068847Y-68577734D02*
X174259323Y-68530115D01*
X174259323Y-68530115D02*
X174354561Y-68482496D01*
X174354561Y-68482496D02*
X174449800Y-68387258D01*
X174449800Y-68387258D02*
X174497419Y-68244401D01*
X174497419Y-68244401D02*
X174497419Y-68149163D01*
X174497419Y-68149163D02*
X174449800Y-68006306D01*
X174449800Y-68006306D02*
X174402180Y-67958687D01*
X174402180Y-67958687D02*
X174068847Y-67958687D01*
X174068847Y-67958687D02*
X174068847Y-68149163D01*
X174497419Y-67530115D02*
X173497419Y-67530115D01*
X173497419Y-67530115D02*
X174497419Y-66958687D01*
X174497419Y-66958687D02*
X173497419Y-66958687D01*
X174497419Y-66482496D02*
X173497419Y-66482496D01*
X173497419Y-66482496D02*
X173497419Y-66244401D01*
X173497419Y-66244401D02*
X173545038Y-66101544D01*
X173545038Y-66101544D02*
X173640276Y-66006306D01*
X173640276Y-66006306D02*
X173735514Y-65958687D01*
X173735514Y-65958687D02*
X173925990Y-65911068D01*
X173925990Y-65911068D02*
X174068847Y-65911068D01*
X174068847Y-65911068D02*
X174259323Y-65958687D01*
X174259323Y-65958687D02*
X174354561Y-66006306D01*
X174354561Y-66006306D02*
X174449800Y-66101544D01*
X174449800Y-66101544D02*
X174497419Y-66244401D01*
X174497419Y-66244401D02*
X174497419Y-66482496D01*
X166353609Y-59104550D02*
X166401228Y-58961693D01*
X166401228Y-58961693D02*
X166448847Y-58914074D01*
X166448847Y-58914074D02*
X166544085Y-58866455D01*
X166544085Y-58866455D02*
X166686942Y-58866455D01*
X166686942Y-58866455D02*
X166782180Y-58914074D01*
X166782180Y-58914074D02*
X166829800Y-58961693D01*
X166829800Y-58961693D02*
X166877419Y-59056931D01*
X166877419Y-59056931D02*
X166877419Y-59437883D01*
X166877419Y-59437883D02*
X165877419Y-59437883D01*
X165877419Y-59437883D02*
X165877419Y-59104550D01*
X165877419Y-59104550D02*
X165925038Y-59009312D01*
X165925038Y-59009312D02*
X165972657Y-58961693D01*
X165972657Y-58961693D02*
X166067895Y-58914074D01*
X166067895Y-58914074D02*
X166163133Y-58914074D01*
X166163133Y-58914074D02*
X166258371Y-58961693D01*
X166258371Y-58961693D02*
X166305990Y-59009312D01*
X166305990Y-59009312D02*
X166353609Y-59104550D01*
X166353609Y-59104550D02*
X166353609Y-59437883D01*
X166877419Y-58437883D02*
X165877419Y-58437883D01*
X166877419Y-57961693D02*
X165877419Y-57961693D01*
X165877419Y-57961693D02*
X166877419Y-57390265D01*
X166877419Y-57390265D02*
X165877419Y-57390265D01*
X166877419Y-56390265D02*
X166877419Y-56961693D01*
X166877419Y-56675979D02*
X165877419Y-56675979D01*
X165877419Y-56675979D02*
X166020276Y-56771217D01*
X166020276Y-56771217D02*
X166115514Y-56866455D01*
X166115514Y-56866455D02*
X166163133Y-56961693D01*
X158971704Y-59342645D02*
X158971704Y-58866455D01*
X159257419Y-59437883D02*
X158257419Y-59104550D01*
X158257419Y-59104550D02*
X159257419Y-58771217D01*
X159257419Y-58437883D02*
X158257419Y-58437883D01*
X159257419Y-57961693D02*
X158257419Y-57961693D01*
X158257419Y-57961693D02*
X159257419Y-57390265D01*
X159257419Y-57390265D02*
X158257419Y-57390265D01*
X158352657Y-56961693D02*
X158305038Y-56914074D01*
X158305038Y-56914074D02*
X158257419Y-56818836D01*
X158257419Y-56818836D02*
X158257419Y-56580741D01*
X158257419Y-56580741D02*
X158305038Y-56485503D01*
X158305038Y-56485503D02*
X158352657Y-56437884D01*
X158352657Y-56437884D02*
X158447895Y-56390265D01*
X158447895Y-56390265D02*
X158543133Y-56390265D01*
X158543133Y-56390265D02*
X158685990Y-56437884D01*
X158685990Y-56437884D02*
X159257419Y-57009312D01*
X159257419Y-57009312D02*
X159257419Y-56390265D01*
X164289800Y-59580741D02*
X164337419Y-59437884D01*
X164337419Y-59437884D02*
X164337419Y-59199789D01*
X164337419Y-59199789D02*
X164289800Y-59104551D01*
X164289800Y-59104551D02*
X164242180Y-59056932D01*
X164242180Y-59056932D02*
X164146942Y-59009313D01*
X164146942Y-59009313D02*
X164051704Y-59009313D01*
X164051704Y-59009313D02*
X163956466Y-59056932D01*
X163956466Y-59056932D02*
X163908847Y-59104551D01*
X163908847Y-59104551D02*
X163861228Y-59199789D01*
X163861228Y-59199789D02*
X163813609Y-59390265D01*
X163813609Y-59390265D02*
X163765990Y-59485503D01*
X163765990Y-59485503D02*
X163718371Y-59533122D01*
X163718371Y-59533122D02*
X163623133Y-59580741D01*
X163623133Y-59580741D02*
X163527895Y-59580741D01*
X163527895Y-59580741D02*
X163432657Y-59533122D01*
X163432657Y-59533122D02*
X163385038Y-59485503D01*
X163385038Y-59485503D02*
X163337419Y-59390265D01*
X163337419Y-59390265D02*
X163337419Y-59152170D01*
X163337419Y-59152170D02*
X163385038Y-59009313D01*
X163337419Y-58723598D02*
X163337419Y-58152170D01*
X164337419Y-58437884D02*
X163337419Y-58437884D01*
X163813609Y-57485503D02*
X163861228Y-57342646D01*
X163861228Y-57342646D02*
X163908847Y-57295027D01*
X163908847Y-57295027D02*
X164004085Y-57247408D01*
X164004085Y-57247408D02*
X164146942Y-57247408D01*
X164146942Y-57247408D02*
X164242180Y-57295027D01*
X164242180Y-57295027D02*
X164289800Y-57342646D01*
X164289800Y-57342646D02*
X164337419Y-57437884D01*
X164337419Y-57437884D02*
X164337419Y-57818836D01*
X164337419Y-57818836D02*
X163337419Y-57818836D01*
X163337419Y-57818836D02*
X163337419Y-57485503D01*
X163337419Y-57485503D02*
X163385038Y-57390265D01*
X163385038Y-57390265D02*
X163432657Y-57342646D01*
X163432657Y-57342646D02*
X163527895Y-57295027D01*
X163527895Y-57295027D02*
X163623133Y-57295027D01*
X163623133Y-57295027D02*
X163718371Y-57342646D01*
X163718371Y-57342646D02*
X163765990Y-57390265D01*
X163765990Y-57390265D02*
X163813609Y-57485503D01*
X163813609Y-57485503D02*
X163813609Y-57818836D01*
X163861228Y-56628360D02*
X164337419Y-56628360D01*
X163337419Y-56961693D02*
X163861228Y-56628360D01*
X163861228Y-56628360D02*
X163337419Y-56295027D01*
X161511704Y-59342645D02*
X161511704Y-58866455D01*
X161797419Y-59437883D02*
X160797419Y-59104550D01*
X160797419Y-59104550D02*
X161797419Y-58771217D01*
X161797419Y-58437883D02*
X160797419Y-58437883D01*
X161797419Y-57961693D02*
X160797419Y-57961693D01*
X160797419Y-57961693D02*
X161797419Y-57390265D01*
X161797419Y-57390265D02*
X160797419Y-57390265D01*
X161797419Y-56390265D02*
X161797419Y-56961693D01*
X161797419Y-56675979D02*
X160797419Y-56675979D01*
X160797419Y-56675979D02*
X160940276Y-56771217D01*
X160940276Y-56771217D02*
X161035514Y-56866455D01*
X161035514Y-56866455D02*
X161083133Y-56961693D01*
X168893609Y-68196782D02*
X168941228Y-68053925D01*
X168941228Y-68053925D02*
X168988847Y-68006306D01*
X168988847Y-68006306D02*
X169084085Y-67958687D01*
X169084085Y-67958687D02*
X169226942Y-67958687D01*
X169226942Y-67958687D02*
X169322180Y-68006306D01*
X169322180Y-68006306D02*
X169369800Y-68053925D01*
X169369800Y-68053925D02*
X169417419Y-68149163D01*
X169417419Y-68149163D02*
X169417419Y-68530115D01*
X169417419Y-68530115D02*
X168417419Y-68530115D01*
X168417419Y-68530115D02*
X168417419Y-68196782D01*
X168417419Y-68196782D02*
X168465038Y-68101544D01*
X168465038Y-68101544D02*
X168512657Y-68053925D01*
X168512657Y-68053925D02*
X168607895Y-68006306D01*
X168607895Y-68006306D02*
X168703133Y-68006306D01*
X168703133Y-68006306D02*
X168798371Y-68053925D01*
X168798371Y-68053925D02*
X168845990Y-68101544D01*
X168845990Y-68101544D02*
X168893609Y-68196782D01*
X168893609Y-68196782D02*
X168893609Y-68530115D01*
X168417419Y-67339639D02*
X168417419Y-67149163D01*
X168417419Y-67149163D02*
X168465038Y-67053925D01*
X168465038Y-67053925D02*
X168560276Y-66958687D01*
X168560276Y-66958687D02*
X168750752Y-66911068D01*
X168750752Y-66911068D02*
X169084085Y-66911068D01*
X169084085Y-66911068D02*
X169274561Y-66958687D01*
X169274561Y-66958687D02*
X169369800Y-67053925D01*
X169369800Y-67053925D02*
X169417419Y-67149163D01*
X169417419Y-67149163D02*
X169417419Y-67339639D01*
X169417419Y-67339639D02*
X169369800Y-67434877D01*
X169369800Y-67434877D02*
X169274561Y-67530115D01*
X169274561Y-67530115D02*
X169084085Y-67577734D01*
X169084085Y-67577734D02*
X168750752Y-67577734D01*
X168750752Y-67577734D02*
X168560276Y-67530115D01*
X168560276Y-67530115D02*
X168465038Y-67434877D01*
X168465038Y-67434877D02*
X168417419Y-67339639D01*
X168512657Y-66530115D02*
X168465038Y-66482496D01*
X168465038Y-66482496D02*
X168417419Y-66387258D01*
X168417419Y-66387258D02*
X168417419Y-66149163D01*
X168417419Y-66149163D02*
X168465038Y-66053925D01*
X168465038Y-66053925D02*
X168512657Y-66006306D01*
X168512657Y-66006306D02*
X168607895Y-65958687D01*
X168607895Y-65958687D02*
X168703133Y-65958687D01*
X168703133Y-65958687D02*
X168845990Y-66006306D01*
X168845990Y-66006306D02*
X169417419Y-66577734D01*
X169417419Y-66577734D02*
X169417419Y-65958687D01*
X171433609Y-68196782D02*
X171481228Y-68053925D01*
X171481228Y-68053925D02*
X171528847Y-68006306D01*
X171528847Y-68006306D02*
X171624085Y-67958687D01*
X171624085Y-67958687D02*
X171766942Y-67958687D01*
X171766942Y-67958687D02*
X171862180Y-68006306D01*
X171862180Y-68006306D02*
X171909800Y-68053925D01*
X171909800Y-68053925D02*
X171957419Y-68149163D01*
X171957419Y-68149163D02*
X171957419Y-68530115D01*
X171957419Y-68530115D02*
X170957419Y-68530115D01*
X170957419Y-68530115D02*
X170957419Y-68196782D01*
X170957419Y-68196782D02*
X171005038Y-68101544D01*
X171005038Y-68101544D02*
X171052657Y-68053925D01*
X171052657Y-68053925D02*
X171147895Y-68006306D01*
X171147895Y-68006306D02*
X171243133Y-68006306D01*
X171243133Y-68006306D02*
X171338371Y-68053925D01*
X171338371Y-68053925D02*
X171385990Y-68101544D01*
X171385990Y-68101544D02*
X171433609Y-68196782D01*
X171433609Y-68196782D02*
X171433609Y-68530115D01*
X170957419Y-67339639D02*
X170957419Y-67149163D01*
X170957419Y-67149163D02*
X171005038Y-67053925D01*
X171005038Y-67053925D02*
X171100276Y-66958687D01*
X171100276Y-66958687D02*
X171290752Y-66911068D01*
X171290752Y-66911068D02*
X171624085Y-66911068D01*
X171624085Y-66911068D02*
X171814561Y-66958687D01*
X171814561Y-66958687D02*
X171909800Y-67053925D01*
X171909800Y-67053925D02*
X171957419Y-67149163D01*
X171957419Y-67149163D02*
X171957419Y-67339639D01*
X171957419Y-67339639D02*
X171909800Y-67434877D01*
X171909800Y-67434877D02*
X171814561Y-67530115D01*
X171814561Y-67530115D02*
X171624085Y-67577734D01*
X171624085Y-67577734D02*
X171290752Y-67577734D01*
X171290752Y-67577734D02*
X171100276Y-67530115D01*
X171100276Y-67530115D02*
X171005038Y-67434877D01*
X171005038Y-67434877D02*
X170957419Y-67339639D01*
X171957419Y-65958687D02*
X171957419Y-66530115D01*
X171957419Y-66244401D02*
X170957419Y-66244401D01*
X170957419Y-66244401D02*
X171100276Y-66339639D01*
X171100276Y-66339639D02*
X171195514Y-66434877D01*
X171195514Y-66434877D02*
X171243133Y-66530115D01*
X160845038Y-68006306D02*
X160797419Y-68101544D01*
X160797419Y-68101544D02*
X160797419Y-68244401D01*
X160797419Y-68244401D02*
X160845038Y-68387258D01*
X160845038Y-68387258D02*
X160940276Y-68482496D01*
X160940276Y-68482496D02*
X161035514Y-68530115D01*
X161035514Y-68530115D02*
X161225990Y-68577734D01*
X161225990Y-68577734D02*
X161368847Y-68577734D01*
X161368847Y-68577734D02*
X161559323Y-68530115D01*
X161559323Y-68530115D02*
X161654561Y-68482496D01*
X161654561Y-68482496D02*
X161749800Y-68387258D01*
X161749800Y-68387258D02*
X161797419Y-68244401D01*
X161797419Y-68244401D02*
X161797419Y-68149163D01*
X161797419Y-68149163D02*
X161749800Y-68006306D01*
X161749800Y-68006306D02*
X161702180Y-67958687D01*
X161702180Y-67958687D02*
X161368847Y-67958687D01*
X161368847Y-67958687D02*
X161368847Y-68149163D01*
X161797419Y-67530115D02*
X160797419Y-67530115D01*
X160797419Y-67530115D02*
X161797419Y-66958687D01*
X161797419Y-66958687D02*
X160797419Y-66958687D01*
X161797419Y-66482496D02*
X160797419Y-66482496D01*
X160797419Y-66482496D02*
X160797419Y-66244401D01*
X160797419Y-66244401D02*
X160845038Y-66101544D01*
X160845038Y-66101544D02*
X160940276Y-66006306D01*
X160940276Y-66006306D02*
X161035514Y-65958687D01*
X161035514Y-65958687D02*
X161225990Y-65911068D01*
X161225990Y-65911068D02*
X161368847Y-65911068D01*
X161368847Y-65911068D02*
X161559323Y-65958687D01*
X161559323Y-65958687D02*
X161654561Y-66006306D01*
X161654561Y-66006306D02*
X161749800Y-66101544D01*
X161749800Y-66101544D02*
X161797419Y-66244401D01*
X161797419Y-66244401D02*
X161797419Y-66482496D01*
X164051704Y-68577734D02*
X164051704Y-68101544D01*
X164337419Y-68672972D02*
X163337419Y-68339639D01*
X163337419Y-68339639D02*
X164337419Y-68006306D01*
X163337419Y-67482496D02*
X163337419Y-67292020D01*
X163337419Y-67292020D02*
X163385038Y-67196782D01*
X163385038Y-67196782D02*
X163480276Y-67101544D01*
X163480276Y-67101544D02*
X163670752Y-67053925D01*
X163670752Y-67053925D02*
X164004085Y-67053925D01*
X164004085Y-67053925D02*
X164194561Y-67101544D01*
X164194561Y-67101544D02*
X164289800Y-67196782D01*
X164289800Y-67196782D02*
X164337419Y-67292020D01*
X164337419Y-67292020D02*
X164337419Y-67482496D01*
X164337419Y-67482496D02*
X164289800Y-67577734D01*
X164289800Y-67577734D02*
X164194561Y-67672972D01*
X164194561Y-67672972D02*
X164004085Y-67720591D01*
X164004085Y-67720591D02*
X163670752Y-67720591D01*
X163670752Y-67720591D02*
X163480276Y-67672972D01*
X163480276Y-67672972D02*
X163385038Y-67577734D01*
X163385038Y-67577734D02*
X163337419Y-67482496D01*
X164337419Y-66101544D02*
X164337419Y-66672972D01*
X164337419Y-66387258D02*
X163337419Y-66387258D01*
X163337419Y-66387258D02*
X163480276Y-66482496D01*
X163480276Y-66482496D02*
X163575514Y-66577734D01*
X163575514Y-66577734D02*
X163623133Y-66672972D01*
X168893609Y-59104550D02*
X168941228Y-58961693D01*
X168941228Y-58961693D02*
X168988847Y-58914074D01*
X168988847Y-58914074D02*
X169084085Y-58866455D01*
X169084085Y-58866455D02*
X169226942Y-58866455D01*
X169226942Y-58866455D02*
X169322180Y-58914074D01*
X169322180Y-58914074D02*
X169369800Y-58961693D01*
X169369800Y-58961693D02*
X169417419Y-59056931D01*
X169417419Y-59056931D02*
X169417419Y-59437883D01*
X169417419Y-59437883D02*
X168417419Y-59437883D01*
X168417419Y-59437883D02*
X168417419Y-59104550D01*
X168417419Y-59104550D02*
X168465038Y-59009312D01*
X168465038Y-59009312D02*
X168512657Y-58961693D01*
X168512657Y-58961693D02*
X168607895Y-58914074D01*
X168607895Y-58914074D02*
X168703133Y-58914074D01*
X168703133Y-58914074D02*
X168798371Y-58961693D01*
X168798371Y-58961693D02*
X168845990Y-59009312D01*
X168845990Y-59009312D02*
X168893609Y-59104550D01*
X168893609Y-59104550D02*
X168893609Y-59437883D01*
X169417419Y-58437883D02*
X168417419Y-58437883D01*
X169417419Y-57961693D02*
X168417419Y-57961693D01*
X168417419Y-57961693D02*
X169417419Y-57390265D01*
X169417419Y-57390265D02*
X168417419Y-57390265D01*
X168512657Y-56961693D02*
X168465038Y-56914074D01*
X168465038Y-56914074D02*
X168417419Y-56818836D01*
X168417419Y-56818836D02*
X168417419Y-56580741D01*
X168417419Y-56580741D02*
X168465038Y-56485503D01*
X168465038Y-56485503D02*
X168512657Y-56437884D01*
X168512657Y-56437884D02*
X168607895Y-56390265D01*
X168607895Y-56390265D02*
X168703133Y-56390265D01*
X168703133Y-56390265D02*
X168845990Y-56437884D01*
X168845990Y-56437884D02*
X169417419Y-57009312D01*
X169417419Y-57009312D02*
X169417419Y-56390265D01*
D11*
X197838714Y-61579819D02*
X197838714Y-60579819D01*
X197838714Y-60579819D02*
X198076809Y-60579819D01*
X198076809Y-60579819D02*
X198219666Y-60627438D01*
X198219666Y-60627438D02*
X198314904Y-60722676D01*
X198314904Y-60722676D02*
X198362523Y-60817914D01*
X198362523Y-60817914D02*
X198410142Y-61008390D01*
X198410142Y-61008390D02*
X198410142Y-61151247D01*
X198410142Y-61151247D02*
X198362523Y-61341723D01*
X198362523Y-61341723D02*
X198314904Y-61436961D01*
X198314904Y-61436961D02*
X198219666Y-61532200D01*
X198219666Y-61532200D02*
X198076809Y-61579819D01*
X198076809Y-61579819D02*
X197838714Y-61579819D01*
X199362523Y-61579819D02*
X198791095Y-61579819D01*
X199076809Y-61579819D02*
X199076809Y-60579819D01*
X199076809Y-60579819D02*
X198981571Y-60722676D01*
X198981571Y-60722676D02*
X198886333Y-60817914D01*
X198886333Y-60817914D02*
X198791095Y-60865533D01*
X200314904Y-61579819D02*
X199743476Y-61579819D01*
X200029190Y-61579819D02*
X200029190Y-60579819D01*
X200029190Y-60579819D02*
X199933952Y-60722676D01*
X199933952Y-60722676D02*
X199838714Y-60817914D01*
X199838714Y-60817914D02*
X199743476Y-60865533D01*
X195758333Y-64174819D02*
X195425000Y-63698628D01*
X195186905Y-64174819D02*
X195186905Y-63174819D01*
X195186905Y-63174819D02*
X195567857Y-63174819D01*
X195567857Y-63174819D02*
X195663095Y-63222438D01*
X195663095Y-63222438D02*
X195710714Y-63270057D01*
X195710714Y-63270057D02*
X195758333Y-63365295D01*
X195758333Y-63365295D02*
X195758333Y-63508152D01*
X195758333Y-63508152D02*
X195710714Y-63603390D01*
X195710714Y-63603390D02*
X195663095Y-63651009D01*
X195663095Y-63651009D02*
X195567857Y-63698628D01*
X195567857Y-63698628D02*
X195186905Y-63698628D01*
X196091667Y-63174819D02*
X196710714Y-63174819D01*
X196710714Y-63174819D02*
X196377381Y-63555771D01*
X196377381Y-63555771D02*
X196520238Y-63555771D01*
X196520238Y-63555771D02*
X196615476Y-63603390D01*
X196615476Y-63603390D02*
X196663095Y-63651009D01*
X196663095Y-63651009D02*
X196710714Y-63746247D01*
X196710714Y-63746247D02*
X196710714Y-63984342D01*
X196710714Y-63984342D02*
X196663095Y-64079580D01*
X196663095Y-64079580D02*
X196615476Y-64127200D01*
X196615476Y-64127200D02*
X196520238Y-64174819D01*
X196520238Y-64174819D02*
X196234524Y-64174819D01*
X196234524Y-64174819D02*
X196139286Y-64127200D01*
X196139286Y-64127200D02*
X196091667Y-64079580D01*
X203048542Y-72433657D02*
X202715209Y-71957466D01*
X202477114Y-72433657D02*
X202477114Y-71433657D01*
X202477114Y-71433657D02*
X202858066Y-71433657D01*
X202858066Y-71433657D02*
X202953304Y-71481276D01*
X202953304Y-71481276D02*
X203000923Y-71528895D01*
X203000923Y-71528895D02*
X203048542Y-71624133D01*
X203048542Y-71624133D02*
X203048542Y-71766990D01*
X203048542Y-71766990D02*
X203000923Y-71862228D01*
X203000923Y-71862228D02*
X202953304Y-71909847D01*
X202953304Y-71909847D02*
X202858066Y-71957466D01*
X202858066Y-71957466D02*
X202477114Y-71957466D01*
X204000923Y-72433657D02*
X203429495Y-72433657D01*
X203715209Y-72433657D02*
X203715209Y-71433657D01*
X203715209Y-71433657D02*
X203619971Y-71576514D01*
X203619971Y-71576514D02*
X203524733Y-71671752D01*
X203524733Y-71671752D02*
X203429495Y-71719371D01*
X204619971Y-71433657D02*
X204715209Y-71433657D01*
X204715209Y-71433657D02*
X204810447Y-71481276D01*
X204810447Y-71481276D02*
X204858066Y-71528895D01*
X204858066Y-71528895D02*
X204905685Y-71624133D01*
X204905685Y-71624133D02*
X204953304Y-71814609D01*
X204953304Y-71814609D02*
X204953304Y-72052704D01*
X204953304Y-72052704D02*
X204905685Y-72243180D01*
X204905685Y-72243180D02*
X204858066Y-72338418D01*
X204858066Y-72338418D02*
X204810447Y-72386038D01*
X204810447Y-72386038D02*
X204715209Y-72433657D01*
X204715209Y-72433657D02*
X204619971Y-72433657D01*
X204619971Y-72433657D02*
X204524733Y-72386038D01*
X204524733Y-72386038D02*
X204477114Y-72338418D01*
X204477114Y-72338418D02*
X204429495Y-72243180D01*
X204429495Y-72243180D02*
X204381876Y-72052704D01*
X204381876Y-72052704D02*
X204381876Y-71814609D01*
X204381876Y-71814609D02*
X204429495Y-71624133D01*
X204429495Y-71624133D02*
X204477114Y-71528895D01*
X204477114Y-71528895D02*
X204524733Y-71481276D01*
X204524733Y-71481276D02*
X204619971Y-71433657D01*
X172386666Y-95904819D02*
X172386666Y-96619104D01*
X172386666Y-96619104D02*
X172339047Y-96761961D01*
X172339047Y-96761961D02*
X172243809Y-96857200D01*
X172243809Y-96857200D02*
X172100952Y-96904819D01*
X172100952Y-96904819D02*
X172005714Y-96904819D01*
X173386666Y-96904819D02*
X172815238Y-96904819D01*
X173100952Y-96904819D02*
X173100952Y-95904819D01*
X173100952Y-95904819D02*
X173005714Y-96047676D01*
X173005714Y-96047676D02*
X172910476Y-96142914D01*
X172910476Y-96142914D02*
X172815238Y-96190533D01*
D12*
%TO.C,D4*%
X206515000Y-79865000D02*
X206515000Y-81335000D01*
X206515000Y-81335000D02*
X208800000Y-81335000D01*
X208800000Y-79865000D02*
X206515000Y-79865000D01*
%TO.C,J9*%
X187340000Y-66240000D02*
X187340000Y-78960000D01*
X187340000Y-78960000D02*
X191360000Y-78960000D01*
X187840000Y-66740000D02*
X189050000Y-66740000D01*
X187840000Y-78460000D02*
X187840000Y-66740000D01*
X189050000Y-66740000D02*
X189050000Y-66240000D01*
X189050000Y-78460000D02*
X187840000Y-78460000D01*
X189050000Y-78960000D02*
X189050000Y-78460000D01*
X189160000Y-79260000D02*
X191660000Y-79260000D01*
X189860000Y-66240000D02*
X189860000Y-67240000D01*
X189860000Y-67240000D02*
X191360000Y-67240000D01*
X189860000Y-77960000D02*
X191360000Y-77960000D01*
X189860000Y-78960000D02*
X189860000Y-77960000D01*
X191360000Y-66240000D02*
X187340000Y-66240000D01*
X191360000Y-78960000D02*
X191360000Y-66240000D01*
X191660000Y-79260000D02*
X191660000Y-76760000D01*
%TO.C,R1*%
X182427500Y-95537258D02*
X182427500Y-95062742D01*
X183472500Y-95537258D02*
X183472500Y-95062742D01*
%TO.C,D2*%
X197540000Y-64415000D02*
X197540000Y-65885000D01*
X197540000Y-65885000D02*
X199825000Y-65885000D01*
X199825000Y-64415000D02*
X197540000Y-64415000D01*
%TO.C,D12*%
X197577500Y-59015000D02*
X197577500Y-60485000D01*
X197577500Y-60485000D02*
X199862500Y-60485000D01*
X199862500Y-59015000D02*
X197577500Y-59015000D01*
%TO.C,J8*%
X179190000Y-79940000D02*
X179190000Y-92660000D01*
X179190000Y-92660000D02*
X183210000Y-92660000D01*
X179690000Y-80440000D02*
X180900000Y-80440000D01*
X179690000Y-92160000D02*
X179690000Y-80440000D01*
X180900000Y-80440000D02*
X180900000Y-79940000D01*
X180900000Y-92160000D02*
X179690000Y-92160000D01*
X180900000Y-92660000D02*
X180900000Y-92160000D01*
X181010000Y-92960000D02*
X183510000Y-92960000D01*
X181710000Y-79940000D02*
X181710000Y-80940000D01*
X181710000Y-80940000D02*
X183210000Y-80940000D01*
X181710000Y-91660000D02*
X183210000Y-91660000D01*
X181710000Y-92660000D02*
X181710000Y-91660000D01*
X183210000Y-79940000D02*
X179190000Y-79940000D01*
X183210000Y-92660000D02*
X183210000Y-79940000D01*
X183510000Y-92960000D02*
X183510000Y-90460000D01*
%TO.C,D3*%
X206515000Y-83486400D02*
X206515000Y-84956400D01*
X206515000Y-84956400D02*
X208800000Y-84956400D01*
X208800000Y-83486400D02*
X206515000Y-83486400D01*
%TO.C,J5*%
X143283000Y-74182000D02*
X143283000Y-74682000D01*
X143523000Y-74422000D02*
X143523000Y-84702000D01*
X144023000Y-74182000D02*
X143283000Y-74182000D01*
X144083000Y-74422000D02*
X144083000Y-84702000D01*
X145583000Y-74422000D02*
X145583000Y-84702000D01*
X146944000Y-81068000D02*
X146909000Y-81033000D01*
X147160000Y-80875000D02*
X147114000Y-80828000D01*
X149252000Y-83377000D02*
X149206000Y-83330000D01*
X149458000Y-83172000D02*
X149422000Y-83137000D01*
X150484000Y-74422000D02*
X150484000Y-84702000D01*
X153444000Y-74422000D02*
X143523000Y-74422000D01*
X153444000Y-74422000D02*
X153444000Y-84702000D01*
X153444000Y-84702000D02*
X143523000Y-84702000D01*
X146502747Y-77050805D02*
G75*
G02*
X146648000Y-76338000I1680254J28806D01*
G01*
X146648244Y-77705318D02*
G75*
G02*
X146503000Y-77022000I1534756J683318D01*
G01*
X147499958Y-75486573D02*
G75*
G02*
X148867000Y-75487000I683041J-1535420D01*
G01*
X148866042Y-78557427D02*
G75*
G02*
X147499000Y-78557000I-683042J1535427D01*
G01*
X149718427Y-76338958D02*
G75*
G02*
X149718000Y-77706000I-1535420J-683041D01*
G01*
X149863000Y-82102000D02*
G75*
G02*
X146503000Y-82102000I-1680000J0D01*
G01*
X146503000Y-82102000D02*
G75*
G02*
X149863000Y-82102000I1680000J0D01*
G01*
%TO.C,D8*%
X206612400Y-65379300D02*
X206612400Y-66849300D01*
X206612400Y-66849300D02*
X208897400Y-66849300D01*
X208897400Y-65379300D02*
X206612400Y-65379300D01*
%TO.C,D10*%
X206612400Y-87107900D02*
X206612400Y-88577900D01*
X206612400Y-88577900D02*
X208897400Y-88577900D01*
X208897400Y-87107900D02*
X206612400Y-87107900D01*
%TO.C,J10*%
X187340000Y-79940000D02*
X187340000Y-92660000D01*
X187340000Y-92660000D02*
X191360000Y-92660000D01*
X187840000Y-80440000D02*
X189050000Y-80440000D01*
X187840000Y-92160000D02*
X187840000Y-80440000D01*
X189050000Y-80440000D02*
X189050000Y-79940000D01*
X189050000Y-92160000D02*
X187840000Y-92160000D01*
X189050000Y-92660000D02*
X189050000Y-92160000D01*
X189160000Y-92960000D02*
X191660000Y-92960000D01*
X189860000Y-79940000D02*
X189860000Y-80940000D01*
X189860000Y-80940000D02*
X191360000Y-80940000D01*
X189860000Y-91660000D02*
X191360000Y-91660000D01*
X189860000Y-92660000D02*
X189860000Y-91660000D01*
X191360000Y-79940000D02*
X187340000Y-79940000D01*
X191360000Y-92660000D02*
X191360000Y-79940000D01*
X191660000Y-92960000D02*
X191660000Y-90460000D01*
%TO.C,JP1*%
X167707000Y-91754000D02*
X167707000Y-90424000D01*
X169037000Y-91754000D02*
X167707000Y-91754000D01*
X170307000Y-89094000D02*
X175447000Y-89094000D01*
X170307000Y-91754000D02*
X170307000Y-89094000D01*
X170307000Y-91754000D02*
X175447000Y-91754000D01*
X175447000Y-91754000D02*
X175447000Y-89094000D01*
%TO.C,R14*%
X203953658Y-87320400D02*
X203479142Y-87320400D01*
X203953658Y-88365400D02*
X203479142Y-88365400D01*
%TO.C,J3*%
X143455000Y-59566000D02*
X143455000Y-49645000D01*
X144780000Y-55374000D02*
X144827000Y-55328000D01*
X144985000Y-55580000D02*
X145020000Y-55544000D01*
X147089000Y-53066000D02*
X147124000Y-53031000D01*
X147282000Y-53282000D02*
X147329000Y-53236000D01*
X153735000Y-49645000D02*
X143455000Y-49645000D01*
X153735000Y-50205000D02*
X143455000Y-50205000D01*
X153735000Y-51705000D02*
X143455000Y-51705000D01*
X153735000Y-56606000D02*
X143455000Y-56606000D01*
X153735000Y-59566000D02*
X143455000Y-59566000D01*
X153735000Y-59566000D02*
X153735000Y-49645000D01*
X153975000Y-49405000D02*
X153475000Y-49405000D01*
X153975000Y-50145000D02*
X153975000Y-49405000D01*
X149599573Y-54988042D02*
G75*
G02*
X149600000Y-53621000I1535427J683042D01*
G01*
X150451682Y-52770244D02*
G75*
G02*
X151135000Y-52625000I683318J-1534756D01*
G01*
X151106195Y-52624747D02*
G75*
G02*
X151819000Y-52770000I28806J-1680254D01*
G01*
X151818042Y-55840427D02*
G75*
G02*
X150451000Y-55840000I-683041J1535420D01*
G01*
X152670427Y-53621958D02*
G75*
G02*
X152670000Y-54989000I-1535420J-683041D01*
G01*
X147735000Y-54305000D02*
G75*
G02*
X144375000Y-54305000I-1680000J0D01*
G01*
X144375000Y-54305000D02*
G75*
G02*
X147735000Y-54305000I1680000J0D01*
G01*
%TO.C,J6*%
X188340000Y-57240000D02*
X188340000Y-64960000D01*
X188340000Y-64960000D02*
X192360000Y-64960000D01*
X188840000Y-57740000D02*
X190050000Y-57740000D01*
X188840000Y-64460000D02*
X188840000Y-57740000D01*
X190050000Y-57740000D02*
X190050000Y-57240000D01*
X190050000Y-64460000D02*
X188840000Y-64460000D01*
X190050000Y-64960000D02*
X190050000Y-64460000D01*
X190160000Y-65260000D02*
X192660000Y-65260000D01*
X190860000Y-57240000D02*
X190860000Y-58240000D01*
X190860000Y-58240000D02*
X192360000Y-58240000D01*
X190860000Y-63960000D02*
X192360000Y-63960000D01*
X190860000Y-64960000D02*
X190860000Y-63960000D01*
X192360000Y-57240000D02*
X188340000Y-57240000D01*
X192360000Y-64960000D02*
X192360000Y-57240000D01*
X192660000Y-65260000D02*
X192660000Y-62760000D01*
%TO.C,R2*%
X180812258Y-95577500D02*
X180337742Y-95577500D01*
X180812258Y-96622500D02*
X180337742Y-96622500D01*
%TO.C,D1*%
X179800000Y-95235000D02*
X182085000Y-95235000D01*
X182085000Y-93765000D02*
X179800000Y-93765000D01*
X182085000Y-95235000D02*
X182085000Y-93765000D01*
%TO.C,D6*%
X206612400Y-72622100D02*
X206612400Y-74092100D01*
X206612400Y-74092100D02*
X208897400Y-74092100D01*
X208897400Y-72622100D02*
X206612400Y-72622100D01*
%TO.C,D7*%
X206612400Y-69000700D02*
X206612400Y-70470700D01*
X206612400Y-70470700D02*
X208897400Y-70470700D01*
X208897400Y-69000700D02*
X206612400Y-69000700D01*
%TO.C,R8*%
X203856258Y-80077500D02*
X203381742Y-80077500D01*
X203856258Y-81122500D02*
X203381742Y-81122500D01*
%TO.C,R7*%
X203856258Y-83698900D02*
X203381742Y-83698900D01*
X203856258Y-84743900D02*
X203381742Y-84743900D01*
%TO.C,K1*%
X155275000Y-72600000D02*
X155275000Y-79200000D01*
X155275000Y-72600000D02*
X175075000Y-72600000D01*
X155275000Y-81600000D02*
X155275000Y-88200000D01*
X159325000Y-80450000D02*
X158525000Y-80450000D01*
X159325000Y-80450000D02*
X159325000Y-84050000D01*
X160225000Y-86450000D02*
X162725000Y-86450000D01*
X160725000Y-78650000D02*
X164725000Y-78650000D01*
X160725000Y-82250000D02*
X160725000Y-78650000D01*
X162725000Y-74450000D02*
X160225000Y-74450000D01*
X162725000Y-74450000D02*
X162725000Y-78650000D01*
X162725000Y-82250000D02*
X162725000Y-86450000D01*
X164725000Y-78650000D02*
X164725000Y-82250000D01*
X164725000Y-82250000D02*
X160725000Y-78650000D01*
X164725000Y-82250000D02*
X160725000Y-82250000D01*
X166125000Y-80450000D02*
X166125000Y-84050000D01*
X166125000Y-80450000D02*
X167625000Y-80450000D01*
X166125000Y-84050000D02*
X159325000Y-84050000D01*
X167625000Y-80450000D02*
X172225000Y-77950000D01*
X170825000Y-76200000D02*
X170825000Y-78700000D01*
X170825000Y-84600000D02*
X170825000Y-82150000D01*
X175075000Y-72600000D02*
X175075000Y-88200000D01*
X175075000Y-88200000D02*
X155275000Y-88200000D01*
%TO.C,U2*%
X197391400Y-70022900D02*
X195441400Y-70022900D01*
X197391400Y-70022900D02*
X199341400Y-70022900D01*
X197391400Y-80142900D02*
X195441400Y-80142900D01*
X197391400Y-80142900D02*
X199341400Y-80142900D01*
X200331400Y-80417900D02*
X199851400Y-80417900D01*
X200091400Y-80087900D01*
X200331400Y-80417900D01*
G36*
X200331400Y-80417900D02*
G01*
X199851400Y-80417900D01*
X200091400Y-80087900D01*
X200331400Y-80417900D01*
G37*
%TO.C,D9*%
X206612400Y-61757900D02*
X206612400Y-63227900D01*
X206612400Y-63227900D02*
X208897400Y-63227900D01*
X208897400Y-61757900D02*
X206612400Y-61757900D01*
%TO.C,R9*%
X203856258Y-76456100D02*
X203381742Y-76456100D01*
X203856258Y-77501100D02*
X203381742Y-77501100D01*
%TO.C,J7*%
X179240000Y-66240000D02*
X179240000Y-78960000D01*
X179240000Y-78960000D02*
X183260000Y-78960000D01*
X179740000Y-66740000D02*
X180950000Y-66740000D01*
X179740000Y-78460000D02*
X179740000Y-66740000D01*
X180950000Y-66740000D02*
X180950000Y-66240000D01*
X180950000Y-78460000D02*
X179740000Y-78460000D01*
X180950000Y-78960000D02*
X180950000Y-78460000D01*
X181060000Y-79260000D02*
X183560000Y-79260000D01*
X181760000Y-66240000D02*
X181760000Y-67240000D01*
X181760000Y-67240000D02*
X183260000Y-67240000D01*
X181760000Y-77960000D02*
X183260000Y-77960000D01*
X181760000Y-78960000D02*
X181760000Y-77960000D01*
X183260000Y-66240000D02*
X179240000Y-66240000D01*
X183260000Y-78960000D02*
X183260000Y-66240000D01*
X183560000Y-79260000D02*
X183560000Y-76760000D01*
D11*
%TO.C,U4*%
X179975000Y-56825000D02*
X179975000Y-57050000D01*
X179975000Y-65475000D02*
X179975000Y-65250000D01*
X185725000Y-56825000D02*
X179975000Y-56825000D01*
X185725000Y-56825000D02*
X185725000Y-57050000D01*
X185725000Y-65475000D02*
X179975000Y-65475000D01*
X185725000Y-65475000D02*
X185725000Y-65250000D01*
D12*
X186465000Y-65555000D02*
X185985000Y-65555000D01*
X186225000Y-65225000D01*
X186465000Y-65555000D01*
G36*
X186465000Y-65555000D02*
G01*
X185985000Y-65555000D01*
X186225000Y-65225000D01*
X186465000Y-65555000D01*
G37*
%TO.C,D5*%
X206515000Y-76243600D02*
X206515000Y-77713600D01*
X206515000Y-77713600D02*
X208800000Y-77713600D01*
X208800000Y-76243600D02*
X206515000Y-76243600D01*
%TO.C,C1*%
X176790000Y-63809420D02*
X176790000Y-64090580D01*
X177810000Y-63809420D02*
X177810000Y-64090580D01*
%TO.C,SW1*%
X144380000Y-65580000D02*
X144380000Y-67080000D01*
X145630000Y-69580000D02*
X150130000Y-69580000D01*
X150130000Y-63080000D02*
X145630000Y-63080000D01*
X151380000Y-67080000D02*
X151380000Y-65580000D01*
%TO.C,R13*%
X203953658Y-61970400D02*
X203479142Y-61970400D01*
X203953658Y-63015400D02*
X203479142Y-63015400D01*
%TO.C,J2*%
X155905000Y-99410000D02*
X155905000Y-100150000D01*
X155905000Y-100150000D02*
X156405000Y-100150000D01*
X156145000Y-89989000D02*
X156145000Y-99910000D01*
X156145000Y-89989000D02*
X166425000Y-89989000D01*
X156145000Y-92949000D02*
X166425000Y-92949000D01*
X156145000Y-97850000D02*
X166425000Y-97850000D01*
X156145000Y-99350000D02*
X166425000Y-99350000D01*
X156145000Y-99910000D02*
X166425000Y-99910000D01*
X162598000Y-96273000D02*
X162551000Y-96319000D01*
X162791000Y-96489000D02*
X162756000Y-96524000D01*
X164895000Y-93975000D02*
X164860000Y-94011000D01*
X165100000Y-94181000D02*
X165053000Y-94227000D01*
X166425000Y-89989000D02*
X166425000Y-99910000D01*
X157209573Y-95933042D02*
G75*
G02*
X157210000Y-94566000I1535420J683041D01*
G01*
X158061958Y-93714573D02*
G75*
G02*
X159429000Y-93715000I683041J-1535420D01*
G01*
X158773805Y-96930253D02*
G75*
G02*
X158061000Y-96785000I-28806J1680254D01*
G01*
X159428318Y-96784756D02*
G75*
G02*
X158745000Y-96930000I-683318J1534756D01*
G01*
X160280427Y-94566958D02*
G75*
G02*
X160280000Y-95934000I-1535427J-683042D01*
G01*
X165505000Y-95250000D02*
G75*
G02*
X162145000Y-95250000I-1680000J0D01*
G01*
X162145000Y-95250000D02*
G75*
G02*
X165505000Y-95250000I1680000J0D01*
G01*
%TO.C,J4*%
X143205000Y-99410000D02*
X143205000Y-100150000D01*
X143205000Y-100150000D02*
X143705000Y-100150000D01*
X143445000Y-89989000D02*
X143445000Y-99910000D01*
X143445000Y-89989000D02*
X153725000Y-89989000D01*
X143445000Y-92949000D02*
X153725000Y-92949000D01*
X143445000Y-97850000D02*
X153725000Y-97850000D01*
X143445000Y-99350000D02*
X153725000Y-99350000D01*
X143445000Y-99910000D02*
X153725000Y-99910000D01*
X149898000Y-96273000D02*
X149851000Y-96319000D01*
X150091000Y-96489000D02*
X150056000Y-96524000D01*
X152195000Y-93975000D02*
X152160000Y-94011000D01*
X152400000Y-94181000D02*
X152353000Y-94227000D01*
X153725000Y-89989000D02*
X153725000Y-99910000D01*
X144509573Y-95933042D02*
G75*
G02*
X144510000Y-94566000I1535420J683041D01*
G01*
X145361958Y-93714573D02*
G75*
G02*
X146729000Y-93715000I683041J-1535420D01*
G01*
X146073805Y-96930253D02*
G75*
G02*
X145361000Y-96785000I-28806J1680254D01*
G01*
X146728318Y-96784756D02*
G75*
G02*
X146045000Y-96930000I-683318J1534756D01*
G01*
X147580427Y-94566958D02*
G75*
G02*
X147580000Y-95934000I-1535427J-683042D01*
G01*
X152805000Y-95250000D02*
G75*
G02*
X149445000Y-95250000I-1680000J0D01*
G01*
X149445000Y-95250000D02*
G75*
G02*
X152805000Y-95250000I1680000J0D01*
G01*
%TO.C,R5*%
X195687742Y-61927500D02*
X196162258Y-61927500D01*
X195687742Y-62972500D02*
X196162258Y-62972500D01*
%TO.C,R23*%
X179412742Y-55327500D02*
X179887258Y-55327500D01*
X179412742Y-56372500D02*
X179887258Y-56372500D01*
%TO.C,R6*%
X195687742Y-59277500D02*
X196162258Y-59277500D01*
X195687742Y-60322500D02*
X196162258Y-60322500D01*
%TO.C,R11*%
X203953658Y-69213200D02*
X203479142Y-69213200D01*
X203953658Y-70258200D02*
X203479142Y-70258200D01*
%TO.C,R12*%
X203953658Y-65591800D02*
X203479142Y-65591800D01*
X203953658Y-66636800D02*
X203479142Y-66636800D01*
%TO.C,U1*%
D10*
X154940000Y-71374000D02*
X175260000Y-71374000D01*
X175260000Y-53594000D01*
X154940000Y-53594000D01*
X154940000Y-71374000D01*
D12*
%TO.C,D11*%
X197568000Y-61715000D02*
X197568000Y-63185000D01*
X197568000Y-63185000D02*
X199853000Y-63185000D01*
X199853000Y-61715000D02*
X197568000Y-61715000D01*
%TO.C,R3*%
X195687742Y-64627500D02*
X196162258Y-64627500D01*
X195687742Y-65672500D02*
X196162258Y-65672500D01*
%TO.C,R10*%
X203953658Y-72834600D02*
X203479142Y-72834600D01*
X203953658Y-73879600D02*
X203479142Y-73879600D01*
%TO.C,J1*%
X167310000Y-94979000D02*
X167310000Y-97479000D01*
X167310000Y-97479000D02*
X169810000Y-97479000D01*
X167610000Y-93159000D02*
X167610000Y-97179000D01*
X167610000Y-94869000D02*
X168110000Y-94869000D01*
X167610000Y-95679000D02*
X168610000Y-95679000D01*
X167610000Y-97179000D02*
X177830000Y-97179000D01*
X168110000Y-93659000D02*
X177330000Y-93659000D01*
X168110000Y-94869000D02*
X168110000Y-93659000D01*
X168610000Y-95679000D02*
X168610000Y-97179000D01*
X176830000Y-95679000D02*
X176830000Y-97179000D01*
X177330000Y-93659000D02*
X177330000Y-94869000D01*
X177330000Y-94869000D02*
X177830000Y-94869000D01*
X177830000Y-93159000D02*
X167610000Y-93159000D01*
X177830000Y-95679000D02*
X176830000Y-95679000D01*
X177830000Y-97179000D02*
X177830000Y-93159000D01*
%TD*%
M02*
