%TF.GenerationSoftware,KiCad,Pcbnew,8.0.3*%
%TF.CreationDate,2024-06-17T22:46:01+08:00*%
%TF.ProjectId,uno_car,756e6f5f-6361-4722-9e6b-696361645f70,v1.0.2*%
%TF.SameCoordinates,Original*%
%TF.FileFunction,Legend,Bot*%
%TF.FilePolarity,Positive*%
%FSLAX46Y46*%
G04 Gerber Fmt 4.6, Leading zero omitted, Abs format (unit mm)*
G04 Created by KiCad (PCBNEW 8.0.3) date 2024-06-17 22:46:01*
%MOMM*%
%LPD*%
G01*
G04 APERTURE LIST*
%ADD10C,0.100000*%
%ADD11C,0.000000*%
G04 APERTURE END LIST*
D10*
G36*
X207726202Y-81537200D02*
G01*
X207762562Y-81604726D01*
X207765731Y-81818912D01*
X207736228Y-81882676D01*
X207460964Y-81884606D01*
X207471140Y-81862613D01*
X207477716Y-81856038D01*
X207480380Y-81842644D01*
X207481396Y-81840449D01*
X207481033Y-81839360D01*
X207481522Y-81836904D01*
X207478265Y-81616799D01*
X207512770Y-81542224D01*
X207580512Y-81505747D01*
X207653010Y-81503335D01*
X207726202Y-81537200D01*
G37*
G36*
X207681687Y-78395780D02*
G01*
X207681881Y-78396070D01*
X207720563Y-78431490D01*
X207762616Y-78509588D01*
X207765424Y-78629100D01*
X207729789Y-78706116D01*
X207729501Y-78706310D01*
X207694078Y-78744992D01*
X207616105Y-78786977D01*
X207354455Y-78790244D01*
X207276594Y-78754218D01*
X207276401Y-78753929D01*
X207237719Y-78718509D01*
X207195666Y-78640409D01*
X207192858Y-78520897D01*
X207228493Y-78443880D01*
X207228782Y-78443688D01*
X207264203Y-78405006D01*
X207342175Y-78363021D01*
X207603827Y-78359754D01*
X207681687Y-78395780D01*
G37*
G36*
X209029339Y-76218745D02*
G01*
X209205651Y-76259528D01*
X209209581Y-76262578D01*
X209291631Y-76300542D01*
X209291825Y-76300832D01*
X209330507Y-76336252D01*
X209372623Y-76414466D01*
X209375035Y-76486963D01*
X209339733Y-76563259D01*
X209339445Y-76563453D01*
X209304022Y-76602135D01*
X209223771Y-76645347D01*
X209219815Y-76645540D01*
X209045364Y-76692441D01*
X209041466Y-76691666D01*
X208819296Y-76694953D01*
X208815498Y-76693159D01*
X208639185Y-76652375D01*
X208635255Y-76649325D01*
X208553205Y-76611361D01*
X208553012Y-76611072D01*
X208514330Y-76575652D01*
X208472214Y-76497436D01*
X208469802Y-76424939D01*
X208505104Y-76348642D01*
X208505393Y-76348450D01*
X208540814Y-76309768D01*
X208621064Y-76266556D01*
X208625022Y-76266364D01*
X208799472Y-76219462D01*
X208803371Y-76220238D01*
X209025540Y-76216950D01*
X209029339Y-76218745D01*
G37*
G36*
X207681687Y-74300542D02*
G01*
X207681881Y-74300832D01*
X207720563Y-74336252D01*
X207762616Y-74414350D01*
X207765424Y-74533862D01*
X207729789Y-74610878D01*
X207729501Y-74611072D01*
X207694078Y-74649754D01*
X207616105Y-74691739D01*
X207354455Y-74695006D01*
X207276594Y-74658980D01*
X207276401Y-74658691D01*
X207237719Y-74623271D01*
X207195666Y-74545171D01*
X207192858Y-74425659D01*
X207228493Y-74348642D01*
X207228782Y-74348450D01*
X207264203Y-74309768D01*
X207342175Y-74267783D01*
X207603827Y-74264516D01*
X207681687Y-74300542D01*
G37*
G36*
X207681687Y-71110066D02*
G01*
X207681881Y-71110356D01*
X207720563Y-71145776D01*
X207762583Y-71223812D01*
X207765611Y-71390601D01*
X207736344Y-71453855D01*
X207224448Y-71455767D01*
X207195699Y-71402376D01*
X207192671Y-71235587D01*
X207228493Y-71158166D01*
X207228782Y-71157974D01*
X207264203Y-71119292D01*
X207342175Y-71077307D01*
X207603827Y-71074040D01*
X207681687Y-71110066D01*
G37*
G36*
X207479904Y-69960428D02*
G01*
X206964682Y-69790715D01*
X207477272Y-69617830D01*
X207479904Y-69960428D01*
G37*
G36*
X209583530Y-82851352D02*
G01*
X206651364Y-82851352D01*
X206651364Y-82598809D01*
X207095808Y-82598809D01*
X207099614Y-82713181D01*
X207126674Y-82740241D01*
X207164942Y-82740241D01*
X207192002Y-82713181D01*
X207195808Y-82694047D01*
X207193191Y-82615415D01*
X207228493Y-82539118D01*
X207228782Y-82538926D01*
X207264203Y-82500244D01*
X207344082Y-82457232D01*
X207831609Y-82454527D01*
X207858669Y-82427467D01*
X207858669Y-82389199D01*
X207831609Y-82362139D01*
X207812475Y-82358333D01*
X207340223Y-82360953D01*
X207332739Y-82358459D01*
X207323285Y-82361047D01*
X207126674Y-82362139D01*
X207099614Y-82389199D01*
X207099614Y-82427467D01*
X207126674Y-82454527D01*
X207145808Y-82458333D01*
X207171265Y-82458191D01*
X207165895Y-82464056D01*
X207160667Y-82465799D01*
X207148705Y-82481211D01*
X207106189Y-82573099D01*
X207099614Y-82579675D01*
X207096949Y-82593068D01*
X207095934Y-82595264D01*
X207096296Y-82596352D01*
X207095808Y-82598809D01*
X206651364Y-82598809D01*
X206651364Y-81598809D01*
X207095808Y-81598809D01*
X207099155Y-81783165D01*
X207095934Y-81792830D01*
X207099572Y-81806114D01*
X207099614Y-81808419D01*
X207100425Y-81809230D01*
X207101087Y-81811646D01*
X207151893Y-81906001D01*
X207155654Y-81917283D01*
X207159629Y-81920368D01*
X207160667Y-81922295D01*
X207163200Y-81923139D01*
X207171066Y-81929244D01*
X207262955Y-81971760D01*
X207269531Y-81978336D01*
X207282924Y-81981000D01*
X207285120Y-81982016D01*
X207286208Y-81981653D01*
X207288665Y-81982142D01*
X207379338Y-81981506D01*
X207380358Y-81982016D01*
X207381941Y-81981488D01*
X207755024Y-81978872D01*
X207761311Y-81982016D01*
X207771078Y-81978760D01*
X207831609Y-81978336D01*
X207858669Y-81951276D01*
X207858669Y-81913008D01*
X207838232Y-81892571D01*
X207852093Y-81862613D01*
X207858669Y-81856038D01*
X207861333Y-81842644D01*
X207862349Y-81840449D01*
X207861986Y-81839360D01*
X207862475Y-81836904D01*
X207859046Y-81605171D01*
X207862349Y-81595264D01*
X207858702Y-81581949D01*
X207858669Y-81579675D01*
X207857857Y-81578863D01*
X207857196Y-81576448D01*
X207806386Y-81482086D01*
X207802628Y-81470811D01*
X207798654Y-81467727D01*
X207797616Y-81465798D01*
X207795080Y-81464952D01*
X207787216Y-81458849D01*
X207695326Y-81416333D01*
X207688751Y-81409758D01*
X207675355Y-81407093D01*
X207673161Y-81406078D01*
X207672073Y-81406440D01*
X207669617Y-81405952D01*
X207579456Y-81408952D01*
X207570834Y-81406078D01*
X207557694Y-81409676D01*
X207555245Y-81409758D01*
X207554433Y-81410569D01*
X207552018Y-81411231D01*
X207457656Y-81462040D01*
X207446381Y-81465799D01*
X207443297Y-81469772D01*
X207441368Y-81470811D01*
X207440522Y-81473346D01*
X207434419Y-81481211D01*
X207391903Y-81573099D01*
X207385328Y-81579675D01*
X207382663Y-81593068D01*
X207381648Y-81595264D01*
X207382010Y-81596352D01*
X207381522Y-81598809D01*
X207384778Y-81818912D01*
X207354036Y-81885355D01*
X207307271Y-81885683D01*
X207232080Y-81850893D01*
X207195699Y-81783328D01*
X207192671Y-81616539D01*
X207243301Y-81507116D01*
X207231199Y-81470811D01*
X207196971Y-81453697D01*
X207160667Y-81465799D01*
X207148705Y-81481211D01*
X207106189Y-81573099D01*
X207099614Y-81579675D01*
X207096949Y-81593068D01*
X207095934Y-81595264D01*
X207096296Y-81596352D01*
X207095808Y-81598809D01*
X206651364Y-81598809D01*
X206651364Y-80789285D01*
X206762475Y-80789285D01*
X206765343Y-80875493D01*
X206762601Y-80880979D01*
X206765041Y-80900334D01*
X206813900Y-81036645D01*
X206813900Y-81046514D01*
X206821530Y-81057933D01*
X206822321Y-81060139D01*
X206823347Y-81060652D01*
X206824739Y-81062735D01*
X206888578Y-81121193D01*
X206926847Y-81121193D01*
X206953907Y-81094133D01*
X206953907Y-81055864D01*
X206943068Y-81039643D01*
X206905143Y-81004916D01*
X206862302Y-80885392D01*
X206862475Y-80884523D01*
X206859836Y-80805223D01*
X206859909Y-80805096D01*
X206899170Y-80677872D01*
X206976991Y-80596103D01*
X206977693Y-80595911D01*
X207058739Y-80552270D01*
X207062697Y-80552078D01*
X207237147Y-80505176D01*
X207241046Y-80505952D01*
X207368592Y-80502955D01*
X207371776Y-80504459D01*
X207548088Y-80545242D01*
X207552018Y-80548292D01*
X207634068Y-80586256D01*
X207634262Y-80586546D01*
X207719298Y-80667475D01*
X207762648Y-80788414D01*
X207762475Y-80789285D01*
X207765113Y-80868584D01*
X207765041Y-80868712D01*
X207725708Y-80996165D01*
X207671042Y-81055864D01*
X207671042Y-81094133D01*
X207698101Y-81121193D01*
X207736370Y-81121193D01*
X207752591Y-81110355D01*
X207795148Y-81063880D01*
X207802629Y-81060140D01*
X207809315Y-81048408D01*
X207811050Y-81046515D01*
X207811050Y-81045366D01*
X207812290Y-81043191D01*
X207853869Y-80908456D01*
X207858669Y-80903657D01*
X207862475Y-80884523D01*
X207859606Y-80798314D01*
X207862349Y-80792829D01*
X207859909Y-80773473D01*
X207811050Y-80637161D01*
X207811050Y-80627294D01*
X207803420Y-80615876D01*
X207802629Y-80613668D01*
X207801601Y-80613154D01*
X207800211Y-80611073D01*
X207709490Y-80524733D01*
X207707389Y-80518430D01*
X207691977Y-80506468D01*
X207606165Y-80466763D01*
X207604145Y-80463397D01*
X207586506Y-80455064D01*
X207406766Y-80413487D01*
X207403037Y-80409758D01*
X207383903Y-80405952D01*
X207252636Y-80409036D01*
X207248405Y-80406497D01*
X207228919Y-80407445D01*
X207051426Y-80455164D01*
X207047025Y-80453697D01*
X207028209Y-80458850D01*
X206942508Y-80504996D01*
X206936198Y-80504996D01*
X206919977Y-80515835D01*
X206830994Y-80609332D01*
X206822321Y-80613669D01*
X206815531Y-80625579D01*
X206813900Y-80627294D01*
X206813900Y-80628441D01*
X206812660Y-80630617D01*
X206771080Y-80765351D01*
X206766281Y-80770151D01*
X206762475Y-80789285D01*
X206651364Y-80789285D01*
X206651364Y-79265476D01*
X207381522Y-79265476D01*
X207385328Y-80046515D01*
X207412388Y-80073575D01*
X207450656Y-80073575D01*
X207477716Y-80046515D01*
X207481522Y-80027381D01*
X207477716Y-79246342D01*
X207450656Y-79219282D01*
X207412388Y-79219282D01*
X207385328Y-79246342D01*
X207381522Y-79265476D01*
X206651364Y-79265476D01*
X206651364Y-78503571D01*
X207095808Y-78503571D01*
X207099029Y-78640685D01*
X207095934Y-78649973D01*
X207099558Y-78663208D01*
X207099614Y-78665562D01*
X207100425Y-78666373D01*
X207101087Y-78668789D01*
X207147233Y-78754489D01*
X207147233Y-78760800D01*
X207158072Y-78777021D01*
X207160623Y-78779357D01*
X207160667Y-78779438D01*
X207160736Y-78779461D01*
X207201530Y-78816816D01*
X207203273Y-78822045D01*
X207218685Y-78834006D01*
X207310574Y-78876522D01*
X207317150Y-78883098D01*
X207330543Y-78885762D01*
X207332739Y-78886778D01*
X207333827Y-78886415D01*
X207336284Y-78886904D01*
X207615463Y-78883418D01*
X207625543Y-78886778D01*
X207638877Y-78883126D01*
X207641132Y-78883098D01*
X207641943Y-78882286D01*
X207644359Y-78881625D01*
X207730059Y-78835479D01*
X207736370Y-78835479D01*
X207752591Y-78824641D01*
X207754929Y-78822087D01*
X207755008Y-78822045D01*
X207755030Y-78821976D01*
X207792386Y-78781181D01*
X207797616Y-78779439D01*
X207809577Y-78764027D01*
X207852093Y-78672137D01*
X207858669Y-78665562D01*
X207861333Y-78652168D01*
X207862349Y-78649973D01*
X207861986Y-78648884D01*
X207862475Y-78646428D01*
X207859253Y-78509312D01*
X207862349Y-78500026D01*
X207858724Y-78486790D01*
X207858669Y-78484437D01*
X207857857Y-78483625D01*
X207857196Y-78481210D01*
X207811050Y-78395509D01*
X207811050Y-78389198D01*
X207800211Y-78372977D01*
X207797659Y-78370640D01*
X207797616Y-78370560D01*
X207797545Y-78370536D01*
X207756750Y-78333181D01*
X207755008Y-78327954D01*
X207739596Y-78315992D01*
X207647707Y-78273476D01*
X207641132Y-78266901D01*
X207627738Y-78264236D01*
X207625543Y-78263221D01*
X207624454Y-78263583D01*
X207621998Y-78263095D01*
X207342817Y-78266580D01*
X207332739Y-78263221D01*
X207319404Y-78266872D01*
X207317150Y-78266901D01*
X207316338Y-78267712D01*
X207313923Y-78268374D01*
X207228222Y-78314520D01*
X207221911Y-78314520D01*
X207205690Y-78325359D01*
X207203353Y-78327910D01*
X207203273Y-78327954D01*
X207203249Y-78328024D01*
X207165895Y-78368818D01*
X207160667Y-78370561D01*
X207148705Y-78385973D01*
X207106189Y-78477861D01*
X207099614Y-78484437D01*
X207096949Y-78497830D01*
X207095934Y-78500026D01*
X207096296Y-78501114D01*
X207095808Y-78503571D01*
X206651364Y-78503571D01*
X206651364Y-77598809D01*
X207095808Y-77598809D01*
X207099029Y-77735923D01*
X207095934Y-77745211D01*
X207099558Y-77758446D01*
X207099614Y-77760800D01*
X207100425Y-77761611D01*
X207101087Y-77764027D01*
X207151893Y-77858382D01*
X207155654Y-77869664D01*
X207159629Y-77872749D01*
X207160667Y-77874676D01*
X207163200Y-77875520D01*
X207171066Y-77881625D01*
X207262955Y-77924141D01*
X207269531Y-77930717D01*
X207282924Y-77933381D01*
X207285120Y-77934397D01*
X207286208Y-77934034D01*
X207288665Y-77934523D01*
X207831609Y-77930717D01*
X207858669Y-77903657D01*
X207858669Y-77865389D01*
X207831609Y-77838329D01*
X207812475Y-77834523D01*
X207307271Y-77838064D01*
X207232080Y-77803274D01*
X207198907Y-77741666D01*
X208372419Y-77741666D01*
X208375847Y-77973397D01*
X208372545Y-77983306D01*
X208376191Y-77996620D01*
X208376225Y-77998895D01*
X208377036Y-77999706D01*
X208377698Y-78002122D01*
X208423844Y-78087822D01*
X208423844Y-78094133D01*
X208434683Y-78110354D01*
X208437234Y-78112690D01*
X208437278Y-78112771D01*
X208437347Y-78112794D01*
X208478141Y-78150149D01*
X208479884Y-78155378D01*
X208495296Y-78167339D01*
X208587185Y-78209855D01*
X208593761Y-78216431D01*
X208607154Y-78219095D01*
X208609350Y-78220111D01*
X208610438Y-78219748D01*
X208612895Y-78220237D01*
X208699103Y-78217368D01*
X208704589Y-78220111D01*
X208723944Y-78217671D01*
X208860255Y-78168812D01*
X208870124Y-78168812D01*
X208881543Y-78161181D01*
X208883749Y-78160391D01*
X208884262Y-78159364D01*
X208886345Y-78157973D01*
X209373107Y-77666711D01*
X209376225Y-78189371D01*
X209403285Y-78216431D01*
X209441553Y-78216431D01*
X209468613Y-78189371D01*
X209472419Y-78170237D01*
X209468613Y-77532056D01*
X209441553Y-77504996D01*
X209403285Y-77504996D01*
X209387064Y-77515835D01*
X208831547Y-78076485D01*
X208709002Y-78120409D01*
X208708133Y-78120237D01*
X208629502Y-78122853D01*
X208553205Y-78087551D01*
X208553012Y-78087262D01*
X208514330Y-78051842D01*
X208472331Y-77973842D01*
X208469162Y-77759656D01*
X208505104Y-77681975D01*
X208505393Y-77681783D01*
X208563851Y-77617944D01*
X208563851Y-77579675D01*
X208536791Y-77552615D01*
X208498522Y-77552615D01*
X208482301Y-77563454D01*
X208442506Y-77606913D01*
X208437278Y-77608656D01*
X208425316Y-77624068D01*
X208382800Y-77715956D01*
X208376225Y-77722532D01*
X208373560Y-77735925D01*
X208372545Y-77738121D01*
X208372907Y-77739209D01*
X208372419Y-77741666D01*
X207198907Y-77741666D01*
X207195666Y-77735647D01*
X207192858Y-77616135D01*
X207228493Y-77539118D01*
X207228782Y-77538926D01*
X207259554Y-77505320D01*
X207831609Y-77502146D01*
X207858669Y-77475086D01*
X207858669Y-77436818D01*
X207831609Y-77409758D01*
X207812475Y-77405952D01*
X207126674Y-77409758D01*
X207099614Y-77436818D01*
X207099614Y-77475086D01*
X207126674Y-77502146D01*
X207137978Y-77504394D01*
X207106189Y-77573099D01*
X207099614Y-77579675D01*
X207096949Y-77593068D01*
X207095934Y-77595264D01*
X207096296Y-77596352D01*
X207095808Y-77598809D01*
X206651364Y-77598809D01*
X206651364Y-77151103D01*
X209280986Y-77151103D01*
X209280986Y-77151104D01*
X209280986Y-77189373D01*
X209291825Y-77205594D01*
X209355666Y-77264051D01*
X209393934Y-77264051D01*
X209393935Y-77264051D01*
X209393937Y-77264048D01*
X209410155Y-77253212D01*
X209468613Y-77189373D01*
X209468613Y-77151104D01*
X209468613Y-77151103D01*
X209457774Y-77134882D01*
X209393945Y-77076435D01*
X209393935Y-77076425D01*
X209355666Y-77076425D01*
X209339445Y-77087263D01*
X209280986Y-77151103D01*
X206651364Y-77151103D01*
X206651364Y-76389199D01*
X206766281Y-76389199D01*
X206766281Y-76427467D01*
X206793341Y-76454527D01*
X206812475Y-76458333D01*
X207603197Y-76454701D01*
X207681687Y-76491018D01*
X207681881Y-76491308D01*
X207720563Y-76526728D01*
X207762583Y-76604764D01*
X207765611Y-76771553D01*
X207729789Y-76848973D01*
X207729501Y-76849167D01*
X207694078Y-76887849D01*
X207616193Y-76929787D01*
X206793341Y-76933567D01*
X206766281Y-76960627D01*
X206766281Y-76998895D01*
X206793341Y-77025955D01*
X206812475Y-77029761D01*
X207614864Y-77026075D01*
X207625543Y-77029635D01*
X207638943Y-77025965D01*
X207641132Y-77025955D01*
X207641943Y-77025143D01*
X207644359Y-77024482D01*
X207730059Y-76978336D01*
X207736370Y-76978336D01*
X207752591Y-76967498D01*
X207754929Y-76964944D01*
X207755008Y-76964902D01*
X207755030Y-76964833D01*
X207792386Y-76924038D01*
X207797616Y-76922296D01*
X207809577Y-76906884D01*
X207852093Y-76814994D01*
X207858669Y-76808419D01*
X207861333Y-76795025D01*
X207862349Y-76792830D01*
X207861986Y-76791741D01*
X207862475Y-76789285D01*
X207859127Y-76604928D01*
X207862349Y-76595264D01*
X207858710Y-76581979D01*
X207858669Y-76579675D01*
X207857857Y-76578863D01*
X207857196Y-76576448D01*
X207811050Y-76490747D01*
X207811050Y-76484436D01*
X207800211Y-76468215D01*
X207797659Y-76465878D01*
X207797616Y-76465798D01*
X207797545Y-76465774D01*
X207756750Y-76428419D01*
X207755008Y-76423192D01*
X207739596Y-76411230D01*
X207733335Y-76408333D01*
X208372419Y-76408333D01*
X208375419Y-76498492D01*
X208372545Y-76507116D01*
X208376143Y-76520255D01*
X208376225Y-76522705D01*
X208377036Y-76523516D01*
X208377698Y-76525932D01*
X208423844Y-76611632D01*
X208423844Y-76617943D01*
X208434683Y-76634164D01*
X208437234Y-76636500D01*
X208437278Y-76636581D01*
X208437347Y-76636604D01*
X208478141Y-76673959D01*
X208479884Y-76679188D01*
X208495296Y-76691149D01*
X208581108Y-76730853D01*
X208583129Y-76734221D01*
X208600768Y-76742554D01*
X208780507Y-76784130D01*
X208784237Y-76787860D01*
X208803371Y-76791666D01*
X209029440Y-76788321D01*
X209034107Y-76791121D01*
X209053593Y-76790173D01*
X209231085Y-76742453D01*
X209235487Y-76743921D01*
X209254303Y-76738768D01*
X209340003Y-76692622D01*
X209346314Y-76692622D01*
X209362535Y-76681784D01*
X209364873Y-76679230D01*
X209364952Y-76679188D01*
X209364974Y-76679119D01*
X209402330Y-76638324D01*
X209407560Y-76636582D01*
X209419521Y-76621170D01*
X209462037Y-76529280D01*
X209468613Y-76522705D01*
X209471277Y-76509311D01*
X209472293Y-76507116D01*
X209471930Y-76506027D01*
X209472419Y-76503571D01*
X209469418Y-76413410D01*
X209472293Y-76404788D01*
X209468694Y-76391648D01*
X209468613Y-76389199D01*
X209467801Y-76388387D01*
X209467140Y-76385972D01*
X209420994Y-76300271D01*
X209420994Y-76293960D01*
X209410155Y-76277739D01*
X209407603Y-76275402D01*
X209407560Y-76275322D01*
X209407489Y-76275298D01*
X209366694Y-76237943D01*
X209364952Y-76232716D01*
X209349540Y-76220754D01*
X209263728Y-76181049D01*
X209261708Y-76177683D01*
X209244069Y-76169350D01*
X209064329Y-76127773D01*
X209060600Y-76124044D01*
X209041466Y-76120238D01*
X208815396Y-76123582D01*
X208810730Y-76120783D01*
X208791244Y-76121731D01*
X208613751Y-76169450D01*
X208609350Y-76167983D01*
X208590534Y-76173136D01*
X208504833Y-76219282D01*
X208498522Y-76219282D01*
X208482301Y-76230121D01*
X208479964Y-76232672D01*
X208479884Y-76232716D01*
X208479860Y-76232786D01*
X208442506Y-76273580D01*
X208437278Y-76275323D01*
X208425316Y-76290735D01*
X208382800Y-76382623D01*
X208376225Y-76389199D01*
X208373560Y-76402592D01*
X208372545Y-76404788D01*
X208372907Y-76405876D01*
X208372419Y-76408333D01*
X207733335Y-76408333D01*
X207647707Y-76368714D01*
X207641132Y-76362139D01*
X207627738Y-76359474D01*
X207625543Y-76358459D01*
X207624454Y-76358821D01*
X207621998Y-76358333D01*
X206793341Y-76362139D01*
X206766281Y-76389199D01*
X206651364Y-76389199D01*
X206651364Y-75170238D01*
X207381522Y-75170238D01*
X207385328Y-75951277D01*
X207412388Y-75978337D01*
X207450656Y-75978337D01*
X207477716Y-75951277D01*
X207481522Y-75932143D01*
X207480501Y-75722532D01*
X209280986Y-75722532D01*
X209280986Y-75722533D01*
X209280986Y-75760802D01*
X209291825Y-75777023D01*
X209355666Y-75835480D01*
X209393934Y-75835480D01*
X209393935Y-75835480D01*
X209393937Y-75835477D01*
X209410155Y-75824641D01*
X209468613Y-75760802D01*
X209468613Y-75722533D01*
X209468613Y-75722532D01*
X209457774Y-75706311D01*
X209393945Y-75647864D01*
X209393935Y-75647854D01*
X209355666Y-75647854D01*
X209339445Y-75658692D01*
X209280986Y-75722532D01*
X207480501Y-75722532D01*
X207477716Y-75151104D01*
X207450656Y-75124044D01*
X207412388Y-75124044D01*
X207385328Y-75151104D01*
X207381522Y-75170238D01*
X206651364Y-75170238D01*
X206651364Y-75037084D01*
X208373370Y-75037084D01*
X208376225Y-75041366D01*
X208376225Y-75046515D01*
X208386521Y-75056811D01*
X208394597Y-75068925D01*
X208399644Y-75069934D01*
X208403285Y-75073575D01*
X208422419Y-75077381D01*
X209374559Y-75073825D01*
X209376225Y-75332229D01*
X209403285Y-75359289D01*
X209441553Y-75359289D01*
X209468613Y-75332229D01*
X209472419Y-75313095D01*
X209468613Y-74722533D01*
X209441553Y-74695473D01*
X209403285Y-74695473D01*
X209376225Y-74722533D01*
X209372419Y-74741667D01*
X209373939Y-74977562D01*
X208577256Y-74980537D01*
X208580418Y-74978337D01*
X208584410Y-74978337D01*
X208600631Y-74967498D01*
X208686968Y-74876779D01*
X208693274Y-74874678D01*
X208705235Y-74859266D01*
X208758007Y-74745212D01*
X208745905Y-74708907D01*
X208711677Y-74691793D01*
X208675373Y-74703895D01*
X208663411Y-74719307D01*
X208625447Y-74801357D01*
X208625159Y-74801550D01*
X208542360Y-74888549D01*
X208537541Y-74890540D01*
X208407298Y-74981172D01*
X208403285Y-74981187D01*
X208394152Y-74990319D01*
X208380875Y-74999559D01*
X208379865Y-75004606D01*
X208376225Y-75008247D01*
X208376225Y-75022809D01*
X208373370Y-75037084D01*
X206651364Y-75037084D01*
X206651364Y-74408333D01*
X207095808Y-74408333D01*
X207099029Y-74545447D01*
X207095934Y-74554735D01*
X207099558Y-74567970D01*
X207099614Y-74570324D01*
X207100425Y-74571135D01*
X207101087Y-74573551D01*
X207147233Y-74659251D01*
X207147233Y-74665562D01*
X207158072Y-74681783D01*
X207160623Y-74684119D01*
X207160667Y-74684200D01*
X207160736Y-74684223D01*
X207201530Y-74721578D01*
X207203273Y-74726807D01*
X207218685Y-74738768D01*
X207310574Y-74781284D01*
X207317150Y-74787860D01*
X207330543Y-74790524D01*
X207332739Y-74791540D01*
X207333827Y-74791177D01*
X207336284Y-74791666D01*
X207615463Y-74788180D01*
X207625543Y-74791540D01*
X207638877Y-74787888D01*
X207641132Y-74787860D01*
X207641943Y-74787048D01*
X207644359Y-74786387D01*
X207730059Y-74740241D01*
X207736370Y-74740241D01*
X207752591Y-74729403D01*
X207754929Y-74726849D01*
X207755008Y-74726807D01*
X207755030Y-74726738D01*
X207792386Y-74685943D01*
X207797616Y-74684201D01*
X207809577Y-74668789D01*
X207852093Y-74576899D01*
X207858669Y-74570324D01*
X207861333Y-74556930D01*
X207862349Y-74554735D01*
X207861986Y-74553646D01*
X207862475Y-74551190D01*
X207859253Y-74414074D01*
X207862349Y-74404788D01*
X207858724Y-74391552D01*
X207858669Y-74389199D01*
X207857857Y-74388387D01*
X207857196Y-74385972D01*
X207811050Y-74300271D01*
X207811050Y-74293960D01*
X207800211Y-74277739D01*
X207797659Y-74275402D01*
X207797616Y-74275322D01*
X207797545Y-74275298D01*
X207756750Y-74237943D01*
X207755008Y-74232716D01*
X207739596Y-74220754D01*
X207647707Y-74178238D01*
X207641132Y-74171663D01*
X207627738Y-74168998D01*
X207625543Y-74167983D01*
X207624454Y-74168345D01*
X207621998Y-74167857D01*
X207342817Y-74171342D01*
X207332739Y-74167983D01*
X207319404Y-74171634D01*
X207317150Y-74171663D01*
X207316338Y-74172474D01*
X207313923Y-74173136D01*
X207228222Y-74219282D01*
X207221911Y-74219282D01*
X207205690Y-74230121D01*
X207203353Y-74232672D01*
X207203273Y-74232716D01*
X207203249Y-74232786D01*
X207165895Y-74273580D01*
X207160667Y-74275323D01*
X207148705Y-74290735D01*
X207106189Y-74382623D01*
X207099614Y-74389199D01*
X207096949Y-74402592D01*
X207095934Y-74404788D01*
X207096296Y-74405876D01*
X207095808Y-74408333D01*
X206651364Y-74408333D01*
X206651364Y-73934626D01*
X208705814Y-73934626D01*
X208722196Y-73969210D01*
X208738935Y-73979230D01*
X209279261Y-74169019D01*
X208722196Y-74371266D01*
X208705814Y-74405850D01*
X208718685Y-74441889D01*
X208753269Y-74458271D01*
X208772569Y-74455420D01*
X209422675Y-74219394D01*
X209424901Y-74220176D01*
X209439269Y-74213370D01*
X209455975Y-74207305D01*
X209457103Y-74204922D01*
X209459486Y-74203794D01*
X209465148Y-74187938D01*
X209472357Y-74172721D01*
X209471470Y-74170238D01*
X209472357Y-74167755D01*
X209465148Y-74152537D01*
X209459486Y-74136682D01*
X209457103Y-74135553D01*
X209455975Y-74133171D01*
X209439236Y-74123151D01*
X208753269Y-73882205D01*
X208718685Y-73898587D01*
X208705814Y-73934626D01*
X206651364Y-73934626D01*
X206651364Y-73503571D01*
X207095808Y-73503571D01*
X207099029Y-73640685D01*
X207095934Y-73649973D01*
X207099558Y-73663208D01*
X207099614Y-73665562D01*
X207100425Y-73666373D01*
X207101087Y-73668789D01*
X207151893Y-73763144D01*
X207155654Y-73774426D01*
X207159629Y-73777511D01*
X207160667Y-73779438D01*
X207163200Y-73780282D01*
X207171066Y-73786387D01*
X207262955Y-73828903D01*
X207269531Y-73835479D01*
X207282924Y-73838143D01*
X207285120Y-73839159D01*
X207286208Y-73838796D01*
X207288665Y-73839285D01*
X207831609Y-73835479D01*
X207858669Y-73808419D01*
X207858669Y-73770151D01*
X207831609Y-73743091D01*
X207812475Y-73739285D01*
X207307271Y-73742826D01*
X207232080Y-73708036D01*
X207195666Y-73640409D01*
X207192858Y-73520897D01*
X207228493Y-73443880D01*
X207228782Y-73443688D01*
X207259554Y-73410082D01*
X207831609Y-73406908D01*
X207858669Y-73379848D01*
X207858669Y-73341580D01*
X207831609Y-73314520D01*
X207812475Y-73310714D01*
X207126674Y-73314520D01*
X207099614Y-73341580D01*
X207099614Y-73379848D01*
X207126674Y-73406908D01*
X207137978Y-73409156D01*
X207106189Y-73477861D01*
X207099614Y-73484437D01*
X207096949Y-73497830D01*
X207095934Y-73500026D01*
X207096296Y-73501114D01*
X207095808Y-73503571D01*
X206651364Y-73503571D01*
X206651364Y-72865390D01*
X206766281Y-72865390D01*
X206766281Y-72903658D01*
X206777120Y-72919879D01*
X206840959Y-72978337D01*
X206840960Y-72978337D01*
X206879228Y-72978337D01*
X206895449Y-72967498D01*
X206953907Y-72903659D01*
X206953907Y-72865390D01*
X207099614Y-72865390D01*
X207099614Y-72903658D01*
X207126674Y-72930718D01*
X207145808Y-72934524D01*
X207831609Y-72930718D01*
X207858669Y-72903658D01*
X207858669Y-72865390D01*
X207831609Y-72838330D01*
X207812475Y-72834524D01*
X207126674Y-72838330D01*
X207099614Y-72865390D01*
X206953907Y-72865390D01*
X206953907Y-72865389D01*
X206943068Y-72849168D01*
X206879228Y-72790711D01*
X206840959Y-72790711D01*
X206824738Y-72801550D01*
X206766282Y-72865389D01*
X206766281Y-72865390D01*
X206651364Y-72865390D01*
X206651364Y-71960628D01*
X207099614Y-71960628D01*
X207099614Y-71998896D01*
X207126674Y-72025956D01*
X207145808Y-72029762D01*
X207651012Y-72026220D01*
X207726202Y-72061010D01*
X207762616Y-72128636D01*
X207765424Y-72248148D01*
X207729789Y-72325164D01*
X207729501Y-72325358D01*
X207698727Y-72358964D01*
X207126674Y-72362139D01*
X207099614Y-72389199D01*
X207099614Y-72427467D01*
X207126674Y-72454527D01*
X207145808Y-72458333D01*
X207831609Y-72454527D01*
X207858669Y-72427467D01*
X207858669Y-72389199D01*
X207831609Y-72362139D01*
X207820304Y-72359890D01*
X207852093Y-72291185D01*
X207858669Y-72284610D01*
X207861333Y-72271216D01*
X207862349Y-72269021D01*
X207861986Y-72267932D01*
X207862475Y-72265476D01*
X207859253Y-72128360D01*
X207862349Y-72119074D01*
X207858724Y-72105838D01*
X207858669Y-72103485D01*
X207857857Y-72102673D01*
X207857196Y-72100258D01*
X207806386Y-72005896D01*
X207802628Y-71994621D01*
X207798654Y-71991537D01*
X207797616Y-71989608D01*
X207795080Y-71988762D01*
X207787216Y-71982659D01*
X207695326Y-71940143D01*
X207688751Y-71933568D01*
X207675355Y-71930903D01*
X207673161Y-71929888D01*
X207672073Y-71930250D01*
X207669617Y-71929762D01*
X207126674Y-71933568D01*
X207099614Y-71960628D01*
X206651364Y-71960628D01*
X206651364Y-71484437D01*
X206766281Y-71484437D01*
X206766281Y-71522705D01*
X206793341Y-71549765D01*
X206812475Y-71553571D01*
X207193085Y-71552149D01*
X207196971Y-71553445D01*
X207199610Y-71552125D01*
X207754526Y-71550052D01*
X207761311Y-71553445D01*
X207771680Y-71549988D01*
X207831609Y-71549765D01*
X207858669Y-71522705D01*
X207858669Y-71484437D01*
X207838232Y-71464000D01*
X207852093Y-71434042D01*
X207858669Y-71427467D01*
X207861333Y-71414073D01*
X207862349Y-71411878D01*
X207861986Y-71410789D01*
X207862475Y-71408333D01*
X207859127Y-71223976D01*
X207862349Y-71214312D01*
X207858710Y-71201027D01*
X207858669Y-71198723D01*
X207857857Y-71197911D01*
X207857196Y-71195496D01*
X207811050Y-71109795D01*
X207811050Y-71103484D01*
X207800211Y-71087263D01*
X207797659Y-71084926D01*
X207797616Y-71084846D01*
X207797545Y-71084822D01*
X207756750Y-71047467D01*
X207755008Y-71042240D01*
X207739596Y-71030278D01*
X207647707Y-70987762D01*
X207641132Y-70981187D01*
X207627738Y-70978522D01*
X207625543Y-70977507D01*
X207624454Y-70977869D01*
X207621998Y-70977381D01*
X207342817Y-70980866D01*
X207332739Y-70977507D01*
X207319404Y-70981158D01*
X207317150Y-70981187D01*
X207316338Y-70981998D01*
X207313923Y-70982660D01*
X207228222Y-71028806D01*
X207221911Y-71028806D01*
X207205690Y-71039645D01*
X207203353Y-71042196D01*
X207203273Y-71042240D01*
X207203249Y-71042310D01*
X207165895Y-71083104D01*
X207160667Y-71084847D01*
X207148705Y-71100259D01*
X207106189Y-71192147D01*
X207099614Y-71198723D01*
X207096949Y-71212116D01*
X207095934Y-71214312D01*
X207096296Y-71215400D01*
X207095808Y-71217857D01*
X207099155Y-71402213D01*
X207095934Y-71411878D01*
X207099572Y-71425162D01*
X207099614Y-71427467D01*
X207100425Y-71428278D01*
X207101087Y-71430694D01*
X207114808Y-71456176D01*
X206793341Y-71457377D01*
X206766281Y-71484437D01*
X206651364Y-71484437D01*
X206651364Y-70646428D01*
X207095808Y-70646428D01*
X207099614Y-70760800D01*
X207126674Y-70787860D01*
X207164942Y-70787860D01*
X207192002Y-70760800D01*
X207195808Y-70741666D01*
X207193191Y-70663034D01*
X207228493Y-70586737D01*
X207228782Y-70586545D01*
X207264203Y-70547863D01*
X207344082Y-70504851D01*
X207831609Y-70502146D01*
X207858669Y-70475086D01*
X207858669Y-70436818D01*
X207831609Y-70409758D01*
X207812475Y-70405952D01*
X207340223Y-70408572D01*
X207332739Y-70406078D01*
X207323285Y-70408666D01*
X207126674Y-70409758D01*
X207099614Y-70436818D01*
X207099614Y-70475086D01*
X207126674Y-70502146D01*
X207145808Y-70505952D01*
X207171265Y-70505810D01*
X207165895Y-70511675D01*
X207160667Y-70513418D01*
X207148705Y-70528830D01*
X207106189Y-70620718D01*
X207099614Y-70627294D01*
X207096949Y-70640687D01*
X207095934Y-70642883D01*
X207096296Y-70643971D01*
X207095808Y-70646428D01*
X206651364Y-70646428D01*
X206651364Y-69785741D01*
X206762601Y-69785741D01*
X206763782Y-69789285D01*
X206762601Y-69792829D01*
X206769688Y-69807005D01*
X206774702Y-69822045D01*
X206778044Y-69823715D01*
X206779715Y-69827058D01*
X206796664Y-69836719D01*
X207503650Y-70069598D01*
X207507626Y-70073574D01*
X207515719Y-70073574D01*
X207816019Y-70172492D01*
X207850247Y-70155378D01*
X207862349Y-70119074D01*
X207845234Y-70084845D01*
X207828286Y-70075184D01*
X207576490Y-69992243D01*
X207573364Y-69585420D01*
X207845234Y-69493725D01*
X207862349Y-69459496D01*
X207850247Y-69423192D01*
X207816019Y-69406078D01*
X207796663Y-69408518D01*
X207510614Y-69504996D01*
X207507626Y-69504996D01*
X207506105Y-69506516D01*
X206812301Y-69740521D01*
X206808931Y-69739411D01*
X206795120Y-69746316D01*
X206779715Y-69751512D01*
X206778044Y-69754854D01*
X206774702Y-69756525D01*
X206769688Y-69771564D01*
X206762601Y-69785741D01*
X206651364Y-69785741D01*
X206651364Y-69294967D01*
X209583530Y-69294967D01*
X209583530Y-82851352D01*
G37*
D11*
%TO.C,G\u002A\u002A\u002A*%
G36*
X198039877Y-72555928D02*
G01*
X198039877Y-73039877D01*
X197555928Y-73039877D01*
X197071979Y-73039877D01*
X197071979Y-72555928D01*
X197071979Y-72071979D01*
X197555928Y-72071979D01*
X198039877Y-72071979D01*
X198039877Y-72555928D01*
G37*
G36*
X198039877Y-79653850D02*
G01*
X198039877Y-80137799D01*
X197555928Y-80137799D01*
X197071979Y-80137799D01*
X197071979Y-79653850D01*
X197071979Y-79169900D01*
X197555928Y-79169900D01*
X198039877Y-79169900D01*
X198039877Y-79653850D01*
G37*
G36*
X198685143Y-74169092D02*
G01*
X198685143Y-74330408D01*
X198362510Y-74330408D01*
X198039877Y-74330408D01*
X198039877Y-74169092D01*
X198039877Y-74007776D01*
X198362510Y-74007776D01*
X198685143Y-74007776D01*
X198685143Y-74169092D01*
G37*
G36*
X199330408Y-80299115D02*
G01*
X199330408Y-80460432D01*
X199169092Y-80460432D01*
X199007776Y-80460432D01*
X199007776Y-80299115D01*
X199007776Y-80137799D01*
X199169092Y-80137799D01*
X199330408Y-80137799D01*
X199330408Y-80299115D01*
G37*
G36*
X199653041Y-80621748D02*
G01*
X199653041Y-80783064D01*
X199491725Y-80783064D01*
X199330408Y-80783064D01*
X199330408Y-80621748D01*
X199330408Y-80460432D01*
X199491725Y-80460432D01*
X199653041Y-80460432D01*
X199653041Y-80621748D01*
G37*
G36*
X199975674Y-78040686D02*
G01*
X199975674Y-78202002D01*
X199814358Y-78202002D01*
X199653041Y-78202002D01*
X199653041Y-78040686D01*
X199653041Y-77879369D01*
X199814358Y-77879369D01*
X199975674Y-77879369D01*
X199975674Y-78040686D01*
G37*
G36*
X200298307Y-72878561D02*
G01*
X200298307Y-73039877D01*
X200136990Y-73039877D01*
X199975674Y-73039877D01*
X199975674Y-72878561D01*
X199975674Y-72717244D01*
X200136990Y-72717244D01*
X200298307Y-72717244D01*
X200298307Y-72878561D01*
G37*
G36*
X200620940Y-73523826D02*
G01*
X200620940Y-73685143D01*
X200459623Y-73685143D01*
X200298307Y-73685143D01*
X200298307Y-73523826D01*
X200298307Y-73362510D01*
X200459623Y-73362510D01*
X200620940Y-73362510D01*
X200620940Y-73523826D01*
G37*
G36*
X200943572Y-80621748D02*
G01*
X200943572Y-80783064D01*
X200782256Y-80783064D01*
X200620940Y-80783064D01*
X200620940Y-80621748D01*
X200620940Y-80460432D01*
X200782256Y-80460432D01*
X200943572Y-80460432D01*
X200943572Y-80621748D01*
G37*
G36*
X201588838Y-74491725D02*
G01*
X201588838Y-74653041D01*
X201427522Y-74653041D01*
X201266205Y-74653041D01*
X201266205Y-74491725D01*
X201266205Y-74330408D01*
X201427522Y-74330408D01*
X201588838Y-74330408D01*
X201588838Y-74491725D01*
G37*
G36*
X202234104Y-80621748D02*
G01*
X202234104Y-80783064D01*
X202072787Y-80783064D01*
X201911471Y-80783064D01*
X201911471Y-80621748D01*
X201911471Y-80460432D01*
X202072787Y-80460432D01*
X202234104Y-80460432D01*
X202234104Y-80621748D01*
G37*
G36*
X203202002Y-73523826D02*
G01*
X203202002Y-73685143D01*
X203040686Y-73685143D01*
X202879369Y-73685143D01*
X202879369Y-73523826D01*
X202879369Y-73362510D01*
X203040686Y-73362510D01*
X203202002Y-73362510D01*
X203202002Y-73523826D01*
G37*
G36*
X203847268Y-74169092D02*
G01*
X203847268Y-74330408D01*
X203524635Y-74330408D01*
X203202002Y-74330408D01*
X203202002Y-74169092D01*
X203202002Y-74007776D01*
X203524635Y-74007776D01*
X203847268Y-74007776D01*
X203847268Y-74169092D01*
G37*
G36*
X203847268Y-78685951D02*
G01*
X203847268Y-78847268D01*
X203685951Y-78847268D01*
X203524635Y-78847268D01*
X203524635Y-78685951D01*
X203524635Y-78524635D01*
X203685951Y-78524635D01*
X203847268Y-78524635D01*
X203847268Y-78685951D01*
G37*
G36*
X205137799Y-72555928D02*
G01*
X205137799Y-73039877D01*
X204653850Y-73039877D01*
X204169900Y-73039877D01*
X204169900Y-72555928D01*
X204169900Y-72071979D01*
X204653850Y-72071979D01*
X205137799Y-72071979D01*
X205137799Y-72555928D01*
G37*
G36*
X205783064Y-74169092D02*
G01*
X205783064Y-74330408D01*
X204976482Y-74330408D01*
X204169900Y-74330408D01*
X204169900Y-74169092D01*
X204169900Y-74007776D01*
X204976482Y-74007776D01*
X205783064Y-74007776D01*
X205783064Y-74169092D01*
G37*
G36*
X205783064Y-76750154D02*
G01*
X205783064Y-77234104D01*
X205621748Y-77234104D01*
X205460432Y-77234104D01*
X205460432Y-76750154D01*
X205460432Y-76266205D01*
X205621748Y-76266205D01*
X205783064Y-76266205D01*
X205783064Y-76750154D01*
G37*
G36*
X197071979Y-77395420D02*
G01*
X197071979Y-77556736D01*
X196910662Y-77556736D01*
X196749346Y-77556736D01*
X196749346Y-77718053D01*
X196749346Y-77879369D01*
X196588030Y-77879369D01*
X196426713Y-77879369D01*
X196426713Y-77718053D01*
X196426713Y-77556736D01*
X196588030Y-77556736D01*
X196749346Y-77556736D01*
X196749346Y-77395420D01*
X196749346Y-77234104D01*
X196910662Y-77234104D01*
X197071979Y-77234104D01*
X197071979Y-77395420D01*
G37*
G36*
X196749346Y-71426713D02*
G01*
X197555928Y-71426713D01*
X198685143Y-71426713D01*
X198685143Y-72555928D01*
X198685143Y-73685143D01*
X197555928Y-73685143D01*
X196426713Y-73685143D01*
X196426713Y-72555928D01*
X196749346Y-72555928D01*
X196749346Y-73362510D01*
X197555928Y-73362510D01*
X198362510Y-73362510D01*
X198362510Y-72555928D01*
X198362510Y-71749346D01*
X197555928Y-71749346D01*
X196749346Y-71749346D01*
X196749346Y-72555928D01*
X196426713Y-72555928D01*
X196426713Y-71426713D01*
X196749346Y-71426713D01*
G37*
G36*
X196749346Y-78524635D02*
G01*
X197555928Y-78524635D01*
X198685143Y-78524635D01*
X198685143Y-79653850D01*
X198685143Y-80783064D01*
X197555928Y-80783064D01*
X196426713Y-80783064D01*
X196426713Y-79653850D01*
X196749346Y-79653850D01*
X196749346Y-80460432D01*
X197555928Y-80460432D01*
X198362510Y-80460432D01*
X198362510Y-79653850D01*
X198362510Y-78847268D01*
X197555928Y-78847268D01*
X196749346Y-78847268D01*
X196749346Y-79653850D01*
X196426713Y-79653850D01*
X196426713Y-78524635D01*
X196749346Y-78524635D01*
G37*
G36*
X203847268Y-71426713D02*
G01*
X204653850Y-71426713D01*
X205783064Y-71426713D01*
X205783064Y-72555928D01*
X205783064Y-73685143D01*
X204653850Y-73685143D01*
X203524635Y-73685143D01*
X203524635Y-72555928D01*
X203847268Y-72555928D01*
X203847268Y-73362510D01*
X204653850Y-73362510D01*
X205460432Y-73362510D01*
X205460432Y-72555928D01*
X205460432Y-71749346D01*
X204653850Y-71749346D01*
X203847268Y-71749346D01*
X203847268Y-72555928D01*
X203524635Y-72555928D01*
X203524635Y-71426713D01*
X203847268Y-71426713D01*
G37*
G36*
X199653041Y-76750154D02*
G01*
X199653041Y-76911471D01*
X199814358Y-76911471D01*
X199975674Y-76911471D01*
X199975674Y-76750154D01*
X199975674Y-76588838D01*
X200136990Y-76588838D01*
X200298307Y-76588838D01*
X200298307Y-76750154D01*
X200298307Y-76911471D01*
X200136990Y-76911471D01*
X199975674Y-76911471D01*
X199975674Y-77234104D01*
X199975674Y-77556736D01*
X199814358Y-77556736D01*
X199653041Y-77556736D01*
X199653041Y-77718053D01*
X199653041Y-77879369D01*
X199491725Y-77879369D01*
X199330408Y-77879369D01*
X199330408Y-77718053D01*
X199330408Y-77556736D01*
X199491725Y-77556736D01*
X199653041Y-77556736D01*
X199653041Y-77234104D01*
X199653041Y-76911471D01*
X199491725Y-76911471D01*
X199330408Y-76911471D01*
X199330408Y-76750154D01*
X199330408Y-76588838D01*
X199491725Y-76588838D01*
X199653041Y-76588838D01*
X199653041Y-76750154D01*
G37*
G36*
X199491725Y-78524635D02*
G01*
X199653041Y-78524635D01*
X199653041Y-78847268D01*
X199653041Y-79169900D01*
X199814358Y-79169900D01*
X199975674Y-79169900D01*
X199975674Y-79331217D01*
X199975674Y-79492533D01*
X199653041Y-79492533D01*
X199330408Y-79492533D01*
X199330408Y-79653850D01*
X199330408Y-79815166D01*
X199169092Y-79815166D01*
X199007776Y-79815166D01*
X199007776Y-79653850D01*
X199007776Y-79492533D01*
X199169092Y-79492533D01*
X199330408Y-79492533D01*
X199330408Y-79331217D01*
X199330408Y-79169900D01*
X199169092Y-79169900D01*
X199007776Y-79169900D01*
X199007776Y-79008584D01*
X199007776Y-78847268D01*
X199169092Y-78847268D01*
X199330408Y-78847268D01*
X199330408Y-78685951D01*
X199330408Y-78524635D01*
X199491725Y-78524635D01*
G37*
G36*
X199330408Y-78202002D02*
G01*
X199330408Y-78524635D01*
X199169092Y-78524635D01*
X199007776Y-78524635D01*
X199007776Y-78202002D01*
X199007776Y-77879369D01*
X199169092Y-77879369D01*
X199330408Y-77879369D01*
X199330408Y-78202002D01*
G37*
G36*
X197717244Y-77234104D02*
G01*
X197717244Y-77556736D01*
X197878561Y-77556736D01*
X198039877Y-77556736D01*
X198039877Y-77395420D01*
X198039877Y-77234104D01*
X198523826Y-77234104D01*
X199007776Y-77234104D01*
X199007776Y-77072787D01*
X199007776Y-76911471D01*
X199169092Y-76911471D01*
X199330408Y-76911471D01*
X199330408Y-77234104D01*
X199330408Y-77556736D01*
X199169092Y-77556736D01*
X199007776Y-77556736D01*
X199007776Y-77718053D01*
X199007776Y-77879369D01*
X198846459Y-77879369D01*
X198685143Y-77879369D01*
X198685143Y-78040686D01*
X198685143Y-78202002D01*
X198362510Y-78202002D01*
X198039877Y-78202002D01*
X198039877Y-78040686D01*
X198039877Y-77879369D01*
X198362510Y-77879369D01*
X198685143Y-77879369D01*
X198685143Y-77718053D01*
X198685143Y-77556736D01*
X198362510Y-77556736D01*
X198039877Y-77556736D01*
X198039877Y-77718053D01*
X198039877Y-77879369D01*
X197878561Y-77879369D01*
X197717244Y-77879369D01*
X197717244Y-78040686D01*
X197717244Y-78202002D01*
X197233295Y-78202002D01*
X196749346Y-78202002D01*
X196749346Y-78040686D01*
X196749346Y-77879369D01*
X197233295Y-77879369D01*
X197717244Y-77879369D01*
X197717244Y-77718053D01*
X197717244Y-77556736D01*
X197555928Y-77556736D01*
X197394612Y-77556736D01*
X197394612Y-77234104D01*
X197394612Y-76911471D01*
X197555928Y-76911471D01*
X197717244Y-76911471D01*
X197717244Y-77234104D01*
G37*
G36*
X200943572Y-75620940D02*
G01*
X200943572Y-75943572D01*
X201266205Y-75943572D01*
X201588838Y-75943572D01*
X201588838Y-75782256D01*
X201588838Y-75620940D01*
X201427522Y-75620940D01*
X201266205Y-75620940D01*
X201266205Y-75459623D01*
X201266205Y-75298307D01*
X201588838Y-75298307D01*
X201911471Y-75298307D01*
X201911471Y-75782256D01*
X201911471Y-76266205D01*
X201750154Y-76266205D01*
X201588838Y-76266205D01*
X201588838Y-76427522D01*
X201588838Y-76588838D01*
X201427522Y-76588838D01*
X201266205Y-76588838D01*
X201266205Y-76911471D01*
X201266205Y-77234104D01*
X201104889Y-77234104D01*
X200943572Y-77234104D01*
X200943572Y-77072787D01*
X200943572Y-76911471D01*
X200782256Y-76911471D01*
X200620940Y-76911471D01*
X200620940Y-77234104D01*
X200620940Y-77556736D01*
X200459623Y-77556736D01*
X200298307Y-77556736D01*
X200298307Y-77234104D01*
X200298307Y-76911471D01*
X200459623Y-76911471D01*
X200620940Y-76911471D01*
X200620940Y-76750154D01*
X200620940Y-76588838D01*
X200782256Y-76588838D01*
X200943572Y-76588838D01*
X200943572Y-76266205D01*
X200943572Y-75943572D01*
X200620940Y-75943572D01*
X200298307Y-75943572D01*
X200298307Y-75782256D01*
X200298307Y-75620940D01*
X200459623Y-75620940D01*
X200620940Y-75620940D01*
X200620940Y-75459623D01*
X200620940Y-75298307D01*
X200782256Y-75298307D01*
X200943572Y-75298307D01*
X200943572Y-75620940D01*
G37*
G36*
X200620940Y-71588030D02*
G01*
X200620940Y-71749346D01*
X200782256Y-71749346D01*
X200943572Y-71749346D01*
X200943572Y-71588030D01*
X200943572Y-71426713D01*
X201104889Y-71426713D01*
X201266205Y-71426713D01*
X201266205Y-71588030D01*
X201266205Y-71749346D01*
X201104889Y-71749346D01*
X200943572Y-71749346D01*
X200943572Y-71910662D01*
X200943572Y-72071979D01*
X200782256Y-72071979D01*
X200620940Y-72071979D01*
X200620940Y-72394612D01*
X200620940Y-72717244D01*
X200459623Y-72717244D01*
X200298307Y-72717244D01*
X200298307Y-72394612D01*
X200298307Y-72071979D01*
X200459623Y-72071979D01*
X200620940Y-72071979D01*
X200620940Y-71910662D01*
X200620940Y-71749346D01*
X200298307Y-71749346D01*
X199975674Y-71749346D01*
X199975674Y-71910662D01*
X199975674Y-72071979D01*
X199814358Y-72071979D01*
X199653041Y-72071979D01*
X199653041Y-71910662D01*
X199653041Y-71749346D01*
X199491725Y-71749346D01*
X199330408Y-71749346D01*
X199330408Y-72233295D01*
X199330408Y-72717244D01*
X199491725Y-72717244D01*
X199653041Y-72717244D01*
X199653041Y-72878561D01*
X199653041Y-73039877D01*
X199814358Y-73039877D01*
X199975674Y-73039877D01*
X199975674Y-73685143D01*
X199975674Y-74330408D01*
X200136990Y-74330408D01*
X200298307Y-74330408D01*
X200298307Y-74169092D01*
X200298307Y-74007776D01*
X200620940Y-74007776D01*
X200943572Y-74007776D01*
X200943572Y-73685143D01*
X200943572Y-73362510D01*
X201104889Y-73362510D01*
X201266205Y-73362510D01*
X201266205Y-73846459D01*
X201266205Y-74330408D01*
X201104889Y-74330408D01*
X200943572Y-74330408D01*
X200943572Y-74653041D01*
X200943572Y-74975674D01*
X200782256Y-74975674D01*
X200620940Y-74975674D01*
X200620940Y-74814358D01*
X200620940Y-74653041D01*
X200459623Y-74653041D01*
X200298307Y-74653041D01*
X200298307Y-74814358D01*
X200298307Y-74975674D01*
X200459623Y-74975674D01*
X200620940Y-74975674D01*
X200620940Y-75136990D01*
X200620940Y-75298307D01*
X200298307Y-75298307D01*
X199975674Y-75298307D01*
X199975674Y-75620940D01*
X199975674Y-75943572D01*
X200136990Y-75943572D01*
X200298307Y-75943572D01*
X200298307Y-76104889D01*
X200298307Y-76266205D01*
X200136990Y-76266205D01*
X199975674Y-76266205D01*
X199975674Y-76427522D01*
X199975674Y-76588838D01*
X199814358Y-76588838D01*
X199653041Y-76588838D01*
X199653041Y-76266205D01*
X199653041Y-75943572D01*
X199491725Y-75943572D01*
X199330408Y-75943572D01*
X199330408Y-76104889D01*
X199330408Y-76266205D01*
X199169092Y-76266205D01*
X199007776Y-76266205D01*
X199007776Y-75943572D01*
X199007776Y-75620940D01*
X198685143Y-75620940D01*
X198362510Y-75620940D01*
X198362510Y-75782256D01*
X198362510Y-75943572D01*
X198523826Y-75943572D01*
X198685143Y-75943572D01*
X198685143Y-76104889D01*
X198685143Y-76266205D01*
X198523826Y-76266205D01*
X198362510Y-76266205D01*
X198362510Y-76427522D01*
X198362510Y-76588838D01*
X198685143Y-76588838D01*
X199007776Y-76588838D01*
X199007776Y-76750154D01*
X199007776Y-76911471D01*
X198523826Y-76911471D01*
X198039877Y-76911471D01*
X198039877Y-76427522D01*
X198039877Y-75943572D01*
X197878561Y-75943572D01*
X197717244Y-75943572D01*
X197717244Y-76104889D01*
X197717244Y-76266205D01*
X197555928Y-76266205D01*
X197394612Y-76266205D01*
X197394612Y-76588838D01*
X197394612Y-76911471D01*
X196910662Y-76911471D01*
X196426713Y-76911471D01*
X196426713Y-76750154D01*
X196426713Y-76588838D01*
X196588030Y-76588838D01*
X196749346Y-76588838D01*
X196749346Y-76427522D01*
X196749346Y-76266205D01*
X196588030Y-76266205D01*
X196426713Y-76266205D01*
X196426713Y-76104889D01*
X196426713Y-75943572D01*
X196910662Y-75943572D01*
X197394612Y-75943572D01*
X197394612Y-75782256D01*
X197394612Y-75620940D01*
X197555928Y-75620940D01*
X197717244Y-75620940D01*
X197717244Y-75459623D01*
X197717244Y-75298307D01*
X197878561Y-75298307D01*
X198039877Y-75298307D01*
X198039877Y-75459623D01*
X198039877Y-75620940D01*
X198201194Y-75620940D01*
X198362510Y-75620940D01*
X198362510Y-75459623D01*
X198362510Y-75298307D01*
X198846459Y-75298307D01*
X199330408Y-75298307D01*
X199330408Y-75459623D01*
X199330408Y-75620940D01*
X199491725Y-75620940D01*
X199653041Y-75620940D01*
X199653041Y-75298307D01*
X199653041Y-74975674D01*
X199814358Y-74975674D01*
X199975674Y-74975674D01*
X199975674Y-74814358D01*
X199975674Y-74653041D01*
X199653041Y-74653041D01*
X199330408Y-74653041D01*
X199330408Y-74814358D01*
X199330408Y-74975674D01*
X199169092Y-74975674D01*
X199007776Y-74975674D01*
X199007776Y-74169092D01*
X199007776Y-73362510D01*
X199169092Y-73362510D01*
X199330408Y-73362510D01*
X199330408Y-73846459D01*
X199330408Y-74330408D01*
X199491725Y-74330408D01*
X199653041Y-74330408D01*
X199653041Y-73846459D01*
X199653041Y-73362510D01*
X199491725Y-73362510D01*
X199330408Y-73362510D01*
X199330408Y-73201194D01*
X199330408Y-73039877D01*
X199169092Y-73039877D01*
X199007776Y-73039877D01*
X199007776Y-72233295D01*
X199007776Y-71426713D01*
X199814358Y-71426713D01*
X200620940Y-71426713D01*
X200620940Y-71588030D01*
G37*
G36*
X197071979Y-74169092D02*
G01*
X197071979Y-74330408D01*
X197233295Y-74330408D01*
X197394612Y-74330408D01*
X197394612Y-74169092D01*
X197394612Y-74007776D01*
X197555928Y-74007776D01*
X197717244Y-74007776D01*
X197717244Y-74330408D01*
X197717244Y-74653041D01*
X197555928Y-74653041D01*
X197394612Y-74653041D01*
X197394612Y-74814358D01*
X197394612Y-74975674D01*
X197555928Y-74975674D01*
X197717244Y-74975674D01*
X197717244Y-74814358D01*
X197717244Y-74653041D01*
X198201194Y-74653041D01*
X198685143Y-74653041D01*
X198685143Y-74814358D01*
X198685143Y-74975674D01*
X198201194Y-74975674D01*
X197717244Y-74975674D01*
X197717244Y-75136990D01*
X197717244Y-75298307D01*
X197394612Y-75298307D01*
X197071979Y-75298307D01*
X197071979Y-75459623D01*
X197071979Y-75620940D01*
X196910662Y-75620940D01*
X196749346Y-75620940D01*
X196749346Y-75298307D01*
X196749346Y-74975674D01*
X196910662Y-74975674D01*
X197071979Y-74975674D01*
X197071979Y-74814358D01*
X197071979Y-74653041D01*
X196749346Y-74653041D01*
X196426713Y-74653041D01*
X196426713Y-74491725D01*
X196426713Y-74330408D01*
X196588030Y-74330408D01*
X196749346Y-74330408D01*
X196749346Y-74169092D01*
X196749346Y-74007776D01*
X196910662Y-74007776D01*
X197071979Y-74007776D01*
X197071979Y-74169092D01*
G37*
G36*
X205299115Y-74975674D02*
G01*
X205783064Y-74975674D01*
X205783064Y-75298307D01*
X205783064Y-75620940D01*
X205621748Y-75620940D01*
X205460432Y-75620940D01*
X205460432Y-75459623D01*
X205460432Y-75298307D01*
X205299115Y-75298307D01*
X205137799Y-75298307D01*
X205137799Y-75620940D01*
X205137799Y-75943572D01*
X204976482Y-75943572D01*
X204815166Y-75943572D01*
X204815166Y-76104889D01*
X204815166Y-76266205D01*
X204653850Y-76266205D01*
X204492533Y-76266205D01*
X204492533Y-76427522D01*
X204492533Y-76588838D01*
X204331217Y-76588838D01*
X204169900Y-76588838D01*
X204169900Y-76750154D01*
X204169900Y-76911471D01*
X204008584Y-76911471D01*
X203847268Y-76911471D01*
X203847268Y-76750154D01*
X203847268Y-76588838D01*
X203685951Y-76588838D01*
X203524635Y-76588838D01*
X203524635Y-76750154D01*
X203524635Y-76911471D01*
X203685951Y-76911471D01*
X203847268Y-76911471D01*
X203847268Y-77072787D01*
X203847268Y-77234104D01*
X203685951Y-77234104D01*
X203524635Y-77234104D01*
X203524635Y-77395420D01*
X203524635Y-77556736D01*
X203363318Y-77556736D01*
X203202002Y-77556736D01*
X203202002Y-77718053D01*
X203202002Y-77879369D01*
X203363318Y-77879369D01*
X203524635Y-77879369D01*
X203524635Y-77718053D01*
X203524635Y-77556736D01*
X203847268Y-77556736D01*
X204169900Y-77556736D01*
X204169900Y-77718053D01*
X204169900Y-77879369D01*
X204331217Y-77879369D01*
X204492533Y-77879369D01*
X204492533Y-77556736D01*
X204492533Y-77234104D01*
X204815166Y-77234104D01*
X205137799Y-77234104D01*
X205137799Y-77556736D01*
X205137799Y-77879369D01*
X205299115Y-77879369D01*
X205460432Y-77879369D01*
X205460432Y-77718053D01*
X205460432Y-77556736D01*
X205621748Y-77556736D01*
X205783064Y-77556736D01*
X205783064Y-77718053D01*
X205783064Y-77879369D01*
X205621748Y-77879369D01*
X205460432Y-77879369D01*
X205460432Y-78202002D01*
X205460432Y-78524635D01*
X205299115Y-78524635D01*
X205137799Y-78524635D01*
X205137799Y-78685951D01*
X205137799Y-78847268D01*
X205299115Y-78847268D01*
X205460432Y-78847268D01*
X205460432Y-78685951D01*
X205460432Y-78524635D01*
X205621748Y-78524635D01*
X205783064Y-78524635D01*
X205783064Y-79008584D01*
X205783064Y-79492533D01*
X205621748Y-79492533D01*
X205460432Y-79492533D01*
X205460432Y-79653850D01*
X205460432Y-79815166D01*
X205299115Y-79815166D01*
X205137799Y-79815166D01*
X205137799Y-79976482D01*
X205137799Y-80137799D01*
X205299115Y-80137799D01*
X205460432Y-80137799D01*
X205460432Y-79976482D01*
X205460432Y-79815166D01*
X205621748Y-79815166D01*
X205783064Y-79815166D01*
X205783064Y-79976482D01*
X205783064Y-80137799D01*
X205621748Y-80137799D01*
X205460432Y-80137799D01*
X205460432Y-80299115D01*
X205460432Y-80460432D01*
X205137799Y-80460432D01*
X204815166Y-80460432D01*
X204815166Y-80621748D01*
X204815166Y-80783064D01*
X204331217Y-80783064D01*
X203847268Y-80783064D01*
X203847268Y-80621748D01*
X203847268Y-80460432D01*
X204008584Y-80460432D01*
X204169900Y-80460432D01*
X204169900Y-80137799D01*
X204169900Y-79815166D01*
X204331217Y-79815166D01*
X204492533Y-79815166D01*
X204492533Y-79653850D01*
X204492533Y-79492533D01*
X204169900Y-79492533D01*
X203847268Y-79492533D01*
X203847268Y-79815166D01*
X203847268Y-80137799D01*
X203685951Y-80137799D01*
X203524635Y-80137799D01*
X203524635Y-80460432D01*
X203524635Y-80783064D01*
X203202002Y-80783064D01*
X202879369Y-80783064D01*
X202879369Y-80621748D01*
X202879369Y-80460432D01*
X202718053Y-80460432D01*
X202556736Y-80460432D01*
X202556736Y-80299115D01*
X202556736Y-80137799D01*
X202718053Y-80137799D01*
X202879369Y-80137799D01*
X202879369Y-79976482D01*
X202879369Y-79815166D01*
X203040686Y-79815166D01*
X203202002Y-79815166D01*
X203202002Y-79653850D01*
X203202002Y-79492533D01*
X203040686Y-79492533D01*
X202879369Y-79492533D01*
X202879369Y-79169900D01*
X202879369Y-78847268D01*
X202718053Y-78847268D01*
X202556736Y-78847268D01*
X202556736Y-79169900D01*
X202556736Y-79492533D01*
X202234104Y-79492533D01*
X201911471Y-79492533D01*
X201911471Y-79653850D01*
X201911471Y-79815166D01*
X202234104Y-79815166D01*
X202556736Y-79815166D01*
X202556736Y-79976482D01*
X202556736Y-80137799D01*
X202072787Y-80137799D01*
X201588838Y-80137799D01*
X201588838Y-80299115D01*
X201588838Y-80460432D01*
X201427522Y-80460432D01*
X201266205Y-80460432D01*
X201266205Y-80299115D01*
X201266205Y-80137799D01*
X201427522Y-80137799D01*
X201588838Y-80137799D01*
X201588838Y-79815166D01*
X201588838Y-79492533D01*
X201750154Y-79492533D01*
X201911471Y-79492533D01*
X201911471Y-79331217D01*
X201911471Y-79169900D01*
X201750154Y-79169900D01*
X201588838Y-79169900D01*
X201588838Y-79331217D01*
X201588838Y-79492533D01*
X201427522Y-79492533D01*
X201266205Y-79492533D01*
X201266205Y-79815166D01*
X201266205Y-80137799D01*
X201104889Y-80137799D01*
X200943572Y-80137799D01*
X200943572Y-79815166D01*
X200943572Y-79492533D01*
X200782256Y-79492533D01*
X200620940Y-79492533D01*
X200620940Y-79815166D01*
X200620940Y-80137799D01*
X200459623Y-80137799D01*
X200298307Y-80137799D01*
X200298307Y-80299115D01*
X200298307Y-80460432D01*
X200136990Y-80460432D01*
X199975674Y-80460432D01*
X199975674Y-80299115D01*
X199975674Y-80137799D01*
X200136990Y-80137799D01*
X200298307Y-80137799D01*
X200298307Y-79976482D01*
X200298307Y-79815166D01*
X200136990Y-79815166D01*
X199975674Y-79815166D01*
X199975674Y-79653850D01*
X199975674Y-79492533D01*
X200298307Y-79492533D01*
X200620940Y-79492533D01*
X200620940Y-78847268D01*
X200943572Y-78847268D01*
X200943572Y-79169900D01*
X201104889Y-79169900D01*
X201266205Y-79169900D01*
X201266205Y-78847268D01*
X201266205Y-78685951D01*
X201588838Y-78685951D01*
X201588838Y-78847268D01*
X201750154Y-78847268D01*
X201911471Y-78847268D01*
X201911471Y-78685951D01*
X203202002Y-78685951D01*
X203202002Y-79169900D01*
X203685951Y-79169900D01*
X204169900Y-79169900D01*
X204169900Y-78847268D01*
X204492533Y-78847268D01*
X204492533Y-79492533D01*
X204653850Y-79492533D01*
X204815166Y-79492533D01*
X204815166Y-79331217D01*
X205137799Y-79331217D01*
X205137799Y-79492533D01*
X205299115Y-79492533D01*
X205460432Y-79492533D01*
X205460432Y-79331217D01*
X205460432Y-79169900D01*
X205299115Y-79169900D01*
X205137799Y-79169900D01*
X205137799Y-79331217D01*
X204815166Y-79331217D01*
X204815166Y-78847268D01*
X204815166Y-78202002D01*
X204653850Y-78202002D01*
X204492533Y-78202002D01*
X204492533Y-78847268D01*
X204169900Y-78847268D01*
X204169900Y-78685951D01*
X204169900Y-78202002D01*
X203685951Y-78202002D01*
X203202002Y-78202002D01*
X203202002Y-78685951D01*
X201911471Y-78685951D01*
X201911471Y-78524635D01*
X201750154Y-78524635D01*
X201588838Y-78524635D01*
X201588838Y-78685951D01*
X201266205Y-78685951D01*
X201266205Y-78524635D01*
X201104889Y-78524635D01*
X200943572Y-78524635D01*
X200943572Y-78847268D01*
X200620940Y-78847268D01*
X200620940Y-78524635D01*
X200620940Y-77556736D01*
X200782256Y-77556736D01*
X200943572Y-77556736D01*
X200943572Y-77718053D01*
X200943572Y-77879369D01*
X201104889Y-77879369D01*
X201266205Y-77879369D01*
X201588838Y-77879369D01*
X201588838Y-78040686D01*
X201588838Y-78202002D01*
X201911471Y-78202002D01*
X202234104Y-78202002D01*
X202234104Y-78363318D01*
X202234104Y-78524635D01*
X202395420Y-78524635D01*
X202556736Y-78524635D01*
X202556736Y-78363318D01*
X202556736Y-78202002D01*
X202395420Y-78202002D01*
X202234104Y-78202002D01*
X202234104Y-78040686D01*
X202234104Y-77879369D01*
X202556736Y-77879369D01*
X202879369Y-77879369D01*
X202879369Y-77395420D01*
X202879369Y-76911471D01*
X202718053Y-76911471D01*
X202556736Y-76911471D01*
X202556736Y-77072787D01*
X202556736Y-77234104D01*
X202395420Y-77234104D01*
X202234104Y-77234104D01*
X202234104Y-77072787D01*
X202234104Y-76911471D01*
X202072787Y-76911471D01*
X201911471Y-76911471D01*
X201911471Y-77234104D01*
X201911471Y-77556736D01*
X202072787Y-77556736D01*
X202234104Y-77556736D01*
X202234104Y-77718053D01*
X202234104Y-77879369D01*
X201911471Y-77879369D01*
X201588838Y-77879369D01*
X201266205Y-77879369D01*
X201266205Y-77718053D01*
X201266205Y-77556736D01*
X201427522Y-77556736D01*
X201588838Y-77556736D01*
X201588838Y-77234104D01*
X201588838Y-76911471D01*
X201750154Y-76911471D01*
X201911471Y-76911471D01*
X201911471Y-76750154D01*
X201911471Y-76588838D01*
X202072787Y-76588838D01*
X202234104Y-76588838D01*
X202234104Y-76427522D01*
X202234104Y-76266205D01*
X202395420Y-76266205D01*
X202556736Y-76266205D01*
X202556736Y-76104889D01*
X202556736Y-75943572D01*
X202718053Y-75943572D01*
X202879369Y-75943572D01*
X202879369Y-75782256D01*
X202879369Y-75620940D01*
X203040686Y-75620940D01*
X203202002Y-75620940D01*
X203202002Y-75459623D01*
X203202002Y-75298307D01*
X203363318Y-75298307D01*
X203524635Y-75298307D01*
X203524635Y-75459623D01*
X203524635Y-75620940D01*
X203363318Y-75620940D01*
X203202002Y-75620940D01*
X203202002Y-76104889D01*
X203202002Y-76588838D01*
X203363318Y-76588838D01*
X203524635Y-76588838D01*
X203524635Y-76427522D01*
X203524635Y-76266205D01*
X203685951Y-76266205D01*
X203847268Y-76266205D01*
X203847268Y-76104889D01*
X203847268Y-75943572D01*
X204008584Y-75943572D01*
X204169900Y-75943572D01*
X204169900Y-75782256D01*
X204169900Y-75620940D01*
X204008584Y-75620940D01*
X203847268Y-75620940D01*
X203847268Y-75459623D01*
X203847268Y-75298307D01*
X204169900Y-75298307D01*
X204492533Y-75298307D01*
X204492533Y-75620940D01*
X204492533Y-75943572D01*
X204653850Y-75943572D01*
X204815166Y-75943572D01*
X204815166Y-75459623D01*
X204815166Y-74975674D01*
X205299115Y-74975674D01*
G37*
G36*
X205137799Y-76427522D02*
G01*
X205137799Y-76588838D01*
X204976482Y-76588838D01*
X204815166Y-76588838D01*
X204815166Y-76750154D01*
X204815166Y-76911471D01*
X204653850Y-76911471D01*
X204492533Y-76911471D01*
X204492533Y-77072787D01*
X204492533Y-77234104D01*
X204331217Y-77234104D01*
X204169900Y-77234104D01*
X204169900Y-77072787D01*
X204169900Y-76911471D01*
X204331217Y-76911471D01*
X204492533Y-76911471D01*
X204492533Y-76750154D01*
X204492533Y-76588838D01*
X204653850Y-76588838D01*
X204815166Y-76588838D01*
X204815166Y-76427522D01*
X204815166Y-76266205D01*
X204976482Y-76266205D01*
X205137799Y-76266205D01*
X205137799Y-76427522D01*
G37*
G36*
X203202002Y-71588030D02*
G01*
X203202002Y-71749346D01*
X202718053Y-71749346D01*
X202234104Y-71749346D01*
X202234104Y-72233295D01*
X202234104Y-72717244D01*
X202556736Y-72717244D01*
X202879369Y-72717244D01*
X202879369Y-72555928D01*
X202879369Y-72394612D01*
X203040686Y-72394612D01*
X203202002Y-72394612D01*
X203202002Y-72717244D01*
X203202002Y-73039877D01*
X203040686Y-73039877D01*
X202879369Y-73039877D01*
X202879369Y-73201194D01*
X202879369Y-73362510D01*
X202718053Y-73362510D01*
X202556736Y-73362510D01*
X202556736Y-73523826D01*
X202556736Y-73685143D01*
X202395420Y-73685143D01*
X202234104Y-73685143D01*
X202234104Y-73846459D01*
X202234104Y-74007776D01*
X202395420Y-74007776D01*
X202556736Y-74007776D01*
X202556736Y-74169092D01*
X202556736Y-74330408D01*
X202718053Y-74330408D01*
X202879369Y-74330408D01*
X202879369Y-74491725D01*
X202879369Y-74653041D01*
X203363318Y-74653041D01*
X203847268Y-74653041D01*
X203847268Y-74814358D01*
X203847268Y-74975674D01*
X203524635Y-74975674D01*
X203202002Y-74975674D01*
X203202002Y-75136990D01*
X203202002Y-75298307D01*
X202879369Y-75298307D01*
X202556736Y-75298307D01*
X202556736Y-75620940D01*
X202556736Y-75943572D01*
X202395420Y-75943572D01*
X202234104Y-75943572D01*
X202234104Y-75459623D01*
X202234104Y-74975674D01*
X202395420Y-74975674D01*
X202556736Y-74975674D01*
X202556736Y-74814358D01*
X202556736Y-74653041D01*
X202395420Y-74653041D01*
X202234104Y-74653041D01*
X202234104Y-74814358D01*
X202234104Y-74975674D01*
X202072787Y-74975674D01*
X201911471Y-74975674D01*
X201911471Y-74491725D01*
X201911471Y-74007776D01*
X201750154Y-74007776D01*
X201588838Y-74007776D01*
X201588838Y-73685143D01*
X201588838Y-73523826D01*
X201911471Y-73523826D01*
X201911471Y-73685143D01*
X202072787Y-73685143D01*
X202234104Y-73685143D01*
X202234104Y-73523826D01*
X202234104Y-73362510D01*
X202072787Y-73362510D01*
X201911471Y-73362510D01*
X201911471Y-73523826D01*
X201588838Y-73523826D01*
X201588838Y-73362510D01*
X201427522Y-73362510D01*
X201266205Y-73362510D01*
X201266205Y-73201194D01*
X201266205Y-73039877D01*
X201427522Y-73039877D01*
X201588838Y-73039877D01*
X201588838Y-72878561D01*
X201588838Y-72717244D01*
X201750154Y-72717244D01*
X201911471Y-72717244D01*
X201911471Y-72878561D01*
X201911471Y-73039877D01*
X202072787Y-73039877D01*
X202234104Y-73039877D01*
X202234104Y-72878561D01*
X202234104Y-72717244D01*
X202072787Y-72717244D01*
X201911471Y-72717244D01*
X201911471Y-72555928D01*
X201911471Y-72394612D01*
X201750154Y-72394612D01*
X201588838Y-72394612D01*
X201588838Y-72555928D01*
X201588838Y-72717244D01*
X201266205Y-72717244D01*
X200943572Y-72717244D01*
X200943572Y-72878561D01*
X200943572Y-73039877D01*
X200782256Y-73039877D01*
X200620940Y-73039877D01*
X200620940Y-72878561D01*
X200620940Y-72717244D01*
X200782256Y-72717244D01*
X200943572Y-72717244D01*
X200943572Y-72555928D01*
X200943572Y-72394612D01*
X201104889Y-72394612D01*
X201266205Y-72394612D01*
X201266205Y-72233295D01*
X201266205Y-72071979D01*
X201427522Y-72071979D01*
X201588838Y-72071979D01*
X201588838Y-71749346D01*
X201588838Y-71426713D01*
X202395420Y-71426713D01*
X203202002Y-71426713D01*
X203202002Y-71588030D01*
G37*
G36*
X204815166Y-74814358D02*
G01*
X204815166Y-74975674D01*
X204653850Y-74975674D01*
X204492533Y-74975674D01*
X204492533Y-74814358D01*
X204492533Y-74653041D01*
X204653850Y-74653041D01*
X204815166Y-74653041D01*
X204815166Y-74814358D01*
G37*
G36*
X202879369Y-72233295D02*
G01*
X202879369Y-72394612D01*
X202718053Y-72394612D01*
X202556736Y-72394612D01*
X202556736Y-72233295D01*
X202556736Y-72071979D01*
X202718053Y-72071979D01*
X202879369Y-72071979D01*
X202879369Y-72233295D01*
G37*
%TD*%
M02*
