%TF.GenerationSoftware,KiCad,Pcbnew,8.0.3*%
%TF.CreationDate,2024-06-17T22:46:01+08:00*%
%TF.ProjectId,uno_car,756e6f5f-6361-4722-9e6b-696361645f70,v1.0.2*%
%TF.SameCoordinates,Original*%
%TF.FileFunction,Copper,L2,Bot*%
%TF.FilePolarity,Positive*%
%FSLAX46Y46*%
G04 Gerber Fmt 4.6, Leading zero omitted, Abs format (unit mm)*
G04 Created by KiCad (PCBNEW 8.0.3) date 2024-06-17 22:46:01*
%MOMM*%
%LPD*%
G01*
G04 APERTURE LIST*
G04 Aperture macros list*
%AMRoundRect*
0 Rectangle with rounded corners*
0 $1 Rounding radius*
0 $2 $3 $4 $5 $6 $7 $8 $9 X,Y pos of 4 corners*
0 Add a 4 corners polygon primitive as box body*
4,1,4,$2,$3,$4,$5,$6,$7,$8,$9,$2,$3,0*
0 Add four circle primitives for the rounded corners*
1,1,$1+$1,$2,$3*
1,1,$1+$1,$4,$5*
1,1,$1+$1,$6,$7*
1,1,$1+$1,$8,$9*
0 Add four rect primitives between the rounded corners*
20,1,$1+$1,$2,$3,$4,$5,0*
20,1,$1+$1,$4,$5,$6,$7,0*
20,1,$1+$1,$6,$7,$8,$9,0*
20,1,$1+$1,$8,$9,$2,$3,0*%
G04 Aperture macros list end*
%TA.AperFunction,ComponentPad*%
%ADD10RoundRect,0.250000X0.725000X-0.600000X0.725000X0.600000X-0.725000X0.600000X-0.725000X-0.600000X0*%
%TD*%
%TA.AperFunction,ComponentPad*%
%ADD11O,1.950000X1.700000*%
%TD*%
%TA.AperFunction,ComponentPad*%
%ADD12R,2.600000X2.600000*%
%TD*%
%TA.AperFunction,ComponentPad*%
%ADD13C,2.600000*%
%TD*%
%TA.AperFunction,ComponentPad*%
%ADD14R,1.700000X1.700000*%
%TD*%
%TA.AperFunction,ComponentPad*%
%ADD15O,1.700000X1.700000*%
%TD*%
%TA.AperFunction,ComponentPad*%
%ADD16RoundRect,0.250000X0.750000X-0.600000X0.750000X0.600000X-0.750000X0.600000X-0.750000X-0.600000X0*%
%TD*%
%TA.AperFunction,ComponentPad*%
%ADD17O,2.000000X1.700000*%
%TD*%
%TA.AperFunction,ComponentPad*%
%ADD18C,3.000000*%
%TD*%
%TA.AperFunction,ComponentPad*%
%ADD19C,2.500000*%
%TD*%
%TA.AperFunction,ComponentPad*%
%ADD20C,2.000000*%
%TD*%
%TA.AperFunction,ComponentPad*%
%ADD21C,1.524000*%
%TD*%
%TA.AperFunction,ComponentPad*%
%ADD22RoundRect,0.250000X-0.600000X-0.725000X0.600000X-0.725000X0.600000X0.725000X-0.600000X0.725000X0*%
%TD*%
%TA.AperFunction,ComponentPad*%
%ADD23O,1.700000X1.950000*%
%TD*%
%TA.AperFunction,ComponentPad*%
%ADD24R,1.600000X1.600000*%
%TD*%
%TA.AperFunction,ComponentPad*%
%ADD25O,1.600000X1.600000*%
%TD*%
%TA.AperFunction,ViaPad*%
%ADD26C,0.600000*%
%TD*%
%TA.AperFunction,Conductor*%
%ADD27C,0.200000*%
%TD*%
%TA.AperFunction,Conductor*%
%ADD28C,0.600000*%
%TD*%
%TA.AperFunction,Conductor*%
%ADD29C,0.400000*%
%TD*%
%TA.AperFunction,Conductor*%
%ADD30C,0.500000*%
%TD*%
G04 APERTURE END LIST*
D10*
%TO.P,J9,1,Pin_1*%
%TO.N,Net-(J9-Pin_1)*%
X189050000Y-76350000D03*
D11*
%TO.P,J9,2,Pin_2*%
%TO.N,Net-(J9-Pin_2)*%
X189050000Y-73850000D03*
%TO.P,J9,3,Pin_3*%
%TO.N,Net-(J9-Pin_3)*%
X189050000Y-71350000D03*
%TO.P,J9,4,Pin_4*%
%TO.N,Net-(J9-Pin_4)*%
X189050000Y-68850000D03*
%TD*%
D10*
%TO.P,J8,1,Pin_1*%
%TO.N,Net-(J8-Pin_1)*%
X180900000Y-90050000D03*
D11*
%TO.P,J8,2,Pin_2*%
%TO.N,Net-(J8-Pin_2)*%
X180900000Y-87550000D03*
%TO.P,J8,3,Pin_3*%
%TO.N,Net-(J8-Pin_3)*%
X180900000Y-85050000D03*
%TO.P,J8,4,Pin_4*%
%TO.N,Net-(J8-Pin_4)*%
X180900000Y-82550000D03*
%TD*%
D12*
%TO.P,J5,1,Pin_1*%
%TO.N,Net-(J5-Pin_1)*%
X148183000Y-77022000D03*
D13*
%TO.P,J5,2,Pin_2*%
%TO.N,GND*%
X148183000Y-82102000D03*
%TD*%
D10*
%TO.P,J10,1,Pin_1*%
%TO.N,Net-(J10-Pin_1)*%
X189050000Y-90050000D03*
D11*
%TO.P,J10,2,Pin_2*%
%TO.N,Net-(J10-Pin_2)*%
X189050000Y-87550000D03*
%TO.P,J10,3,Pin_3*%
%TO.N,Net-(J10-Pin_3)*%
X189050000Y-85050000D03*
%TO.P,J10,4,Pin_4*%
%TO.N,Net-(J10-Pin_4)*%
X189050000Y-82550000D03*
%TD*%
D14*
%TO.P,JP1,1,A*%
%TO.N,Net-(JP1-A)*%
X169037000Y-90424000D03*
D15*
%TO.P,JP1,2,C*%
%TO.N,Net-(J2-Pin_1)*%
X171577000Y-90424000D03*
%TO.P,JP1,3,B*%
%TO.N,Net-(JP1-B)*%
X174117000Y-90424000D03*
%TD*%
D12*
%TO.P,J3,1,Pin_1*%
%TO.N,Net-(J3-Pin_1)*%
X151135000Y-54305000D03*
D13*
%TO.P,J3,2,Pin_2*%
%TO.N,Net-(J3-Pin_2)*%
X146055000Y-54305000D03*
%TD*%
D16*
%TO.P,J6,1,Pin_1*%
%TO.N,+3V3*%
X190050000Y-62350000D03*
D17*
%TO.P,J6,2,Pin_2*%
%TO.N,GND*%
X190050000Y-59850000D03*
%TD*%
D18*
%TO.P,K1,1*%
%TO.N,Net-(J2-Pin_2)*%
X156675000Y-80400000D03*
D19*
%TO.P,K1,2*%
%TO.N,/MIXER*%
X158625000Y-86450000D03*
D18*
%TO.P,K1,3*%
%TO.N,Net-(JP1-A)*%
X170825000Y-86450000D03*
%TO.P,K1,4*%
%TO.N,Net-(JP1-B)*%
X170875000Y-74400000D03*
D19*
%TO.P,K1,5*%
%TO.N,+5V*%
X158625000Y-74450000D03*
%TD*%
D10*
%TO.P,J7,1,Pin_1*%
%TO.N,Net-(J7-Pin_1)*%
X180950000Y-76350000D03*
D11*
%TO.P,J7,2,Pin_2*%
%TO.N,Net-(J7-Pin_2)*%
X180950000Y-73850000D03*
%TO.P,J7,3,Pin_3*%
%TO.N,Net-(J7-Pin_3)*%
X180950000Y-71350000D03*
%TO.P,J7,4,Pin_4*%
%TO.N,Net-(J7-Pin_4)*%
X180950000Y-68850000D03*
%TD*%
D20*
%TO.P,SW1,1,1*%
%TO.N,Net-(A1-~{RESET})*%
X151130000Y-68580000D03*
X144630000Y-68580000D03*
%TO.P,SW1,2,2*%
%TO.N,GND*%
X151130000Y-64080000D03*
X144630000Y-64080000D03*
%TD*%
D12*
%TO.P,J2,1,Pin_1*%
%TO.N,Net-(J2-Pin_1)*%
X158745000Y-95250000D03*
D13*
%TO.P,J2,2,Pin_2*%
%TO.N,Net-(J2-Pin_2)*%
X163825000Y-95250000D03*
%TD*%
D12*
%TO.P,J4,1,Pin_1*%
%TO.N,Net-(J4-Pin_1)*%
X146045000Y-95250000D03*
D13*
%TO.P,J4,2,Pin_2*%
%TO.N,Net-(J4-Pin_2)*%
X151125000Y-95250000D03*
%TD*%
D21*
%TO.P,U1,1,VM*%
%TO.N,Net-(J5-Pin_1)*%
X156210000Y-70104000D03*
%TO.P,U1,2,VCC*%
%TO.N,+5V*%
X158750000Y-70104000D03*
%TO.P,U1,3,GND*%
%TO.N,GND*%
X161290000Y-70104000D03*
%TO.P,U1,4,AO1*%
%TO.N,Net-(J3-Pin_2)*%
X163830000Y-70104000D03*
%TO.P,U1,5,AO2*%
%TO.N,Net-(J3-Pin_1)*%
X166370000Y-70104000D03*
%TO.P,U1,6,BO2*%
%TO.N,Net-(J4-Pin_1)*%
X168910000Y-70104000D03*
%TO.P,U1,7,BO1*%
%TO.N,Net-(J4-Pin_2)*%
X171450000Y-70104000D03*
%TO.P,U1,8,GND*%
%TO.N,GND*%
X173990000Y-70104000D03*
%TO.P,U1,9,PWMA*%
%TO.N,/PWMA*%
X156210000Y-54864000D03*
%TO.P,U1,10,AIN2*%
%TO.N,/AIN2*%
X158750000Y-54864000D03*
%TO.P,U1,11,AIN1*%
%TO.N,/AIN1*%
X161290000Y-54864000D03*
%TO.P,U1,12,STBY*%
%TO.N,/STBY*%
X163830000Y-54864000D03*
%TO.P,U1,13,BIN1*%
%TO.N,/BIN1*%
X166370000Y-54864000D03*
%TO.P,U1,14,BIN2*%
%TO.N,/BIN2*%
X168910000Y-54864000D03*
%TO.P,U1,15,PWMB*%
%TO.N,/PWMB*%
X171450000Y-54864000D03*
%TO.P,U1,16,GND*%
%TO.N,GND*%
X173990000Y-54864000D03*
%TD*%
D22*
%TO.P,J1,1,Pin_1*%
%TO.N,GND*%
X170220000Y-94869000D03*
D23*
%TO.P,J1,2,Pin_2*%
%TO.N,/MIXER*%
X172720000Y-94869000D03*
%TO.P,J1,3,Pin_3*%
%TO.N,+5V*%
X175220000Y-94869000D03*
%TD*%
D24*
%TO.P,A1,1,NC*%
%TO.N,unconnected-(A1-NC-Pad1)*%
X170180000Y-99060000D03*
D25*
%TO.P,A1,2,IOREF*%
%TO.N,unconnected-(A1-IOREF-Pad2)*%
X172720000Y-99060000D03*
%TO.P,A1,3,~{RESET}*%
%TO.N,Net-(A1-~{RESET})*%
X175260000Y-99060000D03*
%TO.P,A1,4,3V3*%
%TO.N,+3V3*%
X177800000Y-99060000D03*
%TO.P,A1,5,+5V*%
%TO.N,+5V*%
X180340000Y-99060000D03*
%TO.P,A1,6,GND*%
%TO.N,GND*%
X182880000Y-99060000D03*
%TO.P,A1,7,GND*%
X185420000Y-99060000D03*
%TO.P,A1,8,VIN*%
%TO.N,VCC*%
X187960000Y-99060000D03*
%TO.P,A1,9,A0*%
%TO.N,/SIG*%
X193040000Y-99060000D03*
%TO.P,A1,10,A1*%
%TO.N,/LEDS_CK*%
X195580000Y-99060000D03*
%TO.P,A1,11,A2*%
%TO.N,/LEDS_LATCH*%
X198120000Y-99060000D03*
%TO.P,A1,12,A3*%
%TO.N,/LEDS_DATA*%
X200660000Y-99060000D03*
%TO.P,A1,13,SDA/A4*%
%TO.N,unconnected-(A1-SDA{slash}A4-Pad13)*%
X203200000Y-99060000D03*
%TO.P,A1,14,SCL/A5*%
%TO.N,unconnected-(A1-SCL{slash}A5-Pad14)*%
X205740000Y-99060000D03*
%TO.P,A1,15,D0/RX*%
%TO.N,Net-(A1-D0{slash}RX)*%
X205740000Y-50800000D03*
%TO.P,A1,16,D1/TX*%
%TO.N,Net-(A1-D1{slash}TX)*%
X203200000Y-50800000D03*
%TO.P,A1,17,D2*%
%TO.N,/S0*%
X200660000Y-50800000D03*
%TO.P,A1,18,D3*%
%TO.N,/S1*%
X198120000Y-50800000D03*
%TO.P,A1,19,D4*%
%TO.N,/S2*%
X195580000Y-50800000D03*
%TO.P,A1,20,D5*%
%TO.N,/PWMB*%
X193040000Y-50800000D03*
%TO.P,A1,21,D6*%
%TO.N,/BIN2*%
X190500000Y-50800000D03*
%TO.P,A1,22,D7*%
%TO.N,/BIN1*%
X187960000Y-50800000D03*
%TO.P,A1,23,D8*%
%TO.N,/STBY*%
X183900000Y-50800000D03*
%TO.P,A1,24,D9*%
%TO.N,/AIN1*%
X181360000Y-50800000D03*
%TO.P,A1,25,D10*%
%TO.N,/AIN2*%
X178820000Y-50800000D03*
%TO.P,A1,26,D11*%
%TO.N,/PWMA*%
X176280000Y-50800000D03*
%TO.P,A1,27,D12*%
%TO.N,/S3*%
X173740000Y-50800000D03*
%TO.P,A1,28,D13*%
%TO.N,/MIXER*%
X171200000Y-50800000D03*
%TO.P,A1,29,GND*%
%TO.N,GND*%
X168660000Y-50800000D03*
%TO.P,A1,30,AREF*%
%TO.N,unconnected-(A1-AREF-Pad30)*%
X166120000Y-50800000D03*
%TD*%
D26*
%TO.N,GND*%
X195850000Y-95520000D03*
X194450000Y-96660000D03*
X167640000Y-76200000D03*
X174025000Y-74950000D03*
X187855000Y-57580900D03*
X197130000Y-94250000D03*
%TO.N,/S3*%
X178846000Y-56835300D03*
%TO.N,Net-(J9-Pin_1)*%
X180814000Y-64467600D03*
%TO.N,Net-(J9-Pin_2)*%
X181041283Y-63700563D03*
%TO.N,Net-(J9-Pin_4)*%
X181795700Y-62125000D03*
%TO.N,Net-(J9-Pin_3)*%
X180964249Y-62775000D03*
%TO.N,Net-(J10-Pin_1)*%
X177867000Y-62085700D03*
%TO.N,Net-(J10-Pin_2)*%
X180636000Y-60825000D03*
%TO.N,Net-(J10-Pin_4)*%
X182100000Y-59961300D03*
%TO.N,Net-(J10-Pin_3)*%
X181233192Y-60175000D03*
%TD*%
D27*
%TO.N,GND*%
X187855000Y-57580900D02*
X187855000Y-59045000D01*
X168750000Y-100150000D02*
X169150000Y-100550000D01*
X170450000Y-96600000D02*
X175800000Y-96600000D01*
X170220000Y-96370000D02*
X168750000Y-97840000D01*
X188650000Y-59850000D02*
X187850000Y-59050000D01*
X177150000Y-95250000D02*
X177150000Y-73264000D01*
X175800000Y-96600000D02*
X177150000Y-95250000D01*
X187850000Y-59050000D02*
X179150000Y-59050000D01*
X169150000Y-100550000D02*
X182880000Y-100550000D01*
X174980000Y-63220000D02*
X174980000Y-69114000D01*
X151130000Y-64080000D02*
X153700000Y-66650000D01*
X190050000Y-59850000D02*
X188650000Y-59850000D01*
D28*
X148183000Y-82102000D02*
X158285000Y-72000000D01*
D27*
X179150000Y-59050000D02*
X174980000Y-63220000D01*
X169600000Y-52950000D02*
X172076000Y-52950000D01*
X157836000Y-66650000D02*
X161290000Y-70104000D01*
X174980000Y-69114000D02*
X173990000Y-70104000D01*
X170220000Y-94869000D02*
X170220000Y-96370000D01*
D28*
X158285000Y-72000000D02*
X159394000Y-72000000D01*
D27*
X182880000Y-100550000D02*
X182880000Y-99060000D01*
X168750000Y-97840000D02*
X168750000Y-100150000D01*
X168660000Y-50800000D02*
X168660000Y-52010000D01*
X172076000Y-52950000D02*
X173990000Y-54864000D01*
D28*
X159394000Y-72000000D02*
X161290000Y-70104000D01*
D27*
X153700000Y-66650000D02*
X157836000Y-66650000D01*
X168660000Y-52010000D02*
X169600000Y-52950000D01*
X187855000Y-59045000D02*
X187850000Y-59050000D01*
X170220000Y-96370000D02*
X170450000Y-96600000D01*
X177150000Y-73264000D02*
X173990000Y-70104000D01*
%TO.N,+3V3*%
X181870000Y-94990000D02*
X186750000Y-94990000D01*
X177800000Y-99060000D02*
X181870000Y-94990000D01*
X186750000Y-94990000D02*
X190733000Y-91007000D01*
X190733000Y-91007000D02*
X190733000Y-63033400D01*
X190733000Y-63033400D02*
X190050000Y-62350000D01*
%TO.N,/STBY*%
X179625000Y-56904829D02*
X178954829Y-57575000D01*
X179625000Y-55075000D02*
X179625000Y-56904829D01*
X166541000Y-57575000D02*
X163830000Y-54864000D01*
X178954829Y-57575000D02*
X166541000Y-57575000D01*
X183900000Y-50800000D02*
X179625000Y-55075000D01*
%TO.N,/AIN1*%
X179860000Y-49300000D02*
X165498679Y-49300000D01*
X181360000Y-50800000D02*
X179860000Y-49300000D01*
X161290000Y-53508679D02*
X161290000Y-54864000D01*
X165498679Y-49300000D02*
X161290000Y-53508679D01*
%TO.N,/S3*%
X178846000Y-55906000D02*
X178846000Y-56835300D01*
X173740000Y-50800000D02*
X178846000Y-55906000D01*
%TO.N,/MIXER*%
X170100000Y-49700000D02*
X165664365Y-49700000D01*
X172725000Y-71225000D02*
X176400000Y-74900000D01*
X175325000Y-92275000D02*
X172850000Y-92275000D01*
X171900000Y-88700000D02*
X160875000Y-88700000D01*
X165664365Y-49700000D02*
X162575000Y-52789365D01*
X176400000Y-91200000D02*
X175325000Y-92275000D01*
X162575000Y-52789365D02*
X162575000Y-58750000D01*
X176400000Y-74900000D02*
X176400000Y-91200000D01*
X171200000Y-50800000D02*
X170100000Y-49700000D01*
X162575000Y-58750000D02*
X172725000Y-68900000D01*
X172850000Y-94739000D02*
X172850000Y-92275000D01*
X172850000Y-89650000D02*
X171900000Y-88700000D01*
X172725000Y-68900000D02*
X172725000Y-71225000D01*
X172720000Y-94869000D02*
X172850000Y-94739000D01*
X172850000Y-92275000D02*
X172850000Y-89650000D01*
X160875000Y-88700000D02*
X158625000Y-86450000D01*
D29*
%TO.N,Net-(J2-Pin_1)*%
X169625000Y-92375000D02*
X161620000Y-92375000D01*
X161620000Y-92375000D02*
X158745000Y-95250000D01*
D27*
X171577000Y-90424000D02*
X171576000Y-90424000D01*
D29*
X171576000Y-90424000D02*
X169625000Y-92375000D01*
D30*
%TO.N,Net-(J3-Pin_1)*%
X151135000Y-54869000D02*
X166370000Y-70104000D01*
X151135000Y-54305000D02*
X151135000Y-54869000D01*
%TO.N,Net-(J4-Pin_1)*%
X146045000Y-94105000D02*
X168910000Y-71240000D01*
X168910000Y-71240000D02*
X168910000Y-70104000D01*
X146045000Y-95250000D02*
X146045000Y-94105000D01*
%TO.N,Net-(J4-Pin_2)*%
X171450000Y-70104000D02*
X151125000Y-90429000D01*
X151125000Y-90429000D02*
X151125000Y-95250000D01*
D28*
%TO.N,Net-(J5-Pin_1)*%
X148183000Y-77022000D02*
X149292000Y-77022000D01*
X149292000Y-77022000D02*
X156210000Y-70104000D01*
D27*
%TO.N,Net-(J9-Pin_1)*%
X189050000Y-76350000D02*
X187375000Y-74675000D01*
X187375000Y-71028600D02*
X180814000Y-64467600D01*
X187375000Y-74675000D02*
X187375000Y-71028600D01*
%TO.N,Net-(J9-Pin_2)*%
X187775000Y-70449300D02*
X187775000Y-72575000D01*
X181041283Y-63715583D02*
X187775000Y-70449300D01*
X187775000Y-72575000D02*
X189050000Y-73850000D01*
X181041283Y-63700563D02*
X181041283Y-63715583D01*
%TO.N,Net-(J9-Pin_4)*%
X188520700Y-68850000D02*
X189050000Y-68850000D01*
X181795700Y-62125000D02*
X188520700Y-68850000D01*
%TO.N,Net-(J9-Pin_3)*%
X180964249Y-62775000D02*
X189050000Y-70860751D01*
X189050000Y-70860751D02*
X189050000Y-71350000D01*
D29*
%TO.N,Net-(JP1-B)*%
X170875000Y-74400000D02*
X174117000Y-77642000D01*
X174117000Y-77642000D02*
X174117000Y-90424000D01*
D30*
%TO.N,Net-(J3-Pin_2)*%
X146055000Y-54305000D02*
X147805000Y-56055000D01*
X147805000Y-56055000D02*
X149781000Y-56055000D01*
X149781000Y-56055000D02*
X163830000Y-70104000D01*
D27*
%TO.N,Net-(J10-Pin_1)*%
X184320000Y-85320000D02*
X189050000Y-90050000D01*
X177867000Y-77442000D02*
X184320000Y-83895000D01*
X177867000Y-62085700D02*
X177867000Y-77442000D01*
X184320000Y-83895000D02*
X184320000Y-85320000D01*
%TO.N,Net-(J10-Pin_2)*%
X179809000Y-65129000D02*
X186575000Y-71895000D01*
X180636000Y-60825000D02*
X179809000Y-61652000D01*
X186575000Y-71895000D02*
X186575000Y-85075000D01*
X186575000Y-85075000D02*
X189050000Y-87550000D01*
X179809000Y-61652000D02*
X179809000Y-65129000D01*
%TO.N,Net-(J10-Pin_4)*%
X190328000Y-81272000D02*
X189050000Y-82550000D01*
X190328000Y-68360200D02*
X190328000Y-81272000D01*
X182100000Y-59961300D02*
X182100000Y-60132200D01*
X182100000Y-60132200D02*
X190328000Y-68360200D01*
%TO.N,Net-(J10-Pin_3)*%
X180209000Y-64776900D02*
X183104000Y-67672000D01*
X183104100Y-67672000D02*
X186975000Y-71542900D01*
X181236000Y-60177808D02*
X181236000Y-61113500D01*
X186975000Y-82975000D02*
X189050000Y-85050000D01*
X183104000Y-67672000D02*
X183104100Y-67672000D01*
X181233192Y-60175000D02*
X181236000Y-60177808D01*
X181236000Y-61113500D02*
X180209000Y-62140500D01*
X180209000Y-62140500D02*
X180209000Y-64776900D01*
X186975000Y-71542900D02*
X186975000Y-82975000D01*
%TD*%
%TA.AperFunction,Conductor*%
%TO.N,GND*%
G36*
X184954075Y-98867007D02*
G01*
X184920000Y-98994174D01*
X184920000Y-99125826D01*
X184954075Y-99252993D01*
X184986988Y-99310000D01*
X183313012Y-99310000D01*
X183345925Y-99252993D01*
X183380000Y-99125826D01*
X183380000Y-98994174D01*
X183345925Y-98867007D01*
X183313012Y-98810000D01*
X184986988Y-98810000D01*
X184954075Y-98867007D01*
G37*
%TD.AperFunction*%
%TA.AperFunction,Conductor*%
G36*
X172094472Y-71276473D02*
G01*
X172132712Y-71334950D01*
X172133788Y-71338723D01*
X172142389Y-71370821D01*
X172165423Y-71456785D01*
X172169498Y-71463843D01*
X172244477Y-71593712D01*
X172244481Y-71593717D01*
X172363349Y-71712585D01*
X172363355Y-71712590D01*
X175763181Y-75112416D01*
X175796666Y-75173739D01*
X175799500Y-75200097D01*
X175799500Y-90899902D01*
X175779815Y-90966941D01*
X175763181Y-90987583D01*
X175457310Y-91293454D01*
X175395987Y-91326939D01*
X175326295Y-91321955D01*
X175270362Y-91280083D01*
X175245945Y-91214619D01*
X175260797Y-91146346D01*
X175268055Y-91134649D01*
X175291031Y-91101836D01*
X175291031Y-91101834D01*
X175291035Y-91101830D01*
X175390903Y-90887663D01*
X175452063Y-90659408D01*
X175472659Y-90424000D01*
X175452063Y-90188592D01*
X175390903Y-89960337D01*
X175291035Y-89746171D01*
X175155495Y-89552599D01*
X175155494Y-89552597D01*
X174988404Y-89385508D01*
X174988401Y-89385505D01*
X174988396Y-89385501D01*
X174988393Y-89385499D01*
X174870376Y-89302861D01*
X174826751Y-89248284D01*
X174817500Y-89201287D01*
X174817500Y-77573004D01*
X174790581Y-77437676D01*
X174790578Y-77437667D01*
X174782704Y-77418659D01*
X174782702Y-77418654D01*
X174759624Y-77362939D01*
X174744117Y-77325500D01*
X174737775Y-77310189D01*
X174737773Y-77310186D01*
X174737771Y-77310182D01*
X174661115Y-77195459D01*
X174633917Y-77168261D01*
X174563542Y-77097886D01*
X172755567Y-75289911D01*
X172722082Y-75228588D01*
X172727066Y-75158897D01*
X172730856Y-75148735D01*
X172799369Y-74965046D01*
X172860196Y-74685428D01*
X172880610Y-74400000D01*
X172860196Y-74114572D01*
X172841812Y-74030064D01*
X172799371Y-73834962D01*
X172799370Y-73834960D01*
X172799369Y-73834954D01*
X172699367Y-73566839D01*
X172681304Y-73533760D01*
X172562229Y-73315690D01*
X172562224Y-73315682D01*
X172390745Y-73086612D01*
X172390729Y-73086594D01*
X172188405Y-72884270D01*
X172188387Y-72884254D01*
X171959317Y-72712775D01*
X171959309Y-72712770D01*
X171708166Y-72575635D01*
X171708167Y-72575635D01*
X171541791Y-72513580D01*
X171440046Y-72475631D01*
X171440043Y-72475630D01*
X171440037Y-72475628D01*
X171160433Y-72414804D01*
X170875001Y-72394390D01*
X170874999Y-72394390D01*
X170589566Y-72414804D01*
X170589562Y-72414805D01*
X170505064Y-72433186D01*
X170435373Y-72428201D01*
X170379439Y-72386330D01*
X170355023Y-72320865D01*
X170369875Y-72252592D01*
X170391023Y-72224342D01*
X171219727Y-71395638D01*
X171281048Y-71362155D01*
X171318211Y-71359793D01*
X171410223Y-71367843D01*
X171449999Y-71371323D01*
X171450000Y-71371323D01*
X171450002Y-71371323D01*
X171516776Y-71365481D01*
X171670068Y-71352070D01*
X171883450Y-71294894D01*
X171961614Y-71258445D01*
X172030688Y-71247954D01*
X172094472Y-71276473D01*
G37*
%TD.AperFunction*%
%TA.AperFunction,Conductor*%
G36*
X168830354Y-73887525D02*
G01*
X168886287Y-73929397D01*
X168910704Y-73994861D01*
X168908186Y-74030064D01*
X168889805Y-74114562D01*
X168889804Y-74114566D01*
X168869390Y-74399998D01*
X168869390Y-74400001D01*
X168889804Y-74685433D01*
X168950628Y-74965037D01*
X168950629Y-74965039D01*
X168950631Y-74965046D01*
X169019144Y-75148735D01*
X169050635Y-75233166D01*
X169187770Y-75484309D01*
X169187775Y-75484317D01*
X169359254Y-75713387D01*
X169359270Y-75713405D01*
X169561594Y-75915729D01*
X169561612Y-75915745D01*
X169790682Y-76087224D01*
X169790690Y-76087229D01*
X170041833Y-76224364D01*
X170041832Y-76224364D01*
X170041836Y-76224365D01*
X170041839Y-76224367D01*
X170309954Y-76324369D01*
X170309960Y-76324370D01*
X170309962Y-76324371D01*
X170589566Y-76385195D01*
X170589568Y-76385195D01*
X170589572Y-76385196D01*
X170843220Y-76403337D01*
X170874999Y-76405610D01*
X170875000Y-76405610D01*
X170875001Y-76405610D01*
X170903595Y-76403564D01*
X171160428Y-76385196D01*
X171440046Y-76324369D01*
X171633897Y-76252065D01*
X171703588Y-76247082D01*
X171764911Y-76280567D01*
X173380181Y-77895837D01*
X173413666Y-77957160D01*
X173416500Y-77983518D01*
X173416500Y-89067903D01*
X173396815Y-89134942D01*
X173344011Y-89180697D01*
X173274853Y-89190641D01*
X173211297Y-89161616D01*
X173204819Y-89155584D01*
X172387590Y-88338355D01*
X172387588Y-88338352D01*
X172268717Y-88219481D01*
X172268712Y-88219477D01*
X172165180Y-88159703D01*
X172116964Y-88109136D01*
X172103741Y-88040529D01*
X172129709Y-87975664D01*
X172139499Y-87964635D01*
X172340729Y-87763405D01*
X172340739Y-87763395D01*
X172512226Y-87534315D01*
X172649367Y-87283161D01*
X172749369Y-87015046D01*
X172810196Y-86735428D01*
X172830610Y-86450000D01*
X172810196Y-86164572D01*
X172791822Y-86080109D01*
X172749371Y-85884962D01*
X172749370Y-85884960D01*
X172749369Y-85884954D01*
X172649367Y-85616839D01*
X172554834Y-85443716D01*
X172512229Y-85365690D01*
X172512224Y-85365682D01*
X172340745Y-85136612D01*
X172340729Y-85136594D01*
X172138405Y-84934270D01*
X172138387Y-84934254D01*
X171909317Y-84762775D01*
X171909309Y-84762770D01*
X171658166Y-84625635D01*
X171658167Y-84625635D01*
X171541925Y-84582279D01*
X171390046Y-84525631D01*
X171390043Y-84525630D01*
X171390037Y-84525628D01*
X171110433Y-84464804D01*
X170825001Y-84444390D01*
X170824999Y-84444390D01*
X170539566Y-84464804D01*
X170259962Y-84525628D01*
X169991833Y-84625635D01*
X169740690Y-84762770D01*
X169740682Y-84762775D01*
X169511612Y-84934254D01*
X169511594Y-84934270D01*
X169309270Y-85136594D01*
X169309254Y-85136612D01*
X169137775Y-85365682D01*
X169137770Y-85365690D01*
X169000635Y-85616833D01*
X168900628Y-85884962D01*
X168839804Y-86164566D01*
X168819390Y-86449998D01*
X168819390Y-86450001D01*
X168839804Y-86735433D01*
X168900628Y-87015037D01*
X168900630Y-87015043D01*
X168900631Y-87015046D01*
X168987519Y-87248001D01*
X169000635Y-87283166D01*
X169137770Y-87534309D01*
X169137775Y-87534317D01*
X169309254Y-87763387D01*
X169309270Y-87763405D01*
X169433684Y-87887819D01*
X169467169Y-87949142D01*
X169462185Y-88018834D01*
X169420313Y-88074767D01*
X169354849Y-88099184D01*
X169346003Y-88099500D01*
X161175098Y-88099500D01*
X161108059Y-88079815D01*
X161087417Y-88063181D01*
X160272237Y-87248001D01*
X160238752Y-87186678D01*
X160243736Y-87116986D01*
X160244467Y-87115075D01*
X160302420Y-86967416D01*
X160360802Y-86711630D01*
X160375170Y-86519896D01*
X160380408Y-86450004D01*
X160380408Y-86449995D01*
X160360803Y-86188379D01*
X160360802Y-86188374D01*
X160360802Y-86188370D01*
X160302420Y-85932584D01*
X160206568Y-85688357D01*
X160075386Y-85461143D01*
X159911805Y-85256019D01*
X159911804Y-85256018D01*
X159911801Y-85256014D01*
X159719479Y-85077567D01*
X159673864Y-85046467D01*
X159502704Y-84929772D01*
X159502700Y-84929770D01*
X159502697Y-84929768D01*
X159502696Y-84929767D01*
X159266325Y-84815938D01*
X159266327Y-84815938D01*
X159015623Y-84738606D01*
X159015619Y-84738605D01*
X159015615Y-84738604D01*
X158890823Y-84719794D01*
X158756187Y-84699500D01*
X158756182Y-84699500D01*
X158493818Y-84699500D01*
X158493812Y-84699500D01*
X158332247Y-84723853D01*
X158234385Y-84738604D01*
X158234382Y-84738605D01*
X158234380Y-84738605D01*
X158195023Y-84750745D01*
X158125160Y-84751694D01*
X158065874Y-84714721D01*
X158035988Y-84651566D01*
X158044991Y-84582279D01*
X158070791Y-84544575D01*
X168699341Y-73916024D01*
X168760662Y-73882541D01*
X168830354Y-73887525D01*
G37*
%TD.AperFunction*%
%TA.AperFunction,Conductor*%
G36*
X168910000Y-52078872D02*
G01*
X169106317Y-52026269D01*
X169106326Y-52026265D01*
X169312482Y-51930134D01*
X169498820Y-51799657D01*
X169659657Y-51638820D01*
X169790132Y-51452484D01*
X169817341Y-51394134D01*
X169863513Y-51341695D01*
X169930707Y-51322542D01*
X169997588Y-51342757D01*
X170042106Y-51394133D01*
X170069431Y-51452732D01*
X170069432Y-51452734D01*
X170199954Y-51639141D01*
X170360858Y-51800045D01*
X170360861Y-51800047D01*
X170547266Y-51930568D01*
X170753504Y-52026739D01*
X170973308Y-52085635D01*
X171115361Y-52098063D01*
X171199998Y-52105468D01*
X171200000Y-52105468D01*
X171200002Y-52105468D01*
X171256673Y-52100509D01*
X171426692Y-52085635D01*
X171646496Y-52026739D01*
X171852734Y-51930568D01*
X172039139Y-51800047D01*
X172200047Y-51639139D01*
X172330568Y-51452734D01*
X172357618Y-51394724D01*
X172403790Y-51342285D01*
X172470983Y-51323133D01*
X172537865Y-51343348D01*
X172582382Y-51394725D01*
X172609429Y-51452728D01*
X172609432Y-51452734D01*
X172739954Y-51639141D01*
X172900858Y-51800045D01*
X172900861Y-51800047D01*
X173087266Y-51930568D01*
X173293504Y-52026739D01*
X173513308Y-52085635D01*
X173655361Y-52098063D01*
X173739998Y-52105468D01*
X173740000Y-52105468D01*
X173740002Y-52105468D01*
X173796673Y-52100509D01*
X173966692Y-52085635D01*
X174062932Y-52059847D01*
X174132781Y-52061510D01*
X174182706Y-52091941D01*
X178209181Y-56118416D01*
X178242666Y-56179739D01*
X178245500Y-56206097D01*
X178245500Y-56252887D01*
X178225815Y-56319926D01*
X178218450Y-56330196D01*
X178216186Y-56333034D01*
X178120211Y-56485776D01*
X178060631Y-56656045D01*
X178060630Y-56656050D01*
X178040435Y-56835296D01*
X178040435Y-56835302D01*
X178040583Y-56836616D01*
X178040435Y-56837461D01*
X178040435Y-56842264D01*
X178039594Y-56842264D01*
X178028529Y-56905438D01*
X177981180Y-56956817D01*
X177917363Y-56974500D01*
X166841097Y-56974500D01*
X166774058Y-56954815D01*
X166753416Y-56938181D01*
X166146861Y-56331626D01*
X166113376Y-56270303D01*
X166118360Y-56200611D01*
X166160232Y-56144678D01*
X166225696Y-56120261D01*
X166245339Y-56120416D01*
X166357530Y-56130232D01*
X166369999Y-56131323D01*
X166370000Y-56131323D01*
X166370002Y-56131323D01*
X166425017Y-56126509D01*
X166590068Y-56112070D01*
X166803450Y-56054894D01*
X167003662Y-55961534D01*
X167184620Y-55834826D01*
X167340826Y-55678620D01*
X167467534Y-55497662D01*
X167527618Y-55368811D01*
X167573790Y-55316371D01*
X167640983Y-55297219D01*
X167707865Y-55317435D01*
X167752382Y-55368811D01*
X167812464Y-55497658D01*
X167812468Y-55497666D01*
X167939170Y-55678615D01*
X167939175Y-55678621D01*
X168095378Y-55834824D01*
X168095384Y-55834829D01*
X168276333Y-55961531D01*
X168276335Y-55961532D01*
X168276338Y-55961534D01*
X168476550Y-56054894D01*
X168689932Y-56112070D01*
X168836743Y-56124914D01*
X168909998Y-56131323D01*
X168910000Y-56131323D01*
X168910002Y-56131323D01*
X168965017Y-56126509D01*
X169130068Y-56112070D01*
X169343450Y-56054894D01*
X169543662Y-55961534D01*
X169724620Y-55834826D01*
X169880826Y-55678620D01*
X170007534Y-55497662D01*
X170067618Y-55368811D01*
X170113790Y-55316371D01*
X170180983Y-55297219D01*
X170247865Y-55317435D01*
X170292382Y-55368811D01*
X170352464Y-55497658D01*
X170352468Y-55497666D01*
X170479170Y-55678615D01*
X170479175Y-55678621D01*
X170635378Y-55834824D01*
X170635384Y-55834829D01*
X170816333Y-55961531D01*
X170816335Y-55961532D01*
X170816338Y-55961534D01*
X171016550Y-56054894D01*
X171229932Y-56112070D01*
X171376743Y-56124914D01*
X171449998Y-56131323D01*
X171450000Y-56131323D01*
X171450002Y-56131323D01*
X171505017Y-56126509D01*
X171670068Y-56112070D01*
X171883450Y-56054894D01*
X172083662Y-55961534D01*
X172264620Y-55834826D01*
X172420826Y-55678620D01*
X172547534Y-55497662D01*
X172607894Y-55368218D01*
X172654066Y-55315779D01*
X172721259Y-55296627D01*
X172788141Y-55316843D01*
X172832658Y-55368219D01*
X172892898Y-55497405D01*
X172892901Y-55497411D01*
X172938258Y-55562187D01*
X172938259Y-55562188D01*
X173609000Y-54891447D01*
X173609000Y-54914160D01*
X173634964Y-55011061D01*
X173685124Y-55097940D01*
X173756060Y-55168876D01*
X173842939Y-55219036D01*
X173939840Y-55245000D01*
X173962553Y-55245000D01*
X173291810Y-55915740D01*
X173356590Y-55961099D01*
X173356592Y-55961100D01*
X173556715Y-56054419D01*
X173556729Y-56054424D01*
X173770013Y-56111573D01*
X173770023Y-56111575D01*
X173989999Y-56130821D01*
X173990001Y-56130821D01*
X174209976Y-56111575D01*
X174209986Y-56111573D01*
X174423270Y-56054424D01*
X174423284Y-56054419D01*
X174623407Y-55961100D01*
X174623417Y-55961094D01*
X174688188Y-55915741D01*
X174017448Y-55245000D01*
X174040160Y-55245000D01*
X174137061Y-55219036D01*
X174223940Y-55168876D01*
X174294876Y-55097940D01*
X174345036Y-55011061D01*
X174371000Y-54914160D01*
X174371000Y-54891447D01*
X175041741Y-55562188D01*
X175087094Y-55497417D01*
X175087100Y-55497407D01*
X175180419Y-55297284D01*
X175180424Y-55297270D01*
X175237573Y-55083986D01*
X175237575Y-55083976D01*
X175256821Y-54864000D01*
X175256821Y-54863999D01*
X175237575Y-54644023D01*
X175237573Y-54644013D01*
X175180424Y-54430729D01*
X175180420Y-54430720D01*
X175087096Y-54230586D01*
X175041741Y-54165811D01*
X175041740Y-54165810D01*
X174371000Y-54836551D01*
X174371000Y-54813840D01*
X174345036Y-54716939D01*
X174294876Y-54630060D01*
X174223940Y-54559124D01*
X174137061Y-54508964D01*
X174040160Y-54483000D01*
X174017448Y-54483000D01*
X174688188Y-53812259D01*
X174688187Y-53812258D01*
X174623411Y-53766901D01*
X174623405Y-53766898D01*
X174423284Y-53673580D01*
X174423270Y-53673575D01*
X174209986Y-53616426D01*
X174209976Y-53616424D01*
X173990001Y-53597179D01*
X173989999Y-53597179D01*
X173770023Y-53616424D01*
X173770013Y-53616426D01*
X173556729Y-53673575D01*
X173556720Y-53673579D01*
X173356590Y-53766901D01*
X173291811Y-53812258D01*
X173962553Y-54483000D01*
X173939840Y-54483000D01*
X173842939Y-54508964D01*
X173756060Y-54559124D01*
X173685124Y-54630060D01*
X173634964Y-54716939D01*
X173609000Y-54813840D01*
X173609000Y-54836553D01*
X172938258Y-54165811D01*
X172892901Y-54230590D01*
X172832658Y-54359781D01*
X172786485Y-54412220D01*
X172719292Y-54431372D01*
X172652411Y-54411156D01*
X172607894Y-54359781D01*
X172547534Y-54230340D01*
X172547533Y-54230338D01*
X172420827Y-54049381D01*
X172407343Y-54035897D01*
X172264620Y-53893174D01*
X172264616Y-53893171D01*
X172264615Y-53893170D01*
X172083666Y-53766468D01*
X172083662Y-53766466D01*
X172039202Y-53745734D01*
X171883450Y-53673106D01*
X171883447Y-53673105D01*
X171883445Y-53673104D01*
X171670070Y-53615930D01*
X171670062Y-53615929D01*
X171450002Y-53596677D01*
X171449998Y-53596677D01*
X171229937Y-53615929D01*
X171229929Y-53615930D01*
X171016554Y-53673104D01*
X171016550Y-53673106D01*
X171015544Y-53673575D01*
X170816340Y-53766465D01*
X170816338Y-53766466D01*
X170635377Y-53893175D01*
X170479175Y-54049377D01*
X170352466Y-54230338D01*
X170352465Y-54230340D01*
X170292382Y-54359189D01*
X170246209Y-54411628D01*
X170179016Y-54430780D01*
X170112135Y-54410564D01*
X170067618Y-54359189D01*
X170007534Y-54230340D01*
X170007533Y-54230338D01*
X169880827Y-54049381D01*
X169867343Y-54035897D01*
X169724620Y-53893174D01*
X169724616Y-53893171D01*
X169724615Y-53893170D01*
X169543666Y-53766468D01*
X169543662Y-53766466D01*
X169499202Y-53745734D01*
X169343450Y-53673106D01*
X169343447Y-53673105D01*
X169343445Y-53673104D01*
X169130070Y-53615930D01*
X169130062Y-53615929D01*
X168910002Y-53596677D01*
X168909998Y-53596677D01*
X168689937Y-53615929D01*
X168689929Y-53615930D01*
X168476554Y-53673104D01*
X168476550Y-53673106D01*
X168475544Y-53673575D01*
X168276340Y-53766465D01*
X168276338Y-53766466D01*
X168095377Y-53893175D01*
X167939175Y-54049377D01*
X167812466Y-54230338D01*
X167812465Y-54230340D01*
X167752382Y-54359189D01*
X167706209Y-54411628D01*
X167639016Y-54430780D01*
X167572135Y-54410564D01*
X167527618Y-54359189D01*
X167467534Y-54230340D01*
X167467533Y-54230338D01*
X167340827Y-54049381D01*
X167327343Y-54035897D01*
X167184620Y-53893174D01*
X167184616Y-53893171D01*
X167184615Y-53893170D01*
X167003666Y-53766468D01*
X167003662Y-53766466D01*
X166959202Y-53745734D01*
X166803450Y-53673106D01*
X166803447Y-53673105D01*
X166803445Y-53673104D01*
X166590070Y-53615930D01*
X166590062Y-53615929D01*
X166370002Y-53596677D01*
X166369998Y-53596677D01*
X166149937Y-53615929D01*
X166149929Y-53615930D01*
X165936554Y-53673104D01*
X165936550Y-53673106D01*
X165935544Y-53673575D01*
X165736340Y-53766465D01*
X165736338Y-53766466D01*
X165555377Y-53893175D01*
X165399175Y-54049377D01*
X165272466Y-54230338D01*
X165272465Y-54230340D01*
X165212382Y-54359189D01*
X165166209Y-54411628D01*
X165099016Y-54430780D01*
X165032135Y-54410564D01*
X164987618Y-54359189D01*
X164927534Y-54230340D01*
X164927533Y-54230338D01*
X164800827Y-54049381D01*
X164787343Y-54035897D01*
X164644620Y-53893174D01*
X164644616Y-53893171D01*
X164644615Y-53893170D01*
X164463666Y-53766468D01*
X164463662Y-53766466D01*
X164419202Y-53745734D01*
X164263450Y-53673106D01*
X164263447Y-53673105D01*
X164263445Y-53673104D01*
X164050070Y-53615930D01*
X164050062Y-53615929D01*
X163830002Y-53596677D01*
X163829998Y-53596677D01*
X163609937Y-53615929D01*
X163609929Y-53615930D01*
X163396554Y-53673104D01*
X163396552Y-53673105D01*
X163351904Y-53693925D01*
X163282826Y-53704416D01*
X163219043Y-53675896D01*
X163180803Y-53617419D01*
X163175500Y-53581542D01*
X163175500Y-53089461D01*
X163195185Y-53022422D01*
X163211814Y-53001785D01*
X164791524Y-51422074D01*
X164852845Y-51388591D01*
X164922537Y-51393575D01*
X164978470Y-51435447D01*
X164986207Y-51448341D01*
X164986724Y-51448043D01*
X164989432Y-51452734D01*
X165119954Y-51639141D01*
X165280858Y-51800045D01*
X165280861Y-51800047D01*
X165467266Y-51930568D01*
X165673504Y-52026739D01*
X165893308Y-52085635D01*
X166035361Y-52098063D01*
X166119998Y-52105468D01*
X166120000Y-52105468D01*
X166120002Y-52105468D01*
X166176673Y-52100509D01*
X166346692Y-52085635D01*
X166566496Y-52026739D01*
X166772734Y-51930568D01*
X166959139Y-51800047D01*
X167120047Y-51639139D01*
X167250568Y-51452734D01*
X167277895Y-51394129D01*
X167324064Y-51341695D01*
X167391257Y-51322542D01*
X167458139Y-51342757D01*
X167502657Y-51394133D01*
X167529865Y-51452482D01*
X167660342Y-51638820D01*
X167821179Y-51799657D01*
X168007517Y-51930134D01*
X168213673Y-52026265D01*
X168213682Y-52026269D01*
X168409999Y-52078872D01*
X168410000Y-52078871D01*
X168410000Y-51233012D01*
X168467007Y-51265925D01*
X168594174Y-51300000D01*
X168725826Y-51300000D01*
X168852993Y-51265925D01*
X168910000Y-51233012D01*
X168910000Y-52078872D01*
G37*
%TD.AperFunction*%
%TA.AperFunction,Conductor*%
G36*
X209567621Y-48240117D02*
G01*
X209752896Y-48254695D01*
X209772104Y-48257737D01*
X209948058Y-48299978D01*
X209966555Y-48305988D01*
X210133733Y-48375234D01*
X210151067Y-48384065D01*
X210305351Y-48478609D01*
X210321091Y-48490045D01*
X210458682Y-48607559D01*
X210472440Y-48621317D01*
X210589954Y-48758908D01*
X210601392Y-48774651D01*
X210695932Y-48928929D01*
X210704765Y-48946266D01*
X210774011Y-49113444D01*
X210780024Y-49131950D01*
X210822261Y-49307889D01*
X210825305Y-49327109D01*
X210839881Y-49512369D01*
X210840263Y-49522097D01*
X210840262Y-49591741D01*
X210840264Y-49591770D01*
X210840264Y-100269264D01*
X210840262Y-100269298D01*
X210840263Y-100337902D01*
X210839881Y-100347630D01*
X210825305Y-100532890D01*
X210822261Y-100552110D01*
X210780024Y-100728049D01*
X210774011Y-100746555D01*
X210704765Y-100913733D01*
X210695932Y-100931070D01*
X210601392Y-101085348D01*
X210589954Y-101101091D01*
X210472440Y-101238682D01*
X210458682Y-101252440D01*
X210321091Y-101369954D01*
X210305348Y-101381392D01*
X210151070Y-101475932D01*
X210133733Y-101484765D01*
X209966555Y-101554011D01*
X209948049Y-101560024D01*
X209772110Y-101602261D01*
X209752890Y-101605305D01*
X209567632Y-101619880D01*
X209557906Y-101620262D01*
X209489155Y-101620262D01*
X209488911Y-101620277D01*
X143502101Y-101633026D01*
X143492350Y-101632644D01*
X143307107Y-101618068D01*
X143287889Y-101615024D01*
X143111930Y-101572784D01*
X143093425Y-101566772D01*
X142926256Y-101497533D01*
X142908918Y-101488699D01*
X142754627Y-101394153D01*
X142738885Y-101382717D01*
X142601287Y-101265201D01*
X142587528Y-101251442D01*
X142470009Y-101113850D01*
X142458572Y-101098109D01*
X142364023Y-100943825D01*
X142355189Y-100926488D01*
X142285939Y-100759312D01*
X142279926Y-100740806D01*
X142237683Y-100564864D01*
X142234639Y-100545652D01*
X142220118Y-100361185D01*
X142219736Y-100351454D01*
X142219736Y-98212135D01*
X168879500Y-98212135D01*
X168879500Y-99907870D01*
X168879501Y-99907876D01*
X168885908Y-99967483D01*
X168936202Y-100102328D01*
X168936206Y-100102335D01*
X169022452Y-100217544D01*
X169022455Y-100217547D01*
X169137664Y-100303793D01*
X169137671Y-100303797D01*
X169272517Y-100354091D01*
X169272516Y-100354091D01*
X169279444Y-100354835D01*
X169332127Y-100360500D01*
X171027872Y-100360499D01*
X171087483Y-100354091D01*
X171222331Y-100303796D01*
X171337546Y-100217546D01*
X171423796Y-100102331D01*
X171474091Y-99967483D01*
X171477862Y-99932401D01*
X171504599Y-99867855D01*
X171561990Y-99828006D01*
X171631816Y-99825511D01*
X171691905Y-99861163D01*
X171702726Y-99874536D01*
X171719956Y-99899143D01*
X171880858Y-100060045D01*
X171880861Y-100060047D01*
X172067266Y-100190568D01*
X172273504Y-100286739D01*
X172273509Y-100286740D01*
X172273511Y-100286741D01*
X172326415Y-100300916D01*
X172493308Y-100345635D01*
X172655230Y-100359801D01*
X172719998Y-100365468D01*
X172720000Y-100365468D01*
X172720002Y-100365468D01*
X172776807Y-100360498D01*
X172946692Y-100345635D01*
X173166496Y-100286739D01*
X173372734Y-100190568D01*
X173559139Y-100060047D01*
X173720047Y-99899139D01*
X173850568Y-99712734D01*
X173877618Y-99654724D01*
X173923790Y-99602285D01*
X173990983Y-99583133D01*
X174057865Y-99603348D01*
X174102382Y-99654725D01*
X174129429Y-99712728D01*
X174129432Y-99712734D01*
X174259954Y-99899141D01*
X174420858Y-100060045D01*
X174420861Y-100060047D01*
X174607266Y-100190568D01*
X174813504Y-100286739D01*
X174813509Y-100286740D01*
X174813511Y-100286741D01*
X174866415Y-100300916D01*
X175033308Y-100345635D01*
X175195230Y-100359801D01*
X175259998Y-100365468D01*
X175260000Y-100365468D01*
X175260002Y-100365468D01*
X175316807Y-100360498D01*
X175486692Y-100345635D01*
X175706496Y-100286739D01*
X175912734Y-100190568D01*
X176099139Y-100060047D01*
X176260047Y-99899139D01*
X176390568Y-99712734D01*
X176417618Y-99654724D01*
X176463790Y-99602285D01*
X176530983Y-99583133D01*
X176597865Y-99603348D01*
X176642382Y-99654725D01*
X176669429Y-99712728D01*
X176669432Y-99712734D01*
X176799954Y-99899141D01*
X176960858Y-100060045D01*
X176960861Y-100060047D01*
X177147266Y-100190568D01*
X177353504Y-100286739D01*
X177353509Y-100286740D01*
X177353511Y-100286741D01*
X177406415Y-100300916D01*
X177573308Y-100345635D01*
X177735230Y-100359801D01*
X177799998Y-100365468D01*
X177800000Y-100365468D01*
X177800002Y-100365468D01*
X177856807Y-100360498D01*
X178026692Y-100345635D01*
X178246496Y-100286739D01*
X178452734Y-100190568D01*
X178639139Y-100060047D01*
X178800047Y-99899139D01*
X178930568Y-99712734D01*
X178957618Y-99654724D01*
X179003790Y-99602285D01*
X179070983Y-99583133D01*
X179137865Y-99603348D01*
X179182382Y-99654725D01*
X179209429Y-99712728D01*
X179209432Y-99712734D01*
X179339954Y-99899141D01*
X179500858Y-100060045D01*
X179500861Y-100060047D01*
X179687266Y-100190568D01*
X179893504Y-100286739D01*
X179893509Y-100286740D01*
X179893511Y-100286741D01*
X179946415Y-100300916D01*
X180113308Y-100345635D01*
X180275230Y-100359801D01*
X180339998Y-100365468D01*
X180340000Y-100365468D01*
X180340002Y-100365468D01*
X180396807Y-100360498D01*
X180566692Y-100345635D01*
X180786496Y-100286739D01*
X180992734Y-100190568D01*
X181179139Y-100060047D01*
X181340047Y-99899139D01*
X181470568Y-99712734D01*
X181497895Y-99654129D01*
X181544064Y-99601695D01*
X181611257Y-99582542D01*
X181678139Y-99602757D01*
X181722657Y-99654133D01*
X181749865Y-99712482D01*
X181880342Y-99898820D01*
X182041179Y-100059657D01*
X182227517Y-100190134D01*
X182433673Y-100286265D01*
X182433682Y-100286269D01*
X182629999Y-100338872D01*
X182630000Y-100338871D01*
X182630000Y-99493012D01*
X182687007Y-99525925D01*
X182814174Y-99560000D01*
X182945826Y-99560000D01*
X183072993Y-99525925D01*
X183130000Y-99493012D01*
X183130000Y-100338872D01*
X183326317Y-100286269D01*
X183326326Y-100286265D01*
X183532482Y-100190134D01*
X183718820Y-100059657D01*
X183879657Y-99898820D01*
X184010134Y-99712481D01*
X184010135Y-99712479D01*
X184037618Y-99653543D01*
X184083790Y-99601103D01*
X184150983Y-99581951D01*
X184217864Y-99602166D01*
X184262382Y-99653543D01*
X184289864Y-99712479D01*
X184289865Y-99712481D01*
X184420342Y-99898820D01*
X184581179Y-100059657D01*
X184767517Y-100190134D01*
X184973673Y-100286265D01*
X184973682Y-100286269D01*
X185169999Y-100338872D01*
X185170000Y-100338871D01*
X185170000Y-99493012D01*
X185227007Y-99525925D01*
X185354174Y-99560000D01*
X185485826Y-99560000D01*
X185612993Y-99525925D01*
X185670000Y-99493012D01*
X185670000Y-100338872D01*
X185866317Y-100286269D01*
X185866326Y-100286265D01*
X186072482Y-100190134D01*
X186258820Y-100059657D01*
X186419657Y-99898820D01*
X186550132Y-99712484D01*
X186577341Y-99654134D01*
X186623513Y-99601695D01*
X186690707Y-99582542D01*
X186757588Y-99602757D01*
X186802106Y-99654133D01*
X186829431Y-99712732D01*
X186829432Y-99712734D01*
X186959954Y-99899141D01*
X187120858Y-100060045D01*
X187120861Y-100060047D01*
X187307266Y-100190568D01*
X187513504Y-100286739D01*
X187513509Y-100286740D01*
X187513511Y-100286741D01*
X187566415Y-100300916D01*
X187733308Y-100345635D01*
X187895230Y-100359801D01*
X187959998Y-100365468D01*
X187960000Y-100365468D01*
X187960002Y-100365468D01*
X188016807Y-100360498D01*
X188186692Y-100345635D01*
X188406496Y-100286739D01*
X188612734Y-100190568D01*
X188799139Y-100060047D01*
X188960047Y-99899139D01*
X189090568Y-99712734D01*
X189186739Y-99506496D01*
X189245635Y-99286692D01*
X189265468Y-99060000D01*
X189265468Y-99059998D01*
X191734532Y-99059998D01*
X191734532Y-99060001D01*
X191754364Y-99286686D01*
X191754366Y-99286697D01*
X191813258Y-99506488D01*
X191813261Y-99506497D01*
X191909431Y-99712732D01*
X191909432Y-99712734D01*
X192039954Y-99899141D01*
X192200858Y-100060045D01*
X192200861Y-100060047D01*
X192387266Y-100190568D01*
X192593504Y-100286739D01*
X192593509Y-100286740D01*
X192593511Y-100286741D01*
X192646415Y-100300916D01*
X192813308Y-100345635D01*
X192975230Y-100359801D01*
X193039998Y-100365468D01*
X193040000Y-100365468D01*
X193040002Y-100365468D01*
X193096807Y-100360498D01*
X193266692Y-100345635D01*
X193486496Y-100286739D01*
X193692734Y-100190568D01*
X193879139Y-100060047D01*
X194040047Y-99899139D01*
X194170568Y-99712734D01*
X194197618Y-99654724D01*
X194243790Y-99602285D01*
X194310983Y-99583133D01*
X194377865Y-99603348D01*
X194422382Y-99654725D01*
X194449429Y-99712728D01*
X194449432Y-99712734D01*
X194579954Y-99899141D01*
X194740858Y-100060045D01*
X194740861Y-100060047D01*
X194927266Y-100190568D01*
X195133504Y-100286739D01*
X195133509Y-100286740D01*
X195133511Y-100286741D01*
X195186415Y-100300916D01*
X195353308Y-100345635D01*
X195515230Y-100359801D01*
X195579998Y-100365468D01*
X195580000Y-100365468D01*
X195580002Y-100365468D01*
X195636807Y-100360498D01*
X195806692Y-100345635D01*
X196026496Y-100286739D01*
X196232734Y-100190568D01*
X196419139Y-100060047D01*
X196580047Y-99899139D01*
X196710568Y-99712734D01*
X196737618Y-99654724D01*
X196783790Y-99602285D01*
X196850983Y-99583133D01*
X196917865Y-99603348D01*
X196962382Y-99654725D01*
X196989429Y-99712728D01*
X196989432Y-99712734D01*
X197119954Y-99899141D01*
X197280858Y-100060045D01*
X197280861Y-100060047D01*
X197467266Y-100190568D01*
X197673504Y-100286739D01*
X197673509Y-100286740D01*
X197673511Y-100286741D01*
X197726415Y-100300916D01*
X197893308Y-100345635D01*
X198055230Y-100359801D01*
X198119998Y-100365468D01*
X198120000Y-100365468D01*
X198120002Y-100365468D01*
X198176807Y-100360498D01*
X198346692Y-100345635D01*
X198566496Y-100286739D01*
X198772734Y-100190568D01*
X198959139Y-100060047D01*
X199120047Y-99899139D01*
X199250568Y-99712734D01*
X199277618Y-99654724D01*
X199323790Y-99602285D01*
X199390983Y-99583133D01*
X199457865Y-99603348D01*
X199502382Y-99654725D01*
X199529429Y-99712728D01*
X199529432Y-99712734D01*
X199659954Y-99899141D01*
X199820858Y-100060045D01*
X199820861Y-100060047D01*
X200007266Y-100190568D01*
X200213504Y-100286739D01*
X200213509Y-100286740D01*
X200213511Y-100286741D01*
X200266415Y-100300916D01*
X200433308Y-100345635D01*
X200595230Y-100359801D01*
X200659998Y-100365468D01*
X200660000Y-100365468D01*
X200660002Y-100365468D01*
X200716807Y-100360498D01*
X200886692Y-100345635D01*
X201106496Y-100286739D01*
X201312734Y-100190568D01*
X201499139Y-100060047D01*
X201660047Y-99899139D01*
X201790568Y-99712734D01*
X201817618Y-99654724D01*
X201863790Y-99602285D01*
X201930983Y-99583133D01*
X201997865Y-99603348D01*
X202042382Y-99654725D01*
X202069429Y-99712728D01*
X202069432Y-99712734D01*
X202199954Y-99899141D01*
X202360858Y-100060045D01*
X202360861Y-100060047D01*
X202547266Y-100190568D01*
X202753504Y-100286739D01*
X202753509Y-100286740D01*
X202753511Y-100286741D01*
X202806415Y-100300916D01*
X202973308Y-100345635D01*
X203135230Y-100359801D01*
X203199998Y-100365468D01*
X203200000Y-100365468D01*
X203200002Y-100365468D01*
X203256807Y-100360498D01*
X203426692Y-100345635D01*
X203646496Y-100286739D01*
X203852734Y-100190568D01*
X204039139Y-100060047D01*
X204200047Y-99899139D01*
X204330568Y-99712734D01*
X204357618Y-99654724D01*
X204403790Y-99602285D01*
X204470983Y-99583133D01*
X204537865Y-99603348D01*
X204582382Y-99654725D01*
X204609429Y-99712728D01*
X204609432Y-99712734D01*
X204739954Y-99899141D01*
X204900858Y-100060045D01*
X204900861Y-100060047D01*
X205087266Y-100190568D01*
X205293504Y-100286739D01*
X205293509Y-100286740D01*
X205293511Y-100286741D01*
X205346415Y-100300916D01*
X205513308Y-100345635D01*
X205675230Y-100359801D01*
X205739998Y-100365468D01*
X205740000Y-100365468D01*
X205740002Y-100365468D01*
X205796807Y-100360498D01*
X205966692Y-100345635D01*
X206186496Y-100286739D01*
X206392734Y-100190568D01*
X206579139Y-100060047D01*
X206740047Y-99899139D01*
X206870568Y-99712734D01*
X206966739Y-99506496D01*
X207025635Y-99286692D01*
X207045468Y-99060000D01*
X207025635Y-98833308D01*
X206966739Y-98613504D01*
X206870568Y-98407266D01*
X206740047Y-98220861D01*
X206740045Y-98220858D01*
X206579141Y-98059954D01*
X206392734Y-97929432D01*
X206392732Y-97929431D01*
X206186497Y-97833261D01*
X206186488Y-97833258D01*
X205966697Y-97774366D01*
X205966693Y-97774365D01*
X205966692Y-97774365D01*
X205966691Y-97774364D01*
X205966686Y-97774364D01*
X205740002Y-97754532D01*
X205739998Y-97754532D01*
X205513313Y-97774364D01*
X205513302Y-97774366D01*
X205293511Y-97833258D01*
X205293502Y-97833261D01*
X205087267Y-97929431D01*
X205087265Y-97929432D01*
X204900858Y-98059954D01*
X204739954Y-98220858D01*
X204609432Y-98407265D01*
X204609431Y-98407267D01*
X204582382Y-98465275D01*
X204536209Y-98517714D01*
X204469016Y-98536866D01*
X204402135Y-98516650D01*
X204357618Y-98465275D01*
X204330686Y-98407520D01*
X204330568Y-98407266D01*
X204200047Y-98220861D01*
X204200045Y-98220858D01*
X204039141Y-98059954D01*
X203852734Y-97929432D01*
X203852732Y-97929431D01*
X203646497Y-97833261D01*
X203646488Y-97833258D01*
X203426697Y-97774366D01*
X203426693Y-97774365D01*
X203426692Y-97774365D01*
X203426691Y-97774364D01*
X203426686Y-97774364D01*
X203200002Y-97754532D01*
X203199998Y-97754532D01*
X202973313Y-97774364D01*
X202973302Y-97774366D01*
X202753511Y-97833258D01*
X202753502Y-97833261D01*
X202547267Y-97929431D01*
X202547265Y-97929432D01*
X202360858Y-98059954D01*
X202199954Y-98220858D01*
X202069432Y-98407265D01*
X202069431Y-98407267D01*
X202042382Y-98465275D01*
X201996209Y-98517714D01*
X201929016Y-98536866D01*
X201862135Y-98516650D01*
X201817618Y-98465275D01*
X201790686Y-98407520D01*
X201790568Y-98407266D01*
X201660047Y-98220861D01*
X201660045Y-98220858D01*
X201499141Y-98059954D01*
X201312734Y-97929432D01*
X201312732Y-97929431D01*
X201106497Y-97833261D01*
X201106488Y-97833258D01*
X200886697Y-97774366D01*
X200886693Y-97774365D01*
X200886692Y-97774365D01*
X200886691Y-97774364D01*
X200886686Y-97774364D01*
X200660002Y-97754532D01*
X200659998Y-97754532D01*
X200433313Y-97774364D01*
X200433302Y-97774366D01*
X200213511Y-97833258D01*
X200213502Y-97833261D01*
X200007267Y-97929431D01*
X200007265Y-97929432D01*
X199820858Y-98059954D01*
X199659954Y-98220858D01*
X199529432Y-98407265D01*
X199529431Y-98407267D01*
X199502382Y-98465275D01*
X199456209Y-98517714D01*
X199389016Y-98536866D01*
X199322135Y-98516650D01*
X199277618Y-98465275D01*
X199250686Y-98407520D01*
X199250568Y-98407266D01*
X199120047Y-98220861D01*
X199120045Y-98220858D01*
X198959141Y-98059954D01*
X198772734Y-97929432D01*
X198772732Y-97929431D01*
X198566497Y-97833261D01*
X198566488Y-97833258D01*
X198346697Y-97774366D01*
X198346693Y-97774365D01*
X198346692Y-97774365D01*
X198346691Y-97774364D01*
X198346686Y-97774364D01*
X198120002Y-97754532D01*
X198119998Y-97754532D01*
X197893313Y-97774364D01*
X197893302Y-97774366D01*
X197673511Y-97833258D01*
X197673502Y-97833261D01*
X197467267Y-97929431D01*
X197467265Y-97929432D01*
X197280858Y-98059954D01*
X197119954Y-98220858D01*
X196989432Y-98407265D01*
X196989431Y-98407267D01*
X196962382Y-98465275D01*
X196916209Y-98517714D01*
X196849016Y-98536866D01*
X196782135Y-98516650D01*
X196737618Y-98465275D01*
X196710686Y-98407520D01*
X196710568Y-98407266D01*
X196580047Y-98220861D01*
X196580045Y-98220858D01*
X196419141Y-98059954D01*
X196232734Y-97929432D01*
X196232732Y-97929431D01*
X196026497Y-97833261D01*
X196026488Y-97833258D01*
X195806697Y-97774366D01*
X195806693Y-97774365D01*
X195806692Y-97774365D01*
X195806691Y-97774364D01*
X195806686Y-97774364D01*
X195580002Y-97754532D01*
X195579998Y-97754532D01*
X195353313Y-97774364D01*
X195353302Y-97774366D01*
X195133511Y-97833258D01*
X195133502Y-97833261D01*
X194927267Y-97929431D01*
X194927265Y-97929432D01*
X194740858Y-98059954D01*
X194579954Y-98220858D01*
X194449432Y-98407265D01*
X194449431Y-98407267D01*
X194422382Y-98465275D01*
X194376209Y-98517714D01*
X194309016Y-98536866D01*
X194242135Y-98516650D01*
X194197618Y-98465275D01*
X194170686Y-98407520D01*
X194170568Y-98407266D01*
X194040047Y-98220861D01*
X194040045Y-98220858D01*
X193879141Y-98059954D01*
X193692734Y-97929432D01*
X193692732Y-97929431D01*
X193486497Y-97833261D01*
X193486488Y-97833258D01*
X193266697Y-97774366D01*
X193266693Y-97774365D01*
X193266692Y-97774365D01*
X193266691Y-97774364D01*
X193266686Y-97774364D01*
X193040002Y-97754532D01*
X193039998Y-97754532D01*
X192813313Y-97774364D01*
X192813302Y-97774366D01*
X192593511Y-97833258D01*
X192593502Y-97833261D01*
X192387267Y-97929431D01*
X192387265Y-97929432D01*
X192200858Y-98059954D01*
X192039954Y-98220858D01*
X191909432Y-98407265D01*
X191909431Y-98407267D01*
X191813261Y-98613502D01*
X191813258Y-98613511D01*
X191754366Y-98833302D01*
X191754364Y-98833313D01*
X191734532Y-99059998D01*
X189265468Y-99059998D01*
X189245635Y-98833308D01*
X189186739Y-98613504D01*
X189090568Y-98407266D01*
X188960047Y-98220861D01*
X188960045Y-98220858D01*
X188799141Y-98059954D01*
X188612734Y-97929432D01*
X188612732Y-97929431D01*
X188406497Y-97833261D01*
X188406488Y-97833258D01*
X188186697Y-97774366D01*
X188186693Y-97774365D01*
X188186692Y-97774365D01*
X188186691Y-97774364D01*
X188186686Y-97774364D01*
X187960002Y-97754532D01*
X187959998Y-97754532D01*
X187733313Y-97774364D01*
X187733302Y-97774366D01*
X187513511Y-97833258D01*
X187513502Y-97833261D01*
X187307267Y-97929431D01*
X187307265Y-97929432D01*
X187120858Y-98059954D01*
X186959954Y-98220858D01*
X186829433Y-98407264D01*
X186829432Y-98407266D01*
X186829315Y-98407518D01*
X186802106Y-98465867D01*
X186755933Y-98518306D01*
X186688739Y-98537457D01*
X186621858Y-98517241D01*
X186577342Y-98465865D01*
X186550135Y-98407520D01*
X186550134Y-98407518D01*
X186419657Y-98221179D01*
X186258820Y-98060342D01*
X186072482Y-97929865D01*
X185866328Y-97833734D01*
X185670000Y-97781127D01*
X185670000Y-98626988D01*
X185612993Y-98594075D01*
X185485826Y-98560000D01*
X185354174Y-98560000D01*
X185227007Y-98594075D01*
X185170000Y-98626988D01*
X185170000Y-97781127D01*
X184973671Y-97833734D01*
X184767517Y-97929865D01*
X184581179Y-98060342D01*
X184420342Y-98221179D01*
X184289865Y-98407517D01*
X184262382Y-98466457D01*
X184216210Y-98518896D01*
X184149016Y-98538048D01*
X184082135Y-98517832D01*
X184037618Y-98466457D01*
X184010134Y-98407517D01*
X183879657Y-98221179D01*
X183718820Y-98060342D01*
X183532482Y-97929865D01*
X183326328Y-97833734D01*
X183130000Y-97781127D01*
X183130000Y-98626988D01*
X183072993Y-98594075D01*
X182945826Y-98560000D01*
X182814174Y-98560000D01*
X182687007Y-98594075D01*
X182630000Y-98626988D01*
X182630000Y-97781127D01*
X182433671Y-97833734D01*
X182227517Y-97929865D01*
X182041179Y-98060342D01*
X181880342Y-98221179D01*
X181749867Y-98407515D01*
X181722657Y-98465867D01*
X181676484Y-98518306D01*
X181609290Y-98537457D01*
X181542409Y-98517241D01*
X181497893Y-98465865D01*
X181470685Y-98407518D01*
X181470568Y-98407266D01*
X181340047Y-98220861D01*
X181340045Y-98220858D01*
X181179141Y-98059954D01*
X180992734Y-97929432D01*
X180992732Y-97929431D01*
X180786497Y-97833261D01*
X180786488Y-97833258D01*
X180566697Y-97774366D01*
X180566693Y-97774365D01*
X180566692Y-97774365D01*
X180566691Y-97774364D01*
X180566686Y-97774364D01*
X180340002Y-97754532D01*
X180339998Y-97754532D01*
X180257150Y-97761780D01*
X180188650Y-97748013D01*
X180138467Y-97699398D01*
X180122534Y-97631369D01*
X180145910Y-97565526D01*
X180158655Y-97550578D01*
X182082416Y-95626819D01*
X182143739Y-95593334D01*
X182170097Y-95590500D01*
X186663331Y-95590500D01*
X186663347Y-95590501D01*
X186670943Y-95590501D01*
X186829054Y-95590501D01*
X186829057Y-95590501D01*
X186981785Y-95549577D01*
X187046156Y-95512412D01*
X187118716Y-95470520D01*
X187230520Y-95358716D01*
X187230520Y-95358714D01*
X187240724Y-95348511D01*
X187240727Y-95348506D01*
X191213520Y-91375716D01*
X191292577Y-91238784D01*
X191333501Y-91086057D01*
X191333501Y-90927942D01*
X191333501Y-90920347D01*
X191333500Y-90920329D01*
X191333500Y-63529230D01*
X191353185Y-63462191D01*
X191369819Y-63441549D01*
X191392712Y-63418656D01*
X191484814Y-63269334D01*
X191539999Y-63102797D01*
X191550500Y-63000009D01*
X191550499Y-61699992D01*
X191544133Y-61637677D01*
X191539999Y-61597203D01*
X191539998Y-61597200D01*
X191493170Y-61455884D01*
X191484814Y-61430666D01*
X191392712Y-61281344D01*
X191268656Y-61157288D01*
X191119334Y-61065186D01*
X191119332Y-61065185D01*
X191113440Y-61061551D01*
X191066716Y-61009603D01*
X191055493Y-60940641D01*
X191083337Y-60876558D01*
X191090856Y-60868330D01*
X191229728Y-60729458D01*
X191354620Y-60557557D01*
X191451095Y-60368217D01*
X191516757Y-60166129D01*
X191516757Y-60166126D01*
X191527231Y-60100000D01*
X190483012Y-60100000D01*
X190515925Y-60042993D01*
X190550000Y-59915826D01*
X190550000Y-59784174D01*
X190515925Y-59657007D01*
X190483012Y-59600000D01*
X191527231Y-59600000D01*
X191516757Y-59533873D01*
X191516757Y-59533870D01*
X191451095Y-59331782D01*
X191354620Y-59142442D01*
X191229727Y-58970540D01*
X191229723Y-58970535D01*
X191079464Y-58820276D01*
X191079459Y-58820272D01*
X190907557Y-58695379D01*
X190718217Y-58598904D01*
X190516129Y-58533242D01*
X190306246Y-58500000D01*
X190300000Y-58500000D01*
X190300000Y-59416988D01*
X190242993Y-59384075D01*
X190115826Y-59350000D01*
X189984174Y-59350000D01*
X189857007Y-59384075D01*
X189800000Y-59416988D01*
X189800000Y-58500000D01*
X189793754Y-58500000D01*
X189583872Y-58533242D01*
X189583869Y-58533242D01*
X189381782Y-58598904D01*
X189192442Y-58695379D01*
X189020540Y-58820272D01*
X189020535Y-58820276D01*
X188870276Y-58970535D01*
X188870272Y-58970540D01*
X188745379Y-59142442D01*
X188648904Y-59331782D01*
X188583242Y-59533870D01*
X188583242Y-59533873D01*
X188572769Y-59600000D01*
X189616988Y-59600000D01*
X189584075Y-59657007D01*
X189550000Y-59784174D01*
X189550000Y-59915826D01*
X189584075Y-60042993D01*
X189616988Y-60100000D01*
X188572769Y-60100000D01*
X188583242Y-60166126D01*
X188583242Y-60166129D01*
X188648904Y-60368217D01*
X188745379Y-60557557D01*
X188870272Y-60729459D01*
X188870276Y-60729464D01*
X189009143Y-60868331D01*
X189042628Y-60929654D01*
X189037644Y-60999346D01*
X188995772Y-61055279D01*
X188986559Y-61061551D01*
X188831342Y-61157289D01*
X188707289Y-61281342D01*
X188615187Y-61430663D01*
X188615185Y-61430668D01*
X188604724Y-61462239D01*
X188560001Y-61597203D01*
X188560001Y-61597204D01*
X188560000Y-61597204D01*
X188549500Y-61699983D01*
X188549500Y-63000001D01*
X188549501Y-63000018D01*
X188560000Y-63102796D01*
X188560001Y-63102799D01*
X188595563Y-63210116D01*
X188615186Y-63269334D01*
X188707288Y-63418656D01*
X188831344Y-63542712D01*
X188980666Y-63634814D01*
X189147203Y-63689999D01*
X189249991Y-63700500D01*
X190008500Y-63700499D01*
X190075539Y-63720183D01*
X190121294Y-63772987D01*
X190132500Y-63824499D01*
X190132500Y-67016103D01*
X190112815Y-67083142D01*
X190060011Y-67128897D01*
X189990853Y-67138841D01*
X189927297Y-67109816D01*
X189920819Y-67103784D01*
X182934906Y-60117871D01*
X182901421Y-60056548D01*
X182899367Y-60016305D01*
X182905565Y-59961301D01*
X182905565Y-59961296D01*
X182885369Y-59782050D01*
X182885368Y-59782045D01*
X182825788Y-59611776D01*
X182729815Y-59459037D01*
X182602262Y-59331484D01*
X182449523Y-59235511D01*
X182279254Y-59175931D01*
X182279249Y-59175930D01*
X182100004Y-59155735D01*
X182099996Y-59155735D01*
X181920750Y-59175930D01*
X181920745Y-59175931D01*
X181750476Y-59235511D01*
X181597734Y-59331486D01*
X181597733Y-59331486D01*
X181561724Y-59367496D01*
X181500401Y-59400981D01*
X181433089Y-59396855D01*
X181412449Y-59389632D01*
X181412438Y-59389630D01*
X181233196Y-59369435D01*
X181233188Y-59369435D01*
X181053942Y-59389630D01*
X181053937Y-59389631D01*
X180883668Y-59449211D01*
X180730929Y-59545184D01*
X180603376Y-59672737D01*
X180507403Y-59825477D01*
X180448803Y-59992947D01*
X180408081Y-60049723D01*
X180372717Y-60069033D01*
X180286479Y-60099209D01*
X180133737Y-60195184D01*
X180006184Y-60322737D01*
X179910210Y-60475478D01*
X179850630Y-60645750D01*
X179840837Y-60732668D01*
X179813770Y-60797082D01*
X179805298Y-60806465D01*
X179440286Y-61171478D01*
X179328481Y-61283282D01*
X179328477Y-61283287D01*
X179307179Y-61320179D01*
X179303090Y-61327262D01*
X179284240Y-61359911D01*
X179249423Y-61420214D01*
X179235781Y-61471124D01*
X179208499Y-61572943D01*
X179208499Y-61572945D01*
X179208499Y-61741046D01*
X179208500Y-61741059D01*
X179208500Y-65042330D01*
X179208499Y-65042348D01*
X179208499Y-65208054D01*
X179208498Y-65208054D01*
X179208499Y-65208057D01*
X179249423Y-65360785D01*
X179249424Y-65360787D01*
X179249423Y-65360787D01*
X179259016Y-65377401D01*
X179259017Y-65377402D01*
X179328477Y-65497712D01*
X179328481Y-65497717D01*
X179447349Y-65616585D01*
X179447355Y-65616590D01*
X181118584Y-67287819D01*
X181152069Y-67349142D01*
X181147085Y-67418834D01*
X181105213Y-67474767D01*
X181039749Y-67499184D01*
X181030903Y-67499500D01*
X180718713Y-67499500D01*
X180670042Y-67507208D01*
X180508760Y-67532753D01*
X180306585Y-67598444D01*
X180117179Y-67694951D01*
X179945213Y-67819890D01*
X179794890Y-67970213D01*
X179669951Y-68142179D01*
X179573444Y-68331585D01*
X179507753Y-68533760D01*
X179482464Y-68693428D01*
X179474500Y-68743713D01*
X179474500Y-68956287D01*
X179482448Y-69006466D01*
X179507753Y-69166239D01*
X179573444Y-69368414D01*
X179669951Y-69557820D01*
X179794890Y-69729786D01*
X179945209Y-69880105D01*
X179945214Y-69880109D01*
X180109793Y-69999682D01*
X180152459Y-70055011D01*
X180158438Y-70124625D01*
X180125833Y-70186420D01*
X180109793Y-70200318D01*
X179945214Y-70319890D01*
X179945209Y-70319894D01*
X179794890Y-70470213D01*
X179669951Y-70642179D01*
X179573444Y-70831585D01*
X179507753Y-71033760D01*
X179474500Y-71243713D01*
X179474500Y-71456286D01*
X179494184Y-71580570D01*
X179507754Y-71666243D01*
X179522811Y-71712585D01*
X179573444Y-71868414D01*
X179669951Y-72057820D01*
X179794890Y-72229786D01*
X179945209Y-72380105D01*
X179945214Y-72380109D01*
X180109793Y-72499682D01*
X180152459Y-72555011D01*
X180158438Y-72624625D01*
X180125833Y-72686420D01*
X180109793Y-72700318D01*
X179945214Y-72819890D01*
X179945209Y-72819894D01*
X179794890Y-72970213D01*
X179669951Y-73142179D01*
X179573444Y-73331585D01*
X179507753Y-73533760D01*
X179474500Y-73743713D01*
X179474500Y-73956287D01*
X179507754Y-74166243D01*
X179514946Y-74188379D01*
X179573444Y-74368414D01*
X179669951Y-74557820D01*
X179794890Y-74729786D01*
X179933705Y-74868601D01*
X179967190Y-74929924D01*
X179962206Y-74999616D01*
X179920334Y-75055549D01*
X179911121Y-75061821D01*
X179756342Y-75157289D01*
X179632289Y-75281342D01*
X179540187Y-75430663D01*
X179540185Y-75430668D01*
X179523948Y-75479669D01*
X179485001Y-75597203D01*
X179485001Y-75597204D01*
X179485000Y-75597204D01*
X179474500Y-75699983D01*
X179474500Y-77000001D01*
X179474501Y-77000018D01*
X179485000Y-77102796D01*
X179485001Y-77102799D01*
X179514979Y-77193265D01*
X179540186Y-77269334D01*
X179632288Y-77418656D01*
X179756344Y-77542712D01*
X179905666Y-77634814D01*
X180072203Y-77689999D01*
X180174991Y-77700500D01*
X181725008Y-77700499D01*
X181827797Y-77689999D01*
X181994334Y-77634814D01*
X182143656Y-77542712D01*
X182267712Y-77418656D01*
X182359814Y-77269334D01*
X182414999Y-77102797D01*
X182425500Y-77000009D01*
X182425499Y-75699992D01*
X182414999Y-75597203D01*
X182359814Y-75430666D01*
X182267712Y-75281344D01*
X182143656Y-75157288D01*
X181994334Y-75065186D01*
X181994333Y-75065185D01*
X181988878Y-75061821D01*
X181942154Y-75009873D01*
X181930931Y-74940910D01*
X181958775Y-74876828D01*
X181966272Y-74868623D01*
X182105104Y-74729792D01*
X182118300Y-74711630D01*
X182230048Y-74557820D01*
X182230047Y-74557820D01*
X182230051Y-74557816D01*
X182326557Y-74368412D01*
X182392246Y-74166243D01*
X182425500Y-73956287D01*
X182425500Y-73743713D01*
X182392246Y-73533757D01*
X182326557Y-73331588D01*
X182230051Y-73142184D01*
X182230049Y-73142181D01*
X182230048Y-73142179D01*
X182105109Y-72970213D01*
X181954792Y-72819896D01*
X181949343Y-72815937D01*
X181790204Y-72700316D01*
X181747540Y-72644989D01*
X181741561Y-72575376D01*
X181774166Y-72513580D01*
X181790199Y-72499686D01*
X181954792Y-72380104D01*
X182105104Y-72229792D01*
X182105106Y-72229788D01*
X182105109Y-72229786D01*
X182230048Y-72057820D01*
X182230047Y-72057820D01*
X182230051Y-72057816D01*
X182326557Y-71868412D01*
X182392246Y-71666243D01*
X182425500Y-71456287D01*
X182425500Y-71243713D01*
X182392246Y-71033757D01*
X182326557Y-70831588D01*
X182230051Y-70642184D01*
X182230049Y-70642181D01*
X182230048Y-70642179D01*
X182105109Y-70470213D01*
X181954792Y-70319896D01*
X181885083Y-70269250D01*
X181790204Y-70200316D01*
X181747540Y-70144989D01*
X181741561Y-70075376D01*
X181774166Y-70013580D01*
X181790199Y-69999686D01*
X181954792Y-69880104D01*
X182105104Y-69729792D01*
X182105106Y-69729788D01*
X182105109Y-69729786D01*
X182230048Y-69557820D01*
X182230047Y-69557820D01*
X182230051Y-69557816D01*
X182326557Y-69368412D01*
X182392246Y-69166243D01*
X182425500Y-68956287D01*
X182425500Y-68894097D01*
X182445185Y-68827058D01*
X182497989Y-68781303D01*
X182567147Y-68771359D01*
X182630703Y-68800384D01*
X182637181Y-68806416D01*
X185938181Y-72107416D01*
X185971666Y-72168739D01*
X185974500Y-72195097D01*
X185974500Y-84988330D01*
X185974499Y-84988348D01*
X185974499Y-85154054D01*
X185974498Y-85154054D01*
X186015423Y-85306785D01*
X186044358Y-85356900D01*
X186044359Y-85356904D01*
X186044360Y-85356904D01*
X186094479Y-85443714D01*
X186094481Y-85443717D01*
X186213349Y-85562585D01*
X186213355Y-85562590D01*
X187621897Y-86971132D01*
X187655382Y-87032455D01*
X187652147Y-87097129D01*
X187623051Y-87186678D01*
X187607753Y-87233760D01*
X187574074Y-87446402D01*
X187544145Y-87509537D01*
X187484833Y-87546468D01*
X187414971Y-87545470D01*
X187363920Y-87514685D01*
X184956819Y-85107584D01*
X184923334Y-85046261D01*
X184920500Y-85019903D01*
X184920500Y-83815945D01*
X184920500Y-83815943D01*
X184880114Y-83665220D01*
X184879577Y-83663215D01*
X184879577Y-83663214D01*
X184850639Y-83613095D01*
X184850637Y-83613092D01*
X184831595Y-83580109D01*
X184800520Y-83526284D01*
X184688716Y-83414480D01*
X184688715Y-83414479D01*
X184684385Y-83410149D01*
X184684374Y-83410139D01*
X178503819Y-77229584D01*
X178470334Y-77168261D01*
X178467500Y-77141903D01*
X178467500Y-62668112D01*
X178487185Y-62601073D01*
X178494555Y-62590797D01*
X178496810Y-62587967D01*
X178496816Y-62587962D01*
X178592789Y-62435222D01*
X178652368Y-62264955D01*
X178652369Y-62264949D01*
X178672565Y-62085703D01*
X178672565Y-62085696D01*
X178652369Y-61906450D01*
X178652368Y-61906445D01*
X178592789Y-61736178D01*
X178496816Y-61583438D01*
X178369262Y-61455884D01*
X178329123Y-61430663D01*
X178216523Y-61359911D01*
X178046254Y-61300331D01*
X178046249Y-61300330D01*
X177867004Y-61280135D01*
X177866996Y-61280135D01*
X177687750Y-61300330D01*
X177687745Y-61300331D01*
X177517476Y-61359911D01*
X177364737Y-61455884D01*
X177237184Y-61583437D01*
X177141211Y-61736176D01*
X177081631Y-61906445D01*
X177081630Y-61906450D01*
X177061435Y-62085696D01*
X177061435Y-62085703D01*
X177081630Y-62264949D01*
X177081631Y-62264954D01*
X177141211Y-62435223D01*
X177237185Y-62587963D01*
X177239445Y-62590797D01*
X177240334Y-62592975D01*
X177240889Y-62593858D01*
X177240734Y-62593955D01*
X177265855Y-62655483D01*
X177266500Y-62668112D01*
X177266500Y-77355330D01*
X177266499Y-77355348D01*
X177266499Y-77521054D01*
X177266498Y-77521054D01*
X177277263Y-77561230D01*
X177307423Y-77673785D01*
X177322847Y-77700499D01*
X177364697Y-77772987D01*
X177386479Y-77810715D01*
X177505349Y-77929585D01*
X177505355Y-77929590D01*
X180588612Y-81012847D01*
X180622097Y-81074170D01*
X180617113Y-81143862D01*
X180575241Y-81199795D01*
X180520330Y-81223001D01*
X180458759Y-81232753D01*
X180256585Y-81298444D01*
X180067179Y-81394951D01*
X179895213Y-81519890D01*
X179744890Y-81670213D01*
X179619951Y-81842179D01*
X179523444Y-82031585D01*
X179457753Y-82233760D01*
X179424500Y-82443713D01*
X179424500Y-82656286D01*
X179444113Y-82780121D01*
X179457754Y-82866243D01*
X179495818Y-82983392D01*
X179523444Y-83068414D01*
X179619951Y-83257820D01*
X179744890Y-83429786D01*
X179895209Y-83580105D01*
X179895214Y-83580109D01*
X180059793Y-83699682D01*
X180102459Y-83755011D01*
X180108438Y-83824625D01*
X180075833Y-83886420D01*
X180059793Y-83900318D01*
X179895214Y-84019890D01*
X179895209Y-84019894D01*
X179744890Y-84170213D01*
X179619951Y-84342179D01*
X179523444Y-84531585D01*
X179457753Y-84733760D01*
X179424500Y-84943713D01*
X179424500Y-85156286D01*
X179457665Y-85365685D01*
X179457754Y-85366243D01*
X179521551Y-85562590D01*
X179523444Y-85568414D01*
X179619951Y-85757820D01*
X179744890Y-85929786D01*
X179895209Y-86080105D01*
X179895214Y-86080109D01*
X180059793Y-86199682D01*
X180102459Y-86255011D01*
X180108438Y-86324625D01*
X180075833Y-86386420D01*
X180059793Y-86400318D01*
X179895214Y-86519890D01*
X179895209Y-86519894D01*
X179744890Y-86670213D01*
X179619951Y-86842179D01*
X179523444Y-87031585D01*
X179457753Y-87233760D01*
X179449929Y-87283161D01*
X179424500Y-87443713D01*
X179424500Y-87656287D01*
X179457754Y-87866243D01*
X179521743Y-88063181D01*
X179523444Y-88068414D01*
X179619951Y-88257820D01*
X179744890Y-88429786D01*
X179883705Y-88568601D01*
X179917190Y-88629924D01*
X179912206Y-88699616D01*
X179870334Y-88755549D01*
X179861121Y-88761821D01*
X179706342Y-88857289D01*
X179582289Y-88981342D01*
X179490187Y-89130663D01*
X179490186Y-89130666D01*
X179435001Y-89297203D01*
X179435001Y-89297204D01*
X179435000Y-89297204D01*
X179424500Y-89399983D01*
X179424500Y-90700001D01*
X179424501Y-90700018D01*
X179435000Y-90802796D01*
X179435001Y-90802799D01*
X179463120Y-90887655D01*
X179490186Y-90969334D01*
X179582288Y-91118656D01*
X179706344Y-91242712D01*
X179855666Y-91334814D01*
X180022203Y-91389999D01*
X180124991Y-91400500D01*
X181675008Y-91400499D01*
X181777797Y-91389999D01*
X181944334Y-91334814D01*
X182093656Y-91242712D01*
X182217712Y-91118656D01*
X182309814Y-90969334D01*
X182364999Y-90802797D01*
X182375500Y-90700009D01*
X182375499Y-89399992D01*
X182374019Y-89385508D01*
X182364999Y-89297203D01*
X182364998Y-89297200D01*
X182352531Y-89259577D01*
X182309814Y-89130666D01*
X182217712Y-88981344D01*
X182093656Y-88857288D01*
X181944334Y-88765186D01*
X181944333Y-88765185D01*
X181938878Y-88761821D01*
X181892154Y-88709873D01*
X181880931Y-88640910D01*
X181908775Y-88576828D01*
X181916272Y-88568623D01*
X182055104Y-88429792D01*
X182180051Y-88257816D01*
X182276557Y-88068412D01*
X182342246Y-87866243D01*
X182375500Y-87656287D01*
X182375500Y-87443713D01*
X182342246Y-87233757D01*
X182276557Y-87031588D01*
X182180051Y-86842184D01*
X182180049Y-86842181D01*
X182180048Y-86842179D01*
X182055109Y-86670213D01*
X181904792Y-86519896D01*
X181808593Y-86450004D01*
X181740204Y-86400316D01*
X181697540Y-86344989D01*
X181691561Y-86275376D01*
X181724166Y-86213580D01*
X181740199Y-86199686D01*
X181904792Y-86080104D01*
X182055104Y-85929792D01*
X182055106Y-85929788D01*
X182055109Y-85929786D01*
X182180048Y-85757820D01*
X182180047Y-85757820D01*
X182180051Y-85757816D01*
X182276557Y-85568412D01*
X182342246Y-85366243D01*
X182375500Y-85156287D01*
X182375500Y-84943713D01*
X182342246Y-84733757D01*
X182276557Y-84531588D01*
X182180051Y-84342184D01*
X182180049Y-84342181D01*
X182180048Y-84342179D01*
X182055109Y-84170213D01*
X181904792Y-84019896D01*
X181904784Y-84019890D01*
X181740204Y-83900316D01*
X181697540Y-83844989D01*
X181691561Y-83775376D01*
X181724166Y-83713580D01*
X181740199Y-83699686D01*
X181904792Y-83580104D01*
X182055104Y-83429792D01*
X182055106Y-83429788D01*
X182055109Y-83429786D01*
X182180048Y-83257820D01*
X182180047Y-83257820D01*
X182180051Y-83257816D01*
X182276557Y-83068412D01*
X182304182Y-82983389D01*
X182343618Y-82925716D01*
X182407976Y-82898517D01*
X182476823Y-82910431D01*
X182509793Y-82934028D01*
X183683181Y-84107416D01*
X183716666Y-84168739D01*
X183719500Y-84195097D01*
X183719500Y-85233330D01*
X183719499Y-85233348D01*
X183719499Y-85399054D01*
X183719498Y-85399054D01*
X183731466Y-85443717D01*
X183760423Y-85551785D01*
X183766661Y-85562590D01*
X183789358Y-85601900D01*
X183789359Y-85601904D01*
X183789360Y-85601904D01*
X183839479Y-85688714D01*
X183839481Y-85688717D01*
X183958349Y-85807585D01*
X183958355Y-85807590D01*
X187538181Y-89387416D01*
X187571666Y-89448739D01*
X187574500Y-89475097D01*
X187574500Y-90700001D01*
X187574501Y-90700018D01*
X187585000Y-90802796D01*
X187585001Y-90802799D01*
X187613120Y-90887655D01*
X187640186Y-90969334D01*
X187732288Y-91118656D01*
X187856344Y-91242712D01*
X188005666Y-91334814D01*
X188172203Y-91389999D01*
X188274991Y-91400500D01*
X189190901Y-91400499D01*
X189257940Y-91420183D01*
X189303695Y-91472987D01*
X189313639Y-91542146D01*
X189284614Y-91605702D01*
X189278582Y-91612180D01*
X186537584Y-94353181D01*
X186476261Y-94386666D01*
X186449903Y-94389500D01*
X181949057Y-94389500D01*
X181790942Y-94389500D01*
X181638215Y-94430423D01*
X181638214Y-94430423D01*
X181638212Y-94430424D01*
X181638209Y-94430425D01*
X181588096Y-94459359D01*
X181588095Y-94459360D01*
X181575550Y-94466603D01*
X181501285Y-94509479D01*
X181501282Y-94509481D01*
X181389478Y-94621286D01*
X178242705Y-97768058D01*
X178181382Y-97801543D01*
X178122931Y-97800152D01*
X178026697Y-97774366D01*
X178026693Y-97774365D01*
X178026692Y-97774365D01*
X178026691Y-97774364D01*
X178026686Y-97774364D01*
X177800002Y-97754532D01*
X177799998Y-97754532D01*
X177573313Y-97774364D01*
X177573302Y-97774366D01*
X177353511Y-97833258D01*
X177353502Y-97833261D01*
X177147267Y-97929431D01*
X177147265Y-97929432D01*
X176960858Y-98059954D01*
X176799954Y-98220858D01*
X176669432Y-98407265D01*
X176669431Y-98407267D01*
X176642382Y-98465275D01*
X176596209Y-98517714D01*
X176529016Y-98536866D01*
X176462135Y-98516650D01*
X176417618Y-98465275D01*
X176390686Y-98407520D01*
X176390568Y-98407266D01*
X176260047Y-98220861D01*
X176260045Y-98220858D01*
X176099141Y-98059954D01*
X175912734Y-97929432D01*
X175912732Y-97929431D01*
X175706497Y-97833261D01*
X175706488Y-97833258D01*
X175486697Y-97774366D01*
X175486693Y-97774365D01*
X175486692Y-97774365D01*
X175486691Y-97774364D01*
X175486686Y-97774364D01*
X175260002Y-97754532D01*
X175259998Y-97754532D01*
X175033313Y-97774364D01*
X175033302Y-97774366D01*
X174813511Y-97833258D01*
X174813502Y-97833261D01*
X174607267Y-97929431D01*
X174607265Y-97929432D01*
X174420858Y-98059954D01*
X174259954Y-98220858D01*
X174129432Y-98407265D01*
X174129431Y-98407267D01*
X174102382Y-98465275D01*
X174056209Y-98517714D01*
X173989016Y-98536866D01*
X173922135Y-98516650D01*
X173877618Y-98465275D01*
X173850686Y-98407520D01*
X173850568Y-98407266D01*
X173720047Y-98220861D01*
X173720045Y-98220858D01*
X173559141Y-98059954D01*
X173372734Y-97929432D01*
X173372732Y-97929431D01*
X173166497Y-97833261D01*
X173166488Y-97833258D01*
X172946697Y-97774366D01*
X172946693Y-97774365D01*
X172946692Y-97774365D01*
X172946691Y-97774364D01*
X172946686Y-97774364D01*
X172720002Y-97754532D01*
X172719998Y-97754532D01*
X172493313Y-97774364D01*
X172493302Y-97774366D01*
X172273511Y-97833258D01*
X172273502Y-97833261D01*
X172067267Y-97929431D01*
X172067265Y-97929432D01*
X171880858Y-98059954D01*
X171719954Y-98220858D01*
X171702725Y-98245464D01*
X171648147Y-98289088D01*
X171578648Y-98296280D01*
X171516294Y-98264757D01*
X171480882Y-98204526D01*
X171477861Y-98187591D01*
X171474091Y-98152516D01*
X171423797Y-98017671D01*
X171423793Y-98017664D01*
X171337547Y-97902455D01*
X171337544Y-97902452D01*
X171222335Y-97816206D01*
X171222328Y-97816202D01*
X171087482Y-97765908D01*
X171087483Y-97765908D01*
X171027883Y-97759501D01*
X171027881Y-97759500D01*
X171027873Y-97759500D01*
X171027864Y-97759500D01*
X169332129Y-97759500D01*
X169332123Y-97759501D01*
X169272516Y-97765908D01*
X169137671Y-97816202D01*
X169137664Y-97816206D01*
X169022455Y-97902452D01*
X169022452Y-97902455D01*
X168936206Y-98017664D01*
X168936202Y-98017671D01*
X168885908Y-98152517D01*
X168879501Y-98212116D01*
X168879500Y-98212135D01*
X142219736Y-98212135D01*
X142219736Y-93902135D01*
X144244500Y-93902135D01*
X144244500Y-96597870D01*
X144244501Y-96597876D01*
X144250908Y-96657483D01*
X144301202Y-96792328D01*
X144301206Y-96792335D01*
X144387452Y-96907544D01*
X144387455Y-96907547D01*
X144502664Y-96993793D01*
X144502671Y-96993797D01*
X144637517Y-97044091D01*
X144637516Y-97044091D01*
X144644444Y-97044835D01*
X144697127Y-97050500D01*
X147392872Y-97050499D01*
X147452483Y-97044091D01*
X147587331Y-96993796D01*
X147702546Y-96907546D01*
X147788796Y-96792331D01*
X147839091Y-96657483D01*
X147845500Y-96597873D01*
X147845499Y-93902128D01*
X147839091Y-93842517D01*
X147838039Y-93839697D01*
X147788797Y-93707671D01*
X147788796Y-93707670D01*
X147788796Y-93707669D01*
X147731131Y-93630639D01*
X147706715Y-93565176D01*
X147721566Y-93496903D01*
X147742715Y-93468651D01*
X150162819Y-91048548D01*
X150224142Y-91015063D01*
X150293834Y-91020047D01*
X150349767Y-91061919D01*
X150374184Y-91127383D01*
X150374500Y-91136229D01*
X150374500Y-93535102D01*
X150354815Y-93602141D01*
X150304303Y-93646821D01*
X150222235Y-93686344D01*
X150222232Y-93686345D01*
X149999258Y-93838365D01*
X149801442Y-94021910D01*
X149633185Y-94232898D01*
X149498258Y-94466599D01*
X149498256Y-94466603D01*
X149399666Y-94717804D01*
X149399664Y-94717811D01*
X149339616Y-94980898D01*
X149319451Y-95249995D01*
X149319451Y-95250004D01*
X149339616Y-95519101D01*
X149399664Y-95782188D01*
X149399666Y-95782195D01*
X149435615Y-95873792D01*
X149498257Y-96033398D01*
X149633185Y-96267102D01*
X149769080Y-96437509D01*
X149801442Y-96478089D01*
X149988183Y-96651358D01*
X149999259Y-96661635D01*
X150222226Y-96813651D01*
X150465359Y-96930738D01*
X150723228Y-97010280D01*
X150723229Y-97010280D01*
X150723232Y-97010281D01*
X150990063Y-97050499D01*
X150990068Y-97050499D01*
X150990071Y-97050500D01*
X150990072Y-97050500D01*
X151259928Y-97050500D01*
X151259929Y-97050500D01*
X151259936Y-97050499D01*
X151526767Y-97010281D01*
X151526768Y-97010280D01*
X151526772Y-97010280D01*
X151784641Y-96930738D01*
X152027775Y-96813651D01*
X152250741Y-96661635D01*
X152448561Y-96478085D01*
X152616815Y-96267102D01*
X152751743Y-96033398D01*
X152850334Y-95782195D01*
X152910383Y-95519103D01*
X152930549Y-95250000D01*
X152930481Y-95249095D01*
X152910383Y-94980898D01*
X152850335Y-94717811D01*
X152850334Y-94717805D01*
X152751743Y-94466602D01*
X152616815Y-94232898D01*
X152448561Y-94021915D01*
X152448560Y-94021914D01*
X152448557Y-94021910D01*
X152250741Y-93838365D01*
X152230955Y-93824875D01*
X152027775Y-93686349D01*
X152027772Y-93686348D01*
X152027770Y-93686346D01*
X151945698Y-93646822D01*
X151893838Y-93599999D01*
X151875500Y-93535102D01*
X151875500Y-90791229D01*
X151895185Y-90724190D01*
X151911819Y-90703548D01*
X154284083Y-88331284D01*
X156721545Y-85893821D01*
X156782866Y-85860338D01*
X156852558Y-85865322D01*
X156908491Y-85907194D01*
X156932908Y-85972658D01*
X156930115Y-86009096D01*
X156889197Y-86188374D01*
X156889196Y-86188379D01*
X156869592Y-86449995D01*
X156869592Y-86450004D01*
X156889196Y-86711620D01*
X156889197Y-86711625D01*
X156947576Y-86967402D01*
X156947578Y-86967411D01*
X156947580Y-86967416D01*
X157043432Y-87211643D01*
X157174614Y-87438857D01*
X157250741Y-87534317D01*
X157338198Y-87643985D01*
X157519753Y-87812441D01*
X157530521Y-87822433D01*
X157747296Y-87970228D01*
X157747301Y-87970230D01*
X157747302Y-87970231D01*
X157747303Y-87970232D01*
X157848227Y-88018834D01*
X157983673Y-88084061D01*
X157983674Y-88084061D01*
X157983677Y-88084063D01*
X158234385Y-88161396D01*
X158493818Y-88200500D01*
X158756182Y-88200500D01*
X159015615Y-88161396D01*
X159266323Y-88084063D01*
X159283909Y-88075593D01*
X159352846Y-88064238D01*
X159416983Y-88091956D01*
X159425394Y-88099629D01*
X160506284Y-89180520D01*
X160506286Y-89180521D01*
X160506290Y-89180524D01*
X160623656Y-89248284D01*
X160643216Y-89259577D01*
X160795943Y-89300501D01*
X160795945Y-89300501D01*
X160961654Y-89300501D01*
X160961670Y-89300500D01*
X167576236Y-89300500D01*
X167643275Y-89320185D01*
X167689030Y-89372989D01*
X167698974Y-89442147D01*
X167694682Y-89458962D01*
X167694693Y-89458965D01*
X167692908Y-89466516D01*
X167686501Y-89526116D01*
X167686500Y-89526135D01*
X167686500Y-91321870D01*
X167686501Y-91321876D01*
X167692908Y-91381483D01*
X167739786Y-91507167D01*
X167744770Y-91576859D01*
X167711285Y-91638182D01*
X167649962Y-91671666D01*
X167623604Y-91674500D01*
X161551004Y-91674500D01*
X161415677Y-91701418D01*
X161415667Y-91701421D01*
X161288192Y-91754222D01*
X161173454Y-91830887D01*
X159591160Y-93413181D01*
X159529837Y-93446666D01*
X159503479Y-93449500D01*
X157397129Y-93449500D01*
X157397123Y-93449501D01*
X157337516Y-93455908D01*
X157202671Y-93506202D01*
X157202664Y-93506206D01*
X157087455Y-93592452D01*
X157087452Y-93592455D01*
X157001206Y-93707664D01*
X157001202Y-93707671D01*
X156950908Y-93842517D01*
X156948576Y-93864213D01*
X156944501Y-93902123D01*
X156944500Y-93902135D01*
X156944500Y-96597870D01*
X156944501Y-96597876D01*
X156950908Y-96657483D01*
X157001202Y-96792328D01*
X157001206Y-96792335D01*
X157087452Y-96907544D01*
X157087455Y-96907547D01*
X157202664Y-96993793D01*
X157202671Y-96993797D01*
X157337517Y-97044091D01*
X157337516Y-97044091D01*
X157344444Y-97044835D01*
X157397127Y-97050500D01*
X160092872Y-97050499D01*
X160152483Y-97044091D01*
X160287331Y-96993796D01*
X160402546Y-96907546D01*
X160488796Y-96792331D01*
X160539091Y-96657483D01*
X160545500Y-96597873D01*
X160545499Y-95249995D01*
X162019451Y-95249995D01*
X162019451Y-95250004D01*
X162039616Y-95519101D01*
X162099664Y-95782188D01*
X162099666Y-95782195D01*
X162135615Y-95873792D01*
X162198257Y-96033398D01*
X162333185Y-96267102D01*
X162469080Y-96437509D01*
X162501442Y-96478089D01*
X162688183Y-96651358D01*
X162699259Y-96661635D01*
X162922226Y-96813651D01*
X163165359Y-96930738D01*
X163423228Y-97010280D01*
X163423229Y-97010280D01*
X163423232Y-97010281D01*
X163690063Y-97050499D01*
X163690068Y-97050499D01*
X163690071Y-97050500D01*
X163690072Y-97050500D01*
X163959928Y-97050500D01*
X163959929Y-97050500D01*
X163959936Y-97050499D01*
X164226767Y-97010281D01*
X164226768Y-97010280D01*
X164226772Y-97010280D01*
X164484641Y-96930738D01*
X164727775Y-96813651D01*
X164950741Y-96661635D01*
X165148561Y-96478085D01*
X165316815Y-96267102D01*
X165451743Y-96033398D01*
X165550334Y-95782195D01*
X165610383Y-95519103D01*
X165630549Y-95250000D01*
X165630481Y-95249095D01*
X165610383Y-94980898D01*
X165550335Y-94717811D01*
X165550334Y-94717805D01*
X165451743Y-94466602D01*
X165316815Y-94232898D01*
X165148561Y-94021915D01*
X165148560Y-94021914D01*
X165148557Y-94021910D01*
X164950741Y-93838365D01*
X164930955Y-93824875D01*
X164727775Y-93686349D01*
X164727769Y-93686346D01*
X164727768Y-93686345D01*
X164727767Y-93686344D01*
X164484643Y-93569263D01*
X164484645Y-93569263D01*
X164226773Y-93489720D01*
X164226767Y-93489718D01*
X163959936Y-93449500D01*
X163959929Y-93449500D01*
X163690071Y-93449500D01*
X163690063Y-93449500D01*
X163423232Y-93489718D01*
X163423226Y-93489720D01*
X163165358Y-93569262D01*
X162922230Y-93686346D01*
X162699258Y-93838365D01*
X162501442Y-94021910D01*
X162333185Y-94232898D01*
X162198258Y-94466599D01*
X162198256Y-94466603D01*
X162099666Y-94717804D01*
X162099664Y-94717811D01*
X162039616Y-94980898D01*
X162019451Y-95249995D01*
X160545499Y-95249995D01*
X160545499Y-94491518D01*
X160565184Y-94424480D01*
X160581818Y-94403838D01*
X161873838Y-93111819D01*
X161935161Y-93078334D01*
X161961519Y-93075500D01*
X169693996Y-93075500D01*
X169785040Y-93057389D01*
X169829328Y-93048580D01*
X169893069Y-93022177D01*
X169956807Y-92995777D01*
X169956808Y-92995776D01*
X169956811Y-92995775D01*
X170071543Y-92919114D01*
X171204217Y-91786438D01*
X171265538Y-91752955D01*
X171323992Y-91754347D01*
X171341592Y-91759063D01*
X171552034Y-91777474D01*
X171576999Y-91779659D01*
X171577000Y-91779659D01*
X171577001Y-91779659D01*
X171616234Y-91776226D01*
X171812408Y-91759063D01*
X172040663Y-91697903D01*
X172073097Y-91682778D01*
X172142171Y-91672287D01*
X172205956Y-91700806D01*
X172244196Y-91759282D01*
X172249500Y-91795161D01*
X172249500Y-93392042D01*
X172229815Y-93459081D01*
X172181795Y-93502527D01*
X172012180Y-93588951D01*
X171840215Y-93713889D01*
X171701035Y-93853069D01*
X171639712Y-93886553D01*
X171570020Y-93881569D01*
X171514087Y-93839697D01*
X171507815Y-93830484D01*
X171412315Y-93675654D01*
X171288345Y-93551684D01*
X171139124Y-93459643D01*
X171139119Y-93459641D01*
X170972697Y-93404494D01*
X170972690Y-93404493D01*
X170869986Y-93394000D01*
X170470000Y-93394000D01*
X170470000Y-94464854D01*
X170403343Y-94426370D01*
X170282535Y-94394000D01*
X170157465Y-94394000D01*
X170036657Y-94426370D01*
X169970000Y-94464854D01*
X169970000Y-93394000D01*
X169570028Y-93394000D01*
X169570012Y-93394001D01*
X169467302Y-93404494D01*
X169300880Y-93459641D01*
X169300875Y-93459643D01*
X169151654Y-93551684D01*
X169027684Y-93675654D01*
X168935643Y-93824875D01*
X168935641Y-93824880D01*
X168880494Y-93991302D01*
X168880493Y-93991309D01*
X168870000Y-94094013D01*
X168870000Y-94619000D01*
X169815854Y-94619000D01*
X169777370Y-94685657D01*
X169745000Y-94806465D01*
X169745000Y-94931535D01*
X169777370Y-95052343D01*
X169815854Y-95119000D01*
X168870001Y-95119000D01*
X168870001Y-95643986D01*
X168880494Y-95746697D01*
X168935641Y-95913119D01*
X168935643Y-95913124D01*
X169027684Y-96062345D01*
X169151654Y-96186315D01*
X169300875Y-96278356D01*
X169300880Y-96278358D01*
X169467302Y-96333505D01*
X169467309Y-96333506D01*
X169570019Y-96343999D01*
X169969999Y-96343999D01*
X169970000Y-96343998D01*
X169970000Y-95273145D01*
X170036657Y-95311630D01*
X170157465Y-95344000D01*
X170282535Y-95344000D01*
X170403343Y-95311630D01*
X170470000Y-95273145D01*
X170470000Y-96343999D01*
X170869972Y-96343999D01*
X170869986Y-96343998D01*
X170972697Y-96333505D01*
X171139119Y-96278358D01*
X171139124Y-96278356D01*
X171288345Y-96186315D01*
X171412317Y-96062343D01*
X171507815Y-95907516D01*
X171559763Y-95860791D01*
X171628725Y-95849568D01*
X171692808Y-95877412D01*
X171701035Y-95884931D01*
X171840213Y-96024109D01*
X172012179Y-96149048D01*
X172012181Y-96149049D01*
X172012184Y-96149051D01*
X172201588Y-96245557D01*
X172403757Y-96311246D01*
X172613713Y-96344500D01*
X172613714Y-96344500D01*
X172826286Y-96344500D01*
X172826287Y-96344500D01*
X173036243Y-96311246D01*
X173238412Y-96245557D01*
X173427816Y-96149051D01*
X173449789Y-96133086D01*
X173599786Y-96024109D01*
X173599788Y-96024106D01*
X173599792Y-96024104D01*
X173750104Y-95873792D01*
X173869683Y-95709204D01*
X173925011Y-95666540D01*
X173994624Y-95660561D01*
X174056420Y-95693166D01*
X174070313Y-95709199D01*
X174172296Y-95849568D01*
X174189896Y-95873792D01*
X174340213Y-96024109D01*
X174512179Y-96149048D01*
X174512181Y-96149049D01*
X174512184Y-96149051D01*
X174701588Y-96245557D01*
X174903757Y-96311246D01*
X175113713Y-96344500D01*
X175113714Y-96344500D01*
X175326286Y-96344500D01*
X175326287Y-96344500D01*
X175536243Y-96311246D01*
X175738412Y-96245557D01*
X175927816Y-96149051D01*
X175949789Y-96133086D01*
X176099786Y-96024109D01*
X176099788Y-96024106D01*
X176099792Y-96024104D01*
X176250104Y-95873792D01*
X176250106Y-95873788D01*
X176250109Y-95873786D01*
X176375048Y-95701820D01*
X176375047Y-95701820D01*
X176375051Y-95701816D01*
X176471557Y-95512412D01*
X176537246Y-95310243D01*
X176570500Y-95100287D01*
X176570500Y-94637713D01*
X176537246Y-94427757D01*
X176471557Y-94225588D01*
X176375051Y-94036184D01*
X176375049Y-94036181D01*
X176375048Y-94036179D01*
X176250109Y-93864213D01*
X176099786Y-93713890D01*
X175927820Y-93588951D01*
X175738414Y-93492444D01*
X175738413Y-93492443D01*
X175738412Y-93492443D01*
X175536243Y-93426754D01*
X175536241Y-93426753D01*
X175536240Y-93426753D01*
X175374957Y-93401208D01*
X175326287Y-93393500D01*
X175113713Y-93393500D01*
X175065042Y-93401208D01*
X174903760Y-93426753D01*
X174903757Y-93426754D01*
X174709969Y-93489720D01*
X174701585Y-93492444D01*
X174512179Y-93588951D01*
X174340213Y-93713890D01*
X174189894Y-93864209D01*
X174189890Y-93864214D01*
X174070318Y-94028793D01*
X174014989Y-94071459D01*
X173945375Y-94077438D01*
X173883580Y-94044833D01*
X173869682Y-94028793D01*
X173750109Y-93864214D01*
X173750105Y-93864209D01*
X173599794Y-93713898D01*
X173599792Y-93713896D01*
X173501613Y-93642564D01*
X173458949Y-93587236D01*
X173450500Y-93542248D01*
X173450500Y-92999500D01*
X173470185Y-92932461D01*
X173522989Y-92886706D01*
X173574500Y-92875500D01*
X175238331Y-92875500D01*
X175238347Y-92875501D01*
X175245943Y-92875501D01*
X175404054Y-92875501D01*
X175404057Y-92875501D01*
X175556785Y-92834577D01*
X175606904Y-92805639D01*
X175693716Y-92755520D01*
X175805520Y-92643716D01*
X175805520Y-92643714D01*
X175815728Y-92633507D01*
X175815729Y-92633504D01*
X176880520Y-91568716D01*
X176959577Y-91431784D01*
X177000501Y-91279057D01*
X177000501Y-91120942D01*
X177000501Y-91113347D01*
X177000500Y-91113329D01*
X177000500Y-74989059D01*
X177000501Y-74989046D01*
X177000501Y-74820945D01*
X177000501Y-74820943D01*
X176959577Y-74668215D01*
X176924650Y-74607720D01*
X176880520Y-74531284D01*
X176768716Y-74419480D01*
X176768715Y-74419479D01*
X176764385Y-74415149D01*
X176764374Y-74415139D01*
X173929805Y-71580570D01*
X173896320Y-71519247D01*
X173901304Y-71449555D01*
X173943176Y-71393622D01*
X174006679Y-71369361D01*
X174209975Y-71351575D01*
X174209986Y-71351573D01*
X174423270Y-71294424D01*
X174423284Y-71294419D01*
X174623407Y-71201100D01*
X174623417Y-71201094D01*
X174688188Y-71155741D01*
X174017447Y-70485000D01*
X174040160Y-70485000D01*
X174137061Y-70459036D01*
X174223940Y-70408876D01*
X174294876Y-70337940D01*
X174345036Y-70251061D01*
X174371000Y-70154160D01*
X174371000Y-70131447D01*
X175041741Y-70802188D01*
X175087094Y-70737417D01*
X175087100Y-70737407D01*
X175180419Y-70537284D01*
X175180424Y-70537270D01*
X175237573Y-70323986D01*
X175237575Y-70323976D01*
X175256821Y-70104000D01*
X175256821Y-70103999D01*
X175237575Y-69884023D01*
X175237573Y-69884013D01*
X175180424Y-69670729D01*
X175180420Y-69670720D01*
X175087096Y-69470586D01*
X175041741Y-69405811D01*
X175041740Y-69405810D01*
X174371000Y-70076551D01*
X174371000Y-70053840D01*
X174345036Y-69956939D01*
X174294876Y-69870060D01*
X174223940Y-69799124D01*
X174137061Y-69748964D01*
X174040160Y-69723000D01*
X174017447Y-69723000D01*
X174688188Y-69052258D01*
X174623411Y-69006901D01*
X174623405Y-69006898D01*
X174423284Y-68913580D01*
X174423270Y-68913575D01*
X174209986Y-68856426D01*
X174209976Y-68856424D01*
X173990001Y-68837179D01*
X173989999Y-68837179D01*
X173770023Y-68856424D01*
X173770013Y-68856426D01*
X173556729Y-68913575D01*
X173556715Y-68913580D01*
X173501905Y-68939139D01*
X173432828Y-68949631D01*
X173369044Y-68921111D01*
X173330805Y-68862634D01*
X173325501Y-68826757D01*
X173325501Y-68820944D01*
X173325501Y-68820943D01*
X173284577Y-68668216D01*
X173284573Y-68668209D01*
X173205524Y-68531290D01*
X173205518Y-68531282D01*
X163211819Y-58537583D01*
X163178334Y-58476260D01*
X163175500Y-58449902D01*
X163175500Y-56146457D01*
X163195185Y-56079418D01*
X163247989Y-56033663D01*
X163317147Y-56023719D01*
X163351898Y-56034072D01*
X163396550Y-56054894D01*
X163609932Y-56112070D01*
X163756743Y-56124914D01*
X163829998Y-56131323D01*
X163830000Y-56131323D01*
X163830002Y-56131323D01*
X163860502Y-56128654D01*
X164050068Y-56112070D01*
X164051916Y-56111575D01*
X164073411Y-56105815D01*
X164121903Y-56092821D01*
X164191752Y-56094482D01*
X164241679Y-56124914D01*
X166056139Y-57939374D01*
X166056149Y-57939385D01*
X166060479Y-57943715D01*
X166060480Y-57943716D01*
X166172284Y-58055520D01*
X166259095Y-58105639D01*
X166259097Y-58105641D01*
X166297151Y-58127611D01*
X166309215Y-58134577D01*
X166461943Y-58175501D01*
X166461946Y-58175501D01*
X166627653Y-58175501D01*
X166627669Y-58175500D01*
X178868160Y-58175500D01*
X178868176Y-58175501D01*
X178875772Y-58175501D01*
X179033883Y-58175501D01*
X179033886Y-58175501D01*
X179186614Y-58134577D01*
X179236733Y-58105639D01*
X179323545Y-58055520D01*
X179435349Y-57943716D01*
X179435349Y-57943714D01*
X179445557Y-57933507D01*
X179445559Y-57933504D01*
X179983506Y-57395557D01*
X179983511Y-57395553D01*
X179993714Y-57385349D01*
X179993716Y-57385349D01*
X180105520Y-57273545D01*
X180182724Y-57139823D01*
X180184577Y-57136614D01*
X180225501Y-56983886D01*
X180225501Y-56825772D01*
X180225501Y-56818177D01*
X180225500Y-56818159D01*
X180225500Y-55375096D01*
X180245185Y-55308057D01*
X180261814Y-55287420D01*
X183457294Y-52091939D01*
X183518615Y-52058456D01*
X183577066Y-52059847D01*
X183583273Y-52061510D01*
X183673308Y-52085635D01*
X183815361Y-52098063D01*
X183899998Y-52105468D01*
X183900000Y-52105468D01*
X183900002Y-52105468D01*
X183956673Y-52100509D01*
X184126692Y-52085635D01*
X184346496Y-52026739D01*
X184552734Y-51930568D01*
X184739139Y-51800047D01*
X184900047Y-51639139D01*
X185030568Y-51452734D01*
X185126739Y-51246496D01*
X185185635Y-51026692D01*
X185205468Y-50800000D01*
X185205468Y-50799998D01*
X186654532Y-50799998D01*
X186654532Y-50800001D01*
X186674364Y-51026686D01*
X186674366Y-51026697D01*
X186733258Y-51246488D01*
X186733261Y-51246497D01*
X186829431Y-51452732D01*
X186829432Y-51452734D01*
X186959954Y-51639141D01*
X187120858Y-51800045D01*
X187120861Y-51800047D01*
X187307266Y-51930568D01*
X187513504Y-52026739D01*
X187733308Y-52085635D01*
X187875361Y-52098063D01*
X187959998Y-52105468D01*
X187960000Y-52105468D01*
X187960002Y-52105468D01*
X188016673Y-52100509D01*
X188186692Y-52085635D01*
X188406496Y-52026739D01*
X188612734Y-51930568D01*
X188799139Y-51800047D01*
X188960047Y-51639139D01*
X189090568Y-51452734D01*
X189117618Y-51394724D01*
X189163790Y-51342285D01*
X189230983Y-51323133D01*
X189297865Y-51343348D01*
X189342382Y-51394725D01*
X189369429Y-51452728D01*
X189369432Y-51452734D01*
X189499954Y-51639141D01*
X189660858Y-51800045D01*
X189660861Y-51800047D01*
X189847266Y-51930568D01*
X190053504Y-52026739D01*
X190273308Y-52085635D01*
X190415361Y-52098063D01*
X190499998Y-52105468D01*
X190500000Y-52105468D01*
X190500002Y-52105468D01*
X190556673Y-52100509D01*
X190726692Y-52085635D01*
X190946496Y-52026739D01*
X191152734Y-51930568D01*
X191339139Y-51800047D01*
X191500047Y-51639139D01*
X191630568Y-51452734D01*
X191657618Y-51394724D01*
X191703790Y-51342285D01*
X191770983Y-51323133D01*
X191837865Y-51343348D01*
X191882382Y-51394725D01*
X191909429Y-51452728D01*
X191909432Y-51452734D01*
X192039954Y-51639141D01*
X192200858Y-51800045D01*
X192200861Y-51800047D01*
X192387266Y-51930568D01*
X192593504Y-52026739D01*
X192813308Y-52085635D01*
X192955361Y-52098063D01*
X193039998Y-52105468D01*
X193040000Y-52105468D01*
X193040002Y-52105468D01*
X193096673Y-52100509D01*
X193266692Y-52085635D01*
X193486496Y-52026739D01*
X193692734Y-51930568D01*
X193879139Y-51800047D01*
X194040047Y-51639139D01*
X194170568Y-51452734D01*
X194197618Y-51394724D01*
X194243790Y-51342285D01*
X194310983Y-51323133D01*
X194377865Y-51343348D01*
X194422382Y-51394725D01*
X194449429Y-51452728D01*
X194449432Y-51452734D01*
X194579954Y-51639141D01*
X194740858Y-51800045D01*
X194740861Y-51800047D01*
X194927266Y-51930568D01*
X195133504Y-52026739D01*
X195353308Y-52085635D01*
X195495361Y-52098063D01*
X195579998Y-52105468D01*
X195580000Y-52105468D01*
X195580002Y-52105468D01*
X195636673Y-52100509D01*
X195806692Y-52085635D01*
X196026496Y-52026739D01*
X196232734Y-51930568D01*
X196419139Y-51800047D01*
X196580047Y-51639139D01*
X196710568Y-51452734D01*
X196737618Y-51394724D01*
X196783790Y-51342285D01*
X196850983Y-51323133D01*
X196917865Y-51343348D01*
X196962382Y-51394725D01*
X196989429Y-51452728D01*
X196989432Y-51452734D01*
X197119954Y-51639141D01*
X197280858Y-51800045D01*
X197280861Y-51800047D01*
X197467266Y-51930568D01*
X197673504Y-52026739D01*
X197893308Y-52085635D01*
X198035361Y-52098063D01*
X198119998Y-52105468D01*
X198120000Y-52105468D01*
X198120002Y-52105468D01*
X198176673Y-52100509D01*
X198346692Y-52085635D01*
X198566496Y-52026739D01*
X198772734Y-51930568D01*
X198959139Y-51800047D01*
X199120047Y-51639139D01*
X199250568Y-51452734D01*
X199277618Y-51394724D01*
X199323790Y-51342285D01*
X199390983Y-51323133D01*
X199457865Y-51343348D01*
X199502382Y-51394725D01*
X199529429Y-51452728D01*
X199529432Y-51452734D01*
X199659954Y-51639141D01*
X199820858Y-51800045D01*
X199820861Y-51800047D01*
X200007266Y-51930568D01*
X200213504Y-52026739D01*
X200433308Y-52085635D01*
X200575361Y-52098063D01*
X200659998Y-52105468D01*
X200660000Y-52105468D01*
X200660002Y-52105468D01*
X200716673Y-52100509D01*
X200886692Y-52085635D01*
X201106496Y-52026739D01*
X201312734Y-51930568D01*
X201499139Y-51800047D01*
X201660047Y-51639139D01*
X201790568Y-51452734D01*
X201817618Y-51394724D01*
X201863790Y-51342285D01*
X201930983Y-51323133D01*
X201997865Y-51343348D01*
X202042382Y-51394725D01*
X202069429Y-51452728D01*
X202069432Y-51452734D01*
X202199954Y-51639141D01*
X202360858Y-51800045D01*
X202360861Y-51800047D01*
X202547266Y-51930568D01*
X202753504Y-52026739D01*
X202973308Y-52085635D01*
X203115361Y-52098063D01*
X203199998Y-52105468D01*
X203200000Y-52105468D01*
X203200002Y-52105468D01*
X203256673Y-52100509D01*
X203426692Y-52085635D01*
X203646496Y-52026739D01*
X203852734Y-51930568D01*
X204039139Y-51800047D01*
X204200047Y-51639139D01*
X204330568Y-51452734D01*
X204357618Y-51394724D01*
X204403790Y-51342285D01*
X204470983Y-51323133D01*
X204537865Y-51343348D01*
X204582382Y-51394725D01*
X204609429Y-51452728D01*
X204609432Y-51452734D01*
X204739954Y-51639141D01*
X204900858Y-51800045D01*
X204900861Y-51800047D01*
X205087266Y-51930568D01*
X205293504Y-52026739D01*
X205513308Y-52085635D01*
X205655361Y-52098063D01*
X205739998Y-52105468D01*
X205740000Y-52105468D01*
X205740002Y-52105468D01*
X205796673Y-52100509D01*
X205966692Y-52085635D01*
X206186496Y-52026739D01*
X206392734Y-51930568D01*
X206579139Y-51800047D01*
X206740047Y-51639139D01*
X206870568Y-51452734D01*
X206966739Y-51246496D01*
X207025635Y-51026692D01*
X207045468Y-50800000D01*
X207025635Y-50573308D01*
X206966739Y-50353504D01*
X206870568Y-50147266D01*
X206740047Y-49960861D01*
X206740045Y-49960858D01*
X206579141Y-49799954D01*
X206392734Y-49669432D01*
X206392732Y-49669431D01*
X206186497Y-49573261D01*
X206186488Y-49573258D01*
X205966697Y-49514366D01*
X205966693Y-49514365D01*
X205966692Y-49514365D01*
X205966691Y-49514364D01*
X205966686Y-49514364D01*
X205740002Y-49494532D01*
X205739998Y-49494532D01*
X205513313Y-49514364D01*
X205513302Y-49514366D01*
X205293511Y-49573258D01*
X205293502Y-49573261D01*
X205087267Y-49669431D01*
X205087265Y-49669432D01*
X204900858Y-49799954D01*
X204739954Y-49960858D01*
X204609432Y-50147265D01*
X204609431Y-50147267D01*
X204582382Y-50205275D01*
X204536209Y-50257714D01*
X204469016Y-50276866D01*
X204402135Y-50256650D01*
X204357618Y-50205275D01*
X204330568Y-50147267D01*
X204330567Y-50147265D01*
X204200045Y-49960858D01*
X204039141Y-49799954D01*
X203852734Y-49669432D01*
X203852732Y-49669431D01*
X203646497Y-49573261D01*
X203646488Y-49573258D01*
X203426697Y-49514366D01*
X203426693Y-49514365D01*
X203426692Y-49514365D01*
X203426691Y-49514364D01*
X203426686Y-49514364D01*
X203200002Y-49494532D01*
X203199998Y-49494532D01*
X202973313Y-49514364D01*
X202973302Y-49514366D01*
X202753511Y-49573258D01*
X202753502Y-49573261D01*
X202547267Y-49669431D01*
X202547265Y-49669432D01*
X202360858Y-49799954D01*
X202199954Y-49960858D01*
X202069432Y-50147265D01*
X202069431Y-50147267D01*
X202042382Y-50205275D01*
X201996209Y-50257714D01*
X201929016Y-50276866D01*
X201862135Y-50256650D01*
X201817618Y-50205275D01*
X201790568Y-50147267D01*
X201790567Y-50147265D01*
X201660045Y-49960858D01*
X201499141Y-49799954D01*
X201312734Y-49669432D01*
X201312732Y-49669431D01*
X201106497Y-49573261D01*
X201106488Y-49573258D01*
X200886697Y-49514366D01*
X200886693Y-49514365D01*
X200886692Y-49514365D01*
X200886691Y-49514364D01*
X200886686Y-49514364D01*
X200660002Y-49494532D01*
X200659998Y-49494532D01*
X200433313Y-49514364D01*
X200433302Y-49514366D01*
X200213511Y-49573258D01*
X200213502Y-49573261D01*
X200007267Y-49669431D01*
X200007265Y-49669432D01*
X199820858Y-49799954D01*
X199659954Y-49960858D01*
X199529432Y-50147265D01*
X199529431Y-50147267D01*
X199502382Y-50205275D01*
X199456209Y-50257714D01*
X199389016Y-50276866D01*
X199322135Y-50256650D01*
X199277618Y-50205275D01*
X199250568Y-50147267D01*
X199250567Y-50147265D01*
X199120045Y-49960858D01*
X198959141Y-49799954D01*
X198772734Y-49669432D01*
X198772732Y-49669431D01*
X198566497Y-49573261D01*
X198566488Y-49573258D01*
X198346697Y-49514366D01*
X198346693Y-49514365D01*
X198346692Y-49514365D01*
X198346691Y-49514364D01*
X198346686Y-49514364D01*
X198120002Y-49494532D01*
X198119998Y-49494532D01*
X197893313Y-49514364D01*
X197893302Y-49514366D01*
X197673511Y-49573258D01*
X197673502Y-49573261D01*
X197467267Y-49669431D01*
X197467265Y-49669432D01*
X197280858Y-49799954D01*
X197119954Y-49960858D01*
X196989432Y-50147265D01*
X196989431Y-50147267D01*
X196962382Y-50205275D01*
X196916209Y-50257714D01*
X196849016Y-50276866D01*
X196782135Y-50256650D01*
X196737618Y-50205275D01*
X196710568Y-50147267D01*
X196710567Y-50147265D01*
X196580045Y-49960858D01*
X196419141Y-49799954D01*
X196232734Y-49669432D01*
X196232732Y-49669431D01*
X196026497Y-49573261D01*
X196026488Y-49573258D01*
X195806697Y-49514366D01*
X195806693Y-49514365D01*
X195806692Y-49514365D01*
X195806691Y-49514364D01*
X195806686Y-49514364D01*
X195580002Y-49494532D01*
X195579998Y-49494532D01*
X195353313Y-49514364D01*
X195353302Y-49514366D01*
X195133511Y-49573258D01*
X195133502Y-49573261D01*
X194927267Y-49669431D01*
X194927265Y-49669432D01*
X194740858Y-49799954D01*
X194579954Y-49960858D01*
X194449432Y-50147265D01*
X194449431Y-50147267D01*
X194422382Y-50205275D01*
X194376209Y-50257714D01*
X194309016Y-50276866D01*
X194242135Y-50256650D01*
X194197618Y-50205275D01*
X194170568Y-50147267D01*
X194170567Y-50147265D01*
X194040045Y-49960858D01*
X193879141Y-49799954D01*
X193692734Y-49669432D01*
X193692732Y-49669431D01*
X193486497Y-49573261D01*
X193486488Y-49573258D01*
X193266697Y-49514366D01*
X193266693Y-49514365D01*
X193266692Y-49514365D01*
X193266691Y-49514364D01*
X193266686Y-49514364D01*
X193040002Y-49494532D01*
X193039998Y-49494532D01*
X192813313Y-49514364D01*
X192813302Y-49514366D01*
X192593511Y-49573258D01*
X192593502Y-49573261D01*
X192387267Y-49669431D01*
X192387265Y-49669432D01*
X192200858Y-49799954D01*
X192039954Y-49960858D01*
X191909432Y-50147265D01*
X191909431Y-50147267D01*
X191882382Y-50205275D01*
X191836209Y-50257714D01*
X191769016Y-50276866D01*
X191702135Y-50256650D01*
X191657618Y-50205275D01*
X191630568Y-50147267D01*
X191630567Y-50147265D01*
X191500045Y-49960858D01*
X191339141Y-49799954D01*
X191152734Y-49669432D01*
X191152732Y-49669431D01*
X190946497Y-49573261D01*
X190946488Y-49573258D01*
X190726697Y-49514366D01*
X190726693Y-49514365D01*
X190726692Y-49514365D01*
X190726691Y-49514364D01*
X190726686Y-49514364D01*
X190500002Y-49494532D01*
X190499998Y-49494532D01*
X190273313Y-49514364D01*
X190273302Y-49514366D01*
X190053511Y-49573258D01*
X190053502Y-49573261D01*
X189847267Y-49669431D01*
X189847265Y-49669432D01*
X189660858Y-49799954D01*
X189499954Y-49960858D01*
X189369432Y-50147265D01*
X189369431Y-50147267D01*
X189342382Y-50205275D01*
X189296209Y-50257714D01*
X189229016Y-50276866D01*
X189162135Y-50256650D01*
X189117618Y-50205275D01*
X189090568Y-50147267D01*
X189090567Y-50147265D01*
X188960045Y-49960858D01*
X188799141Y-49799954D01*
X188612734Y-49669432D01*
X188612732Y-49669431D01*
X188406497Y-49573261D01*
X188406488Y-49573258D01*
X188186697Y-49514366D01*
X188186693Y-49514365D01*
X188186692Y-49514365D01*
X188186691Y-49514364D01*
X188186686Y-49514364D01*
X187960002Y-49494532D01*
X187959998Y-49494532D01*
X187733313Y-49514364D01*
X187733302Y-49514366D01*
X187513511Y-49573258D01*
X187513502Y-49573261D01*
X187307267Y-49669431D01*
X187307265Y-49669432D01*
X187120858Y-49799954D01*
X186959954Y-49960858D01*
X186829432Y-50147265D01*
X186829431Y-50147267D01*
X186733261Y-50353502D01*
X186733258Y-50353511D01*
X186674366Y-50573302D01*
X186674364Y-50573313D01*
X186654532Y-50799998D01*
X185205468Y-50799998D01*
X185185635Y-50573308D01*
X185126739Y-50353504D01*
X185030568Y-50147266D01*
X184900047Y-49960861D01*
X184900045Y-49960858D01*
X184739141Y-49799954D01*
X184552734Y-49669432D01*
X184552732Y-49669431D01*
X184346497Y-49573261D01*
X184346488Y-49573258D01*
X184126697Y-49514366D01*
X184126693Y-49514365D01*
X184126692Y-49514365D01*
X184126691Y-49514364D01*
X184126686Y-49514364D01*
X183900002Y-49494532D01*
X183899998Y-49494532D01*
X183673313Y-49514364D01*
X183673302Y-49514366D01*
X183453511Y-49573258D01*
X183453502Y-49573261D01*
X183247267Y-49669431D01*
X183247265Y-49669432D01*
X183060858Y-49799954D01*
X182899954Y-49960858D01*
X182769432Y-50147265D01*
X182769431Y-50147267D01*
X182742382Y-50205275D01*
X182696209Y-50257714D01*
X182629016Y-50276866D01*
X182562135Y-50256650D01*
X182517618Y-50205275D01*
X182490568Y-50147267D01*
X182490567Y-50147265D01*
X182360045Y-49960858D01*
X182199141Y-49799954D01*
X182012734Y-49669432D01*
X182012732Y-49669431D01*
X181806497Y-49573261D01*
X181806488Y-49573258D01*
X181586697Y-49514366D01*
X181586693Y-49514365D01*
X181586692Y-49514365D01*
X181586691Y-49514364D01*
X181586686Y-49514364D01*
X181360002Y-49494532D01*
X181359998Y-49494532D01*
X181133313Y-49514364D01*
X181133302Y-49514366D01*
X181037067Y-49540152D01*
X180967217Y-49538489D01*
X180917293Y-49508058D01*
X180347590Y-48938355D01*
X180347588Y-48938352D01*
X180228717Y-48819481D01*
X180228709Y-48819475D01*
X180136658Y-48766330D01*
X180136656Y-48766329D01*
X180091790Y-48740425D01*
X180091789Y-48740424D01*
X180079263Y-48737067D01*
X179939057Y-48699499D01*
X179780943Y-48699499D01*
X179773347Y-48699499D01*
X179773331Y-48699500D01*
X165585348Y-48699500D01*
X165585332Y-48699499D01*
X165577736Y-48699499D01*
X165419622Y-48699499D01*
X165312266Y-48728265D01*
X165266889Y-48740424D01*
X165266888Y-48740425D01*
X165222023Y-48766329D01*
X165222021Y-48766330D01*
X165129969Y-48819475D01*
X165129961Y-48819481D01*
X162956450Y-50992993D01*
X160921286Y-53028157D01*
X160921284Y-53028159D01*
X160872533Y-53076910D01*
X160809481Y-53139961D01*
X160809480Y-53139963D01*
X160799020Y-53158081D01*
X160730423Y-53276894D01*
X160689499Y-53429622D01*
X160689499Y-53429624D01*
X160689499Y-53597725D01*
X160689500Y-53597738D01*
X160689500Y-53678695D01*
X160669815Y-53745734D01*
X160636623Y-53780270D01*
X160475378Y-53893174D01*
X160319175Y-54049377D01*
X160192466Y-54230338D01*
X160192465Y-54230340D01*
X160132382Y-54359189D01*
X160086209Y-54411628D01*
X160019016Y-54430780D01*
X159952135Y-54410564D01*
X159907618Y-54359189D01*
X159847534Y-54230340D01*
X159847533Y-54230338D01*
X159720827Y-54049381D01*
X159707343Y-54035897D01*
X159564620Y-53893174D01*
X159564616Y-53893171D01*
X159564615Y-53893170D01*
X159383666Y-53766468D01*
X159383662Y-53766466D01*
X159339202Y-53745734D01*
X159183450Y-53673106D01*
X159183447Y-53673105D01*
X159183445Y-53673104D01*
X158970070Y-53615930D01*
X158970062Y-53615929D01*
X158750002Y-53596677D01*
X158749998Y-53596677D01*
X158529937Y-53615929D01*
X158529929Y-53615930D01*
X158316554Y-53673104D01*
X158316550Y-53673106D01*
X158315544Y-53673575D01*
X158116340Y-53766465D01*
X158116338Y-53766466D01*
X157935377Y-53893175D01*
X157779175Y-54049377D01*
X157652466Y-54230338D01*
X157652465Y-54230340D01*
X157592382Y-54359189D01*
X157546209Y-54411628D01*
X157479016Y-54430780D01*
X157412135Y-54410564D01*
X157367618Y-54359189D01*
X157307534Y-54230340D01*
X157307533Y-54230338D01*
X157180827Y-54049381D01*
X157167343Y-54035897D01*
X157024620Y-53893174D01*
X157024616Y-53893171D01*
X157024615Y-53893170D01*
X156843666Y-53766468D01*
X156843662Y-53766466D01*
X156799202Y-53745734D01*
X156643450Y-53673106D01*
X156643447Y-53673105D01*
X156643445Y-53673104D01*
X156430070Y-53615930D01*
X156430062Y-53615929D01*
X156210002Y-53596677D01*
X156209998Y-53596677D01*
X155989937Y-53615929D01*
X155989929Y-53615930D01*
X155776554Y-53673104D01*
X155776550Y-53673106D01*
X155775544Y-53673575D01*
X155576340Y-53766465D01*
X155576338Y-53766466D01*
X155395377Y-53893175D01*
X155239175Y-54049377D01*
X155112466Y-54230338D01*
X155112465Y-54230340D01*
X155019107Y-54430548D01*
X155019104Y-54430554D01*
X154961930Y-54643929D01*
X154961929Y-54643937D01*
X154942677Y-54863997D01*
X154942677Y-54864002D01*
X154961929Y-55084062D01*
X154961930Y-55084070D01*
X155019104Y-55297445D01*
X155019105Y-55297447D01*
X155019106Y-55297450D01*
X155031363Y-55323735D01*
X155112466Y-55497662D01*
X155112468Y-55497666D01*
X155239170Y-55678615D01*
X155239175Y-55678621D01*
X155395378Y-55834824D01*
X155395384Y-55834829D01*
X155576333Y-55961531D01*
X155576335Y-55961532D01*
X155576338Y-55961534D01*
X155776550Y-56054894D01*
X155989932Y-56112070D01*
X156136743Y-56124914D01*
X156209998Y-56131323D01*
X156210000Y-56131323D01*
X156210002Y-56131323D01*
X156265017Y-56126509D01*
X156430068Y-56112070D01*
X156643450Y-56054894D01*
X156843662Y-55961534D01*
X157024620Y-55834826D01*
X157180826Y-55678620D01*
X157307534Y-55497662D01*
X157367618Y-55368811D01*
X157413790Y-55316371D01*
X157480983Y-55297219D01*
X157547865Y-55317435D01*
X157592382Y-55368811D01*
X157652464Y-55497658D01*
X157652468Y-55497666D01*
X157779170Y-55678615D01*
X157779175Y-55678621D01*
X157935378Y-55834824D01*
X157935384Y-55834829D01*
X158116333Y-55961531D01*
X158116335Y-55961532D01*
X158116338Y-55961534D01*
X158316550Y-56054894D01*
X158529932Y-56112070D01*
X158676743Y-56124914D01*
X158749998Y-56131323D01*
X158750000Y-56131323D01*
X158750002Y-56131323D01*
X158805017Y-56126509D01*
X158970068Y-56112070D01*
X159183450Y-56054894D01*
X159383662Y-55961534D01*
X159564620Y-55834826D01*
X159720826Y-55678620D01*
X159847534Y-55497662D01*
X159907618Y-55368811D01*
X159953790Y-55316371D01*
X160020983Y-55297219D01*
X160087865Y-55317435D01*
X160132382Y-55368811D01*
X160192464Y-55497658D01*
X160192468Y-55497666D01*
X160319170Y-55678615D01*
X160319175Y-55678621D01*
X160475378Y-55834824D01*
X160475384Y-55834829D01*
X160656333Y-55961531D01*
X160656335Y-55961532D01*
X160656338Y-55961534D01*
X160856550Y-56054894D01*
X161069932Y-56112070D01*
X161216743Y-56124914D01*
X161289998Y-56131323D01*
X161290000Y-56131323D01*
X161290002Y-56131323D01*
X161345017Y-56126509D01*
X161510068Y-56112070D01*
X161723450Y-56054894D01*
X161798096Y-56020085D01*
X161867172Y-56009594D01*
X161930956Y-56038114D01*
X161969196Y-56096590D01*
X161974500Y-56132468D01*
X161974500Y-58663330D01*
X161974499Y-58663348D01*
X161974499Y-58829054D01*
X161974498Y-58829054D01*
X162015423Y-58981785D01*
X162044358Y-59031900D01*
X162044359Y-59031904D01*
X162044360Y-59031904D01*
X162094479Y-59118714D01*
X162094481Y-59118717D01*
X162213349Y-59237585D01*
X162213355Y-59237590D01*
X171606288Y-68630524D01*
X171639773Y-68691847D01*
X171634789Y-68761539D01*
X171592917Y-68817472D01*
X171527453Y-68841889D01*
X171507801Y-68841733D01*
X171450004Y-68836677D01*
X171449998Y-68836677D01*
X171229937Y-68855929D01*
X171229929Y-68855930D01*
X171016554Y-68913104D01*
X171016548Y-68913107D01*
X170816340Y-69006465D01*
X170816338Y-69006466D01*
X170635377Y-69133175D01*
X170479175Y-69289377D01*
X170352466Y-69470338D01*
X170352465Y-69470340D01*
X170292382Y-69599189D01*
X170246209Y-69651628D01*
X170179016Y-69670780D01*
X170112135Y-69650564D01*
X170067618Y-69599189D01*
X170007534Y-69470340D01*
X170007533Y-69470338D01*
X169880827Y-69289381D01*
X169880823Y-69289377D01*
X169724620Y-69133174D01*
X169724616Y-69133171D01*
X169724615Y-69133170D01*
X169543666Y-69006468D01*
X169543662Y-69006466D01*
X169543660Y-69006465D01*
X169343450Y-68913106D01*
X169343447Y-68913105D01*
X169343445Y-68913104D01*
X169130070Y-68855930D01*
X169130062Y-68855929D01*
X168910002Y-68836677D01*
X168909998Y-68836677D01*
X168689937Y-68855929D01*
X168689929Y-68855930D01*
X168476554Y-68913104D01*
X168476548Y-68913107D01*
X168276340Y-69006465D01*
X168276338Y-69006466D01*
X168095377Y-69133175D01*
X167939175Y-69289377D01*
X167812466Y-69470338D01*
X167812465Y-69470340D01*
X167752382Y-69599189D01*
X167706209Y-69651628D01*
X167639016Y-69670780D01*
X167572135Y-69650564D01*
X167527618Y-69599189D01*
X167467534Y-69470340D01*
X167467533Y-69470338D01*
X167340827Y-69289381D01*
X167340823Y-69289377D01*
X167184620Y-69133174D01*
X167184616Y-69133171D01*
X167184615Y-69133170D01*
X167003666Y-69006468D01*
X167003662Y-69006466D01*
X167003660Y-69006465D01*
X166803450Y-68913106D01*
X166803447Y-68913105D01*
X166803445Y-68913104D01*
X166590070Y-68855930D01*
X166590062Y-68855929D01*
X166370002Y-68836677D01*
X166369997Y-68836677D01*
X166238212Y-68848205D01*
X166169712Y-68834438D01*
X166139725Y-68812358D01*
X152971818Y-55644451D01*
X152938333Y-55583128D01*
X152935499Y-55556770D01*
X152935499Y-52957129D01*
X152935498Y-52957123D01*
X152935497Y-52957116D01*
X152929091Y-52897517D01*
X152927542Y-52893365D01*
X152878797Y-52762671D01*
X152878793Y-52762664D01*
X152792547Y-52647455D01*
X152792544Y-52647452D01*
X152677335Y-52561206D01*
X152677328Y-52561202D01*
X152542482Y-52510908D01*
X152542483Y-52510908D01*
X152482883Y-52504501D01*
X152482881Y-52504500D01*
X152482873Y-52504500D01*
X152482864Y-52504500D01*
X149787129Y-52504500D01*
X149787123Y-52504501D01*
X149727516Y-52510908D01*
X149592671Y-52561202D01*
X149592664Y-52561206D01*
X149477455Y-52647452D01*
X149477452Y-52647455D01*
X149391206Y-52762664D01*
X149391202Y-52762671D01*
X149340908Y-52897517D01*
X149334501Y-52957116D01*
X149334501Y-52957123D01*
X149334500Y-52957135D01*
X149334501Y-55180500D01*
X149314816Y-55247539D01*
X149262013Y-55293294D01*
X149210501Y-55304500D01*
X148167230Y-55304500D01*
X148100191Y-55284815D01*
X148079549Y-55268181D01*
X147800602Y-54989234D01*
X147767117Y-54927911D01*
X147772101Y-54858219D01*
X147772832Y-54856306D01*
X147780334Y-54837195D01*
X147840383Y-54574103D01*
X147860549Y-54305000D01*
X147850118Y-54165811D01*
X147840383Y-54035898D01*
X147840383Y-54035897D01*
X147780334Y-53772805D01*
X147681743Y-53521602D01*
X147546815Y-53287898D01*
X147378561Y-53076915D01*
X147378560Y-53076914D01*
X147378557Y-53076910D01*
X147180741Y-52893365D01*
X146957775Y-52741349D01*
X146957769Y-52741346D01*
X146957768Y-52741345D01*
X146957767Y-52741344D01*
X146714643Y-52624263D01*
X146714645Y-52624263D01*
X146456773Y-52544720D01*
X146456767Y-52544718D01*
X146189936Y-52504500D01*
X146189929Y-52504500D01*
X145920071Y-52504500D01*
X145920063Y-52504500D01*
X145653232Y-52544718D01*
X145653226Y-52544720D01*
X145395358Y-52624262D01*
X145152230Y-52741346D01*
X144929258Y-52893365D01*
X144731442Y-53076910D01*
X144563185Y-53287898D01*
X144428258Y-53521599D01*
X144428256Y-53521603D01*
X144329666Y-53772804D01*
X144329664Y-53772811D01*
X144269616Y-54035898D01*
X144249451Y-54304995D01*
X144249451Y-54305004D01*
X144269616Y-54574101D01*
X144329664Y-54837188D01*
X144329666Y-54837195D01*
X144426557Y-55084068D01*
X144428257Y-55088398D01*
X144563185Y-55322102D01*
X144642776Y-55421905D01*
X144731442Y-55533089D01*
X144918183Y-55706358D01*
X144929259Y-55716635D01*
X145152226Y-55868651D01*
X145395359Y-55985738D01*
X145653228Y-56065280D01*
X145653229Y-56065280D01*
X145653232Y-56065281D01*
X145920063Y-56105499D01*
X145920068Y-56105499D01*
X145920071Y-56105500D01*
X145920072Y-56105500D01*
X146189928Y-56105500D01*
X146189929Y-56105500D01*
X146456772Y-56065280D01*
X146612467Y-56017253D01*
X146682328Y-56016304D01*
X146736696Y-56048064D01*
X147326586Y-56637954D01*
X147350847Y-56654164D01*
X147387243Y-56678482D01*
X147449505Y-56720084D01*
X147449506Y-56720084D01*
X147449507Y-56720085D01*
X147506079Y-56743518D01*
X147506080Y-56743518D01*
X147586088Y-56776659D01*
X147702241Y-56799763D01*
X147721468Y-56803587D01*
X147731081Y-56805500D01*
X147731082Y-56805500D01*
X147731083Y-56805500D01*
X147878918Y-56805500D01*
X149418770Y-56805500D01*
X149485809Y-56825185D01*
X149506451Y-56841819D01*
X155933968Y-63269336D01*
X161296738Y-68632105D01*
X161330223Y-68693428D01*
X161325239Y-68763120D01*
X161283367Y-68819053D01*
X161219865Y-68843314D01*
X161070023Y-68856424D01*
X161070013Y-68856426D01*
X160856729Y-68913575D01*
X160856720Y-68913579D01*
X160656590Y-69006901D01*
X160591811Y-69052258D01*
X161262553Y-69723000D01*
X161239840Y-69723000D01*
X161142939Y-69748964D01*
X161056060Y-69799124D01*
X160985124Y-69870060D01*
X160934964Y-69956939D01*
X160909000Y-70053840D01*
X160909000Y-70076552D01*
X160238258Y-69405811D01*
X160192901Y-69470590D01*
X160132658Y-69599781D01*
X160086485Y-69652220D01*
X160019292Y-69671372D01*
X159952411Y-69651156D01*
X159907894Y-69599781D01*
X159847534Y-69470340D01*
X159847533Y-69470338D01*
X159720827Y-69289381D01*
X159720823Y-69289377D01*
X159564620Y-69133174D01*
X159564616Y-69133171D01*
X159564615Y-69133170D01*
X159383666Y-69006468D01*
X159383662Y-69006466D01*
X159383660Y-69006465D01*
X159183450Y-68913106D01*
X159183447Y-68913105D01*
X159183445Y-68913104D01*
X158970070Y-68855930D01*
X158970062Y-68855929D01*
X158750002Y-68836677D01*
X158749998Y-68836677D01*
X158529937Y-68855929D01*
X158529929Y-68855930D01*
X158316554Y-68913104D01*
X158316548Y-68913107D01*
X158116340Y-69006465D01*
X158116338Y-69006466D01*
X157935377Y-69133175D01*
X157779175Y-69289377D01*
X157652466Y-69470338D01*
X157652465Y-69470340D01*
X157592382Y-69599189D01*
X157546209Y-69651628D01*
X157479016Y-69670780D01*
X157412135Y-69650564D01*
X157367618Y-69599189D01*
X157307534Y-69470340D01*
X157307533Y-69470338D01*
X157180827Y-69289381D01*
X157180823Y-69289377D01*
X157024620Y-69133174D01*
X157024616Y-69133171D01*
X157024615Y-69133170D01*
X156843666Y-69006468D01*
X156843662Y-69006466D01*
X156843660Y-69006465D01*
X156643450Y-68913106D01*
X156643447Y-68913105D01*
X156643445Y-68913104D01*
X156430070Y-68855930D01*
X156430062Y-68855929D01*
X156210002Y-68836677D01*
X156209998Y-68836677D01*
X155989937Y-68855929D01*
X155989929Y-68855930D01*
X155776554Y-68913104D01*
X155776548Y-68913107D01*
X155576340Y-69006465D01*
X155576338Y-69006466D01*
X155395377Y-69133175D01*
X155239175Y-69289377D01*
X155112466Y-69470338D01*
X155112465Y-69470340D01*
X155019107Y-69670548D01*
X155019104Y-69670554D01*
X154961930Y-69883929D01*
X154961929Y-69883937D01*
X154942677Y-70103997D01*
X154942677Y-70104003D01*
X154948517Y-70170763D01*
X154934750Y-70239263D01*
X154912670Y-70269250D01*
X149903324Y-75278596D01*
X149842001Y-75312081D01*
X149772309Y-75307097D01*
X149741333Y-75290183D01*
X149725330Y-75278203D01*
X149725328Y-75278202D01*
X149590482Y-75227908D01*
X149590483Y-75227908D01*
X149530883Y-75221501D01*
X149530881Y-75221500D01*
X149530873Y-75221500D01*
X149530864Y-75221500D01*
X146835129Y-75221500D01*
X146835123Y-75221501D01*
X146775516Y-75227908D01*
X146640671Y-75278202D01*
X146640664Y-75278206D01*
X146525455Y-75364452D01*
X146525452Y-75364455D01*
X146439206Y-75479664D01*
X146439202Y-75479671D01*
X146388908Y-75614517D01*
X146382501Y-75674116D01*
X146382500Y-75674135D01*
X146382500Y-78369870D01*
X146382501Y-78369876D01*
X146388908Y-78429483D01*
X146439202Y-78564328D01*
X146439206Y-78564335D01*
X146525452Y-78679544D01*
X146525455Y-78679547D01*
X146640664Y-78765793D01*
X146640671Y-78765797D01*
X146775517Y-78816091D01*
X146775516Y-78816091D01*
X146782444Y-78816835D01*
X146835127Y-78822500D01*
X149530872Y-78822499D01*
X149590483Y-78816091D01*
X149725331Y-78765796D01*
X149840546Y-78679546D01*
X149926796Y-78564331D01*
X149977091Y-78429483D01*
X149983500Y-78369873D01*
X149983499Y-77513938D01*
X150003183Y-77446900D01*
X150019813Y-77426263D01*
X152996081Y-74449995D01*
X156869592Y-74449995D01*
X156869592Y-74450004D01*
X156889196Y-74711620D01*
X156889197Y-74711625D01*
X156947576Y-74967402D01*
X156947578Y-74967411D01*
X156947580Y-74967416D01*
X157043432Y-75211643D01*
X157174614Y-75438857D01*
X157300888Y-75597200D01*
X157338198Y-75643985D01*
X157413016Y-75713405D01*
X157530521Y-75822433D01*
X157747296Y-75970228D01*
X157747301Y-75970230D01*
X157747302Y-75970231D01*
X157747303Y-75970232D01*
X157872843Y-76030688D01*
X157983673Y-76084061D01*
X157983674Y-76084061D01*
X157983677Y-76084063D01*
X158234385Y-76161396D01*
X158493818Y-76200500D01*
X158756182Y-76200500D01*
X159015615Y-76161396D01*
X159266323Y-76084063D01*
X159502704Y-75970228D01*
X159719479Y-75822433D01*
X159911805Y-75643981D01*
X160075386Y-75438857D01*
X160206568Y-75211643D01*
X160302420Y-74967416D01*
X160360802Y-74711630D01*
X160362766Y-74685428D01*
X160380408Y-74450004D01*
X160380408Y-74449995D01*
X160360803Y-74188379D01*
X160360802Y-74188374D01*
X160360802Y-74188370D01*
X160302420Y-73932584D01*
X160206568Y-73688357D01*
X160075386Y-73461143D01*
X159911805Y-73256019D01*
X159911804Y-73256018D01*
X159911801Y-73256014D01*
X159719479Y-73077567D01*
X159502704Y-72929772D01*
X159502700Y-72929770D01*
X159502697Y-72929768D01*
X159502696Y-72929767D01*
X159266325Y-72815938D01*
X159266327Y-72815938D01*
X159015623Y-72738606D01*
X159015619Y-72738605D01*
X159015615Y-72738604D01*
X158890823Y-72719794D01*
X158756187Y-72699500D01*
X158756182Y-72699500D01*
X158493818Y-72699500D01*
X158493812Y-72699500D01*
X158332247Y-72723853D01*
X158234385Y-72738604D01*
X158234382Y-72738605D01*
X158234376Y-72738606D01*
X157983673Y-72815938D01*
X157747303Y-72929767D01*
X157747302Y-72929768D01*
X157530520Y-73077567D01*
X157338198Y-73256014D01*
X157174614Y-73461143D01*
X157043432Y-73688356D01*
X156947582Y-73932578D01*
X156947576Y-73932597D01*
X156889197Y-74188374D01*
X156889196Y-74188379D01*
X156869592Y-74449995D01*
X152996081Y-74449995D01*
X156044750Y-71401326D01*
X156106071Y-71367843D01*
X156143232Y-71365481D01*
X156210000Y-71371323D01*
X156210000Y-71371322D01*
X156210001Y-71371323D01*
X156210002Y-71371323D01*
X156276776Y-71365481D01*
X156430068Y-71352070D01*
X156643450Y-71294894D01*
X156843662Y-71201534D01*
X157024620Y-71074826D01*
X157180826Y-70918620D01*
X157307534Y-70737662D01*
X157367618Y-70608811D01*
X157413790Y-70556371D01*
X157480983Y-70537219D01*
X157547865Y-70557435D01*
X157592382Y-70608811D01*
X157652464Y-70737658D01*
X157652468Y-70737666D01*
X157779170Y-70918615D01*
X157779175Y-70918621D01*
X157935378Y-71074824D01*
X157935384Y-71074829D01*
X158116333Y-71201531D01*
X158116335Y-71201532D01*
X158116338Y-71201534D01*
X158316550Y-71294894D01*
X158529932Y-71352070D01*
X158683224Y-71365481D01*
X158749998Y-71371323D01*
X158750000Y-71371323D01*
X158750002Y-71371323D01*
X158816776Y-71365481D01*
X158970068Y-71352070D01*
X159183450Y-71294894D01*
X159383662Y-71201534D01*
X159564620Y-71074826D01*
X159720826Y-70918620D01*
X159847534Y-70737662D01*
X159907894Y-70608218D01*
X159954066Y-70555779D01*
X160021259Y-70536627D01*
X160088141Y-70556843D01*
X160132658Y-70608219D01*
X160192898Y-70737405D01*
X160192901Y-70737411D01*
X160238258Y-70802187D01*
X160238259Y-70802188D01*
X160909000Y-70131447D01*
X160909000Y-70154160D01*
X160934964Y-70251061D01*
X160985124Y-70337940D01*
X161056060Y-70408876D01*
X161142939Y-70459036D01*
X161239840Y-70485000D01*
X161262553Y-70485000D01*
X160591810Y-71155740D01*
X160656590Y-71201099D01*
X160656592Y-71201100D01*
X160856715Y-71294419D01*
X160856729Y-71294424D01*
X161070013Y-71351573D01*
X161070023Y-71351575D01*
X161289999Y-71370821D01*
X161290001Y-71370821D01*
X161509976Y-71351575D01*
X161509986Y-71351573D01*
X161723270Y-71294424D01*
X161723284Y-71294419D01*
X161923407Y-71201100D01*
X161923417Y-71201094D01*
X161988188Y-71155741D01*
X161317448Y-70485000D01*
X161340160Y-70485000D01*
X161437061Y-70459036D01*
X161523940Y-70408876D01*
X161594876Y-70337940D01*
X161645036Y-70251061D01*
X161671000Y-70154160D01*
X161671000Y-70131447D01*
X162341741Y-70802188D01*
X162387094Y-70737417D01*
X162387095Y-70737416D01*
X162447340Y-70608219D01*
X162493512Y-70555780D01*
X162560706Y-70536627D01*
X162627587Y-70556842D01*
X162672105Y-70608218D01*
X162732466Y-70737662D01*
X162732468Y-70737666D01*
X162859170Y-70918615D01*
X162859175Y-70918621D01*
X163015378Y-71074824D01*
X163015384Y-71074829D01*
X163196333Y-71201531D01*
X163196335Y-71201532D01*
X163196338Y-71201534D01*
X163396550Y-71294894D01*
X163609932Y-71352070D01*
X163763224Y-71365481D01*
X163829998Y-71371323D01*
X163830000Y-71371323D01*
X163830002Y-71371323D01*
X163896776Y-71365481D01*
X164050068Y-71352070D01*
X164263450Y-71294894D01*
X164463662Y-71201534D01*
X164644620Y-71074826D01*
X164800826Y-70918620D01*
X164927534Y-70737662D01*
X164987618Y-70608811D01*
X165033790Y-70556371D01*
X165100983Y-70537219D01*
X165167865Y-70557435D01*
X165212382Y-70608811D01*
X165272464Y-70737658D01*
X165272468Y-70737666D01*
X165399170Y-70918615D01*
X165399175Y-70918621D01*
X165555378Y-71074824D01*
X165555384Y-71074829D01*
X165736333Y-71201531D01*
X165736335Y-71201532D01*
X165736338Y-71201534D01*
X165936550Y-71294894D01*
X166149932Y-71352070D01*
X166303224Y-71365481D01*
X166369998Y-71371323D01*
X166370000Y-71371323D01*
X166370002Y-71371323D01*
X166436776Y-71365481D01*
X166590068Y-71352070D01*
X166803450Y-71294894D01*
X167003662Y-71201534D01*
X167184620Y-71074826D01*
X167340826Y-70918620D01*
X167467534Y-70737662D01*
X167527618Y-70608811D01*
X167573790Y-70556371D01*
X167640983Y-70537219D01*
X167707865Y-70557435D01*
X167752382Y-70608811D01*
X167812464Y-70737658D01*
X167812468Y-70737666D01*
X167939170Y-70918615D01*
X167939175Y-70918621D01*
X167966912Y-70946358D01*
X168000397Y-71007681D01*
X167995413Y-71077373D01*
X167966912Y-71121720D01*
X158873140Y-80215491D01*
X158811817Y-80248976D01*
X158742125Y-80243992D01*
X158686192Y-80202120D01*
X158661775Y-80136656D01*
X158661775Y-80136654D01*
X158660196Y-80114572D01*
X158599369Y-79834954D01*
X158499367Y-79566839D01*
X158362226Y-79315685D01*
X158362224Y-79315682D01*
X158190745Y-79086612D01*
X158190729Y-79086594D01*
X157988405Y-78884270D01*
X157988387Y-78884254D01*
X157759317Y-78712775D01*
X157759309Y-78712770D01*
X157508166Y-78575635D01*
X157508167Y-78575635D01*
X157400915Y-78535632D01*
X157240046Y-78475631D01*
X157240043Y-78475630D01*
X157240037Y-78475628D01*
X156960433Y-78414804D01*
X156675001Y-78394390D01*
X156674999Y-78394390D01*
X156389566Y-78414804D01*
X156109962Y-78475628D01*
X155841833Y-78575635D01*
X155590690Y-78712770D01*
X155590682Y-78712775D01*
X155361612Y-78884254D01*
X155361594Y-78884270D01*
X155159270Y-79086594D01*
X155159254Y-79086612D01*
X154987775Y-79315682D01*
X154987770Y-79315690D01*
X154850635Y-79566833D01*
X154750628Y-79834962D01*
X154689804Y-80114566D01*
X154669390Y-80399998D01*
X154669390Y-80400001D01*
X154689804Y-80685433D01*
X154750628Y-80965037D01*
X154750630Y-80965043D01*
X154750631Y-80965046D01*
X154795438Y-81085177D01*
X154850635Y-81233166D01*
X154987770Y-81484309D01*
X154987775Y-81484317D01*
X155159254Y-81713387D01*
X155159270Y-81713405D01*
X155361594Y-81915729D01*
X155361612Y-81915745D01*
X155590682Y-82087224D01*
X155590690Y-82087229D01*
X155841833Y-82224364D01*
X155841832Y-82224364D01*
X155841836Y-82224365D01*
X155841839Y-82224367D01*
X156109954Y-82324369D01*
X156109960Y-82324370D01*
X156109962Y-82324371D01*
X156389567Y-82385195D01*
X156389572Y-82385196D01*
X156411655Y-82386775D01*
X156477119Y-82411191D01*
X156518991Y-82467124D01*
X156523977Y-82536815D01*
X156490493Y-82598139D01*
X156490491Y-82598140D01*
X145675449Y-93413181D01*
X145614126Y-93446666D01*
X145587768Y-93449500D01*
X144697129Y-93449500D01*
X144697123Y-93449501D01*
X144637516Y-93455908D01*
X144502671Y-93506202D01*
X144502664Y-93506206D01*
X144387455Y-93592452D01*
X144387452Y-93592455D01*
X144301206Y-93707664D01*
X144301202Y-93707671D01*
X144250908Y-93842517D01*
X144248576Y-93864213D01*
X144244501Y-93902123D01*
X144244500Y-93902135D01*
X142219736Y-93902135D01*
X142219736Y-82101995D01*
X146377953Y-82101995D01*
X146377953Y-82102004D01*
X146398113Y-82371026D01*
X146398113Y-82371028D01*
X146458142Y-82634033D01*
X146458148Y-82634052D01*
X146556709Y-82885181D01*
X146556708Y-82885181D01*
X146691602Y-83118822D01*
X146745294Y-83186151D01*
X146745295Y-83186151D01*
X147581958Y-82349488D01*
X147606978Y-82409890D01*
X147678112Y-82516351D01*
X147768649Y-82606888D01*
X147875110Y-82678022D01*
X147935510Y-82703041D01*
X147097848Y-83540702D01*
X147280483Y-83665220D01*
X147280485Y-83665221D01*
X147523539Y-83782269D01*
X147523537Y-83782269D01*
X147781337Y-83861790D01*
X147781343Y-83861792D01*
X148048101Y-83901999D01*
X148048110Y-83902000D01*
X148317890Y-83902000D01*
X148317898Y-83901999D01*
X148584656Y-83861792D01*
X148584662Y-83861790D01*
X148842461Y-83782269D01*
X149085521Y-83665218D01*
X149268150Y-83540702D01*
X148430488Y-82703041D01*
X148490890Y-82678022D01*
X148597351Y-82606888D01*
X148687888Y-82516351D01*
X148759022Y-82409890D01*
X148784041Y-82349488D01*
X149620703Y-83186151D01*
X149620704Y-83186150D01*
X149674393Y-83118828D01*
X149674400Y-83118817D01*
X149809290Y-82885181D01*
X149907851Y-82634052D01*
X149907857Y-82634033D01*
X149967886Y-82371028D01*
X149967886Y-82371026D01*
X149988047Y-82102004D01*
X149988047Y-82101995D01*
X149967886Y-81832973D01*
X149967886Y-81832971D01*
X149907857Y-81569966D01*
X149907851Y-81569947D01*
X149809290Y-81318818D01*
X149809291Y-81318818D01*
X149674397Y-81085177D01*
X149620704Y-81017847D01*
X148784041Y-81854510D01*
X148759022Y-81794110D01*
X148687888Y-81687649D01*
X148597351Y-81597112D01*
X148490890Y-81525978D01*
X148430488Y-81500958D01*
X149268150Y-80663296D01*
X149085517Y-80538779D01*
X149085516Y-80538778D01*
X148842460Y-80421730D01*
X148842462Y-80421730D01*
X148584662Y-80342209D01*
X148584656Y-80342207D01*
X148317898Y-80302000D01*
X148048101Y-80302000D01*
X147781343Y-80342207D01*
X147781337Y-80342209D01*
X147523538Y-80421730D01*
X147280485Y-80538778D01*
X147280476Y-80538783D01*
X147097848Y-80663296D01*
X147935511Y-81500958D01*
X147875110Y-81525978D01*
X147768649Y-81597112D01*
X147678112Y-81687649D01*
X147606978Y-81794110D01*
X147581958Y-81854511D01*
X146745295Y-81017848D01*
X146691600Y-81085180D01*
X146556709Y-81318818D01*
X146458148Y-81569947D01*
X146458142Y-81569966D01*
X146398113Y-81832971D01*
X146398113Y-81832973D01*
X146377953Y-82101995D01*
X142219736Y-82101995D01*
X142219736Y-68579994D01*
X143124357Y-68579994D01*
X143124357Y-68580005D01*
X143144890Y-68827812D01*
X143144892Y-68827824D01*
X143205936Y-69068881D01*
X143305826Y-69296606D01*
X143441833Y-69504782D01*
X143441836Y-69504785D01*
X143610256Y-69687738D01*
X143806491Y-69840474D01*
X144025190Y-69958828D01*
X144260386Y-70039571D01*
X144505665Y-70080500D01*
X144754335Y-70080500D01*
X144999614Y-70039571D01*
X145234810Y-69958828D01*
X145453509Y-69840474D01*
X145649744Y-69687738D01*
X145818164Y-69504785D01*
X145954173Y-69296607D01*
X146054063Y-69068881D01*
X146115108Y-68827821D01*
X146115966Y-68817472D01*
X146135643Y-68580005D01*
X146135643Y-68579994D01*
X149624357Y-68579994D01*
X149624357Y-68580005D01*
X149644890Y-68827812D01*
X149644892Y-68827824D01*
X149705936Y-69068881D01*
X149805826Y-69296606D01*
X149941833Y-69504782D01*
X149941836Y-69504785D01*
X150110256Y-69687738D01*
X150306491Y-69840474D01*
X150525190Y-69958828D01*
X150760386Y-70039571D01*
X151005665Y-70080500D01*
X151254335Y-70080500D01*
X151499614Y-70039571D01*
X151734810Y-69958828D01*
X151953509Y-69840474D01*
X152149744Y-69687738D01*
X152318164Y-69504785D01*
X152454173Y-69296607D01*
X152554063Y-69068881D01*
X152615108Y-68827821D01*
X152615966Y-68817472D01*
X152635643Y-68580005D01*
X152635643Y-68579994D01*
X152615109Y-68332187D01*
X152615107Y-68332175D01*
X152554063Y-68091118D01*
X152454173Y-67863393D01*
X152318166Y-67655217D01*
X152296557Y-67631744D01*
X152149744Y-67472262D01*
X151953509Y-67319526D01*
X151953507Y-67319525D01*
X151953506Y-67319524D01*
X151734811Y-67201172D01*
X151734802Y-67201169D01*
X151499616Y-67120429D01*
X151254335Y-67079500D01*
X151005665Y-67079500D01*
X150760383Y-67120429D01*
X150525197Y-67201169D01*
X150525188Y-67201172D01*
X150306493Y-67319524D01*
X150110257Y-67472261D01*
X149941833Y-67655217D01*
X149805826Y-67863393D01*
X149705936Y-68091118D01*
X149644892Y-68332175D01*
X149644890Y-68332187D01*
X149624357Y-68579994D01*
X146135643Y-68579994D01*
X146115109Y-68332187D01*
X146115107Y-68332175D01*
X146054063Y-68091118D01*
X145954173Y-67863393D01*
X145818166Y-67655217D01*
X145796557Y-67631744D01*
X145649744Y-67472262D01*
X145453509Y-67319526D01*
X145453507Y-67319525D01*
X145453506Y-67319524D01*
X145234811Y-67201172D01*
X145234802Y-67201169D01*
X144999616Y-67120429D01*
X144754335Y-67079500D01*
X144505665Y-67079500D01*
X144260383Y-67120429D01*
X144025197Y-67201169D01*
X144025188Y-67201172D01*
X143806493Y-67319524D01*
X143610257Y-67472261D01*
X143441833Y-67655217D01*
X143305826Y-67863393D01*
X143205936Y-68091118D01*
X143144892Y-68332175D01*
X143144890Y-68332187D01*
X143124357Y-68579994D01*
X142219736Y-68579994D01*
X142219736Y-64079994D01*
X143124859Y-64079994D01*
X143124859Y-64080005D01*
X143145385Y-64327729D01*
X143145387Y-64327738D01*
X143206412Y-64568717D01*
X143306266Y-64796364D01*
X143406564Y-64949882D01*
X144106212Y-64250234D01*
X144117482Y-64292292D01*
X144189890Y-64417708D01*
X144292292Y-64520110D01*
X144417708Y-64592518D01*
X144459765Y-64603787D01*
X143759942Y-65303609D01*
X143806768Y-65340055D01*
X143806770Y-65340056D01*
X144025385Y-65458364D01*
X144025396Y-65458369D01*
X144260506Y-65539083D01*
X144505707Y-65580000D01*
X144754293Y-65580000D01*
X144999493Y-65539083D01*
X145234603Y-65458369D01*
X145234614Y-65458364D01*
X145453228Y-65340057D01*
X145453231Y-65340055D01*
X145500056Y-65303609D01*
X144800234Y-64603787D01*
X144842292Y-64592518D01*
X144967708Y-64520110D01*
X145070110Y-64417708D01*
X145142518Y-64292292D01*
X145153787Y-64250235D01*
X145853434Y-64949882D01*
X145953731Y-64796369D01*
X146053587Y-64568717D01*
X146114612Y-64327738D01*
X146114614Y-64327729D01*
X146135141Y-64080005D01*
X146135141Y-64079994D01*
X149624859Y-64079994D01*
X149624859Y-64080005D01*
X149645385Y-64327729D01*
X149645387Y-64327738D01*
X149706412Y-64568717D01*
X149806266Y-64796364D01*
X149906564Y-64949882D01*
X150606212Y-64250234D01*
X150617482Y-64292292D01*
X150689890Y-64417708D01*
X150792292Y-64520110D01*
X150917708Y-64592518D01*
X150959765Y-64603787D01*
X150259942Y-65303609D01*
X150306768Y-65340055D01*
X150306770Y-65340056D01*
X150525385Y-65458364D01*
X150525396Y-65458369D01*
X150760506Y-65539083D01*
X151005707Y-65580000D01*
X151254293Y-65580000D01*
X151499493Y-65539083D01*
X151734603Y-65458369D01*
X151734614Y-65458364D01*
X151953228Y-65340057D01*
X151953231Y-65340055D01*
X152000056Y-65303609D01*
X151300234Y-64603787D01*
X151342292Y-64592518D01*
X151467708Y-64520110D01*
X151570110Y-64417708D01*
X151642518Y-64292292D01*
X151653787Y-64250235D01*
X152353434Y-64949882D01*
X152453731Y-64796369D01*
X152553587Y-64568717D01*
X152614612Y-64327738D01*
X152614614Y-64327729D01*
X152635141Y-64080005D01*
X152635141Y-64079994D01*
X152614614Y-63832270D01*
X152614612Y-63832261D01*
X152553587Y-63591282D01*
X152453731Y-63363630D01*
X152353434Y-63210116D01*
X151653787Y-63909764D01*
X151642518Y-63867708D01*
X151570110Y-63742292D01*
X151467708Y-63639890D01*
X151342292Y-63567482D01*
X151300235Y-63556212D01*
X152000057Y-62856390D01*
X152000056Y-62856389D01*
X151953229Y-62819943D01*
X151734614Y-62701635D01*
X151734603Y-62701630D01*
X151499493Y-62620916D01*
X151254293Y-62580000D01*
X151005707Y-62580000D01*
X150760506Y-62620916D01*
X150525396Y-62701630D01*
X150525390Y-62701632D01*
X150306761Y-62819949D01*
X150259942Y-62856388D01*
X150259942Y-62856390D01*
X150959765Y-63556212D01*
X150917708Y-63567482D01*
X150792292Y-63639890D01*
X150689890Y-63742292D01*
X150617482Y-63867708D01*
X150606212Y-63909764D01*
X149906564Y-63210116D01*
X149806267Y-63363632D01*
X149706412Y-63591282D01*
X149645387Y-63832261D01*
X149645385Y-63832270D01*
X149624859Y-64079994D01*
X146135141Y-64079994D01*
X146114614Y-63832270D01*
X146114612Y-63832261D01*
X146053587Y-63591282D01*
X145953731Y-63363630D01*
X145853434Y-63210116D01*
X145153787Y-63909764D01*
X145142518Y-63867708D01*
X145070110Y-63742292D01*
X144967708Y-63639890D01*
X144842292Y-63567482D01*
X144800235Y-63556212D01*
X145500057Y-62856390D01*
X145500056Y-62856389D01*
X145453229Y-62819943D01*
X145234614Y-62701635D01*
X145234603Y-62701630D01*
X144999493Y-62620916D01*
X144754293Y-62580000D01*
X144505707Y-62580000D01*
X144260506Y-62620916D01*
X144025396Y-62701630D01*
X144025390Y-62701632D01*
X143806761Y-62819949D01*
X143759942Y-62856388D01*
X143759942Y-62856390D01*
X144459765Y-63556212D01*
X144417708Y-63567482D01*
X144292292Y-63639890D01*
X144189890Y-63742292D01*
X144117482Y-63867708D01*
X144106212Y-63909764D01*
X143406564Y-63210116D01*
X143306267Y-63363632D01*
X143206412Y-63591282D01*
X143145387Y-63832261D01*
X143145385Y-63832270D01*
X143124859Y-64079994D01*
X142219736Y-64079994D01*
X142219736Y-49534875D01*
X142220118Y-49525146D01*
X142220966Y-49514366D01*
X142234698Y-49339883D01*
X142237742Y-49320669D01*
X142279983Y-49144723D01*
X142285992Y-49126228D01*
X142355244Y-48959043D01*
X142364072Y-48941718D01*
X142458622Y-48787428D01*
X142470044Y-48771707D01*
X142587577Y-48634096D01*
X142601319Y-48620355D01*
X142738922Y-48502834D01*
X142754645Y-48491410D01*
X142908953Y-48396853D01*
X142926264Y-48388033D01*
X143053973Y-48335136D01*
X143093450Y-48318786D01*
X143111949Y-48312775D01*
X143287903Y-48270535D01*
X143307100Y-48267495D01*
X143492831Y-48252881D01*
X143502552Y-48252500D01*
X143563118Y-48252502D01*
X143563121Y-48252500D01*
X143571534Y-48252501D01*
X143571769Y-48252485D01*
X209557903Y-48239736D01*
X209567621Y-48240117D01*
G37*
%TD.AperFunction*%
%TD*%
M02*
