<?xml version="1.0" standalone="no"?><!DOCTYPE svg PUBLIC "-//W3C//DTD SVG 1.1//EN" "http://www.w3.org/Graphics/SVG/1.1/DTD/svg11.dtd"><svg xmlns:svg="http://www.w3.org/2000/svg" xmlns="http://www.w3.org/2000/svg" xmlns:xlink="http://www.w3.org/1999/xlink" version="1.1" width="77.7240mm" height="58.4200mm" viewBox="0.0000 0.0000 77.7240 58.4200"><title>SVG Image created as uno_car-B_Silkscreen.svg date 2024/06/08 08:37:24 </title><desc>Image generated by PCBNEW </desc><g style="fill:#000000; fill-opacity:1.0000;stroke:#000000; stroke-opacity:1.0000;
stroke-linecap:round; stroke-linejoin:round;" transform="translate(0 0) scale(1 1)"><path style="fill:#E8B2A7; fill-opacity:1.0000; stroke:none;fill-rule:evenodd;"
d="M 72.1112,35.8172
72.1476,35.8847
72.1507,36.0989
72.1212,36.1627
71.8460,36.1646
71.8561,36.1426
71.8627,36.1360
71.8654,36.1226
71.8664,36.1204
71.8660,36.1194
71.8665,36.1169
71.8633,35.8968
71.8978,35.8222
71.9655,35.7857
72.0380,35.7833
Z" /><path style="fill:#E8B2A7; fill-opacity:1.0000; stroke:none;fill-rule:evenodd;"
d="M 72.0667,32.6758
72.0669,32.6761
72.1056,32.7115
72.1476,32.7896
72.1504,32.9091
72.1148,32.9861
72.1145,32.9863
72.0791,33.0250
72.0011,33.0670
71.7395,33.0702
71.6616,33.0342
71.6614,33.0339
71.6227,32.9985
71.5807,32.9204
71.5779,32.8009
71.6135,32.7239
71.6138,32.7237
71.6492,32.6850
71.7272,32.6430
71.9888,32.6398
Z" /><path style="fill:#E8B2A7; fill-opacity:1.0000; stroke:none;fill-rule:evenodd;"
d="M 73.4143,30.4987
73.5907,30.5395
73.5946,30.5426
73.6766,30.5805
73.6768,30.5808
73.7155,30.6163
73.7576,30.6945
73.7600,30.7670
73.7247,30.8433
73.7244,30.8435
73.6890,30.8821
73.6088,30.9253
73.6048,30.9255
73.4304,30.9724
73.4265,30.9717
73.2043,30.9750
73.2005,30.9732
73.0242,30.9324
73.0203,30.9293
72.9382,30.8914
72.9380,30.8911
72.8993,30.8557
72.8572,30.7774
72.8548,30.7049
72.8901,30.6286
72.8904,30.6284
72.9258,30.5898
73.0061,30.5466
73.0100,30.5464
73.1845,30.4995
73.1884,30.5002
73.4105,30.4969
Z" /><path style="fill:#E8B2A7; fill-opacity:1.0000; stroke:none;fill-rule:evenodd;"
d="M 72.0667,28.5805
72.0669,28.5808
72.1056,28.6163
72.1476,28.6944
72.1504,28.8139
72.1148,28.8909
72.1145,28.8911
72.0791,28.9298
72.0011,28.9717
71.7395,28.9750
71.6616,28.9390
71.6614,28.9387
71.6227,28.9033
71.5807,28.8252
71.5779,28.7057
71.6135,28.6286
71.6138,28.6284
71.6492,28.5898
71.7272,28.5478
71.9888,28.5445
Z" /><path style="fill:#E8B2A7; fill-opacity:1.0000; stroke:none;fill-rule:evenodd;"
d="M 72.0667,25.3901
72.0669,25.3904
72.1056,25.4258
72.1476,25.5038
72.1506,25.6706
72.1213,25.7339
71.6094,25.7358
71.5807,25.6824
71.5777,25.5156
71.6135,25.4382
71.6138,25.4380
71.6492,25.3993
71.7272,25.3573
71.9888,25.3540
Z" /><path style="fill:#E8B2A7; fill-opacity:1.0000; stroke:none;fill-rule:evenodd;"
d="M 71.8649,24.2404
71.3497,24.0707
71.8623,23.8978
Z" /><path style="fill:#E8B2A7; fill-opacity:1.0000; stroke:none;fill-rule:evenodd;"
d="M 73.9685,37.1314
71.0364,37.1314
71.0364,36.8788
71.4808,36.8788
71.4846,36.9932
71.5117,37.0202
71.5499,37.0202
71.5770,36.9932
71.5808,36.9740
71.5782,36.8954
71.6135,36.8191
71.6138,36.8189
71.6492,36.7802
71.7291,36.7372
72.2166,36.7345
72.2437,36.7075
72.2437,36.6692
72.2166,36.6421
72.1975,36.6383
71.7252,36.6410
71.7177,36.6385
71.7083,36.6410
71.5117,36.6421
71.4846,36.6692
71.4846,36.7075
71.5117,36.7345
71.5308,36.7383
71.5563,36.7382
71.5509,36.7441
71.5457,36.7458
71.5337,36.7612
71.4912,36.8531
71.4846,36.8597
71.4819,36.8731
71.4809,36.8753
71.4813,36.8764
71.4808,36.8788
71.0364,36.8788
71.0364,35.8788
71.4808,35.8788
71.4842,36.0632
71.4809,36.0728
71.4846,36.0861
71.4846,36.0884
71.4854,36.0892
71.4861,36.0916
71.5369,36.1860
71.5407,36.1973
71.5446,36.2004
71.5457,36.2023
71.5482,36.2031
71.5561,36.2092
71.6480,36.2518
71.6545,36.2583
71.6679,36.2610
71.6701,36.2620
71.6712,36.2617
71.6737,36.2621
71.7643,36.2615
71.7654,36.2620
71.7669,36.2615
72.1400,36.2589
72.1463,36.2620
72.1561,36.2588
72.2166,36.2583
72.2437,36.2313
72.2437,36.1930
72.2232,36.1726
72.2371,36.1426
72.2437,36.1360
72.2463,36.1226
72.2473,36.1204
72.2470,36.1194
72.2475,36.1169
72.2440,35.8852
72.2473,35.8753
72.2437,35.8619
72.2437,35.8597
72.2429,35.8589
72.2422,35.8564
72.1914,35.7621
72.1876,35.7508
72.1837,35.7477
72.1826,35.7458
72.1801,35.7450
72.1722,35.7388
72.0803,35.6963
72.0738,35.6898
72.0604,35.6871
72.0582,35.6861
72.0571,35.6864
72.0546,35.6860
71.9645,35.6890
71.9558,35.6861
71.9427,35.6897
71.9402,35.6898
71.9394,35.6906
71.9370,35.6912
71.8427,35.7420
71.8314,35.7458
71.8283,35.7498
71.8264,35.7508
71.8255,35.7533
71.8194,35.7612
71.7769,35.8531
71.7703,35.8597
71.7677,35.8731
71.7666,35.8753
71.7670,35.8764
71.7665,35.8788
71.7698,36.0989
71.7390,36.1654
71.6923,36.1657
71.6171,36.1309
71.5807,36.0633
71.5777,35.8965
71.6283,35.7871
71.6162,35.7508
71.5820,35.7337
71.5457,35.7458
71.5337,35.7612
71.4912,35.8531
71.4846,35.8597
71.4819,35.8731
71.4809,35.8753
71.4813,35.8764
71.4808,35.8788
71.0364,35.8788
71.0364,35.0693
71.1475,35.0693
71.1503,35.1555
71.1476,35.1610
71.1500,35.1803
71.1989,35.3166
71.1989,35.3265
71.2065,35.3379
71.2073,35.3401
71.2083,35.3407
71.2097,35.3427
71.2736,35.4012
71.3118,35.4012
71.3389,35.3741
71.3389,35.3359
71.3281,35.3196
71.2901,35.2849
71.2473,35.1654
71.2475,35.1645
71.2448,35.0852
71.2449,35.0851
71.2842,34.9579
71.3620,34.8761
71.3627,34.8759
71.4437,34.8323
71.4477,34.8321
71.6221,34.7852
71.6260,34.7860
71.7536,34.7830
71.7568,34.7845
71.9331,34.8252
71.9370,34.8283
72.0191,34.8663
72.0193,34.8665
72.1043,34.9475
72.1476,35.0684
72.1475,35.0693
72.1501,35.1486
72.1500,35.1487
72.1107,35.2762
72.0560,35.3359
72.0560,35.3741
72.0831,35.4012
72.1214,35.4012
72.1376,35.3904
72.1801,35.3439
72.1876,35.3401
72.1943,35.3284
72.1960,35.3265
72.1960,35.3254
72.1973,35.3232
72.2389,35.1885
72.2437,35.1837
72.2475,35.1645
72.2446,35.0783
72.2473,35.0728
72.2449,35.0535
72.1960,34.9172
72.1960,34.9073
72.1884,34.8959
72.1876,34.8937
72.1866,34.8932
72.1852,34.8911
72.0945,34.8047
72.0924,34.7984
72.0770,34.7865
71.9912,34.7468
71.9891,34.7434
71.9715,34.7351
71.7918,34.6935
71.7880,34.6898
71.7689,34.6860
71.6376,34.6890
71.6334,34.6865
71.6139,34.6874
71.4364,34.7352
71.4320,34.7337
71.4132,34.7388
71.3275,34.7850
71.3212,34.7850
71.3050,34.7958
71.2160,34.8893
71.2073,34.8937
71.2005,34.9056
71.1989,34.9073
71.1989,34.9084
71.1977,34.9106
71.1561,35.0454
71.1513,35.0502
71.1475,35.0693
71.0364,35.0693
71.0364,33.5455
71.7665,33.5455
71.7703,34.3265
71.7974,34.3536
71.8357,34.3536
71.8627,34.3265
71.8665,34.3074
71.8627,33.5263
71.8357,33.4993
71.7974,33.4993
71.7703,33.5263
71.7665,33.5455
71.0364,33.5455
71.0364,32.7836
71.4808,32.7836
71.4840,32.9207
71.4809,32.9300
71.4846,32.9432
71.4846,32.9456
71.4854,32.9464
71.4861,32.9488
71.5322,33.0345
71.5322,33.0408
71.5431,33.0570
71.5456,33.0594
71.5457,33.0594
71.5457,33.0595
71.5865,33.0968
71.5883,33.1020
71.6037,33.1140
71.6956,33.1565
71.7022,33.1631
71.7155,33.1658
71.7177,33.1668
71.7188,33.1664
71.7213,33.1669
72.0005,33.1634
72.0105,33.1668
72.0239,33.1631
72.0261,33.1631
72.0269,33.1623
72.0294,33.1616
72.1151,33.1155
72.1214,33.1155
72.1376,33.1046
72.1399,33.1021
72.1400,33.1020
72.1400,33.1020
72.1774,33.0612
72.1826,33.0594
72.1946,33.0440
72.2371,32.9521
72.2437,32.9456
72.2463,32.9322
72.2473,32.9300
72.2470,32.9289
72.2475,32.9264
72.2443,32.7893
72.2473,32.7800
72.2437,32.7668
72.2437,32.7644
72.2429,32.7636
72.2422,32.7612
72.1960,32.6755
72.1960,32.6692
72.1852,32.6530
72.1827,32.6506
72.1826,32.6506
72.1825,32.6505
72.1418,32.6132
72.1400,32.6080
72.1246,32.5960
72.0327,32.5535
72.0261,32.5469
72.0127,32.5442
72.0105,32.5432
72.0095,32.5436
72.0070,32.5431
71.7278,32.5466
71.7177,32.5432
71.7044,32.5469
71.7022,32.5469
71.7013,32.5477
71.6989,32.5484
71.6132,32.5945
71.6069,32.5945
71.5907,32.6054
71.5884,32.6079
71.5883,32.6080
71.5882,32.6080
71.5509,32.6488
71.5457,32.6506
71.5337,32.6660
71.4912,32.7579
71.4846,32.7644
71.4819,32.7778
71.4809,32.7800
71.4813,32.7811
71.4808,32.7836
71.0364,32.7836
71.0364,31.8788
71.4808,31.8788
71.4840,32.0159
71.4809,32.0252
71.4846,32.0384
71.4846,32.0408
71.4854,32.0416
71.4861,32.0440
71.5369,32.1384
71.5407,32.1497
71.5446,32.1527
71.5457,32.1547
71.5482,32.1555
71.5561,32.1616
71.6480,32.2041
71.6545,32.2107
71.6679,32.2134
71.6701,32.2144
71.6712,32.2140
71.6737,32.2145
72.2166,32.2107
72.2437,32.1837
72.2437,32.1454
72.2166,32.1183
72.1975,32.1145
71.6923,32.1181
71.6171,32.0833
71.5839,32.0217
72.7574,32.0217
72.7608,32.2534
72.7575,32.2633
72.7612,32.2766
72.7612,32.2789
72.7620,32.2797
72.7627,32.2821
72.8088,32.3678
72.8088,32.3741
72.8197,32.3904
72.8222,32.3927
72.8223,32.3928
72.8223,32.3928
72.8631,32.4301
72.8649,32.4354
72.8803,32.4473
72.9722,32.4899
72.9788,32.4964
72.9922,32.4991
72.9943,32.5001
72.9954,32.4997
72.9979,32.5002
73.0841,32.4974
73.0896,32.5001
73.1089,32.4977
73.2453,32.4488
73.2551,32.4488
73.2665,32.4412
73.2687,32.4404
73.2693,32.4394
73.2713,32.4380
73.7581,31.9467
73.7612,32.4694
73.7883,32.4964
73.8266,32.4964
73.8536,32.4694
73.8574,32.4502
73.8536,31.8121
73.8266,31.7850
73.7883,31.7850
73.7721,31.7958
73.2165,32.3565
73.0940,32.4004
73.0931,32.4002
73.0145,32.4029
72.9382,32.3676
72.9380,32.3673
72.8993,32.3318
72.8573,32.2538
72.8542,32.0397
72.8901,31.9620
72.8904,31.9618
72.9489,31.8979
72.9489,31.8597
72.9218,31.8326
72.8835,31.8326
72.8673,31.8435
72.8275,31.8869
72.8223,31.8887
72.8103,31.9041
72.7678,31.9960
72.7612,32.0025
72.7586,32.0159
72.7575,32.0181
72.7579,32.0192
72.7574,32.0217
71.5839,32.0217
71.5807,32.0156
71.5779,31.8961
71.6135,31.8191
71.6138,31.8189
71.6446,31.7853
72.2166,31.7821
72.2437,31.7551
72.2437,31.7168
72.2166,31.6898
72.1975,31.6860
71.5117,31.6898
71.4846,31.7168
71.4846,31.7551
71.5117,31.7821
71.5230,31.7844
71.4912,31.8531
71.4846,31.8597
71.4819,31.8731
71.4809,31.8753
71.4813,31.8764
71.4808,31.8788
71.0364,31.8788
71.0364,31.4694
73.6660,31.4694
73.6768,31.4856
73.7407,31.5441
73.7789,31.5441
73.7789,31.5441
73.7789,31.5440
73.7952,31.5332
73.8536,31.4694
73.8536,31.4311
73.8536,31.4311
73.8428,31.4149
73.7789,31.3564
73.7789,31.3564
73.7407,31.3564
73.7244,31.3673
73.6660,31.4311
73.6660,31.4311
73.6660,31.4694
71.0364,31.4694
71.0364,31.2789
71.1513,31.2789
71.1783,31.3060
71.1975,31.3098
71.9999,31.3061
72.0105,31.3096
72.0239,31.3060
72.0261,31.3060
72.0269,31.3051
72.0294,31.3045
72.1151,31.2583
72.1214,31.2583
72.1376,31.2475
72.1399,31.2449
72.1400,31.2449
72.1400,31.2448
72.1774,31.2040
72.1826,31.2023
72.1946,31.1869
72.2371,31.0950
72.2437,31.0884
72.2463,31.0750
72.2473,31.0728
72.2470,31.0717
72.2475,31.0693
72.2441,30.8849
72.2473,30.8753
72.2437,30.8620
72.2437,30.8597
72.2429,30.8589
72.2422,30.8564
72.1960,30.7707
72.1960,30.7644
72.1852,30.7482
72.1827,30.7459
72.1826,30.7458
72.1825,30.7458
72.1418,30.7084
72.1400,30.7032
72.1246,30.6912
72.1183,30.6883
72.7574,30.6883
72.7604,30.7785
72.7575,30.7871
72.7611,30.8003
72.7612,30.8027
72.7620,30.8035
72.7627,30.8059
72.8088,30.8916
72.8088,30.8979
72.8197,30.9142
72.8222,30.9165
72.8223,30.9166
72.8223,30.9166
72.8631,30.9540
72.8649,30.9592
72.8803,30.9711
72.9661,31.0109
72.9681,31.0142
72.9858,31.0226
73.1655,31.0641
73.1692,31.0679
73.1884,31.0717
73.4144,31.0683
73.4191,31.0711
73.4386,31.0702
73.6161,31.0225
73.6205,31.0239
73.6393,31.0188
73.7250,30.9726
73.7313,30.9726
73.7475,30.9618
73.7499,30.9592
73.7500,30.9592
73.7500,30.9591
73.7873,30.9183
73.7926,30.9166
73.8045,30.9012
73.8470,30.8093
73.8536,30.8027
73.8563,30.7893
73.8573,30.7871
73.8569,30.7860
73.8574,30.7836
73.8544,30.6934
73.8573,30.6848
73.8537,30.6716
73.8536,30.6692
73.8528,30.6684
73.8521,30.6660
73.8060,30.5803
73.8060,30.5740
73.7952,30.5577
73.7926,30.5554
73.7926,30.5553
73.7925,30.5553
73.7517,30.5179
73.7500,30.5127
73.7345,30.5008
73.6487,30.4610
73.6467,30.4577
73.6291,30.4493
73.4493,30.4078
73.4456,30.4040
73.4265,30.4002
73.2004,30.4036
73.1957,30.4008
73.1762,30.4017
72.9988,30.4494
72.9943,30.4480
72.9755,30.4531
72.8898,30.4993
72.8835,30.4993
72.8673,30.5101
72.8650,30.5127
72.8649,30.5127
72.8649,30.5128
72.8275,30.5536
72.8223,30.5553
72.8103,30.5707
72.7678,30.6626
72.7612,30.6692
72.7586,30.6826
72.7575,30.6848
72.7579,30.6859
72.7574,30.6883
72.1183,30.6883
72.0327,30.6487
72.0261,30.6421
72.0127,30.6395
72.0105,30.6385
72.0095,30.6388
72.0070,30.6383
71.1783,30.6421
71.1513,30.6692
71.1513,30.7075
71.1783,30.7345
71.1975,30.7383
71.9882,30.7347
72.0667,30.7710
72.0669,30.7713
72.1056,30.8067
72.1476,30.8848
72.1506,31.0516
72.1148,31.1290
72.1145,31.1292
72.0791,31.1678
72.0012,31.2098
71.1783,31.2136
71.1513,31.2406
71.1513,31.2789
71.0364,31.2789
71.0364,29.4502
71.7665,29.4502
71.7703,30.2313
71.7974,30.2583
71.8357,30.2583
71.8627,30.2313
71.8665,30.2121
71.8657,30.0408
73.6660,30.0408
73.6768,30.0570
73.7407,30.1155
73.7789,30.1155
73.7789,30.1155
73.7789,30.1155
73.7952,30.1046
73.8536,30.0408
73.8536,30.0025
73.8536,30.0025
73.8428,29.9863
73.7789,29.9279
73.7789,29.9279
73.7407,29.9279
73.7244,29.9387
73.6660,30.0025
73.6660,30.0025
73.6660,30.0408
71.8657,30.0408
71.8627,29.4311
71.8357,29.4040
71.7974,29.4040
71.7703,29.4311
71.7665,29.4502
71.0364,29.4502
71.0364,29.3171
72.7584,29.3171
72.7612,29.3214
72.7612,29.3265
72.7715,29.3368
72.7796,29.3489
72.7846,29.3499
72.7883,29.3536
72.8074,29.3574
73.7596,29.3538
73.7612,29.6122
73.7883,29.6393
73.8266,29.6393
73.8536,29.6122
73.8574,29.5931
73.8536,29.0025
73.8266,28.9755
73.7883,28.9755
73.7612,29.0025
73.7574,29.0217
73.7589,29.2576
72.9623,29.2605
72.9654,29.2583
72.9694,29.2583
72.9856,29.2475
73.0720,29.1568
73.0783,29.1547
73.0902,29.1393
73.1430,29.0252
73.1309,28.9889
73.0967,28.9718
73.0604,28.9839
73.0484,28.9993
73.0104,29.0814
73.0102,29.0816
72.9274,29.1685
72.9225,29.1705
72.7923,29.2612
72.7883,29.2612
72.7792,29.2703
72.7659,29.2796
72.7649,29.2846
72.7612,29.2882
72.7612,29.3028
72.7584,29.3171
71.0364,29.3171
71.0364,28.6883
71.4808,28.6883
71.4840,28.8254
71.4809,28.8347
71.4846,28.8480
71.4846,28.8503
71.4854,28.8511
71.4861,28.8536
71.5322,28.9393
71.5322,28.9456
71.5431,28.9618
71.5456,28.9641
71.5457,28.9642
71.5457,28.9642
71.5865,29.0016
71.5883,29.0068
71.6037,29.0188
71.6956,29.0613
71.7022,29.0679
71.7155,29.0705
71.7177,29.0715
71.7188,29.0712
71.7213,29.0717
72.0005,29.0682
72.0105,29.0715
72.0239,29.0679
72.0261,29.0679
72.0269,29.0670
72.0294,29.0664
72.1151,29.0202
72.1214,29.0202
72.1376,29.0094
72.1399,29.0068
72.1400,29.0068
72.1400,29.0067
72.1774,28.9659
72.1826,28.9642
72.1946,28.9488
72.2371,28.8569
72.2437,28.8503
72.2463,28.8369
72.2473,28.8347
72.2470,28.8336
72.2475,28.8312
72.2443,28.6941
72.2470,28.6858
73.0908,28.6858
73.1037,28.7219
73.1383,28.7383
73.1576,28.7354
73.8077,28.4994
73.8099,28.5002
73.8243,28.4934
73.8410,28.4873
73.8421,28.4849
73.8445,28.4838
73.8501,28.4679
73.8574,28.4527
73.8565,28.4502
73.8574,28.4478
73.8501,28.4325
73.8445,28.4167
73.8421,28.4156
73.8410,28.4132
73.8242,28.4032
73.1383,28.1622
73.1037,28.1786
73.0908,28.2146
73.1072,28.2492
73.1239,28.2592
73.6643,28.4490
73.1072,28.6513
73.0908,28.6858
72.2470,28.6858
72.2473,28.6848
72.2437,28.6716
72.2437,28.6692
72.2429,28.6684
72.2422,28.6660
72.1960,28.5803
72.1960,28.5740
72.1852,28.5577
72.1827,28.5554
72.1826,28.5553
72.1825,28.5553
72.1418,28.5179
72.1400,28.5127
72.1246,28.5008
72.0327,28.4582
72.0261,28.4517
72.0127,28.4490
72.0105,28.4480
72.0095,28.4483
72.0070,28.4479
71.7278,28.4513
71.7177,28.4480
71.7044,28.4516
71.7022,28.4517
71.7013,28.4525
71.6989,28.4531
71.6132,28.4993
71.6069,28.4993
71.5907,28.5101
71.5884,28.5127
71.5883,28.5127
71.5882,28.5128
71.5509,28.5536
71.5457,28.5553
71.5337,28.5707
71.4912,28.6626
71.4846,28.6692
71.4819,28.6826
71.4809,28.6848
71.4813,28.6859
71.4808,28.6883
71.0364,28.6883
71.0364,27.7836
71.4808,27.7836
71.4840,27.9207
71.4809,27.9300
71.4846,27.9432
71.4846,27.9456
71.4854,27.9464
71.4861,27.9488
71.5369,28.0431
71.5407,28.0544
71.5446,28.0575
71.5457,28.0594
71.5482,28.0603
71.5561,28.0664
71.6480,28.1089
71.6545,28.1155
71.6679,28.1181
71.6701,28.1192
71.6712,28.1188
71.6737,28.1193
72.2166,28.1155
72.2437,28.0884
72.2437,28.0502
72.2166,28.0231
72.1975,28.0193
71.6923,28.0228
71.6171,27.9880
71.5807,27.9204
71.5779,27.8009
71.6135,27.7239
71.6138,27.7237
71.6446,27.6901
72.2166,27.6869
72.2437,27.6598
72.2437,27.6216
72.2166,27.5945
72.1975,27.5907
71.5117,27.5945
71.4846,27.6216
71.4846,27.6598
71.5117,27.6869
71.5230,27.6892
71.4912,27.7579
71.4846,27.7644
71.4819,27.7778
71.4809,27.7800
71.4813,27.7811
71.4808,27.7836
71.0364,27.7836
71.0364,27.1837
71.1513,27.1837
71.1621,27.1999
71.2260,27.2583
71.2260,27.2583
71.2642,27.2583
71.2804,27.2475
71.3389,27.1837
71.3389,27.1837
71.4846,27.1837
71.5117,27.2107
71.5308,27.2145
72.2166,27.2107
72.2437,27.1837
72.2437,27.1454
72.2166,27.1183
72.1975,27.1145
71.5117,27.1183
71.4846,27.1454
71.4846,27.1837
71.3389,27.1837
71.3389,27.1454
71.3389,27.1454
71.3281,27.1292
71.2642,27.0707
71.2260,27.0707
71.2097,27.0816
71.1513,27.1454
71.1513,27.1454
71.1513,27.1837
71.0364,27.1837
71.0364,26.7075
71.4846,26.7075
71.5117,26.7345
71.5308,26.7383
72.2166,26.7345
72.2437,26.7075
72.2437,26.6692
72.2166,26.6421
72.2053,26.6399
72.2371,26.5712
72.2437,26.5646
72.2463,26.5512
72.2473,26.5490
72.2470,26.5479
72.2475,26.5455
72.2443,26.4084
72.2473,26.3991
72.2437,26.3858
72.2437,26.3835
72.2429,26.3827
72.2422,26.3803
72.1914,26.2859
72.1876,26.2746
72.1837,26.2715
72.1826,26.2696
72.1801,26.2688
72.1722,26.2627
72.0803,26.2201
72.0738,26.2136
72.0604,26.2109
72.0582,26.2099
72.0571,26.2102
72.0546,26.2098
71.5117,26.2136
71.4846,26.2406
71.4846,26.2789
71.5117,26.3060
71.5308,26.3098
72.0360,26.3062
72.1112,26.3410
72.1476,26.4086
72.1504,26.5281
72.1148,26.6052
72.1145,26.6054
72.0837,26.6390
71.5117,26.6421
71.4846,26.6692
71.4846,26.7075
71.0364,26.7075
71.0364,25.8027
71.1513,25.8027
71.1783,25.8298
71.1975,25.8336
71.5781,25.8321
71.5820,25.8334
71.5846,25.8321
72.1395,25.8301
72.1463,25.8334
72.1567,25.8300
72.2166,25.8298
72.2437,25.8027
72.2437,25.7644
72.2232,25.7440
72.2371,25.7140
72.2437,25.7075
72.2463,25.6941
72.2473,25.6919
72.2470,25.6908
72.2475,25.6883
72.2441,25.5040
72.2473,25.4943
72.2437,25.4810
72.2437,25.4787
72.2429,25.4779
72.2422,25.4755
72.1960,25.3898
72.1960,25.3835
72.1852,25.3673
72.1827,25.3649
72.1826,25.3648
72.1825,25.3648
72.1418,25.3275
72.1400,25.3222
72.1246,25.3103
72.0327,25.2678
72.0261,25.2612
72.0127,25.2585
72.0105,25.2575
72.0095,25.2579
72.0070,25.2574
71.7278,25.2609
71.7177,25.2575
71.7044,25.2612
71.7022,25.2612
71.7013,25.2620
71.6989,25.2627
71.6132,25.3088
71.6069,25.3088
71.5907,25.3196
71.5884,25.3222
71.5883,25.3222
71.5882,25.3223
71.5509,25.3631
71.5457,25.3648
71.5337,25.3803
71.4912,25.4721
71.4846,25.4787
71.4819,25.4921
71.4809,25.4943
71.4813,25.4954
71.4808,25.4979
71.4842,25.6822
71.4809,25.6919
71.4846,25.7052
71.4846,25.7075
71.4854,25.7083
71.4861,25.7107
71.4998,25.7362
71.1783,25.7374
71.1513,25.7644
71.1513,25.8027
71.0364,25.8027
71.0364,24.9264
71.4808,24.9264
71.4846,25.0408
71.5117,25.0679
71.5499,25.0679
71.5770,25.0408
71.5808,25.0217
71.5782,24.9430
71.6135,24.8667
71.6138,24.8665
71.6492,24.8279
71.7291,24.7849
72.2166,24.7821
72.2437,24.7551
72.2437,24.7168
72.2166,24.6898
72.1975,24.6860
71.7252,24.6886
71.7177,24.6861
71.7083,24.6887
71.5117,24.6898
71.4846,24.7168
71.4846,24.7551
71.5117,24.7821
71.5308,24.7860
71.5563,24.7858
71.5509,24.7917
71.5457,24.7934
71.5337,24.8088
71.4912,24.9007
71.4846,24.9073
71.4819,24.9207
71.4809,24.9229
71.4813,24.9240
71.4808,24.9264
71.0364,24.9264
71.0364,24.0728
71.1476,24.0728
71.1547,24.0870
71.1597,24.1020
71.1630,24.1037
71.1647,24.1071
71.1817,24.1167
71.8886,24.3496
71.8926,24.3536
71.9007,24.3536
72.2010,24.4525
72.2352,24.4354
72.2473,24.3991
72.2302,24.3648
72.2133,24.3552
71.9615,24.2722
71.9584,23.8654
72.2302,23.7737
72.2473,23.7395
72.2352,23.7032
72.2010,23.6861
72.1817,23.6885
71.8956,23.7850
71.8926,23.7850
71.8911,23.7865
71.1973,24.0205
71.1939,24.0194
71.1801,24.0263
71.1647,24.0315
71.1630,24.0349
71.1597,24.0365
71.1547,24.0516
71.1476,24.0657
71.1488,24.0693
71.1476,24.0728
71.0364,24.0728
71.0364,23.5750
73.9685,23.5750
Z" /><path style="fill:#E8B2A7; fill-opacity:1.0000; stroke:none;fill-rule:evenodd;"
d="M 62.4249,26.8359
62.4249,27.3199
61.9409,27.3199
61.4570,27.3199
61.4570,26.8359
61.4570,26.3520
61.9409,26.3520
62.4249,26.3520
Z" /><path style="fill:#E8B2A7; fill-opacity:1.0000; stroke:none;fill-rule:evenodd;"
d="M 62.4249,33.9338
62.4249,34.4178
61.9409,34.4178
61.4570,34.4178
61.4570,33.9338
61.4570,33.4499
61.9409,33.4499
62.4249,33.4499
Z" /><path style="fill:#E8B2A7; fill-opacity:1.0000; stroke:none;fill-rule:evenodd;"
d="M 63.0701,28.4491
63.0701,28.6104
62.7475,28.6104
62.4249,28.6104
62.4249,28.4491
62.4249,28.2878
62.7475,28.2878
63.0701,28.2878
Z" /><path style="fill:#E8B2A7; fill-opacity:1.0000; stroke:none;fill-rule:evenodd;"
d="M 63.7154,34.5791
63.7154,34.7404
63.5541,34.7404
63.3928,34.7404
63.3928,34.5791
63.3928,34.4178
63.5541,34.4178
63.7154,34.4178
Z" /><path style="fill:#E8B2A7; fill-opacity:1.0000; stroke:none;fill-rule:evenodd;"
d="M 64.0380,34.9017
64.0380,35.0631
63.8767,35.0631
63.7154,35.0631
63.7154,34.9017
63.7154,34.7404
63.8767,34.7404
64.0380,34.7404
Z" /><path style="fill:#E8B2A7; fill-opacity:1.0000; stroke:none;fill-rule:evenodd;"
d="M 64.3607,32.3207
64.3607,32.4820
64.1994,32.4820
64.0380,32.4820
64.0380,32.3207
64.0380,32.1594
64.1994,32.1594
64.3607,32.1594
Z" /><path style="fill:#E8B2A7; fill-opacity:1.0000; stroke:none;fill-rule:evenodd;"
d="M 64.6833,27.1586
64.6833,27.3199
64.5220,27.3199
64.3607,27.3199
64.3607,27.1586
64.3607,26.9972
64.5220,26.9972
64.6833,26.9972
Z" /><path style="fill:#E8B2A7; fill-opacity:1.0000; stroke:none;fill-rule:evenodd;"
d="M 65.0059,27.8038
65.0059,27.9651
64.8446,27.9651
64.6833,27.9651
64.6833,27.8038
64.6833,27.6425
64.8446,27.6425
65.0059,27.6425
Z" /><path style="fill:#E8B2A7; fill-opacity:1.0000; stroke:none;fill-rule:evenodd;"
d="M 65.3286,34.9017
65.3286,35.0631
65.1673,35.0631
65.0059,35.0631
65.0059,34.9017
65.0059,34.7404
65.1673,34.7404
65.3286,34.7404
Z" /><path style="fill:#E8B2A7; fill-opacity:1.0000; stroke:none;fill-rule:evenodd;"
d="M 65.9738,28.7717
65.9738,28.9330
65.8125,28.9330
65.6512,28.9330
65.6512,28.7717
65.6512,28.6104
65.8125,28.6104
65.9738,28.6104
Z" /><path style="fill:#E8B2A7; fill-opacity:1.0000; stroke:none;fill-rule:evenodd;"
d="M 66.6191,34.9017
66.6191,35.0631
66.4578,35.0631
66.2965,35.0631
66.2965,34.9017
66.2965,34.7404
66.4578,34.7404
66.6191,34.7404
Z" /><path style="fill:#E8B2A7; fill-opacity:1.0000; stroke:none;fill-rule:evenodd;"
d="M 67.5870,27.8038
67.5870,27.9651
67.4257,27.9651
67.2644,27.9651
67.2644,27.8038
67.2644,27.6425
67.4257,27.6425
67.5870,27.6425
Z" /><path style="fill:#E8B2A7; fill-opacity:1.0000; stroke:none;fill-rule:evenodd;"
d="M 68.2323,28.4491
68.2323,28.6104
67.9096,28.6104
67.5870,28.6104
67.5870,28.4491
67.5870,28.2878
67.9096,28.2878
68.2323,28.2878
Z" /><path style="fill:#E8B2A7; fill-opacity:1.0000; stroke:none;fill-rule:evenodd;"
d="M 68.2323,32.9660
68.2323,33.1273
68.0710,33.1273
67.9096,33.1273
67.9096,32.9660
67.9096,32.8046
68.0710,32.8046
68.2323,32.8046
Z" /><path style="fill:#E8B2A7; fill-opacity:1.0000; stroke:none;fill-rule:evenodd;"
d="M 69.5228,26.8359
69.5228,27.3199
69.0388,27.3199
68.5549,27.3199
68.5549,26.8359
68.5549,26.3520
69.0388,26.3520
69.5228,26.3520
Z" /><path style="fill:#E8B2A7; fill-opacity:1.0000; stroke:none;fill-rule:evenodd;"
d="M 70.1681,28.4491
70.1681,28.6104
69.3615,28.6104
68.5549,28.6104
68.5549,28.4491
68.5549,28.2878
69.3615,28.2878
70.1681,28.2878
Z" /><path style="fill:#E8B2A7; fill-opacity:1.0000; stroke:none;fill-rule:evenodd;"
d="M 70.1681,31.0302
70.1681,31.5141
70.0067,31.5141
69.8454,31.5141
69.8454,31.0302
69.8454,30.5462
70.0067,30.5462
70.1681,30.5462
Z" /><path style="fill:#E8B2A7; fill-opacity:1.0000; stroke:none;fill-rule:evenodd;"
d="M 61.4570,31.6754
61.4570,31.8367
61.2957,31.8367
61.1343,31.8367
61.1343,31.9981
61.1343,32.1594
60.9730,32.1594
60.8117,32.1594
60.8117,31.9981
60.8117,31.8367
60.9730,31.8367
61.1343,31.8367
61.1343,31.6754
61.1343,31.5141
61.2957,31.5141
61.4570,31.5141
Z" /><path style="fill:#E8B2A7; fill-opacity:1.0000; stroke:none;fill-rule:evenodd;"
d="M 61.1343,25.7067
61.9409,25.7067
63.0701,25.7067
63.0701,26.8359
63.0701,27.9651
61.9409,27.9651
60.8117,27.9651
60.8117,26.8359
60.8117,26.0293
61.1343,26.0293
61.1343,26.8359
61.1343,27.6425
61.9409,27.6425
62.7475,27.6425
62.7475,26.8359
62.7475,26.0293
61.9409,26.0293
61.1343,26.0293
60.8117,26.0293
60.8117,25.7067
Z" /><path style="fill:#E8B2A7; fill-opacity:1.0000; stroke:none;fill-rule:evenodd;"
d="M 61.1343,32.8046
61.9409,32.8046
63.0701,32.8046
63.0701,33.9338
63.0701,35.0631
61.9409,35.0631
60.8117,35.0631
60.8117,33.9338
60.8117,33.1273
61.1343,33.1273
61.1343,33.9338
61.1343,34.7404
61.9409,34.7404
62.7475,34.7404
62.7475,33.9338
62.7475,33.1273
61.9409,33.1273
61.1343,33.1273
60.8117,33.1273
60.8117,32.8046
Z" /><path style="fill:#E8B2A7; fill-opacity:1.0000; stroke:none;fill-rule:evenodd;"
d="M 68.2323,25.7067
69.0388,25.7067
70.1681,25.7067
70.1681,26.8359
70.1681,27.9651
69.0388,27.9651
67.9096,27.9651
67.9096,26.8359
67.9096,26.0293
68.2323,26.0293
68.2323,26.8359
68.2323,27.6425
69.0388,27.6425
69.8454,27.6425
69.8454,26.8359
69.8454,26.0293
69.0388,26.0293
68.2323,26.0293
67.9096,26.0293
67.9096,25.7067
Z" /><path style="fill:#E8B2A7; fill-opacity:1.0000; stroke:none;fill-rule:evenodd;"
d="M 64.0380,31.0302
64.0380,31.1915
64.1994,31.1915
64.3607,31.1915
64.3607,31.0302
64.3607,30.8688
64.5220,30.8688
64.6833,30.8688
64.6833,31.0302
64.6833,31.1915
64.5220,31.1915
64.3607,31.1915
64.3607,31.5141
64.3607,31.8367
64.1994,31.8367
64.0380,31.8367
64.0380,31.9981
64.0380,32.1594
63.8767,32.1594
63.7154,32.1594
63.7154,31.9981
63.7154,31.8367
63.8767,31.8367
64.0380,31.8367
64.0380,31.5141
64.0380,31.1915
63.8767,31.1915
63.7154,31.1915
63.7154,31.0302
63.7154,30.8688
63.8767,30.8688
64.0380,30.8688
Z" /><path style="fill:#E8B2A7; fill-opacity:1.0000; stroke:none;fill-rule:evenodd;"
d="M 63.8767,32.8046
64.0380,32.8046
64.0380,33.1273
64.0380,33.4499
64.1994,33.4499
64.3607,33.4499
64.3607,33.6112
64.3607,33.7725
64.0380,33.7725
63.7154,33.7725
63.7154,33.9338
63.7154,34.0952
63.5541,34.0952
63.3928,34.0952
63.3928,33.9338
63.3928,33.7725
63.5541,33.7725
63.7154,33.7725
63.7154,33.6112
63.7154,33.4499
63.5541,33.4499
63.3928,33.4499
63.3928,33.2886
63.3928,33.1273
63.5541,33.1273
63.7154,33.1273
63.7154,32.9660
63.7154,32.8046
Z" /><path style="fill:#E8B2A7; fill-opacity:1.0000; stroke:none;fill-rule:evenodd;"
d="M 63.7154,32.4820
63.7154,32.8046
63.5541,32.8046
63.3928,32.8046
63.3928,32.4820
63.3928,32.1594
63.5541,32.1594
63.7154,32.1594
Z" /><path style="fill:#E8B2A7; fill-opacity:1.0000; stroke:none;fill-rule:evenodd;"
d="M 62.1022,31.5141
62.1022,31.8367
62.2636,31.8367
62.4249,31.8367
62.4249,31.6754
62.4249,31.5141
62.9088,31.5141
63.3928,31.5141
63.3928,31.3528
63.3928,31.1915
63.5541,31.1915
63.7154,31.1915
63.7154,31.5141
63.7154,31.8367
63.5541,31.8367
63.3928,31.8367
63.3928,31.9981
63.3928,32.1594
63.2315,32.1594
63.0701,32.1594
63.0701,32.3207
63.0701,32.4820
62.7475,32.4820
62.4249,32.4820
62.4249,32.3207
62.4249,32.1594
62.7475,32.1594
63.0701,32.1594
63.0701,31.9981
63.0701,31.8367
62.7475,31.8367
62.4249,31.8367
62.4249,31.9981
62.4249,32.1594
62.2636,32.1594
62.1022,32.1594
62.1022,32.3207
62.1022,32.4820
61.6183,32.4820
61.1343,32.4820
61.1343,32.3207
61.1343,32.1594
61.6183,32.1594
62.1022,32.1594
62.1022,31.9981
62.1022,31.8367
61.9409,31.8367
61.7796,31.8367
61.7796,31.5141
61.7796,31.1915
61.9409,31.1915
62.1022,31.1915
Z" /><path style="fill:#E8B2A7; fill-opacity:1.0000; stroke:none;fill-rule:evenodd;"
d="M 65.3286,29.9009
65.3286,30.2236
65.6512,30.2236
65.9738,30.2236
65.9738,30.0623
65.9738,29.9009
65.8125,29.9009
65.6512,29.9009
65.6512,29.7396
65.6512,29.5783
65.9738,29.5783
66.2965,29.5783
66.2965,30.0623
66.2965,30.5462
66.1352,30.5462
65.9738,30.5462
65.9738,30.7075
65.9738,30.8688
65.8125,30.8688
65.6512,30.8688
65.6512,31.1915
65.6512,31.5141
65.4899,31.5141
65.3286,31.5141
65.3286,31.3528
65.3286,31.1915
65.1673,31.1915
65.0059,31.1915
65.0059,31.5141
65.0059,31.8367
64.8446,31.8367
64.6833,31.8367
64.6833,31.5141
64.6833,31.1915
64.8446,31.1915
65.0059,31.1915
65.0059,31.0302
65.0059,30.8688
65.1673,30.8688
65.3286,30.8688
65.3286,30.5462
65.3286,30.2236
65.0059,30.2236
64.6833,30.2236
64.6833,30.0623
64.6833,29.9009
64.8446,29.9009
65.0059,29.9009
65.0059,29.7396
65.0059,29.5783
65.1673,29.5783
65.3286,29.5783
Z" /><path style="fill:#E8B2A7; fill-opacity:1.0000; stroke:none;fill-rule:evenodd;"
d="M 65.0059,25.8680
65.0059,26.0293
65.1673,26.0293
65.3286,26.0293
65.3286,25.8680
65.3286,25.7067
65.4899,25.7067
65.6512,25.7067
65.6512,25.8680
65.6512,26.0293
65.4899,26.0293
65.3286,26.0293
65.3286,26.1907
65.3286,26.3520
65.1673,26.3520
65.0059,26.3520
65.0059,26.6746
65.0059,26.9972
64.8446,26.9972
64.6833,26.9972
64.6833,26.6746
64.6833,26.3520
64.8446,26.3520
65.0059,26.3520
65.0059,26.1907
65.0059,26.0293
64.6833,26.0293
64.3607,26.0293
64.3607,26.1907
64.3607,26.3520
64.1994,26.3520
64.0380,26.3520
64.0380,26.1907
64.0380,26.0293
63.8767,26.0293
63.7154,26.0293
63.7154,26.5133
63.7154,26.9972
63.8767,26.9972
64.0380,26.9972
64.0380,27.1586
64.0380,27.3199
64.1994,27.3199
64.3607,27.3199
64.3607,27.9651
64.3607,28.6104
64.5220,28.6104
64.6833,28.6104
64.6833,28.4491
64.6833,28.2878
65.0059,28.2878
65.3286,28.2878
65.3286,27.9651
65.3286,27.6425
65.4899,27.6425
65.6512,27.6425
65.6512,28.1265
65.6512,28.6104
65.4899,28.6104
65.3286,28.6104
65.3286,28.9330
65.3286,29.2557
65.1673,29.2557
65.0059,29.2557
65.0059,29.0944
65.0059,28.9330
64.8446,28.9330
64.6833,28.9330
64.6833,29.0944
64.6833,29.2557
64.8446,29.2557
65.0059,29.2557
65.0059,29.4170
65.0059,29.5783
64.6833,29.5783
64.3607,29.5783
64.3607,29.9009
64.3607,30.2236
64.5220,30.2236
64.6833,30.2236
64.6833,30.3849
64.6833,30.5462
64.5220,30.5462
64.3607,30.5462
64.3607,30.7075
64.3607,30.8688
64.1994,30.8688
64.0380,30.8688
64.0380,30.5462
64.0380,30.2236
63.8767,30.2236
63.7154,30.2236
63.7154,30.3849
63.7154,30.5462
63.5541,30.5462
63.3928,30.5462
63.3928,30.2236
63.3928,29.9009
63.0701,29.9009
62.7475,29.9009
62.7475,30.0623
62.7475,30.2236
62.9088,30.2236
63.0701,30.2236
63.0701,30.3849
63.0701,30.5462
62.9088,30.5462
62.7475,30.5462
62.7475,30.7075
62.7475,30.8688
63.0701,30.8688
63.3928,30.8688
63.3928,31.0302
63.3928,31.1915
62.9088,31.1915
62.4249,31.1915
62.4249,30.7075
62.4249,30.2236
62.2636,30.2236
62.1022,30.2236
62.1022,30.3849
62.1022,30.5462
61.9409,30.5462
61.7796,30.5462
61.7796,30.8688
61.7796,31.1915
61.2957,31.1915
60.8117,31.1915
60.8117,31.0302
60.8117,30.8688
60.9730,30.8688
61.1343,30.8688
61.1343,30.7075
61.1343,30.5462
60.9730,30.5462
60.8117,30.5462
60.8117,30.3849
60.8117,30.2236
61.2957,30.2236
61.7796,30.2236
61.7796,30.0623
61.7796,29.9009
61.9409,29.9009
62.1022,29.9009
62.1022,29.7396
62.1022,29.5783
62.2636,29.5783
62.4249,29.5783
62.4249,29.7396
62.4249,29.9009
62.5862,29.9009
62.7475,29.9009
62.7475,29.7396
62.7475,29.5783
63.2315,29.5783
63.7154,29.5783
63.7154,29.7396
63.7154,29.9009
63.8767,29.9009
64.0380,29.9009
64.0380,29.5783
64.0380,29.2557
64.1994,29.2557
64.3607,29.2557
64.3607,29.0944
64.3607,28.9330
64.0380,28.9330
63.7154,28.9330
63.7154,29.0944
63.7154,29.2557
63.5541,29.2557
63.3928,29.2557
63.3928,28.4491
63.3928,27.6425
63.5541,27.6425
63.7154,27.6425
63.7154,28.1265
63.7154,28.6104
63.8767,28.6104
64.0380,28.6104
64.0380,28.1265
64.0380,27.6425
63.8767,27.6425
63.7154,27.6425
63.7154,27.4812
63.7154,27.3199
63.5541,27.3199
63.3928,27.3199
63.3928,26.5133
63.3928,25.7067
64.1994,25.7067
65.0059,25.7067
Z" /><path style="fill:#E8B2A7; fill-opacity:1.0000; stroke:none;fill-rule:evenodd;"
d="M 61.4570,28.4491
61.4570,28.6104
61.6183,28.6104
61.7796,28.6104
61.7796,28.4491
61.7796,28.2878
61.9409,28.2878
62.1022,28.2878
62.1022,28.6104
62.1022,28.9330
61.9409,28.9330
61.7796,28.9330
61.7796,29.0944
61.7796,29.2557
61.9409,29.2557
62.1022,29.2557
62.1022,29.0944
62.1022,28.9330
62.5862,28.9330
63.0701,28.9330
63.0701,29.0944
63.0701,29.2557
62.5862,29.2557
62.1022,29.2557
62.1022,29.4170
62.1022,29.5783
61.7796,29.5783
61.4570,29.5783
61.4570,29.7396
61.4570,29.9009
61.2957,29.9009
61.1343,29.9009
61.1343,29.5783
61.1343,29.2557
61.2957,29.2557
61.4570,29.2557
61.4570,29.0944
61.4570,28.9330
61.1343,28.9330
60.8117,28.9330
60.8117,28.7717
60.8117,28.6104
60.9730,28.6104
61.1343,28.6104
61.1343,28.4491
61.1343,28.2878
61.2957,28.2878
61.4570,28.2878
Z" /><path style="fill:#E8B2A7; fill-opacity:1.0000; stroke:none;fill-rule:evenodd;"
d="M 69.6841,29.2557
70.1681,29.2557
70.1681,29.5783
70.1681,29.9009
70.0067,29.9009
69.8454,29.9009
69.8454,29.7396
69.8454,29.5783
69.6841,29.5783
69.5228,29.5783
69.5228,29.9009
69.5228,30.2236
69.3615,30.2236
69.2002,30.2236
69.2002,30.3849
69.2002,30.5462
69.0388,30.5462
68.8775,30.5462
68.8775,30.7075
68.8775,30.8688
68.7162,30.8688
68.5549,30.8688
68.5549,31.0302
68.5549,31.1915
68.3936,31.1915
68.2323,31.1915
68.2323,31.0302
68.2323,30.8688
68.0710,30.8688
67.9096,30.8688
67.9096,31.0302
67.9096,31.1915
68.0710,31.1915
68.2323,31.1915
68.2323,31.3528
68.2323,31.5141
68.0710,31.5141
67.9096,31.5141
67.9096,31.6754
67.9096,31.8367
67.7483,31.8367
67.5870,31.8367
67.5870,31.9981
67.5870,32.1594
67.7483,32.1594
67.9096,32.1594
67.9096,31.9981
67.9096,31.8367
68.2323,31.8367
68.5549,31.8367
68.5549,31.9981
68.5549,32.1594
68.7162,32.1594
68.8775,32.1594
68.8775,31.8367
68.8775,31.5141
69.2002,31.5141
69.5228,31.5141
69.5228,31.8367
69.5228,32.1594
69.6841,32.1594
69.8454,32.1594
69.8454,31.9981
69.8454,31.8367
70.0067,31.8367
70.1681,31.8367
70.1681,31.9981
70.1681,32.1594
70.0067,32.1594
69.8454,32.1594
69.8454,32.4820
69.8454,32.8046
69.6841,32.8046
69.5228,32.8046
69.5228,32.9660
69.5228,33.1273
69.6841,33.1273
69.8454,33.1273
69.8454,32.9660
69.8454,32.8046
70.0067,32.8046
70.1681,32.8046
70.1681,33.2886
70.1681,33.7725
70.0067,33.7725
69.8454,33.7725
69.8454,33.9338
69.8454,34.0952
69.6841,34.0952
69.5228,34.0952
69.5228,34.2565
69.5228,34.4178
69.6841,34.4178
69.8454,34.4178
69.8454,34.2565
69.8454,34.0952
70.0067,34.0952
70.1681,34.0952
70.1681,34.2565
70.1681,34.4178
70.0067,34.4178
69.8454,34.4178
69.8454,34.5791
69.8454,34.7404
69.5228,34.7404
69.2002,34.7404
69.2002,34.9017
69.2002,35.0631
68.7162,35.0631
68.2323,35.0631
68.2323,34.9017
68.2323,34.7404
68.3936,34.7404
68.5549,34.7404
68.5549,34.4178
68.5549,34.0952
68.7162,34.0952
68.8775,34.0952
68.8775,33.9338
68.8775,33.7725
68.5549,33.7725
68.2323,33.7725
68.2323,34.0952
68.2323,34.4178
68.0710,34.4178
67.9096,34.4178
67.9096,34.7404
67.9096,35.0631
67.5870,35.0631
67.2644,35.0631
67.2644,34.9017
67.2644,34.7404
67.1031,34.7404
66.9417,34.7404
66.9417,34.5791
66.9417,34.4178
67.1031,34.4178
67.2644,34.4178
67.2644,34.2565
67.2644,34.0952
67.4257,34.0952
67.5870,34.0952
67.5870,33.9338
67.5870,33.7725
67.4257,33.7725
67.2644,33.7725
67.2644,33.4499
67.2644,33.1273
67.1031,33.1273
66.9417,33.1273
66.9417,33.4499
66.9417,33.7725
66.6191,33.7725
66.2965,33.7725
66.2965,33.9338
66.2965,34.0952
66.6191,34.0952
66.9417,34.0952
66.9417,34.2565
66.9417,34.4178
66.4578,34.4178
65.9738,34.4178
65.9738,34.5791
65.9738,34.7404
65.8125,34.7404
65.6512,34.7404
65.6512,34.5791
65.6512,34.4178
65.8125,34.4178
65.9738,34.4178
65.9738,34.0952
65.9738,33.7725
66.1352,33.7725
66.2965,33.7725
66.2965,33.6112
66.2965,33.4499
66.1352,33.4499
65.9738,33.4499
65.9738,33.6112
65.9738,33.7725
65.8125,33.7725
65.6512,33.7725
65.6512,34.0952
65.6512,34.4178
65.4899,34.4178
65.3286,34.4178
65.3286,34.0952
65.3286,33.7725
65.1673,33.7725
65.0059,33.7725
65.0059,34.0952
65.0059,34.4178
64.8446,34.4178
64.6833,34.4178
64.6833,34.5791
64.6833,34.7404
64.5220,34.7404
64.3607,34.7404
64.3607,34.5791
64.3607,34.4178
64.5220,34.4178
64.6833,34.4178
64.6833,34.2565
64.6833,34.0952
64.5220,34.0952
64.3607,34.0952
64.3607,33.9338
64.3607,33.7725
64.6833,33.7725
65.0059,33.7725
65.0059,32.8046
65.3286,32.8046
65.3286,33.1273
65.3286,33.4499
65.4899,33.4499
65.6512,33.4499
65.6512,33.1273
65.6512,32.8046
65.9738,32.8046
65.9738,32.9660
65.9738,33.1273
66.1352,33.1273
66.2965,33.1273
66.2965,32.9660
66.2965,32.8046
66.1352,32.8046
65.9738,32.8046
65.6512,32.8046
65.4899,32.8046
65.3286,32.8046
65.0059,32.8046
65.0059,32.4820
65.9738,32.4820
66.2965,32.4820
66.6191,32.4820
66.6191,32.6433
66.6191,32.8046
66.7804,32.8046
66.9417,32.8046
66.9417,32.6433
66.9417,32.4820
67.5870,32.4820
67.5870,32.9660
67.5870,33.4499
68.0710,33.4499
68.5549,33.4499
68.5549,32.9660
68.5549,32.4820
68.8775,32.4820
68.8775,33.1273
68.8775,33.7725
69.0388,33.7725
69.2002,33.7725
69.2002,33.4499
69.5228,33.4499
69.5228,33.6112
69.5228,33.7725
69.6841,33.7725
69.8454,33.7725
69.8454,33.6112
69.8454,33.4499
69.6841,33.4499
69.5228,33.4499
69.2002,33.4499
69.2002,33.1273
69.2002,32.4820
69.0388,32.4820
68.8775,32.4820
68.5549,32.4820
68.0710,32.4820
67.5870,32.4820
66.9417,32.4820
66.7804,32.4820
66.6191,32.4820
66.6191,32.3207
66.6191,32.1594
66.9417,32.1594
67.2644,32.1594
67.2644,31.6754
67.2644,31.1915
67.1031,31.1915
66.9417,31.1915
66.9417,31.3528
66.9417,31.5141
66.7804,31.5141
66.6191,31.5141
66.6191,31.3528
66.6191,31.1915
66.4578,31.1915
66.2965,31.1915
66.2965,31.5141
66.2965,31.8367
66.4578,31.8367
66.6191,31.8367
66.6191,31.9981
66.6191,32.1594
66.2965,32.1594
65.9738,32.1594
65.9738,32.3207
65.9738,32.4820
65.0059,32.4820
65.0059,31.8367
65.1673,31.8367
65.3286,31.8367
65.3286,31.9981
65.3286,32.1594
65.4899,32.1594
65.6512,32.1594
65.6512,31.9981
65.6512,31.8367
65.8125,31.8367
65.9738,31.8367
65.9738,31.5141
65.9738,31.1915
66.1352,31.1915
66.2965,31.1915
66.2965,31.0302
66.2965,30.8688
66.4578,30.8688
66.6191,30.8688
66.6191,30.7075
66.6191,30.5462
66.7804,30.5462
66.9417,30.5462
66.9417,30.3849
66.9417,30.2236
67.1031,30.2236
67.2644,30.2236
67.2644,30.0623
67.2644,29.9009
67.4257,29.9009
67.5870,29.9009
67.5870,29.7396
67.5870,29.5783
67.7483,29.5783
67.9096,29.5783
67.9096,29.7396
67.9096,29.9009
67.7483,29.9009
67.5870,29.9009
67.5870,30.3849
67.5870,30.8688
67.7483,30.8688
67.9096,30.8688
67.9096,30.7075
67.9096,30.5462
68.0710,30.5462
68.2323,30.5462
68.2323,30.3849
68.2323,30.2236
68.3936,30.2236
68.5549,30.2236
68.5549,30.0623
68.5549,29.9009
68.3936,29.9009
68.2323,29.9009
68.2323,29.7396
68.2323,29.5783
68.5549,29.5783
68.8775,29.5783
68.8775,29.9009
68.8775,30.2236
69.0388,30.2236
69.2002,30.2236
69.2002,29.7396
69.2002,29.2557
Z" /><path style="fill:#E8B2A7; fill-opacity:1.0000; stroke:none;fill-rule:evenodd;"
d="M 69.5228,30.7075
69.5228,30.8688
69.3615,30.8688
69.2002,30.8688
69.2002,31.0302
69.2002,31.1915
69.0388,31.1915
68.8775,31.1915
68.8775,31.3528
68.8775,31.5141
68.7162,31.5141
68.5549,31.5141
68.5549,31.3528
68.5549,31.1915
68.7162,31.1915
68.8775,31.1915
68.8775,31.0302
68.8775,30.8688
69.0388,30.8688
69.2002,30.8688
69.2002,30.7075
69.2002,30.5462
69.3615,30.5462
69.5228,30.5462
Z" /><path style="fill:#E8B2A7; fill-opacity:1.0000; stroke:none;fill-rule:evenodd;"
d="M 67.5870,25.8680
67.5870,26.0293
67.1031,26.0293
66.6191,26.0293
66.6191,26.5133
66.6191,26.9972
66.9417,26.9972
67.2644,26.9972
67.2644,26.8359
67.2644,26.6746
67.4257,26.6746
67.5870,26.6746
67.5870,26.9972
67.5870,27.3199
67.4257,27.3199
67.2644,27.3199
67.2644,27.4812
67.2644,27.6425
67.1031,27.6425
66.9417,27.6425
66.9417,27.8038
66.9417,27.9651
66.7804,27.9651
66.6191,27.9651
66.6191,28.1265
66.6191,28.2878
66.7804,28.2878
66.9417,28.2878
66.9417,28.4491
66.9417,28.6104
67.1031,28.6104
67.2644,28.6104
67.2644,28.7717
67.2644,28.9330
67.7483,28.9330
68.2323,28.9330
68.2323,29.0944
68.2323,29.2557
67.9096,29.2557
67.5870,29.2557
67.5870,29.4170
67.5870,29.5783
67.2644,29.5783
66.9417,29.5783
66.9417,29.9009
66.9417,30.2236
66.7804,30.2236
66.6191,30.2236
66.6191,29.7396
66.6191,29.2557
66.7804,29.2557
66.9417,29.2557
66.9417,29.0944
66.9417,28.9330
66.7804,28.9330
66.6191,28.9330
66.6191,29.0944
66.6191,29.2557
66.4578,29.2557
66.2965,29.2557
66.2965,28.7717
66.2965,28.2878
66.1352,28.2878
65.9738,28.2878
65.9738,27.9651
65.9738,27.6425
66.2965,27.6425
66.2965,27.8038
66.2965,27.9651
66.4578,27.9651
66.6191,27.9651
66.6191,27.8038
66.6191,27.6425
66.4578,27.6425
66.2965,27.6425
65.9738,27.6425
65.8125,27.6425
65.6512,27.6425
65.6512,27.4812
65.6512,27.3199
65.8125,27.3199
65.9738,27.3199
65.9738,27.1586
65.9738,26.9972
66.1352,26.9972
66.2965,26.9972
66.2965,27.1586
66.2965,27.3199
66.4578,27.3199
66.6191,27.3199
66.6191,27.1586
66.6191,26.9972
66.4578,26.9972
66.2965,26.9972
66.2965,26.8359
66.2965,26.6746
66.1352,26.6746
65.9738,26.6746
65.9738,26.8359
65.9738,26.9972
65.6512,26.9972
65.3286,26.9972
65.3286,27.1586
65.3286,27.3199
65.1673,27.3199
65.0059,27.3199
65.0059,27.1586
65.0059,26.9972
65.1673,26.9972
65.3286,26.9972
65.3286,26.8359
65.3286,26.6746
65.4899,26.6746
65.6512,26.6746
65.6512,26.5133
65.6512,26.3520
65.8125,26.3520
65.9738,26.3520
65.9738,26.0293
65.9738,25.7067
66.7804,25.7067
67.5870,25.7067
Z" /><path style="fill:#E8B2A7; fill-opacity:1.0000; stroke:none;fill-rule:evenodd;"
d="M 69.2002,29.0944
69.2002,29.2557
69.0388,29.2557
68.8775,29.2557
68.8775,29.0944
68.8775,28.9330
69.0388,28.9330
69.2002,28.9330
Z" /><path style="fill:#E8B2A7; fill-opacity:1.0000; stroke:none;fill-rule:evenodd;"
d="M 67.2644,26.5133
67.2644,26.6746
67.1031,26.6746
66.9417,26.6746
66.9417,26.5133
66.9417,26.3520
67.1031,26.3520
67.2644,26.3520
Z" /></g><g style="fill:none; stroke:#D0D2CD; stroke-width:0.0500; stroke-opacity:1; stroke-linecap:round; stroke-linejoin:round;"><path d="M7.8822 56.4135
L73.9478 56.4008
" /><path d="M75.7258 54.6228
L75.7258 3.7972
" /><path d="M75.7258 3.7972 A1.7780 1.7780 0.0 0 0 73.9478 2.0192" /><path d="M6.1042 54.6355 A1.7780 1.7780 0.0 0 0 7.8822 56.4135" /><path d="M7.8822 2.0320
L73.9478 2.0192
" /><path d="M6.1042 3.8100
L6.1042 54.6355
" /><path d="M7.8822 2.0320 A1.7780 1.7780 0.0 0 0 6.1042 3.8100" /><path d="M73.9478 56.4008 A1.7780 1.7780 0.0 0 0 75.7258 54.6228" /></g></svg>
